%TF.GenerationSoftware,KiCad,Pcbnew,9.0.6*%
%TF.CreationDate,2026-01-13T13:16:06-05:00*%
%TF.ProjectId,ephys-test-module-molex-504070-32,65706879-732d-4746-9573-742d6d6f6475,E*%
%TF.SameCoordinates,PX66ff300PY82a7440*%
%TF.FileFunction,Paste,Top*%
%TF.FilePolarity,Positive*%
%FSLAX46Y46*%
G04 Gerber Fmt 4.6, Leading zero omitted, Abs format (unit mm)*
G04 Created by KiCad (PCBNEW 9.0.6) date 2026-01-13 13:16:06*
%MOMM*%
%LPD*%
G01*
G04 APERTURE LIST*
G04 Aperture macros list*
%AMRoundRect*
0 Rectangle with rounded corners*
0 $1 Rounding radius*
0 $2 $3 $4 $5 $6 $7 $8 $9 X,Y pos of 4 corners*
0 Add a 4 corners polygon primitive as box body*
4,1,4,$2,$3,$4,$5,$6,$7,$8,$9,$2,$3,0*
0 Add four circle primitives for the rounded corners*
1,1,$1+$1,$2,$3*
1,1,$1+$1,$4,$5*
1,1,$1+$1,$6,$7*
1,1,$1+$1,$8,$9*
0 Add four rect primitives between the rounded corners*
20,1,$1+$1,$2,$3,$4,$5,0*
20,1,$1+$1,$4,$5,$6,$7,0*
20,1,$1+$1,$6,$7,$8,$9,0*
20,1,$1+$1,$8,$9,$2,$3,0*%
G04 Aperture macros list end*
%ADD10R,3.150000X1.000000*%
%ADD11RoundRect,0.135000X-0.135000X-0.185000X0.135000X-0.185000X0.135000X0.185000X-0.135000X0.185000X0*%
%ADD12RoundRect,0.150000X0.150000X-0.825000X0.150000X0.825000X-0.150000X0.825000X-0.150000X-0.825000X0*%
%ADD13R,0.500000X0.200000*%
%ADD14R,0.650000X0.270000*%
%ADD15RoundRect,0.140000X-0.170000X0.140000X-0.170000X-0.140000X0.170000X-0.140000X0.170000X0.140000X0*%
G04 APERTURE END LIST*
D10*
%TO.C,J3*%
X33475000Y21070000D03*
X38525000Y21070000D03*
X33475000Y18530000D03*
X38525000Y18530000D03*
%TD*%
D11*
%TO.C,R2*%
X14690000Y17000000D03*
X15710000Y17000000D03*
%TD*%
D10*
%TO.C,J1*%
X33625000Y13170000D03*
X38675000Y13170000D03*
X33625000Y10630000D03*
X38675000Y10630000D03*
%TD*%
D11*
%TO.C,R1*%
X13390000Y15900000D03*
X14410000Y15900000D03*
%TD*%
D12*
%TO.C,U1*%
X13295000Y8825000D03*
X14565000Y8825000D03*
X15835000Y8825000D03*
X17105000Y8825000D03*
X17105000Y13775000D03*
X15835000Y13775000D03*
X14565000Y13775000D03*
X13295000Y13775000D03*
%TD*%
D11*
%TO.C,R3*%
X16090000Y18200000D03*
X17110000Y18200000D03*
%TD*%
D13*
%TO.C,J2*%
X37550000Y31000000D03*
X34800000Y31200000D03*
X37550000Y31400000D03*
X34800000Y31600000D03*
X37550000Y31800000D03*
X34800000Y32000000D03*
X37550000Y32200000D03*
X34800000Y32400000D03*
X37550000Y32600000D03*
X34800000Y32800000D03*
X37550000Y33000000D03*
X34800000Y33200000D03*
X37550000Y33400000D03*
X34800000Y33600000D03*
X37550000Y33800000D03*
X34800000Y34000000D03*
X37550000Y34200000D03*
X34800000Y34400000D03*
X37550000Y34600000D03*
X34800000Y34800000D03*
X37550000Y35000000D03*
X34800000Y35200000D03*
X37550000Y35400000D03*
X34800000Y35600000D03*
X37550000Y35800000D03*
X34800000Y36000000D03*
X37550000Y36200000D03*
X34800000Y36400000D03*
X37550000Y36600000D03*
X34800000Y36800000D03*
X37550000Y37000000D03*
X34800000Y37200000D03*
X37550000Y37400000D03*
X34800000Y37599999D03*
X37550000Y37800000D03*
X34800000Y37999999D03*
X37550000Y38199999D03*
X34800000Y38400000D03*
X37550000Y38599999D03*
D14*
X37275000Y30579999D03*
X37275000Y39020001D03*
%TD*%
D15*
%TO.C,C1*%
X11700000Y11780000D03*
X11700000Y10820000D03*
%TD*%
M02*
