%TF.GenerationSoftware,KiCad,Pcbnew,9.0.3*%
%TF.CreationDate,2026-01-11T20:48:13+08:00*%
%TF.ProjectId,ephys-test-module-molex-504070-32,65706879-732d-4746-9573-742d6d6f6475,E*%
%TF.SameCoordinates,Original*%
%TF.FileFunction,Copper,L2,Bot*%
%TF.FilePolarity,Positive*%
%FSLAX46Y46*%
G04 Gerber Fmt 4.6, Leading zero omitted, Abs format (unit mm)*
G04 Created by KiCad (PCBNEW 9.0.3) date 2026-01-11 20:48:13*
%MOMM*%
%LPD*%
G01*
G04 APERTURE LIST*
%TA.AperFunction,SMDPad,CuDef*%
%ADD10R,0.800000X0.300000*%
%TD*%
%TA.AperFunction,ComponentPad*%
%ADD11C,4.800000*%
%TD*%
%TA.AperFunction,SMDPad,CuDef*%
%ADD12R,2.273000X0.410000*%
%TD*%
%TA.AperFunction,ViaPad*%
%ADD13C,0.500000*%
%TD*%
%TA.AperFunction,Conductor*%
%ADD14C,0.400000*%
%TD*%
%TA.AperFunction,Conductor*%
%ADD15C,0.200000*%
%TD*%
G04 APERTURE END LIST*
D10*
%TO.P,RN4,16,R1.2*%
%TO.N,/Headstage Interface/B9.E_{7}*%
X151550000Y-101100000D03*
%TO.P,RN4,15,R2.2*%
%TO.N,/Headstage Interface/B9.E_{6}*%
X151550000Y-100600000D03*
%TO.P,RN4,14,R3.2*%
%TO.N,/Headstage Interface/B9.E_{5}*%
X151550000Y-100100000D03*
%TO.P,RN4,13,R4.2*%
%TO.N,/Headstage Interface/B9.E_{4}*%
X151550000Y-99600000D03*
%TO.P,RN4,12,R5.2*%
%TO.N,/Headstage Interface/B9.E_{3}*%
X151550000Y-99100000D03*
%TO.P,RN4,11,R6.2*%
%TO.N,/Headstage Interface/B9.E_{2}*%
X151550000Y-98600000D03*
%TO.P,RN4,10,R7.2*%
%TO.N,/Headstage Interface/B9.E_{1}*%
X151550000Y-98100000D03*
%TO.P,RN4,9,R8.2*%
%TO.N,/Headstage Interface/B9.E_{0}*%
X151550000Y-97600000D03*
%TO.P,RN4,8,R8.1*%
%TO.N,/Headstage Interface/E15-*%
X149750000Y-97600000D03*
%TO.P,RN4,7,R7.1*%
%TO.N,/Headstage Interface/E14-*%
X149750000Y-98100000D03*
%TO.P,RN4,6,R6.1*%
%TO.N,/Headstage Interface/E13-*%
X149750000Y-98600000D03*
%TO.P,RN4,5,R5.1*%
%TO.N,/Headstage Interface/E12-*%
X149750000Y-99100000D03*
%TO.P,RN4,4,R4.1*%
%TO.N,/Headstage Interface/E11-*%
X149750000Y-99600000D03*
%TO.P,RN4,3,R3.1*%
%TO.N,/Headstage Interface/E10-*%
X149750000Y-100100000D03*
%TO.P,RN4,2,R2.1*%
%TO.N,/Headstage Interface/E9-*%
X149750000Y-100600000D03*
%TO.P,RN4,1,R1.1*%
%TO.N,/Headstage Interface/E8-*%
X149750000Y-101100000D03*
%TD*%
D11*
%TO.P,TP2,1,1*%
%TO.N,/Headstage Interface/NTC_{B}*%
X149150000Y-134000000D03*
%TD*%
%TO.P,TP1,1,1*%
%TO.N,/Headstage Interface/NTC_{A}*%
X139150000Y-134000000D03*
%TD*%
D10*
%TO.P,RN1,1,R1.1*%
%TO.N,/Headstage Interface/B6.E_{7}*%
X136850000Y-105800000D03*
%TO.P,RN1,2,R2.1*%
%TO.N,/Headstage Interface/B6.E_{6}*%
X136850000Y-105300000D03*
%TO.P,RN1,3,R3.1*%
%TO.N,/Headstage Interface/B6.E_{5}*%
X136850000Y-104800000D03*
%TO.P,RN1,4,R4.1*%
%TO.N,/Headstage Interface/B6.E_{4}*%
X136850000Y-104300000D03*
%TO.P,RN1,5,R5.1*%
%TO.N,/Headstage Interface/B6.E_{3}*%
X136850000Y-103800000D03*
%TO.P,RN1,6,R6.1*%
%TO.N,/Headstage Interface/B6.E_{2}*%
X136850000Y-103300000D03*
%TO.P,RN1,7,R7.1*%
%TO.N,/Headstage Interface/B6.E_{1}*%
X136850000Y-102800000D03*
%TO.P,RN1,8,R8.1*%
%TO.N,/Headstage Interface/B6.E_{0}*%
X136850000Y-102300000D03*
%TO.P,RN1,9,R8.2*%
%TO.N,/Headstage Interface/E7+*%
X138650000Y-102300000D03*
%TO.P,RN1,10,R7.2*%
%TO.N,/Headstage Interface/E6+*%
X138650000Y-102800000D03*
%TO.P,RN1,11,R6.2*%
%TO.N,/Headstage Interface/E5+*%
X138650000Y-103300000D03*
%TO.P,RN1,12,R5.2*%
%TO.N,/Headstage Interface/E4+*%
X138650000Y-103800000D03*
%TO.P,RN1,13,R4.2*%
%TO.N,/Headstage Interface/E3+*%
X138650000Y-104300000D03*
%TO.P,RN1,14,R3.2*%
%TO.N,/Headstage Interface/E2+*%
X138650000Y-104800000D03*
%TO.P,RN1,15,R2.2*%
%TO.N,/Headstage Interface/E1+*%
X138650000Y-105300000D03*
%TO.P,RN1,16,R1.2*%
%TO.N,/Headstage Interface/E0+*%
X138650000Y-105800000D03*
%TD*%
%TO.P,RN2,16,R1.2*%
%TO.N,/Headstage Interface/E8+*%
X138650000Y-101300000D03*
%TO.P,RN2,15,R2.2*%
%TO.N,/Headstage Interface/E9+*%
X138650000Y-100800000D03*
%TO.P,RN2,14,R3.2*%
%TO.N,/Headstage Interface/E10+*%
X138650000Y-100300000D03*
%TO.P,RN2,13,R4.2*%
%TO.N,/Headstage Interface/E11+*%
X138650000Y-99800000D03*
%TO.P,RN2,12,R5.2*%
%TO.N,/Headstage Interface/E12+*%
X138650000Y-99300000D03*
%TO.P,RN2,11,R6.2*%
%TO.N,/Headstage Interface/E13+*%
X138650000Y-98800000D03*
%TO.P,RN2,10,R7.2*%
%TO.N,/Headstage Interface/E14+*%
X138650000Y-98300000D03*
%TO.P,RN2,9,R8.2*%
%TO.N,/Headstage Interface/E15+*%
X138650000Y-97800000D03*
%TO.P,RN2,8,R8.1*%
%TO.N,/Headstage Interface/B5.E_{0}*%
X136850000Y-97800000D03*
%TO.P,RN2,7,R7.1*%
%TO.N,/Headstage Interface/B5.E_{1}*%
X136850000Y-98300000D03*
%TO.P,RN2,6,R6.1*%
%TO.N,/Headstage Interface/B5.E_{2}*%
X136850000Y-98800000D03*
%TO.P,RN2,5,R5.1*%
%TO.N,/Headstage Interface/B5.E_{3}*%
X136850000Y-99300000D03*
%TO.P,RN2,4,R4.1*%
%TO.N,/Headstage Interface/B5.E_{4}*%
X136850000Y-99800000D03*
%TO.P,RN2,3,R3.1*%
%TO.N,/Headstage Interface/B5.E_{5}*%
X136850000Y-100300000D03*
%TO.P,RN2,2,R2.1*%
%TO.N,/Headstage Interface/B5.E_{6}*%
X136850000Y-100800000D03*
%TO.P,RN2,1,R1.1*%
%TO.N,/Headstage Interface/B5.E_{7}*%
X136850000Y-101300000D03*
%TD*%
%TO.P,RN3,16,R1.2*%
%TO.N,/Headstage Interface/B10.E_{7}*%
X151550000Y-105600000D03*
%TO.P,RN3,15,R2.2*%
%TO.N,/Headstage Interface/B10.E_{6}*%
X151550000Y-105100000D03*
%TO.P,RN3,14,R3.2*%
%TO.N,/Headstage Interface/B10.E_{5}*%
X151550000Y-104600000D03*
%TO.P,RN3,13,R4.2*%
%TO.N,/Headstage Interface/B10.E_{4}*%
X151550000Y-104100000D03*
%TO.P,RN3,12,R5.2*%
%TO.N,/Headstage Interface/B10.E_{3}*%
X151550000Y-103600000D03*
%TO.P,RN3,11,R6.2*%
%TO.N,/Headstage Interface/B10.E_{2}*%
X151550000Y-103100000D03*
%TO.P,RN3,10,R7.2*%
%TO.N,/Headstage Interface/B10.E_{1}*%
X151550000Y-102600000D03*
%TO.P,RN3,9,R8.2*%
%TO.N,/Headstage Interface/B10.E_{0}*%
X151550000Y-102100000D03*
%TO.P,RN3,8,R8.1*%
%TO.N,/Headstage Interface/E7-*%
X149750000Y-102100000D03*
%TO.P,RN3,7,R7.1*%
%TO.N,/Headstage Interface/E6-*%
X149750000Y-102600000D03*
%TO.P,RN3,6,R6.1*%
%TO.N,/Headstage Interface/E5-*%
X149750000Y-103100000D03*
%TO.P,RN3,5,R5.1*%
%TO.N,/Headstage Interface/E4-*%
X149750000Y-103600000D03*
%TO.P,RN3,4,R4.1*%
%TO.N,/Headstage Interface/E3-*%
X149750000Y-104100000D03*
%TO.P,RN3,3,R3.1*%
%TO.N,/Headstage Interface/E2-*%
X149750000Y-104600000D03*
%TO.P,RN3,2,R2.1*%
%TO.N,/Headstage Interface/E1-*%
X149750000Y-105100000D03*
%TO.P,RN3,1,R1.1*%
%TO.N,/Headstage Interface/E0-*%
X149750000Y-105600000D03*
%TD*%
D11*
%TO.P,TP3,1,1*%
%TO.N,GND*%
X127100000Y-133900000D03*
%TD*%
D12*
%TO.P,J4,1,Pin_1*%
%TO.N,GND*%
X125863500Y-84400000D03*
%TO.P,J4,2,Pin_2*%
X120136500Y-84400000D03*
%TO.P,J4,3,Pin_3*%
X125863500Y-85200000D03*
%TO.P,J4,4,Pin_4*%
X120136500Y-85200000D03*
%TO.P,J4,5,Pin_5*%
%TO.N,/Headstage Interface/B4.E_{0}*%
X125863500Y-86000000D03*
%TO.P,J4,6,Pin_6*%
%TO.N,/Headstage Interface/B0.E_{0}*%
X120136500Y-86000000D03*
%TO.P,J4,7,Pin_7*%
%TO.N,/Headstage Interface/B4.E_{1}*%
X125863500Y-86800000D03*
%TO.P,J4,8,Pin_8*%
%TO.N,/Headstage Interface/B0.E_{1}*%
X120136500Y-86800000D03*
%TO.P,J4,9,Pin_9*%
%TO.N,/Headstage Interface/B4.E_{2}*%
X125863500Y-87600000D03*
%TO.P,J4,10,Pin_10*%
%TO.N,/Headstage Interface/B0.E_{2}*%
X120136500Y-87600000D03*
%TO.P,J4,11,Pin_11*%
%TO.N,/Headstage Interface/B4.E_{3}*%
X125863500Y-88400000D03*
%TO.P,J4,12,Pin_12*%
%TO.N,/Headstage Interface/B0.E_{3}*%
X120136500Y-88400000D03*
%TO.P,J4,13,Pin_13*%
%TO.N,/Headstage Interface/B4.E_{4}*%
X125863500Y-89200000D03*
%TO.P,J4,14,Pin_14*%
%TO.N,/Headstage Interface/B0.E_{4}*%
X120136500Y-89200000D03*
%TO.P,J4,15,Pin_15*%
%TO.N,/Headstage Interface/B4.E_{5}*%
X125863500Y-90000000D03*
%TO.P,J4,16,Pin_16*%
%TO.N,/Headstage Interface/B0.E_{5}*%
X120136500Y-90000000D03*
%TO.P,J4,17,Pin_17*%
%TO.N,/Headstage Interface/B4.E_{6}*%
X125863500Y-90800000D03*
%TO.P,J4,18,Pin_18*%
%TO.N,/Headstage Interface/B0.E_{6}*%
X120136500Y-90800000D03*
%TO.P,J4,19,Pin_19*%
%TO.N,/Headstage Interface/B4.E_{7}*%
X125863500Y-91600000D03*
%TO.P,J4,20,Pin_20*%
%TO.N,/Headstage Interface/B0.E_{7}*%
X120136500Y-91600000D03*
%TO.P,J4,21,Pin_21*%
%TO.N,GND*%
X125863500Y-92400000D03*
%TO.P,J4,22,Pin_22*%
X120136500Y-92400000D03*
%TO.P,J4,23,Pin_23*%
%TO.N,/Headstage Interface/B5.E_{0}*%
X125863500Y-93200000D03*
%TO.P,J4,24,Pin_24*%
%TO.N,/Headstage Interface/B1.E_{0}*%
X120136500Y-93200000D03*
%TO.P,J4,25,Pin_25*%
%TO.N,/Headstage Interface/B5.E_{1}*%
X125863500Y-94000000D03*
%TO.P,J4,26,Pin_26*%
%TO.N,/Headstage Interface/B1.E_{1}*%
X120136500Y-94000000D03*
%TO.P,J4,27,Pin_27*%
%TO.N,/Headstage Interface/B5.E_{2}*%
X125863500Y-94800000D03*
%TO.P,J4,28,Pin_28*%
%TO.N,/Headstage Interface/B1.E_{2}*%
X120136500Y-94800000D03*
%TO.P,J4,29,Pin_29*%
%TO.N,/Headstage Interface/B5.E_{3}*%
X125863500Y-95600000D03*
%TO.P,J4,30,Pin_30*%
%TO.N,/Headstage Interface/B1.E_{3}*%
X120136500Y-95600000D03*
%TO.P,J4,31,Pin_31*%
%TO.N,/Headstage Interface/B5.E_{4}*%
X125863500Y-96400000D03*
%TO.P,J4,32,Pin_32*%
%TO.N,/Headstage Interface/B1.E_{4}*%
X120136500Y-96400000D03*
%TO.P,J4,33,Pin_33*%
%TO.N,/Headstage Interface/B5.E_{5}*%
X125863500Y-97200000D03*
%TO.P,J4,34,Pin_34*%
%TO.N,/Headstage Interface/B1.E_{5}*%
X120136500Y-97200000D03*
%TO.P,J4,35,Pin_35*%
%TO.N,/Headstage Interface/B5.E_{6}*%
X125863500Y-98000000D03*
%TO.P,J4,36,Pin_36*%
%TO.N,/Headstage Interface/B1.E_{6}*%
X120136500Y-98000000D03*
%TO.P,J4,37,Pin_37*%
%TO.N,/Headstage Interface/B5.E_{7}*%
X125863500Y-98800000D03*
%TO.P,J4,38,Pin_38*%
%TO.N,/Headstage Interface/B1.E_{7}*%
X120136500Y-98800000D03*
%TO.P,J4,39,Pin_39*%
%TO.N,GND*%
X125863500Y-99600000D03*
%TO.P,J4,40,Pin_40*%
X120136500Y-99600000D03*
%TO.P,J4,41,Pin_41*%
%TO.N,/Headstage Interface/B6.E_{0}*%
X125863500Y-100400000D03*
%TO.P,J4,42,Pin_42*%
%TO.N,/Headstage Interface/B2.E_{0}*%
X120136500Y-100400000D03*
%TO.P,J4,43,Pin_43*%
%TO.N,/Headstage Interface/B6.E_{1}*%
X125863500Y-101200000D03*
%TO.P,J4,44,Pin_44*%
%TO.N,/Headstage Interface/B2.E_{1}*%
X120136500Y-101200000D03*
%TO.P,J4,45,Pin_45*%
%TO.N,/Headstage Interface/B6.E_{2}*%
X125863500Y-102000000D03*
%TO.P,J4,46,Pin_46*%
%TO.N,/Headstage Interface/B2.E_{2}*%
X120136500Y-102000000D03*
%TO.P,J4,47,Pin_47*%
%TO.N,/Headstage Interface/B6.E_{3}*%
X125863500Y-102800000D03*
%TO.P,J4,48,Pin_48*%
%TO.N,/Headstage Interface/B2.E_{3}*%
X120136500Y-102800000D03*
%TO.P,J4,49,Pin_49*%
%TO.N,/Headstage Interface/B6.E_{4}*%
X125863500Y-103600000D03*
%TO.P,J4,50,Pin_50*%
%TO.N,/Headstage Interface/B2.E_{4}*%
X120136500Y-103600000D03*
%TO.P,J4,51,Pin_51*%
%TO.N,/Headstage Interface/B6.E_{5}*%
X125863500Y-104400000D03*
%TO.P,J4,52,Pin_52*%
%TO.N,/Headstage Interface/B2.E_{5}*%
X120136500Y-104400000D03*
%TO.P,J4,53,Pin_53*%
%TO.N,/Headstage Interface/B6.E_{6}*%
X125863500Y-105200000D03*
%TO.P,J4,54,Pin_54*%
%TO.N,/Headstage Interface/B2.E_{6}*%
X120136500Y-105200000D03*
%TO.P,J4,55,Pin_55*%
%TO.N,/Headstage Interface/B6.E_{7}*%
X125863500Y-106000000D03*
%TO.P,J4,56,Pin_56*%
%TO.N,/Headstage Interface/B2.E_{7}*%
X120136500Y-106000000D03*
%TO.P,J4,57,Pin_57*%
%TO.N,GND*%
X125863500Y-106800000D03*
%TO.P,J4,58,Pin_58*%
X120136500Y-106800000D03*
%TO.P,J4,59,Pin_59*%
%TO.N,/Headstage Interface/B7.E_{0}*%
X125863500Y-107600000D03*
%TO.P,J4,60,Pin_60*%
%TO.N,/Headstage Interface/B3.E_{0}*%
X120136500Y-107600000D03*
%TO.P,J4,61,Pin_61*%
%TO.N,/Headstage Interface/B7.E_{1}*%
X125863500Y-108400000D03*
%TO.P,J4,62,Pin_62*%
%TO.N,/Headstage Interface/B3.E_{1}*%
X120136500Y-108400000D03*
%TO.P,J4,63,Pin_63*%
%TO.N,/Headstage Interface/B7.E_{2}*%
X125863500Y-109200000D03*
%TO.P,J4,64,Pin_64*%
%TO.N,/Headstage Interface/B3.E_{2}*%
X120136500Y-109200000D03*
%TO.P,J4,65,Pin_65*%
%TO.N,/Headstage Interface/B7.E_{3}*%
X125863500Y-110000000D03*
%TO.P,J4,66,Pin_66*%
%TO.N,/Headstage Interface/B3.E_{3}*%
X120136500Y-110000000D03*
%TO.P,J4,67,Pin_67*%
%TO.N,/Headstage Interface/B7.E_{4}*%
X125863500Y-110800000D03*
%TO.P,J4,68,Pin_68*%
%TO.N,/Headstage Interface/B3.E_{4}*%
X120136500Y-110800000D03*
%TO.P,J4,69,Pin_69*%
%TO.N,/Headstage Interface/B7.E_{5}*%
X125863500Y-111600000D03*
%TO.P,J4,70,Pin_70*%
%TO.N,/Headstage Interface/B3.E_{5}*%
X120136500Y-111600000D03*
%TO.P,J4,71,Pin_71*%
%TO.N,/Headstage Interface/B7.E_{6}*%
X125863500Y-112400000D03*
%TO.P,J4,72,Pin_72*%
%TO.N,/Headstage Interface/B3.E_{6}*%
X120136500Y-112400000D03*
%TO.P,J4,73,Pin_73*%
%TO.N,/Headstage Interface/B7.E_{7}*%
X125863500Y-113200000D03*
%TO.P,J4,74,Pin_74*%
%TO.N,/Headstage Interface/B3.E_{7}*%
X120136500Y-113200000D03*
%TO.P,J4,75,Pin_75*%
%TO.N,GND*%
X125863500Y-114000000D03*
%TO.P,J4,76,Pin_76*%
X120136500Y-114000000D03*
%TO.P,J4,77,Pin_77*%
%TO.N,/Test Signal Interface/SCL*%
X125863500Y-114800000D03*
%TO.P,J4,78,Pin_78*%
%TO.N,/Test Signal Interface/WP*%
X120136500Y-114800000D03*
%TO.P,J4,79,Pin_79*%
%TO.N,/Test Signal Interface/SDA*%
X125863500Y-115600000D03*
%TO.P,J4,80,Pin_80*%
%TO.N,VCC*%
X120136500Y-115600000D03*
%TD*%
%TO.P,J5,1,Pin_1*%
%TO.N,GND*%
X195863500Y-84400000D03*
%TO.P,J5,2,Pin_2*%
X190136500Y-84400000D03*
%TO.P,J5,3,Pin_3*%
X195863500Y-85200000D03*
%TO.P,J5,4,Pin_4*%
X190136500Y-85200000D03*
%TO.P,J5,5,Pin_5*%
%TO.N,/Headstage Interface/B12.E_{0}*%
X195863500Y-86000000D03*
%TO.P,J5,6,Pin_6*%
%TO.N,/Headstage Interface/B8.E_{0}*%
X190136500Y-86000000D03*
%TO.P,J5,7,Pin_7*%
%TO.N,/Headstage Interface/B12.E_{1}*%
X195863500Y-86800000D03*
%TO.P,J5,8,Pin_8*%
%TO.N,/Headstage Interface/B8.E_{1}*%
X190136500Y-86800000D03*
%TO.P,J5,9,Pin_9*%
%TO.N,/Headstage Interface/B12.E_{2}*%
X195863500Y-87600000D03*
%TO.P,J5,10,Pin_10*%
%TO.N,/Headstage Interface/B8.E_{2}*%
X190136500Y-87600000D03*
%TO.P,J5,11,Pin_11*%
%TO.N,/Headstage Interface/B12.E_{3}*%
X195863500Y-88400000D03*
%TO.P,J5,12,Pin_12*%
%TO.N,/Headstage Interface/B8.E_{3}*%
X190136500Y-88400000D03*
%TO.P,J5,13,Pin_13*%
%TO.N,/Headstage Interface/B12.E_{4}*%
X195863500Y-89200000D03*
%TO.P,J5,14,Pin_14*%
%TO.N,/Headstage Interface/B8.E_{4}*%
X190136500Y-89200000D03*
%TO.P,J5,15,Pin_15*%
%TO.N,/Headstage Interface/B12.E_{5}*%
X195863500Y-90000000D03*
%TO.P,J5,16,Pin_16*%
%TO.N,/Headstage Interface/B8.E_{5}*%
X190136500Y-90000000D03*
%TO.P,J5,17,Pin_17*%
%TO.N,/Headstage Interface/B12.E_{6}*%
X195863500Y-90800000D03*
%TO.P,J5,18,Pin_18*%
%TO.N,/Headstage Interface/B8.E_{6}*%
X190136500Y-90800000D03*
%TO.P,J5,19,Pin_19*%
%TO.N,/Headstage Interface/B12.E_{7}*%
X195863500Y-91600000D03*
%TO.P,J5,20,Pin_20*%
%TO.N,/Headstage Interface/B8.E_{7}*%
X190136500Y-91600000D03*
%TO.P,J5,21,Pin_21*%
%TO.N,GND*%
X195863500Y-92400000D03*
%TO.P,J5,22,Pin_22*%
X190136500Y-92400000D03*
%TO.P,J5,23,Pin_23*%
%TO.N,/Headstage Interface/B13.E_{0}*%
X195863500Y-93200000D03*
%TO.P,J5,24,Pin_24*%
%TO.N,/Headstage Interface/B9.E_{0}*%
X190136500Y-93200000D03*
%TO.P,J5,25,Pin_25*%
%TO.N,/Headstage Interface/B13.E_{1}*%
X195863500Y-94000000D03*
%TO.P,J5,26,Pin_26*%
%TO.N,/Headstage Interface/B9.E_{1}*%
X190136500Y-94000000D03*
%TO.P,J5,27,Pin_27*%
%TO.N,/Headstage Interface/B13.E_{2}*%
X195863500Y-94800000D03*
%TO.P,J5,28,Pin_28*%
%TO.N,/Headstage Interface/B9.E_{2}*%
X190136500Y-94800000D03*
%TO.P,J5,29,Pin_29*%
%TO.N,/Headstage Interface/B13.E_{3}*%
X195863500Y-95600000D03*
%TO.P,J5,30,Pin_30*%
%TO.N,/Headstage Interface/B9.E_{3}*%
X190136500Y-95600000D03*
%TO.P,J5,31,Pin_31*%
%TO.N,/Headstage Interface/B13.E_{4}*%
X195863500Y-96400000D03*
%TO.P,J5,32,Pin_32*%
%TO.N,/Headstage Interface/B9.E_{4}*%
X190136500Y-96400000D03*
%TO.P,J5,33,Pin_33*%
%TO.N,/Headstage Interface/B13.E_{5}*%
X195863500Y-97200000D03*
%TO.P,J5,34,Pin_34*%
%TO.N,/Headstage Interface/B9.E_{5}*%
X190136500Y-97200000D03*
%TO.P,J5,35,Pin_35*%
%TO.N,/Headstage Interface/B13.E_{6}*%
X195863500Y-98000000D03*
%TO.P,J5,36,Pin_36*%
%TO.N,/Headstage Interface/B9.E_{6}*%
X190136500Y-98000000D03*
%TO.P,J5,37,Pin_37*%
%TO.N,/Headstage Interface/B13.E_{7}*%
X195863500Y-98800000D03*
%TO.P,J5,38,Pin_38*%
%TO.N,/Headstage Interface/B9.E_{7}*%
X190136500Y-98800000D03*
%TO.P,J5,39,Pin_39*%
%TO.N,GND*%
X195863500Y-99600000D03*
%TO.P,J5,40,Pin_40*%
X190136500Y-99600000D03*
%TO.P,J5,41,Pin_41*%
%TO.N,/Headstage Interface/B14.E_{0}*%
X195863500Y-100400000D03*
%TO.P,J5,42,Pin_42*%
%TO.N,/Headstage Interface/B10.E_{0}*%
X190136500Y-100400000D03*
%TO.P,J5,43,Pin_43*%
%TO.N,/Headstage Interface/B14.E_{1}*%
X195863500Y-101200000D03*
%TO.P,J5,44,Pin_44*%
%TO.N,/Headstage Interface/B10.E_{1}*%
X190136500Y-101200000D03*
%TO.P,J5,45,Pin_45*%
%TO.N,/Headstage Interface/B14.E_{2}*%
X195863500Y-102000000D03*
%TO.P,J5,46,Pin_46*%
%TO.N,/Headstage Interface/B10.E_{2}*%
X190136500Y-102000000D03*
%TO.P,J5,47,Pin_47*%
%TO.N,/Headstage Interface/B14.E_{3}*%
X195863500Y-102800000D03*
%TO.P,J5,48,Pin_48*%
%TO.N,/Headstage Interface/B10.E_{3}*%
X190136500Y-102800000D03*
%TO.P,J5,49,Pin_49*%
%TO.N,/Headstage Interface/B14.E_{4}*%
X195863500Y-103600000D03*
%TO.P,J5,50,Pin_50*%
%TO.N,/Headstage Interface/B10.E_{4}*%
X190136500Y-103600000D03*
%TO.P,J5,51,Pin_51*%
%TO.N,/Headstage Interface/B14.E_{5}*%
X195863500Y-104400000D03*
%TO.P,J5,52,Pin_52*%
%TO.N,/Headstage Interface/B10.E_{5}*%
X190136500Y-104400000D03*
%TO.P,J5,53,Pin_53*%
%TO.N,/Headstage Interface/B14.E_{6}*%
X195863500Y-105200000D03*
%TO.P,J5,54,Pin_54*%
%TO.N,/Headstage Interface/B10.E_{6}*%
X190136500Y-105200000D03*
%TO.P,J5,55,Pin_55*%
%TO.N,/Headstage Interface/B14.E_{7}*%
X195863500Y-106000000D03*
%TO.P,J5,56,Pin_56*%
%TO.N,/Headstage Interface/B10.E_{7}*%
X190136500Y-106000000D03*
%TO.P,J5,57,Pin_57*%
%TO.N,GND*%
X195863500Y-106800000D03*
%TO.P,J5,58,Pin_58*%
X190136500Y-106800000D03*
%TO.P,J5,59,Pin_59*%
%TO.N,/Headstage Interface/B15.E_{0}*%
X195863500Y-107600000D03*
%TO.P,J5,60,Pin_60*%
%TO.N,/Headstage Interface/B11.E_{0}*%
X190136500Y-107600000D03*
%TO.P,J5,61,Pin_61*%
%TO.N,/Headstage Interface/B15.E_{1}*%
X195863500Y-108400000D03*
%TO.P,J5,62,Pin_62*%
%TO.N,/Headstage Interface/B11.E_{1}*%
X190136500Y-108400000D03*
%TO.P,J5,63,Pin_63*%
%TO.N,/Headstage Interface/B15.E_{2}*%
X195863500Y-109200000D03*
%TO.P,J5,64,Pin_64*%
%TO.N,/Headstage Interface/B11.E_{2}*%
X190136500Y-109200000D03*
%TO.P,J5,65,Pin_65*%
%TO.N,/Headstage Interface/B15.E_{3}*%
X195863500Y-110000000D03*
%TO.P,J5,66,Pin_66*%
%TO.N,/Headstage Interface/B11.E_{3}*%
X190136500Y-110000000D03*
%TO.P,J5,67,Pin_67*%
%TO.N,/Headstage Interface/B15.E_{4}*%
X195863500Y-110800000D03*
%TO.P,J5,68,Pin_68*%
%TO.N,/Headstage Interface/B11.E_{4}*%
X190136500Y-110800000D03*
%TO.P,J5,69,Pin_69*%
%TO.N,/Headstage Interface/B15.E_{5}*%
X195863500Y-111600000D03*
%TO.P,J5,70,Pin_70*%
%TO.N,/Headstage Interface/B11.E_{5}*%
X190136500Y-111600000D03*
%TO.P,J5,71,Pin_71*%
%TO.N,/Headstage Interface/B15.E_{6}*%
X195863500Y-112400000D03*
%TO.P,J5,72,Pin_72*%
%TO.N,/Headstage Interface/B11.E_{6}*%
X190136500Y-112400000D03*
%TO.P,J5,73,Pin_73*%
%TO.N,/Headstage Interface/B15.E_{7}*%
X195863500Y-113200000D03*
%TO.P,J5,74,Pin_74*%
%TO.N,/Headstage Interface/B11.E_{7}*%
X190136500Y-113200000D03*
%TO.P,J5,75,Pin_75*%
%TO.N,GND*%
X195863500Y-114000000D03*
%TO.P,J5,76,Pin_76*%
X190136500Y-114000000D03*
%TO.P,J5,77,Pin_77*%
%TO.N,unconnected-(J5-Pin_77-Pad77)*%
X195863500Y-114800000D03*
%TO.P,J5,78,Pin_78*%
%TO.N,unconnected-(J5-Pin_78-Pad78)*%
X190136500Y-114800000D03*
%TO.P,J5,79,Pin_79*%
%TO.N,unconnected-(J5-Pin_79-Pad79)*%
X195863500Y-115600000D03*
%TO.P,J5,80,Pin_80*%
%TO.N,unconnected-(J5-Pin_80-Pad80)*%
X190136500Y-115600000D03*
%TD*%
D13*
%TO.N,GND*%
X130900000Y-121200000D03*
X115400000Y-109800000D03*
X194600000Y-133100000D03*
X205000000Y-100800000D03*
X209200000Y-123300000D03*
X114100000Y-70800000D03*
X123200000Y-125700000D03*
X161700000Y-132600000D03*
X159800000Y-85300000D03*
X160600000Y-96400000D03*
X193000000Y-88000000D03*
X192900000Y-115200000D03*
X123240915Y-91167745D03*
X145500000Y-111700000D03*
X143700000Y-105000000D03*
%TO.N,/Headstage Interface/REF*%
X141500000Y-117200000D03*
%TO.N,GND*%
X131100000Y-101750000D03*
X141750000Y-106500000D03*
X144050000Y-129300000D03*
X135505000Y-124107000D03*
X135850000Y-117200000D03*
X143400000Y-111200000D03*
X128800000Y-92400000D03*
X150650000Y-114300000D03*
X126550000Y-99625000D03*
X145430000Y-121200000D03*
X123000000Y-110600000D03*
%TO.N,/Headstage Interface/E10+*%
X140550000Y-100300000D03*
%TO.N,GND*%
X155000000Y-117000000D03*
%TO.N,/Headstage Interface/E15+*%
X139950000Y-97800000D03*
%TO.N,/Headstage Interface/E13+*%
X139950000Y-98800000D03*
%TO.N,GND*%
X132300000Y-133000000D03*
%TO.N,/Headstage Interface/E5+*%
X139950000Y-103300000D03*
%TO.N,GND*%
X164800000Y-110700000D03*
X135700000Y-96675000D03*
X127200000Y-124800000D03*
X135800000Y-112400000D03*
X141750000Y-97400000D03*
X137250000Y-107100000D03*
%TO.N,/Headstage Interface/E12+*%
X140550000Y-99300000D03*
%TO.N,/Headstage Interface/E0+*%
X140550000Y-105800000D03*
%TO.N,/Headstage Interface/REF*%
X144650000Y-105000000D03*
%TO.N,/Headstage Interface/E14+*%
X140550000Y-98300000D03*
%TO.N,/Headstage Interface/E1+*%
X139950000Y-105300000D03*
%TO.N,/Headstage Interface/E9+*%
X139950000Y-100800000D03*
%TO.N,/Headstage Interface/E6+*%
X140550000Y-102800000D03*
%TO.N,/Headstage Interface/E3+*%
X139950000Y-104300000D03*
%TO.N,/Headstage Interface/E11+*%
X139950000Y-99800000D03*
%TO.N,/Headstage Interface/E2+*%
X140550000Y-104800000D03*
%TO.N,/Headstage Interface/E7+*%
X139950000Y-102300000D03*
%TO.N,/Headstage Interface/E4+*%
X140550000Y-103800000D03*
%TO.N,/Headstage Interface/E8+*%
X140550000Y-101300000D03*
%TO.N,/Headstage Interface/E7-*%
X148450000Y-102100000D03*
%TO.N,/Headstage Interface/E4-*%
X147850000Y-103600000D03*
%TO.N,/Headstage Interface/E3-*%
X148450000Y-104100000D03*
%TO.N,/Headstage Interface/E2-*%
X147850000Y-104600000D03*
%TO.N,/Headstage Interface/E11-*%
X148450000Y-99600000D03*
%TO.N,/Headstage Interface/E6-*%
X147850000Y-102600000D03*
%TO.N,/Headstage Interface/E8-*%
X147850000Y-101100000D03*
%TO.N,GND*%
X149150000Y-101600000D03*
X144750000Y-93700000D03*
X139250000Y-101800000D03*
%TO.N,/Headstage Interface/E5-*%
X148450000Y-103100000D03*
%TO.N,/Headstage Interface/E0-*%
X147850000Y-105600000D03*
%TO.N,/Headstage Interface/E14-*%
X147850000Y-98100000D03*
%TO.N,/Headstage Interface/E1-*%
X148450000Y-105100000D03*
%TO.N,/Headstage Interface/E9-*%
X148450000Y-100600000D03*
%TO.N,/Headstage Interface/E12-*%
X147850000Y-99100000D03*
%TO.N,/Headstage Interface/E15-*%
X148450000Y-97600000D03*
%TO.N,/Headstage Interface/E13-*%
X148450000Y-98600000D03*
%TO.N,/Headstage Interface/E10-*%
X147850000Y-100100000D03*
%TO.N,/Headstage Interface/NTC_{A}*%
X141630000Y-122500000D03*
X144500000Y-107500000D03*
X141650000Y-127700000D03*
%TO.N,GND*%
X143650000Y-98000000D03*
%TO.N,/Headstage Interface/NTC_{B}*%
X146650000Y-127700000D03*
X146630000Y-122600000D03*
X146450000Y-107700000D03*
%TO.N,/Headstage Interface/REF*%
X144650000Y-98700000D03*
%TO.N,GND*%
X145650000Y-107400000D03*
X146350000Y-97400000D03*
X164800000Y-123200000D03*
X179700000Y-132600000D03*
X175300000Y-106800000D03*
X176800000Y-92450000D03*
X178500000Y-101300000D03*
X175981000Y-114462000D03*
X143600000Y-118325000D03*
X172600000Y-96800000D03*
X181725000Y-99675000D03*
X153700000Y-107800000D03*
%TO.N,/Headstage Interface/REF*%
X141500000Y-114600000D03*
%TO.N,GND*%
X110000000Y-102800000D03*
X208500000Y-132900000D03*
X110400000Y-80800000D03*
X128900000Y-99600000D03*
X111500000Y-118500000D03*
X187500000Y-92500000D03*
X135000000Y-80800000D03*
X173525000Y-84750000D03*
X140400000Y-71600000D03*
X111700000Y-133300000D03*
X187200000Y-99600000D03*
X209800000Y-106600000D03*
X185500000Y-82800000D03*
X187500000Y-106800000D03*
X111000000Y-93800000D03*
X207200000Y-75300000D03*
X162300000Y-71700000D03*
X129125000Y-85075000D03*
X187904000Y-114173000D03*
X145100000Y-84400000D03*
X185400000Y-123400000D03*
X209500000Y-90200000D03*
X129000000Y-107000000D03*
X129400000Y-114750000D03*
X197300000Y-70800000D03*
X182200000Y-71500000D03*
%TO.N,VCC*%
X120800000Y-121000000D03*
X123450000Y-118350000D03*
X119700000Y-124200000D03*
X119700000Y-123700000D03*
X122200000Y-119600000D03*
%TO.N,/Test Signal Interface/SDA*%
X125863500Y-116536500D03*
X125100000Y-120900000D03*
X125100000Y-119500000D03*
%TO.N,/Test Signal Interface/SCL*%
X127700000Y-115400000D03*
%TO.N,/Test Signal Interface/WP*%
X118100000Y-116100000D03*
%TD*%
D14*
%TO.N,/Headstage Interface/NTC_{A}*%
X144500000Y-119630000D02*
X141630000Y-122500000D01*
X144500000Y-107500000D02*
X144500000Y-119630000D01*
%TO.N,/Headstage Interface/REF*%
X142900000Y-108900000D02*
X142900000Y-106750000D01*
X141500000Y-110300000D02*
X142900000Y-108900000D01*
X142900000Y-106750000D02*
X144650000Y-105000000D01*
X141500000Y-114600000D02*
X141500000Y-110300000D01*
X141500000Y-114600000D02*
X141500000Y-117200000D01*
%TO.N,/Headstage Interface/NTC_{B}*%
X146650000Y-131500000D02*
X146650000Y-108300000D01*
%TO.N,/Headstage Interface/NTC_{A}*%
X141650000Y-127700000D02*
X141650000Y-131500000D01*
%TO.N,/Headstage Interface/NTC_{B}*%
X146650000Y-108300000D02*
X146450000Y-108100000D01*
X146450000Y-108100000D02*
X146450000Y-107700000D01*
D15*
%TO.N,/Headstage Interface/B5.E_{7}*%
X131887180Y-101300000D02*
X136850000Y-101300000D01*
%TO.N,/Headstage Interface/B5.E_{6}*%
X132287178Y-100800000D02*
X136850000Y-100800000D01*
%TO.N,/Headstage Interface/B5.E_{5}*%
X132687176Y-100300000D02*
X136850000Y-100300000D01*
%TO.N,/Headstage Interface/B5.E_{4}*%
X133287178Y-99800000D02*
X136850000Y-99800000D01*
%TO.N,/Headstage Interface/B5.E_{3}*%
X133887178Y-99300000D02*
X136850000Y-99300000D01*
%TO.N,/Headstage Interface/B5.E_{2}*%
X134487176Y-98800000D02*
X136850000Y-98800000D01*
%TO.N,/Headstage Interface/B5.E_{1}*%
X135100004Y-98300000D02*
X136850000Y-98300000D01*
%TO.N,/Headstage Interface/B5.E_{0}*%
X135700002Y-97800000D02*
X136850000Y-97800000D01*
%TO.N,/Headstage Interface/B5.E_{7}*%
X129387180Y-98800000D02*
X125863500Y-98800000D01*
X131887180Y-101300000D02*
X129387180Y-98800000D01*
%TO.N,/Headstage Interface/B5.E_{6}*%
X129487178Y-98000000D02*
X125863500Y-98000000D01*
X132287178Y-100800000D02*
X129487178Y-98000000D01*
%TO.N,/Headstage Interface/B5.E_{5}*%
X129587176Y-97200000D02*
X125863500Y-97200000D01*
X132687176Y-100300000D02*
X129587176Y-97200000D01*
%TO.N,/Headstage Interface/B5.E_{4}*%
X133287178Y-99800000D02*
X129887178Y-96400000D01*
X129887178Y-96400000D02*
X125863500Y-96400000D01*
%TO.N,/Headstage Interface/B5.E_{3}*%
X130187178Y-95600000D02*
X125863500Y-95600000D01*
X133887178Y-99300000D02*
X130187178Y-95600000D01*
%TO.N,/Headstage Interface/B5.E_{2}*%
X130487176Y-94800000D02*
X125863500Y-94800000D01*
X134487176Y-98800000D02*
X130487176Y-94800000D01*
%TO.N,/Headstage Interface/B5.E_{1}*%
X130800004Y-94000000D02*
X125863500Y-94000000D01*
X135100004Y-98300000D02*
X130800004Y-94000000D01*
%TO.N,/Headstage Interface/B5.E_{0}*%
X131100002Y-93200000D02*
X125863500Y-93200000D01*
X135700002Y-97800000D02*
X131100002Y-93200000D01*
%TO.N,/Headstage Interface/B6.E_{1}*%
X130000000Y-102800000D02*
X136850000Y-102800000D01*
%TO.N,/Headstage Interface/B6.E_{2}*%
X129399998Y-103300000D02*
X136850000Y-103300000D01*
%TO.N,/Headstage Interface/B6.E_{3}*%
X128799994Y-103800000D02*
X136850000Y-103800000D01*
%TO.N,/Headstage Interface/B6.E_{4}*%
X128199996Y-104300000D02*
X136850000Y-104300000D01*
%TO.N,/Headstage Interface/B6.E_{5}*%
X127899996Y-104800000D02*
X136850000Y-104800000D01*
%TO.N,/Headstage Interface/B6.E_{7}*%
X127600000Y-105800000D02*
X136850000Y-105800000D01*
X127400000Y-106000000D02*
X125863500Y-106000000D01*
%TO.N,/Headstage Interface/B6.E_{6}*%
X127599996Y-105300000D02*
X136850000Y-105300000D01*
X127499996Y-105200000D02*
X125863500Y-105200000D01*
%TO.N,/Headstage Interface/B6.E_{5}*%
X127499996Y-104400000D02*
X125863500Y-104400000D01*
X127899996Y-104800000D02*
X127499996Y-104400000D01*
%TO.N,/Headstage Interface/B6.E_{4}*%
X127499996Y-103600000D02*
X125863500Y-103600000D01*
X128199996Y-104300000D02*
X127499996Y-103600000D01*
%TO.N,/Headstage Interface/B6.E_{3}*%
X127799994Y-102800000D02*
X125863500Y-102800000D01*
X128799994Y-103800000D02*
X127799994Y-102800000D01*
%TO.N,/Headstage Interface/B6.E_{2}*%
X129399998Y-103300000D02*
X128099998Y-102000000D01*
X128099998Y-102000000D02*
X125863500Y-102000000D01*
%TO.N,/Headstage Interface/B6.E_{1}*%
X128400000Y-101200000D02*
X125863500Y-101200000D01*
X130000000Y-102800000D02*
X128400000Y-101200000D01*
%TO.N,/Headstage Interface/B6.E_{0}*%
X130600000Y-102300000D02*
X136850000Y-102300000D01*
X128700000Y-100400000D02*
X125863500Y-100400000D01*
X130600000Y-102300000D02*
X128700000Y-100400000D01*
%TO.N,/Headstage Interface/B9.E_{1}*%
X173438152Y-98100000D02*
X177538152Y-94000000D01*
X177538152Y-94000000D02*
X190136500Y-94000000D01*
X151550000Y-98100000D02*
X173438152Y-98100000D01*
%TO.N,/Headstage Interface/B9.E_{3}*%
X174675000Y-99100000D02*
X178175000Y-95600000D01*
X178175000Y-95600000D02*
X190136500Y-95600000D01*
X151550000Y-99100000D02*
X174675000Y-99100000D01*
%TO.N,/Headstage Interface/B9.E_{4}*%
X178600000Y-96400000D02*
X190136500Y-96400000D01*
X151550000Y-99600000D02*
X175400000Y-99600000D01*
X175400000Y-99600000D02*
X178600000Y-96400000D01*
%TO.N,/Headstage Interface/B9.E_{5}*%
X179025000Y-97200000D02*
X190136500Y-97200000D01*
X176125000Y-100100000D02*
X179025000Y-97200000D01*
X151550000Y-100100000D02*
X176125000Y-100100000D01*
%TO.N,/Headstage Interface/B9.E_{0}*%
X177150002Y-93200000D02*
X190136500Y-93200000D01*
X172750002Y-97600000D02*
X177150002Y-93200000D01*
X151550000Y-97600000D02*
X172750002Y-97600000D01*
%TO.N,/Headstage Interface/B9.E_{2}*%
X177875000Y-94800000D02*
X190136500Y-94800000D01*
X174075000Y-98600000D02*
X177875000Y-94800000D01*
X151550000Y-98600000D02*
X174075000Y-98600000D01*
%TO.N,/Headstage Interface/B9.E_{6}*%
X179425000Y-98000000D02*
X190136500Y-98000000D01*
X176825000Y-100600000D02*
X179425000Y-98000000D01*
X151550000Y-100600000D02*
X176825000Y-100600000D01*
%TO.N,/Headstage Interface/B9.E_{7}*%
X179725000Y-98800000D02*
X190136500Y-98800000D01*
X177425000Y-101100000D02*
X179725000Y-98800000D01*
X151550000Y-101100000D02*
X177425000Y-101100000D01*
%TO.N,/Headstage Interface/B10.E_{0}*%
X178975000Y-102100000D02*
X180675000Y-100400000D01*
X180675000Y-100400000D02*
X190136500Y-100400000D01*
X151550000Y-102100000D02*
X178975000Y-102100000D01*
%TO.N,/Headstage Interface/B10.E_{1}*%
X180975000Y-101200000D02*
X190136500Y-101200000D01*
X179575000Y-102600000D02*
X180975000Y-101200000D01*
X151550000Y-102600000D02*
X179575000Y-102600000D01*
%TO.N,/Headstage Interface/B10.E_{5}*%
X181675000Y-104600000D02*
X181875000Y-104400000D01*
X151550000Y-104600000D02*
X181675000Y-104600000D01*
X181875000Y-104400000D02*
X190136500Y-104400000D01*
%TO.N,/Headstage Interface/B10.E_{4}*%
X181750000Y-103600000D02*
X190136500Y-103600000D01*
X151550000Y-104100000D02*
X181250000Y-104100000D01*
X181250000Y-104100000D02*
X181750000Y-103600000D01*
%TO.N,/Headstage Interface/B10.E_{2}*%
X181350000Y-102000000D02*
X190136500Y-102000000D01*
X180250000Y-103100000D02*
X181350000Y-102000000D01*
X151550000Y-103100000D02*
X180250000Y-103100000D01*
%TO.N,/Headstage Interface/B10.E_{3}*%
X181600000Y-102800000D02*
X190136500Y-102800000D01*
X180800000Y-103600000D02*
X181600000Y-102800000D01*
X151550000Y-103600000D02*
X180800000Y-103600000D01*
%TO.N,/Headstage Interface/B10.E_{7}*%
X181500000Y-105600000D02*
X181900000Y-106000000D01*
X151550000Y-105600000D02*
X181500000Y-105600000D01*
X181900000Y-106000000D02*
X190136500Y-106000000D01*
%TO.N,/Headstage Interface/B10.E_{6}*%
X182100000Y-105200000D02*
X190136500Y-105200000D01*
X182000000Y-105100000D02*
X182100000Y-105200000D01*
X151550000Y-105100000D02*
X182000000Y-105100000D01*
%TO.N,/Headstage Interface/E1-*%
X149750000Y-105100000D02*
X148450000Y-105100000D01*
%TO.N,/Headstage Interface/E3-*%
X149750000Y-104100000D02*
X148450000Y-104100000D01*
%TO.N,/Headstage Interface/E0-*%
X149750000Y-105600000D02*
X147850000Y-105600000D01*
%TO.N,/Headstage Interface/E2-*%
X149750000Y-104600000D02*
X147850000Y-104600000D01*
%TO.N,/Headstage Interface/B6.E_{6}*%
X127599996Y-105300000D02*
X127499996Y-105200000D01*
%TO.N,/Headstage Interface/E7-*%
X149750000Y-102100000D02*
X148450000Y-102100000D01*
%TO.N,/Headstage Interface/E13-*%
X149750000Y-98600000D02*
X148450000Y-98600000D01*
%TO.N,/Headstage Interface/E9-*%
X149750000Y-100600000D02*
X148450000Y-100600000D01*
%TO.N,/Headstage Interface/E8-*%
X149750000Y-101100000D02*
X147850000Y-101100000D01*
%TO.N,/Headstage Interface/E11-*%
X149750000Y-99600000D02*
X148450000Y-99600000D01*
%TO.N,/Headstage Interface/E12-*%
X149750000Y-99100000D02*
X147850000Y-99100000D01*
%TO.N,/Headstage Interface/E10-*%
X149750000Y-100100000D02*
X147850000Y-100100000D01*
%TO.N,/Headstage Interface/E4+*%
X138650000Y-103800000D02*
X140550000Y-103800000D01*
%TO.N,/Headstage Interface/E2+*%
X138650000Y-104800000D02*
X140550000Y-104800000D01*
%TO.N,/Headstage Interface/E6+*%
X138650000Y-102800000D02*
X140550000Y-102800000D01*
%TO.N,/Headstage Interface/E3+*%
X138650000Y-104300000D02*
X139950000Y-104300000D01*
%TO.N,/Headstage Interface/E11+*%
X138650000Y-99800000D02*
X139950000Y-99800000D01*
%TO.N,/Headstage Interface/E10+*%
X138650000Y-100300000D02*
X140550000Y-100300000D01*
%TO.N,/Headstage Interface/E9+*%
X138650000Y-100800000D02*
X139950000Y-100800000D01*
%TO.N,/Headstage Interface/E5+*%
X138650000Y-103300000D02*
X139950000Y-103300000D01*
%TO.N,/Headstage Interface/E13+*%
X138650000Y-98800000D02*
X139950000Y-98800000D01*
%TO.N,/Headstage Interface/E7+*%
X138650000Y-102300000D02*
X139950000Y-102300000D01*
%TO.N,/Headstage Interface/E1+*%
X138650000Y-105300000D02*
X139950000Y-105300000D01*
D14*
%TO.N,/Headstage Interface/NTC_{A}*%
X141650000Y-125100000D02*
X141650000Y-127700000D01*
D15*
%TO.N,/Headstage Interface/E0+*%
X138650000Y-105800000D02*
X140550000Y-105800000D01*
%TO.N,/Headstage Interface/E15-*%
X149750000Y-97600000D02*
X148450000Y-97600000D01*
%TO.N,/Headstage Interface/E6-*%
X149750000Y-102600000D02*
X147850000Y-102600000D01*
%TO.N,/Headstage Interface/E4-*%
X149750000Y-103600000D02*
X147850000Y-103600000D01*
%TO.N,/Headstage Interface/E14-*%
X149750000Y-98100000D02*
X147850000Y-98100000D01*
%TO.N,/Headstage Interface/E5-*%
X149750000Y-103100000D02*
X148450000Y-103100000D01*
%TO.N,/Headstage Interface/E14+*%
X138650000Y-98300000D02*
X140550000Y-98300000D01*
%TO.N,/Headstage Interface/E8+*%
X138650000Y-101300000D02*
X140550000Y-101300000D01*
%TO.N,/Headstage Interface/B6.E_{7}*%
X127600000Y-105800000D02*
X127400000Y-106000000D01*
%TO.N,/Headstage Interface/E15+*%
X138650000Y-97800000D02*
X139950000Y-97800000D01*
%TO.N,/Headstage Interface/E12+*%
X138650000Y-99300000D02*
X140550000Y-99300000D01*
D14*
%TO.N,/Headstage Interface/NTC_{A}*%
X141650000Y-122520000D02*
X141630000Y-122500000D01*
X141650000Y-125100000D02*
X141650000Y-122520000D01*
X139150000Y-134000000D02*
X141650000Y-131500000D01*
%TO.N,/Headstage Interface/REF*%
X144650000Y-98700000D02*
X144650000Y-105000000D01*
%TO.N,/Headstage Interface/NTC_{B}*%
X146650000Y-131500000D02*
X149150000Y-134000000D01*
%TO.N,VCC*%
X119700000Y-124200000D02*
X119700000Y-122100000D01*
X123450000Y-118350000D02*
X123450000Y-117550000D01*
X121500000Y-115600000D02*
X120136500Y-115600000D01*
X123450000Y-117550000D02*
X121500000Y-115600000D01*
X119700000Y-122100000D02*
X120800000Y-121000000D01*
X120800000Y-121000000D02*
X122200000Y-119600000D01*
X122200000Y-119600000D02*
X123450000Y-118350000D01*
D15*
%TO.N,/Test Signal Interface/SDA*%
X125863500Y-116536500D02*
X125863500Y-115600000D01*
X125100000Y-120900000D02*
X125100000Y-119500000D01*
%TO.N,/Test Signal Interface/SCL*%
X125863500Y-114800000D02*
X127100000Y-114800000D01*
X127100000Y-114800000D02*
X127700000Y-115400000D01*
%TO.N,/Headstage Interface/B10.E_{7}*%
X190086500Y-106050000D02*
X190136500Y-106000000D01*
%TO.N,/Test Signal Interface/WP*%
X118100000Y-115300000D02*
X118100000Y-116100000D01*
X118600000Y-114800000D02*
X120136500Y-114800000D01*
X118600000Y-114800000D02*
X118100000Y-115300000D01*
%TD*%
%TA.AperFunction,Conductor*%
%TO.N,GND*%
G36*
X211880943Y-68500636D02*
G01*
X212176204Y-68518537D01*
X212185084Y-68519618D01*
X212473822Y-68572656D01*
X212482505Y-68574801D01*
X212762730Y-68662340D01*
X212771082Y-68665515D01*
X213038684Y-68786269D01*
X213046594Y-68790433D01*
X213199024Y-68882843D01*
X213297626Y-68942621D01*
X213304990Y-68947719D01*
X213535800Y-69129122D01*
X213542494Y-69135073D01*
X213749189Y-69342525D01*
X213749688Y-69343025D01*
X213755615Y-69349741D01*
X213936173Y-69581210D01*
X213941244Y-69588592D01*
X214092517Y-69840182D01*
X214096659Y-69848124D01*
X214216420Y-70116132D01*
X214219573Y-70124515D01*
X214306082Y-70405040D01*
X214308199Y-70413743D01*
X214360183Y-70702672D01*
X214361232Y-70711567D01*
X214378054Y-71006877D01*
X214378174Y-71011080D01*
X214378174Y-71011585D01*
X214377943Y-71075018D01*
X214378179Y-71075913D01*
X214378180Y-71081580D01*
X214378180Y-133997763D01*
X214378045Y-134002231D01*
X214360226Y-134296810D01*
X214359149Y-134305681D01*
X214306355Y-134593768D01*
X214304216Y-134602444D01*
X214217087Y-134882049D01*
X214213919Y-134890405D01*
X214093712Y-135157492D01*
X214089559Y-135165404D01*
X213938044Y-135416040D01*
X213932968Y-135423394D01*
X213752343Y-135653944D01*
X213746417Y-135660633D01*
X213539320Y-135867728D01*
X213532631Y-135873654D01*
X213302081Y-136054277D01*
X213294727Y-136059353D01*
X213044086Y-136210869D01*
X213036173Y-136215022D01*
X212769093Y-136335223D01*
X212760738Y-136338391D01*
X212481129Y-136425519D01*
X212472453Y-136427658D01*
X212184365Y-136480451D01*
X212175493Y-136481528D01*
X211880585Y-136499364D01*
X211876119Y-136499499D01*
X211843986Y-136499499D01*
X211812791Y-136499499D01*
X211812787Y-136499499D01*
X211808247Y-136499500D01*
X211808246Y-136499499D01*
X211808246Y-136499500D01*
X150277493Y-136499500D01*
X150225167Y-136477826D01*
X150203493Y-136425500D01*
X150225167Y-136373174D01*
X150245383Y-136358829D01*
X150409893Y-136279605D01*
X150657206Y-136124208D01*
X150885565Y-135942098D01*
X151092098Y-135735565D01*
X151274208Y-135507206D01*
X151429605Y-135259893D01*
X151556335Y-134996737D01*
X151556335Y-134996734D01*
X151556338Y-134996730D01*
X151652798Y-134721058D01*
X151652803Y-134721045D01*
X151717798Y-134436286D01*
X151750500Y-134146041D01*
X151750500Y-133853959D01*
X151717798Y-133563714D01*
X151652803Y-133278955D01*
X151608161Y-133151374D01*
X151556338Y-133003269D01*
X151429605Y-132740108D01*
X151429605Y-132740107D01*
X151274208Y-132492794D01*
X151092098Y-132264435D01*
X150885565Y-132057902D01*
X150657206Y-131875792D01*
X150409893Y-131720395D01*
X150356155Y-131694516D01*
X150146730Y-131593661D01*
X149871058Y-131497201D01*
X149871040Y-131497195D01*
X149586289Y-131432202D01*
X149461895Y-131418186D01*
X149296041Y-131399500D01*
X149003959Y-131399500D01*
X148858836Y-131415851D01*
X148713710Y-131432202D01*
X148428959Y-131497195D01*
X148428941Y-131497201D01*
X148153269Y-131593661D01*
X147890108Y-131720394D01*
X147661681Y-131863924D01*
X147605844Y-131873411D01*
X147569985Y-131853592D01*
X147072174Y-131355781D01*
X147050500Y-131303455D01*
X147050500Y-127927140D01*
X147060414Y-127890140D01*
X147069799Y-127873886D01*
X147100499Y-127759311D01*
X147100500Y-127759311D01*
X147100500Y-127640689D01*
X147100499Y-127640688D01*
X147069800Y-127526117D01*
X147069796Y-127526108D01*
X147060414Y-127509857D01*
X147050500Y-127472858D01*
X147050500Y-122781010D01*
X147053022Y-122761857D01*
X147062957Y-122724780D01*
X147080499Y-122659311D01*
X147080500Y-122659311D01*
X147080500Y-122540689D01*
X147080499Y-122540688D01*
X147053022Y-122438141D01*
X147050500Y-122418988D01*
X147050500Y-118004871D01*
X189719500Y-118004871D01*
X189719500Y-118125129D01*
X189724681Y-118151178D01*
X189742959Y-118243069D01*
X189742961Y-118243076D01*
X189788981Y-118354179D01*
X189788982Y-118354180D01*
X189855794Y-118454171D01*
X189940829Y-118539206D01*
X190040820Y-118606018D01*
X190151924Y-118652039D01*
X190269871Y-118675500D01*
X190269872Y-118675500D01*
X190390128Y-118675500D01*
X190390129Y-118675500D01*
X190508076Y-118652039D01*
X190619180Y-118606018D01*
X190719171Y-118539206D01*
X190804206Y-118454171D01*
X190871018Y-118354180D01*
X190917039Y-118243076D01*
X190940500Y-118125129D01*
X190940500Y-118004871D01*
X190917039Y-117886924D01*
X190871018Y-117775820D01*
X190804206Y-117675829D01*
X190719171Y-117590794D01*
X190719167Y-117590791D01*
X190619179Y-117523981D01*
X190508076Y-117477961D01*
X190508069Y-117477959D01*
X190419215Y-117460285D01*
X190390129Y-117454500D01*
X190269871Y-117454500D01*
X190246538Y-117459141D01*
X190151930Y-117477959D01*
X190151923Y-117477961D01*
X190040820Y-117523981D01*
X189940832Y-117590791D01*
X189855791Y-117675832D01*
X189788981Y-117775820D01*
X189742961Y-117886923D01*
X189742959Y-117886930D01*
X189719500Y-118004871D01*
X147050500Y-118004871D01*
X147050500Y-114249792D01*
X188700001Y-114249792D01*
X188702908Y-114274868D01*
X188702910Y-114274874D01*
X188748213Y-114377478D01*
X188798780Y-114428045D01*
X188820454Y-114480371D01*
X188811733Y-114509128D01*
X188813922Y-114510035D01*
X188811133Y-114516767D01*
X188799500Y-114575253D01*
X188799500Y-115024746D01*
X188811133Y-115083232D01*
X188859497Y-115155611D01*
X188857430Y-115156991D01*
X188875245Y-115200000D01*
X188857430Y-115243008D01*
X188859497Y-115244389D01*
X188811133Y-115316767D01*
X188803377Y-115355757D01*
X188799500Y-115375252D01*
X188799500Y-115824748D01*
X188807255Y-115863736D01*
X188811133Y-115883232D01*
X188839786Y-115926112D01*
X188855448Y-115949552D01*
X188899560Y-115979027D01*
X188921767Y-115993866D01*
X188921768Y-115993866D01*
X188921769Y-115993867D01*
X188980252Y-116005500D01*
X188980254Y-116005500D01*
X191292746Y-116005500D01*
X191292748Y-116005500D01*
X191351231Y-115993867D01*
X191417552Y-115949552D01*
X191461867Y-115883231D01*
X191473500Y-115824748D01*
X191473500Y-115375252D01*
X191461867Y-115316769D01*
X191417552Y-115250448D01*
X191417551Y-115250447D01*
X191413503Y-115244389D01*
X191415569Y-115243008D01*
X191397755Y-115200000D01*
X191415569Y-115156991D01*
X191413503Y-115155611D01*
X191435846Y-115122174D01*
X191461867Y-115083231D01*
X191473500Y-115024748D01*
X191473500Y-114575252D01*
X191461867Y-114516769D01*
X191461866Y-114516767D01*
X191461866Y-114516766D01*
X191459077Y-114510032D01*
X191462457Y-114508631D01*
X191453971Y-114465920D01*
X191474221Y-114428044D01*
X191524785Y-114377480D01*
X191570089Y-114274875D01*
X191573000Y-114249792D01*
X194427001Y-114249792D01*
X194429908Y-114274868D01*
X194429910Y-114274874D01*
X194475213Y-114377478D01*
X194525780Y-114428045D01*
X194547454Y-114480371D01*
X194538733Y-114509128D01*
X194540922Y-114510035D01*
X194538133Y-114516767D01*
X194526500Y-114575253D01*
X194526500Y-115024746D01*
X194538133Y-115083232D01*
X194586497Y-115155611D01*
X194584430Y-115156991D01*
X194602245Y-115200000D01*
X194584430Y-115243008D01*
X194586497Y-115244389D01*
X194538133Y-115316767D01*
X194530377Y-115355757D01*
X194526500Y-115375252D01*
X194526500Y-115824748D01*
X194534255Y-115863736D01*
X194538133Y-115883232D01*
X194566786Y-115926112D01*
X194582448Y-115949552D01*
X194626560Y-115979027D01*
X194648767Y-115993866D01*
X194648768Y-115993866D01*
X194648769Y-115993867D01*
X194707252Y-116005500D01*
X194707254Y-116005500D01*
X197019746Y-116005500D01*
X197019748Y-116005500D01*
X197078231Y-115993867D01*
X197144552Y-115949552D01*
X197188867Y-115883231D01*
X197200500Y-115824748D01*
X197200500Y-115375252D01*
X197188867Y-115316769D01*
X197144552Y-115250448D01*
X197144551Y-115250447D01*
X197140503Y-115244389D01*
X197142569Y-115243008D01*
X197124755Y-115200000D01*
X197142569Y-115156991D01*
X197140503Y-115155611D01*
X197162846Y-115122174D01*
X197188867Y-115083231D01*
X197200500Y-115024748D01*
X197200500Y-114575252D01*
X197188867Y-114516769D01*
X197188866Y-114516767D01*
X197188866Y-114516766D01*
X197186077Y-114510032D01*
X197189457Y-114508631D01*
X197180971Y-114465920D01*
X197201221Y-114428044D01*
X197251785Y-114377480D01*
X197297089Y-114274875D01*
X197300000Y-114249789D01*
X197300000Y-114100000D01*
X194427001Y-114100000D01*
X194427001Y-114249792D01*
X191573000Y-114249792D01*
X191573000Y-114249789D01*
X191573000Y-114100000D01*
X188700001Y-114100000D01*
X188700001Y-114249792D01*
X147050500Y-114249792D01*
X147050500Y-113750210D01*
X188700000Y-113750210D01*
X188700000Y-113900000D01*
X191572999Y-113900000D01*
X191572999Y-113750210D01*
X194427000Y-113750210D01*
X194427000Y-113900000D01*
X197299999Y-113900000D01*
X197299999Y-113750207D01*
X197297091Y-113725131D01*
X197297089Y-113725125D01*
X197251786Y-113622521D01*
X197201219Y-113571954D01*
X197179545Y-113519628D01*
X197188275Y-113490874D01*
X197186078Y-113489964D01*
X197188866Y-113483232D01*
X197188865Y-113483232D01*
X197188867Y-113483231D01*
X197200500Y-113424748D01*
X197200500Y-112975252D01*
X197188867Y-112916769D01*
X197144552Y-112850448D01*
X197144551Y-112850447D01*
X197140503Y-112844389D01*
X197142569Y-112843008D01*
X197124755Y-112800000D01*
X197142569Y-112756991D01*
X197140503Y-112755611D01*
X197188866Y-112683232D01*
X197188865Y-112683232D01*
X197188867Y-112683231D01*
X197200500Y-112624748D01*
X197200500Y-112175252D01*
X197188867Y-112116769D01*
X197144552Y-112050448D01*
X197144551Y-112050447D01*
X197140503Y-112044389D01*
X197142569Y-112043008D01*
X197124755Y-112000000D01*
X197142569Y-111956991D01*
X197140503Y-111955611D01*
X197188866Y-111883232D01*
X197188865Y-111883232D01*
X197188867Y-111883231D01*
X197200500Y-111824748D01*
X197200500Y-111375252D01*
X197188867Y-111316769D01*
X197144552Y-111250448D01*
X197144551Y-111250447D01*
X197140503Y-111244389D01*
X197142569Y-111243008D01*
X197124755Y-111200000D01*
X197142569Y-111156991D01*
X197140503Y-111155611D01*
X197188866Y-111083232D01*
X197188865Y-111083232D01*
X197188867Y-111083231D01*
X197200500Y-111024748D01*
X197200500Y-110575252D01*
X197188867Y-110516769D01*
X197144552Y-110450448D01*
X197144551Y-110450447D01*
X197140503Y-110444389D01*
X197142569Y-110443008D01*
X197124755Y-110400000D01*
X197142569Y-110356991D01*
X197140503Y-110355611D01*
X197188866Y-110283232D01*
X197188865Y-110283232D01*
X197188867Y-110283231D01*
X197200500Y-110224748D01*
X197200500Y-109775252D01*
X197188867Y-109716769D01*
X197144552Y-109650448D01*
X197144551Y-109650447D01*
X197140503Y-109644389D01*
X197142569Y-109643008D01*
X197124755Y-109600000D01*
X197142569Y-109556991D01*
X197140503Y-109555611D01*
X197188866Y-109483232D01*
X197188865Y-109483232D01*
X197188867Y-109483231D01*
X197200500Y-109424748D01*
X197200500Y-108975252D01*
X197188867Y-108916769D01*
X197144552Y-108850448D01*
X197144551Y-108850447D01*
X197140503Y-108844389D01*
X197142569Y-108843008D01*
X197124755Y-108800000D01*
X197142569Y-108756991D01*
X197140503Y-108755611D01*
X197175354Y-108703455D01*
X197188867Y-108683231D01*
X197200500Y-108624748D01*
X197200500Y-108175252D01*
X197188867Y-108116769D01*
X197144552Y-108050448D01*
X197144551Y-108050447D01*
X197140503Y-108044389D01*
X197142569Y-108043008D01*
X197124755Y-108000000D01*
X197142569Y-107956991D01*
X197140503Y-107955611D01*
X197184252Y-107890138D01*
X197188867Y-107883231D01*
X197200500Y-107824748D01*
X197200500Y-107375252D01*
X197188867Y-107316769D01*
X197188866Y-107316767D01*
X197188866Y-107316766D01*
X197186077Y-107310032D01*
X197189457Y-107308631D01*
X197180971Y-107265920D01*
X197201221Y-107228044D01*
X197251785Y-107177480D01*
X197297089Y-107074875D01*
X197300000Y-107049789D01*
X197300000Y-106900000D01*
X194427001Y-106900000D01*
X194427001Y-107049792D01*
X194429908Y-107074868D01*
X194429910Y-107074874D01*
X194475213Y-107177478D01*
X194525780Y-107228045D01*
X194547454Y-107280371D01*
X194538733Y-107309128D01*
X194540922Y-107310035D01*
X194538133Y-107316767D01*
X194526500Y-107375253D01*
X194526500Y-107824746D01*
X194538133Y-107883232D01*
X194586497Y-107955611D01*
X194584430Y-107956991D01*
X194602245Y-108000000D01*
X194584430Y-108043008D01*
X194586497Y-108044389D01*
X194582448Y-108050447D01*
X194582448Y-108050448D01*
X194575739Y-108060489D01*
X194538133Y-108116767D01*
X194526500Y-108175253D01*
X194526500Y-108624746D01*
X194538133Y-108683232D01*
X194586497Y-108755611D01*
X194584430Y-108756991D01*
X194602245Y-108800000D01*
X194584430Y-108843008D01*
X194586497Y-108844389D01*
X194538133Y-108916767D01*
X194526500Y-108975253D01*
X194526500Y-109424746D01*
X194538133Y-109483232D01*
X194586497Y-109555611D01*
X194584430Y-109556991D01*
X194602245Y-109600000D01*
X194584430Y-109643008D01*
X194586497Y-109644389D01*
X194538133Y-109716767D01*
X194526500Y-109775253D01*
X194526500Y-110224746D01*
X194538133Y-110283232D01*
X194586497Y-110355611D01*
X194584430Y-110356991D01*
X194602245Y-110400000D01*
X194584430Y-110443008D01*
X194586497Y-110444389D01*
X194538133Y-110516767D01*
X194526500Y-110575253D01*
X194526500Y-111024746D01*
X194538133Y-111083232D01*
X194586497Y-111155611D01*
X194584430Y-111156991D01*
X194602245Y-111200000D01*
X194584430Y-111243008D01*
X194586497Y-111244389D01*
X194538133Y-111316767D01*
X194526500Y-111375253D01*
X194526500Y-111824746D01*
X194538133Y-111883232D01*
X194586497Y-111955611D01*
X194584430Y-111956991D01*
X194602245Y-112000000D01*
X194584430Y-112043008D01*
X194586497Y-112044389D01*
X194538133Y-112116767D01*
X194526500Y-112175253D01*
X194526500Y-112624746D01*
X194538133Y-112683232D01*
X194586497Y-112755611D01*
X194584430Y-112756991D01*
X194602245Y-112800000D01*
X194584430Y-112843008D01*
X194586497Y-112844389D01*
X194538133Y-112916767D01*
X194526500Y-112975253D01*
X194526500Y-113424746D01*
X194538133Y-113483233D01*
X194540923Y-113489968D01*
X194537543Y-113491367D01*
X194546026Y-113534092D01*
X194525779Y-113571954D01*
X194475214Y-113622519D01*
X194429910Y-113725124D01*
X194427000Y-113750210D01*
X191572999Y-113750210D01*
X191572999Y-113750207D01*
X191570091Y-113725131D01*
X191570089Y-113725125D01*
X191524786Y-113622521D01*
X191474219Y-113571954D01*
X191452545Y-113519628D01*
X191461275Y-113490874D01*
X191459078Y-113489964D01*
X191461866Y-113483232D01*
X191461865Y-113483232D01*
X191461867Y-113483231D01*
X191473500Y-113424748D01*
X191473500Y-112975252D01*
X191461867Y-112916769D01*
X191417552Y-112850448D01*
X191417551Y-112850447D01*
X191413503Y-112844389D01*
X191415569Y-112843008D01*
X191397755Y-112800000D01*
X191415569Y-112756991D01*
X191413503Y-112755611D01*
X191461866Y-112683232D01*
X191461865Y-112683232D01*
X191461867Y-112683231D01*
X191473500Y-112624748D01*
X191473500Y-112175252D01*
X191461867Y-112116769D01*
X191417552Y-112050448D01*
X191417551Y-112050447D01*
X191413503Y-112044389D01*
X191415569Y-112043008D01*
X191397755Y-112000000D01*
X191415569Y-111956991D01*
X191413503Y-111955611D01*
X191461866Y-111883232D01*
X191461865Y-111883232D01*
X191461867Y-111883231D01*
X191473500Y-111824748D01*
X191473500Y-111375252D01*
X191461867Y-111316769D01*
X191417552Y-111250448D01*
X191417551Y-111250447D01*
X191413503Y-111244389D01*
X191415569Y-111243008D01*
X191397755Y-111200000D01*
X191415569Y-111156991D01*
X191413503Y-111155611D01*
X191461866Y-111083232D01*
X191461865Y-111083232D01*
X191461867Y-111083231D01*
X191473500Y-111024748D01*
X191473500Y-110575252D01*
X191461867Y-110516769D01*
X191417552Y-110450448D01*
X191417551Y-110450447D01*
X191413503Y-110444389D01*
X191415569Y-110443008D01*
X191397755Y-110400000D01*
X191415569Y-110356991D01*
X191413503Y-110355611D01*
X191461866Y-110283232D01*
X191461865Y-110283232D01*
X191461867Y-110283231D01*
X191473500Y-110224748D01*
X191473500Y-109775252D01*
X191461867Y-109716769D01*
X191417552Y-109650448D01*
X191417551Y-109650447D01*
X191413503Y-109644389D01*
X191415569Y-109643008D01*
X191397755Y-109600000D01*
X191415569Y-109556991D01*
X191413503Y-109555611D01*
X191461866Y-109483232D01*
X191461865Y-109483232D01*
X191461867Y-109483231D01*
X191473500Y-109424748D01*
X191473500Y-108975252D01*
X191461867Y-108916769D01*
X191417552Y-108850448D01*
X191417551Y-108850447D01*
X191413503Y-108844389D01*
X191415569Y-108843008D01*
X191397755Y-108800000D01*
X191415569Y-108756991D01*
X191413503Y-108755611D01*
X191448354Y-108703455D01*
X191461867Y-108683231D01*
X191473500Y-108624748D01*
X191473500Y-108175252D01*
X191461867Y-108116769D01*
X191417552Y-108050448D01*
X191417551Y-108050447D01*
X191413503Y-108044389D01*
X191415569Y-108043008D01*
X191397755Y-108000000D01*
X191415569Y-107956991D01*
X191413503Y-107955611D01*
X191457252Y-107890138D01*
X191461867Y-107883231D01*
X191473500Y-107824748D01*
X191473500Y-107375252D01*
X191461867Y-107316769D01*
X191461866Y-107316767D01*
X191461866Y-107316766D01*
X191459077Y-107310032D01*
X191462457Y-107308631D01*
X191453971Y-107265920D01*
X191474221Y-107228044D01*
X191524785Y-107177480D01*
X191570089Y-107074875D01*
X191573000Y-107049789D01*
X191573000Y-106900000D01*
X188700001Y-106900000D01*
X188700001Y-107049792D01*
X188702908Y-107074868D01*
X188702910Y-107074874D01*
X188748213Y-107177478D01*
X188798780Y-107228045D01*
X188820454Y-107280371D01*
X188811733Y-107309128D01*
X188813922Y-107310035D01*
X188811133Y-107316767D01*
X188799500Y-107375253D01*
X188799500Y-107824746D01*
X188811133Y-107883232D01*
X188859497Y-107955611D01*
X188857430Y-107956991D01*
X188875245Y-108000000D01*
X188857430Y-108043008D01*
X188859497Y-108044389D01*
X188855448Y-108050447D01*
X188855448Y-108050448D01*
X188848739Y-108060489D01*
X188811133Y-108116767D01*
X188799500Y-108175253D01*
X188799500Y-108624746D01*
X188811133Y-108683232D01*
X188859497Y-108755611D01*
X188857430Y-108756991D01*
X188875245Y-108800000D01*
X188857430Y-108843008D01*
X188859497Y-108844389D01*
X188811133Y-108916767D01*
X188799500Y-108975253D01*
X188799500Y-109424746D01*
X188811133Y-109483232D01*
X188859497Y-109555611D01*
X188857430Y-109556991D01*
X188875245Y-109600000D01*
X188857430Y-109643008D01*
X188859497Y-109644389D01*
X188811133Y-109716767D01*
X188799500Y-109775253D01*
X188799500Y-110224746D01*
X188811133Y-110283232D01*
X188859497Y-110355611D01*
X188857430Y-110356991D01*
X188875245Y-110400000D01*
X188857430Y-110443008D01*
X188859497Y-110444389D01*
X188811133Y-110516767D01*
X188799500Y-110575253D01*
X188799500Y-111024746D01*
X188811133Y-111083232D01*
X188859497Y-111155611D01*
X188857430Y-111156991D01*
X188875245Y-111200000D01*
X188857430Y-111243008D01*
X188859497Y-111244389D01*
X188811133Y-111316767D01*
X188799500Y-111375253D01*
X188799500Y-111824746D01*
X188811133Y-111883232D01*
X188859497Y-111955611D01*
X188857430Y-111956991D01*
X188875245Y-112000000D01*
X188857430Y-112043008D01*
X188859497Y-112044389D01*
X188811133Y-112116767D01*
X188799500Y-112175253D01*
X188799500Y-112624746D01*
X188811133Y-112683232D01*
X188859497Y-112755611D01*
X188857430Y-112756991D01*
X188875245Y-112800000D01*
X188857430Y-112843008D01*
X188859497Y-112844389D01*
X188811133Y-112916767D01*
X188799500Y-112975253D01*
X188799500Y-113424746D01*
X188811133Y-113483233D01*
X188813923Y-113489968D01*
X188810543Y-113491367D01*
X188819026Y-113534092D01*
X188798779Y-113571954D01*
X188748214Y-113622519D01*
X188702910Y-113725124D01*
X188700000Y-113750210D01*
X147050500Y-113750210D01*
X147050500Y-108358698D01*
X147050501Y-108358685D01*
X147050501Y-108247271D01*
X147050500Y-108247270D01*
X147023208Y-108145416D01*
X147023206Y-108145411D01*
X146978441Y-108067877D01*
X146974176Y-108060489D01*
X146970480Y-108054087D01*
X146895913Y-107979520D01*
X146895911Y-107979519D01*
X146889410Y-107973018D01*
X146880841Y-107964448D01*
X146859169Y-107912122D01*
X146868188Y-107878471D01*
X146867942Y-107878369D01*
X146868717Y-107876496D01*
X146869086Y-107875120D01*
X146869799Y-107873886D01*
X146900499Y-107759311D01*
X146900500Y-107759311D01*
X146900500Y-107640689D01*
X146900499Y-107640688D01*
X146869800Y-107526117D01*
X146869798Y-107526112D01*
X146810491Y-107423390D01*
X146810490Y-107423389D01*
X146810489Y-107423387D01*
X146726613Y-107339511D01*
X146726610Y-107339509D01*
X146726609Y-107339508D01*
X146623887Y-107280201D01*
X146623882Y-107280199D01*
X146509311Y-107249500D01*
X146509309Y-107249500D01*
X146390691Y-107249500D01*
X146390689Y-107249500D01*
X146276117Y-107280199D01*
X146276112Y-107280201D01*
X146173390Y-107339508D01*
X146089508Y-107423390D01*
X146030201Y-107526112D01*
X146030199Y-107526117D01*
X145999500Y-107640688D01*
X145999500Y-107759311D01*
X146030199Y-107873882D01*
X146030200Y-107873883D01*
X146030201Y-107873886D01*
X146039585Y-107890140D01*
X146049500Y-107927140D01*
X146049500Y-108047273D01*
X146049500Y-108152727D01*
X146055536Y-108175253D01*
X146076793Y-108254588D01*
X146076795Y-108254592D01*
X146129518Y-108345911D01*
X146227826Y-108444218D01*
X146249500Y-108496544D01*
X146249500Y-122338217D01*
X146239586Y-122375217D01*
X146210201Y-122426112D01*
X146210199Y-122426117D01*
X146179500Y-122540688D01*
X146179500Y-122659311D01*
X146210199Y-122773882D01*
X146210202Y-122773890D01*
X146239585Y-122824780D01*
X146249500Y-122861781D01*
X146249500Y-127472858D01*
X146239586Y-127509857D01*
X146230203Y-127526108D01*
X146230199Y-127526117D01*
X146199500Y-127640688D01*
X146199500Y-127759311D01*
X146230199Y-127873882D01*
X146230200Y-127873884D01*
X146230201Y-127873886D01*
X146239585Y-127890140D01*
X146249500Y-127927140D01*
X146249500Y-131447273D01*
X146249500Y-131552727D01*
X146260468Y-131593661D01*
X146276793Y-131654588D01*
X146276795Y-131654592D01*
X146329517Y-131745909D01*
X146329518Y-131745910D01*
X146329520Y-131745913D01*
X146681637Y-132098030D01*
X147003592Y-132419985D01*
X147025266Y-132472311D01*
X147013924Y-132511681D01*
X146870394Y-132740108D01*
X146743661Y-133003269D01*
X146647201Y-133278941D01*
X146647195Y-133278959D01*
X146582202Y-133563710D01*
X146563515Y-133729568D01*
X146549500Y-133853959D01*
X146549500Y-134146041D01*
X146558716Y-134227834D01*
X146582202Y-134436289D01*
X146647195Y-134721040D01*
X146647201Y-134721058D01*
X146743661Y-134996730D01*
X146832259Y-135180703D01*
X146870395Y-135259893D01*
X147025792Y-135507206D01*
X147207902Y-135735565D01*
X147414435Y-135942098D01*
X147642794Y-136124208D01*
X147890107Y-136279605D01*
X148054615Y-136358828D01*
X148092354Y-136401060D01*
X148089179Y-136457608D01*
X148046947Y-136495347D01*
X148022507Y-136499500D01*
X140277493Y-136499500D01*
X140225167Y-136477826D01*
X140203493Y-136425500D01*
X140225167Y-136373174D01*
X140245383Y-136358829D01*
X140409893Y-136279605D01*
X140657206Y-136124208D01*
X140885565Y-135942098D01*
X141092098Y-135735565D01*
X141274208Y-135507206D01*
X141429605Y-135259893D01*
X141556335Y-134996737D01*
X141556335Y-134996734D01*
X141556338Y-134996730D01*
X141652798Y-134721058D01*
X141652803Y-134721045D01*
X141717798Y-134436286D01*
X141750500Y-134146041D01*
X141750500Y-133853959D01*
X141717798Y-133563714D01*
X141652803Y-133278955D01*
X141608161Y-133151374D01*
X141556338Y-133003269D01*
X141429605Y-132740108D01*
X141429605Y-132740107D01*
X141300397Y-132534473D01*
X141286075Y-132511680D01*
X141276588Y-132455843D01*
X141296405Y-132419986D01*
X141970480Y-131745913D01*
X142023207Y-131654588D01*
X142050500Y-131552727D01*
X142050500Y-131447273D01*
X142050500Y-127927140D01*
X142060414Y-127890140D01*
X142069799Y-127873886D01*
X142100499Y-127759311D01*
X142100500Y-127759311D01*
X142100500Y-127640689D01*
X142100499Y-127640688D01*
X142069800Y-127526117D01*
X142069796Y-127526108D01*
X142060414Y-127509857D01*
X142050500Y-127472858D01*
X142050500Y-122681012D01*
X142053020Y-122661866D01*
X142054655Y-122655762D01*
X142073807Y-122622584D01*
X144820480Y-119875913D01*
X144873207Y-119784588D01*
X144900500Y-119682727D01*
X144900500Y-119577273D01*
X144900500Y-107727140D01*
X144910414Y-107690140D01*
X144919799Y-107673886D01*
X144950499Y-107559311D01*
X144950500Y-107559311D01*
X144950500Y-107440689D01*
X144950499Y-107440688D01*
X144919800Y-107326117D01*
X144919798Y-107326112D01*
X144860491Y-107223390D01*
X144860490Y-107223389D01*
X144860489Y-107223387D01*
X144776613Y-107139511D01*
X144776610Y-107139509D01*
X144776609Y-107139508D01*
X144673887Y-107080201D01*
X144673882Y-107080199D01*
X144559311Y-107049500D01*
X144559309Y-107049500D01*
X144440691Y-107049500D01*
X144440689Y-107049500D01*
X144326117Y-107080199D01*
X144326112Y-107080201D01*
X144223390Y-107139508D01*
X144139508Y-107223390D01*
X144080201Y-107326112D01*
X144080199Y-107326117D01*
X144049500Y-107440688D01*
X144049500Y-107559311D01*
X144080199Y-107673882D01*
X144080200Y-107673884D01*
X144080201Y-107673886D01*
X144089585Y-107690140D01*
X144099500Y-107727140D01*
X144099500Y-119433454D01*
X144077826Y-119485780D01*
X141507415Y-122056190D01*
X141474245Y-122075342D01*
X141456113Y-122080201D01*
X141456112Y-122080201D01*
X141353390Y-122139508D01*
X141269508Y-122223390D01*
X141210201Y-122326112D01*
X141210199Y-122326117D01*
X141179500Y-122440688D01*
X141179500Y-122559311D01*
X141210199Y-122673882D01*
X141210202Y-122673890D01*
X141239585Y-122724780D01*
X141249500Y-122761781D01*
X141249500Y-127472858D01*
X141239586Y-127509857D01*
X141230203Y-127526108D01*
X141230199Y-127526117D01*
X141199500Y-127640688D01*
X141199500Y-127759311D01*
X141230199Y-127873882D01*
X141230200Y-127873884D01*
X141230201Y-127873886D01*
X141239585Y-127890140D01*
X141249500Y-127927140D01*
X141249500Y-131303454D01*
X141227826Y-131355780D01*
X140730013Y-131853592D01*
X140677687Y-131875266D01*
X140638319Y-131863924D01*
X140409893Y-131720395D01*
X140356155Y-131694516D01*
X140146730Y-131593661D01*
X139871058Y-131497201D01*
X139871040Y-131497195D01*
X139586289Y-131432202D01*
X139461895Y-131418186D01*
X139296041Y-131399500D01*
X139003959Y-131399500D01*
X138858836Y-131415851D01*
X138713710Y-131432202D01*
X138428959Y-131497195D01*
X138428941Y-131497201D01*
X138153269Y-131593661D01*
X137890108Y-131720394D01*
X137642793Y-131875792D01*
X137414431Y-132057905D01*
X137207905Y-132264431D01*
X137025792Y-132492793D01*
X136870394Y-132740108D01*
X136743661Y-133003269D01*
X136647201Y-133278941D01*
X136647195Y-133278959D01*
X136582202Y-133563710D01*
X136563515Y-133729568D01*
X136549500Y-133853959D01*
X136549500Y-134146041D01*
X136558716Y-134227834D01*
X136582202Y-134436289D01*
X136647195Y-134721040D01*
X136647201Y-134721058D01*
X136743661Y-134996730D01*
X136832259Y-135180703D01*
X136870395Y-135259893D01*
X137025792Y-135507206D01*
X137207902Y-135735565D01*
X137414435Y-135942098D01*
X137642794Y-136124208D01*
X137890107Y-136279605D01*
X138054615Y-136358828D01*
X138092354Y-136401060D01*
X138089179Y-136457608D01*
X138046947Y-136495347D01*
X138022507Y-136499500D01*
X128249163Y-136499500D01*
X128196837Y-136477826D01*
X128175163Y-136425500D01*
X128196837Y-136373174D01*
X128217055Y-136358828D01*
X128408097Y-136266826D01*
X128664874Y-136105483D01*
X128901969Y-135916406D01*
X128938477Y-135879899D01*
X128019238Y-134960660D01*
X128160660Y-134819238D01*
X129079899Y-135738477D01*
X129116406Y-135701969D01*
X129305483Y-135464874D01*
X129466826Y-135208097D01*
X129598406Y-134934869D01*
X129698562Y-134648641D01*
X129698567Y-134648625D01*
X129766045Y-134352983D01*
X129766045Y-134352982D01*
X129800000Y-134051625D01*
X129800000Y-133748374D01*
X129766045Y-133447017D01*
X129766045Y-133447016D01*
X129698567Y-133151374D01*
X129698562Y-133151358D01*
X129598406Y-132865130D01*
X129466826Y-132591902D01*
X129305483Y-132335125D01*
X129116406Y-132098030D01*
X129079899Y-132061523D01*
X128160660Y-132980761D01*
X128019238Y-132839339D01*
X128938477Y-131920101D01*
X128901969Y-131883593D01*
X128664874Y-131694516D01*
X128408097Y-131533173D01*
X128134869Y-131401593D01*
X127848641Y-131301437D01*
X127848625Y-131301432D01*
X127552983Y-131233954D01*
X127251625Y-131200000D01*
X126948375Y-131200000D01*
X126647017Y-131233954D01*
X126647016Y-131233954D01*
X126351374Y-131301432D01*
X126351358Y-131301437D01*
X126065130Y-131401593D01*
X125791902Y-131533173D01*
X125535125Y-131694516D01*
X125298030Y-131883593D01*
X125261523Y-131920101D01*
X126180761Y-132839339D01*
X126039339Y-132980761D01*
X125120101Y-132061523D01*
X125083593Y-132098030D01*
X124894516Y-132335125D01*
X124733173Y-132591902D01*
X124601593Y-132865130D01*
X124501437Y-133151358D01*
X124501432Y-133151374D01*
X124433954Y-133447016D01*
X124433954Y-133447017D01*
X124400000Y-133748374D01*
X124400000Y-134051625D01*
X124433954Y-134352982D01*
X124433954Y-134352983D01*
X124501432Y-134648625D01*
X124501437Y-134648641D01*
X124601593Y-134934869D01*
X124733173Y-135208097D01*
X124894516Y-135464874D01*
X125083593Y-135701969D01*
X125120101Y-135738477D01*
X126039339Y-134819238D01*
X126180761Y-134960660D01*
X125261523Y-135879899D01*
X125298030Y-135916406D01*
X125535125Y-136105483D01*
X125791902Y-136266826D01*
X125982945Y-136358828D01*
X126020684Y-136401060D01*
X126017509Y-136457608D01*
X125975277Y-136495347D01*
X125950837Y-136499500D01*
X111002236Y-136499500D01*
X110997768Y-136499365D01*
X110997751Y-136499364D01*
X110988852Y-136498825D01*
X110703188Y-136481546D01*
X110694317Y-136480469D01*
X110406228Y-136427675D01*
X110397552Y-136425536D01*
X110397497Y-136425519D01*
X110117946Y-136338407D01*
X110109590Y-136335239D01*
X109842502Y-136215032D01*
X109834590Y-136210879D01*
X109583953Y-136059363D01*
X109576599Y-136054287D01*
X109346048Y-135873663D01*
X109339359Y-135867737D01*
X109132262Y-135660640D01*
X109126336Y-135653951D01*
X108945712Y-135423400D01*
X108940636Y-135416046D01*
X108789120Y-135165409D01*
X108784967Y-135157497D01*
X108712615Y-134996737D01*
X108664757Y-134890401D01*
X108661595Y-134882062D01*
X108574460Y-134602435D01*
X108572327Y-134593784D01*
X108519528Y-134305673D01*
X108518454Y-134296821D01*
X108500635Y-134002231D01*
X108500500Y-133997763D01*
X108500500Y-118004871D01*
X119719500Y-118004871D01*
X119719500Y-118125129D01*
X119724681Y-118151178D01*
X119742959Y-118243069D01*
X119742961Y-118243076D01*
X119788981Y-118354179D01*
X119788982Y-118354180D01*
X119855794Y-118454171D01*
X119940829Y-118539206D01*
X120040820Y-118606018D01*
X120151924Y-118652039D01*
X120269871Y-118675500D01*
X120269872Y-118675500D01*
X120390128Y-118675500D01*
X120390129Y-118675500D01*
X120508076Y-118652039D01*
X120619180Y-118606018D01*
X120719171Y-118539206D01*
X120804206Y-118454171D01*
X120871018Y-118354180D01*
X120917039Y-118243076D01*
X120940500Y-118125129D01*
X120940500Y-118004871D01*
X120917039Y-117886924D01*
X120871018Y-117775820D01*
X120804206Y-117675829D01*
X120719171Y-117590794D01*
X120719167Y-117590791D01*
X120619179Y-117523981D01*
X120508076Y-117477961D01*
X120508069Y-117477959D01*
X120419215Y-117460285D01*
X120390129Y-117454500D01*
X120269871Y-117454500D01*
X120246538Y-117459141D01*
X120151930Y-117477959D01*
X120151923Y-117477961D01*
X120040820Y-117523981D01*
X119940832Y-117590791D01*
X119855791Y-117675832D01*
X119788981Y-117775820D01*
X119742961Y-117886923D01*
X119742959Y-117886930D01*
X119719500Y-118004871D01*
X108500500Y-118004871D01*
X108500500Y-116040688D01*
X117649500Y-116040688D01*
X117649500Y-116159311D01*
X117680199Y-116273882D01*
X117680201Y-116273887D01*
X117739508Y-116376609D01*
X117739509Y-116376610D01*
X117739511Y-116376613D01*
X117823387Y-116460489D01*
X117926114Y-116519799D01*
X117926115Y-116519799D01*
X117926117Y-116519800D01*
X117983402Y-116535149D01*
X118040688Y-116550499D01*
X118040689Y-116550500D01*
X118040691Y-116550500D01*
X118159311Y-116550500D01*
X118159311Y-116550499D01*
X118273886Y-116519799D01*
X118376613Y-116460489D01*
X118460489Y-116376613D01*
X118519799Y-116273886D01*
X118550499Y-116159311D01*
X118550500Y-116159311D01*
X118550500Y-116040689D01*
X118550499Y-116040688D01*
X118546503Y-116025776D01*
X118519799Y-115926114D01*
X118476143Y-115850500D01*
X118460491Y-115823390D01*
X118460490Y-115823389D01*
X118460489Y-115823387D01*
X118422173Y-115785071D01*
X118400500Y-115732746D01*
X118400500Y-115455123D01*
X118422174Y-115402797D01*
X118702797Y-115122174D01*
X118755123Y-115100500D01*
X118783119Y-115100500D01*
X118835445Y-115122174D01*
X118844647Y-115133387D01*
X118859497Y-115155611D01*
X118857430Y-115156991D01*
X118875245Y-115200000D01*
X118857430Y-115243008D01*
X118859497Y-115244389D01*
X118811133Y-115316767D01*
X118803377Y-115355757D01*
X118799500Y-115375252D01*
X118799500Y-115824748D01*
X118807255Y-115863736D01*
X118811133Y-115883232D01*
X118839786Y-115926112D01*
X118855448Y-115949552D01*
X118899560Y-115979027D01*
X118921767Y-115993866D01*
X118921768Y-115993866D01*
X118921769Y-115993867D01*
X118980252Y-116005500D01*
X118980254Y-116005500D01*
X121292750Y-116005500D01*
X121296363Y-116005144D01*
X121296476Y-116006298D01*
X121348150Y-116016560D01*
X121359383Y-116025776D01*
X123027826Y-117694219D01*
X123049500Y-117746545D01*
X123049500Y-118122858D01*
X123043867Y-118151178D01*
X123042011Y-118155658D01*
X123030201Y-118176114D01*
X123024088Y-118198924D01*
X123022231Y-118203409D01*
X123017072Y-118208567D01*
X123006190Y-118227415D01*
X122077415Y-119156190D01*
X122044245Y-119175342D01*
X122026113Y-119180201D01*
X122026112Y-119180201D01*
X121923390Y-119239508D01*
X121839508Y-119323390D01*
X121780201Y-119426112D01*
X121780201Y-119426113D01*
X121775342Y-119444245D01*
X121756190Y-119477415D01*
X120677415Y-120556190D01*
X120644245Y-120575342D01*
X120626113Y-120580201D01*
X120626112Y-120580201D01*
X120523390Y-120639508D01*
X120439508Y-120723390D01*
X120380201Y-120826112D01*
X120380201Y-120826113D01*
X120375342Y-120844245D01*
X120356190Y-120877415D01*
X119379517Y-121854090D01*
X119326792Y-121945412D01*
X119326793Y-121945413D01*
X119299500Y-122047273D01*
X119299500Y-123472858D01*
X119289586Y-123509857D01*
X119280203Y-123526108D01*
X119280199Y-123526117D01*
X119249500Y-123640688D01*
X119249500Y-123759311D01*
X119280199Y-123873882D01*
X119280200Y-123873884D01*
X119280201Y-123873886D01*
X119289585Y-123890140D01*
X119299500Y-123927140D01*
X119299500Y-123972858D01*
X119289586Y-124009857D01*
X119280203Y-124026108D01*
X119280199Y-124026117D01*
X119249500Y-124140688D01*
X119249500Y-124259311D01*
X119280199Y-124373882D01*
X119280201Y-124373887D01*
X119339508Y-124476609D01*
X119339509Y-124476610D01*
X119339511Y-124476613D01*
X119423387Y-124560489D01*
X119526114Y-124619799D01*
X119526115Y-124619799D01*
X119526117Y-124619800D01*
X119583402Y-124635149D01*
X119640688Y-124650499D01*
X119640689Y-124650500D01*
X119640691Y-124650500D01*
X119759311Y-124650500D01*
X119759311Y-124650499D01*
X119873886Y-124619799D01*
X119976613Y-124560489D01*
X120060489Y-124476613D01*
X120119799Y-124373886D01*
X120150499Y-124259311D01*
X120150500Y-124259311D01*
X120150500Y-124140689D01*
X120150499Y-124140688D01*
X120119800Y-124026117D01*
X120119796Y-124026108D01*
X120110414Y-124009857D01*
X120100500Y-123972858D01*
X120100500Y-123927140D01*
X120110414Y-123890140D01*
X120119799Y-123873886D01*
X120150499Y-123759311D01*
X120150500Y-123759311D01*
X120150500Y-123640689D01*
X120150499Y-123640688D01*
X120119800Y-123526117D01*
X120119796Y-123526108D01*
X120110414Y-123509857D01*
X120100500Y-123472858D01*
X120100500Y-122296544D01*
X120122173Y-122244219D01*
X120922585Y-121443806D01*
X120955756Y-121424656D01*
X120973886Y-121419799D01*
X121076613Y-121360489D01*
X121160489Y-121276613D01*
X121219799Y-121173886D01*
X121224656Y-121155756D01*
X121243806Y-121122585D01*
X122322585Y-120043806D01*
X122355756Y-120024656D01*
X122373886Y-120019799D01*
X122476613Y-119960489D01*
X122560489Y-119876613D01*
X122619799Y-119773886D01*
X122624656Y-119755756D01*
X122643806Y-119722585D01*
X122925703Y-119440688D01*
X124649500Y-119440688D01*
X124649500Y-119559311D01*
X124680199Y-119673882D01*
X124680201Y-119673887D01*
X124739508Y-119776609D01*
X124739509Y-119776610D01*
X124739511Y-119776613D01*
X124777826Y-119814928D01*
X124799500Y-119867253D01*
X124799500Y-120532746D01*
X124777827Y-120585071D01*
X124739508Y-120623390D01*
X124680201Y-120726112D01*
X124680199Y-120726117D01*
X124649500Y-120840688D01*
X124649500Y-120959311D01*
X124680199Y-121073882D01*
X124680201Y-121073887D01*
X124739508Y-121176609D01*
X124739509Y-121176610D01*
X124739511Y-121176613D01*
X124823387Y-121260489D01*
X124926114Y-121319799D01*
X124926115Y-121319799D01*
X124926117Y-121319800D01*
X124983402Y-121335149D01*
X125040688Y-121350499D01*
X125040689Y-121350500D01*
X125040691Y-121350500D01*
X125159311Y-121350500D01*
X125159311Y-121350499D01*
X125273886Y-121319799D01*
X125376613Y-121260489D01*
X125460489Y-121176613D01*
X125519799Y-121073886D01*
X125550499Y-120959311D01*
X125550500Y-120959311D01*
X125550500Y-120840689D01*
X125550499Y-120840688D01*
X125546593Y-120826112D01*
X125519799Y-120726114D01*
X125518225Y-120723387D01*
X125460491Y-120623390D01*
X125460490Y-120623389D01*
X125460489Y-120623387D01*
X125422173Y-120585071D01*
X125400500Y-120532746D01*
X125400500Y-119867253D01*
X125422173Y-119814928D01*
X125460489Y-119776613D01*
X125519799Y-119673886D01*
X125550499Y-119559311D01*
X125550500Y-119559311D01*
X125550500Y-119440689D01*
X125550499Y-119440688D01*
X125546593Y-119426112D01*
X125519799Y-119326114D01*
X125518225Y-119323387D01*
X125460491Y-119223390D01*
X125460490Y-119223389D01*
X125460489Y-119223387D01*
X125376613Y-119139511D01*
X125376610Y-119139509D01*
X125376609Y-119139508D01*
X125273887Y-119080201D01*
X125273882Y-119080199D01*
X125159311Y-119049500D01*
X125159309Y-119049500D01*
X125040691Y-119049500D01*
X125040689Y-119049500D01*
X124926117Y-119080199D01*
X124926112Y-119080201D01*
X124823390Y-119139508D01*
X124739508Y-119223390D01*
X124680201Y-119326112D01*
X124680199Y-119326117D01*
X124649500Y-119440688D01*
X122925703Y-119440688D01*
X123572585Y-118793806D01*
X123605756Y-118774656D01*
X123623886Y-118769799D01*
X123726613Y-118710489D01*
X123810489Y-118626613D01*
X123869799Y-118523886D01*
X123900499Y-118409311D01*
X123900500Y-118409311D01*
X123900500Y-118290689D01*
X123900499Y-118290688D01*
X123887741Y-118243076D01*
X123883545Y-118227415D01*
X123869800Y-118176117D01*
X123869796Y-118176108D01*
X123860414Y-118159857D01*
X123850500Y-118122858D01*
X123850500Y-117497271D01*
X123850499Y-117497270D01*
X123823208Y-117395417D01*
X123823207Y-117395413D01*
X123770480Y-117304087D01*
X123695913Y-117229520D01*
X121745913Y-115279520D01*
X121745910Y-115279518D01*
X121745909Y-115279517D01*
X121654592Y-115226795D01*
X121654588Y-115226793D01*
X121599509Y-115212035D01*
X121552727Y-115199500D01*
X121552726Y-115199500D01*
X121522623Y-115199500D01*
X121470297Y-115177826D01*
X121448623Y-115125500D01*
X121459365Y-115090087D01*
X121459077Y-115089968D01*
X121460292Y-115087032D01*
X121461096Y-115084385D01*
X121461160Y-115084288D01*
X121461867Y-115083231D01*
X121473500Y-115024748D01*
X121473500Y-114575252D01*
X121461867Y-114516769D01*
X121461866Y-114516767D01*
X121461866Y-114516766D01*
X121459077Y-114510032D01*
X121462457Y-114508631D01*
X121453971Y-114465920D01*
X121474221Y-114428044D01*
X121524785Y-114377480D01*
X121570089Y-114274875D01*
X121573000Y-114249792D01*
X124427001Y-114249792D01*
X124429908Y-114274868D01*
X124429910Y-114274874D01*
X124475213Y-114377478D01*
X124525780Y-114428045D01*
X124547454Y-114480371D01*
X124538733Y-114509128D01*
X124540922Y-114510035D01*
X124538133Y-114516767D01*
X124526500Y-114575253D01*
X124526500Y-115024746D01*
X124538133Y-115083232D01*
X124586497Y-115155611D01*
X124584430Y-115156991D01*
X124602245Y-115200000D01*
X124584430Y-115243008D01*
X124586497Y-115244389D01*
X124538133Y-115316767D01*
X124530377Y-115355757D01*
X124526500Y-115375252D01*
X124526500Y-115824748D01*
X124534255Y-115863736D01*
X124538133Y-115883232D01*
X124566786Y-115926112D01*
X124582448Y-115949552D01*
X124626560Y-115979027D01*
X124648767Y-115993866D01*
X124648768Y-115993866D01*
X124648769Y-115993867D01*
X124707252Y-116005500D01*
X125489000Y-116005500D01*
X125541326Y-116027174D01*
X125563000Y-116079500D01*
X125563000Y-116169246D01*
X125541327Y-116221571D01*
X125503008Y-116259890D01*
X125443701Y-116362612D01*
X125443699Y-116362617D01*
X125413000Y-116477188D01*
X125413000Y-116595811D01*
X125443699Y-116710382D01*
X125443701Y-116710387D01*
X125503008Y-116813109D01*
X125503009Y-116813110D01*
X125503011Y-116813113D01*
X125586887Y-116896989D01*
X125689614Y-116956299D01*
X125689615Y-116956299D01*
X125689617Y-116956300D01*
X125746902Y-116971649D01*
X125804188Y-116986999D01*
X125804189Y-116987000D01*
X125804191Y-116987000D01*
X125922811Y-116987000D01*
X125922811Y-116986999D01*
X126037386Y-116956299D01*
X126140113Y-116896989D01*
X126223989Y-116813113D01*
X126283299Y-116710386D01*
X126313999Y-116595811D01*
X126314000Y-116595811D01*
X126314000Y-116477189D01*
X126313999Y-116477188D01*
X126283300Y-116362617D01*
X126283298Y-116362612D01*
X126223991Y-116259890D01*
X126223990Y-116259889D01*
X126223989Y-116259887D01*
X126185673Y-116221571D01*
X126164000Y-116169246D01*
X126164000Y-116079500D01*
X126185674Y-116027174D01*
X126238000Y-116005500D01*
X127019746Y-116005500D01*
X127019748Y-116005500D01*
X127078231Y-115993867D01*
X127144552Y-115949552D01*
X127188867Y-115883231D01*
X127200500Y-115824748D01*
X127200500Y-115712011D01*
X127222174Y-115659685D01*
X127274500Y-115638011D01*
X127326826Y-115659685D01*
X127338588Y-115675014D01*
X127339508Y-115676609D01*
X127339511Y-115676613D01*
X127423387Y-115760489D01*
X127526114Y-115819799D01*
X127526115Y-115819799D01*
X127526117Y-115819800D01*
X127583402Y-115835149D01*
X127640688Y-115850499D01*
X127640689Y-115850500D01*
X127640691Y-115850500D01*
X127759311Y-115850500D01*
X127759311Y-115850499D01*
X127873886Y-115819799D01*
X127976613Y-115760489D01*
X128060489Y-115676613D01*
X128119799Y-115573886D01*
X128150499Y-115459311D01*
X128150500Y-115459311D01*
X128150500Y-115340689D01*
X128150499Y-115340688D01*
X128144089Y-115316767D01*
X128124326Y-115243008D01*
X128119800Y-115226117D01*
X128119798Y-115226112D01*
X128060491Y-115123390D01*
X128060490Y-115123389D01*
X128060489Y-115123387D01*
X127976613Y-115039511D01*
X127976610Y-115039509D01*
X127976609Y-115039508D01*
X127873887Y-114980201D01*
X127873882Y-114980199D01*
X127759311Y-114949500D01*
X127759309Y-114949500D01*
X127705123Y-114949500D01*
X127652797Y-114927826D01*
X127316468Y-114591497D01*
X127284511Y-114559540D01*
X127251863Y-114540691D01*
X127251858Y-114540688D01*
X141049500Y-114540688D01*
X141049500Y-114659311D01*
X141080199Y-114773882D01*
X141080200Y-114773884D01*
X141080201Y-114773886D01*
X141089585Y-114790140D01*
X141099500Y-114827140D01*
X141099500Y-116972858D01*
X141089586Y-117009857D01*
X141080203Y-117026108D01*
X141080199Y-117026117D01*
X141049500Y-117140688D01*
X141049500Y-117259311D01*
X141080199Y-117373882D01*
X141080201Y-117373887D01*
X141139508Y-117476609D01*
X141139509Y-117476610D01*
X141139511Y-117476613D01*
X141223387Y-117560489D01*
X141326114Y-117619799D01*
X141326115Y-117619799D01*
X141326117Y-117619800D01*
X141383402Y-117635149D01*
X141440688Y-117650499D01*
X141440689Y-117650500D01*
X141440691Y-117650500D01*
X141559311Y-117650500D01*
X141559311Y-117650499D01*
X141673886Y-117619799D01*
X141776613Y-117560489D01*
X141860489Y-117476613D01*
X141919799Y-117373886D01*
X141950499Y-117259311D01*
X141950500Y-117259311D01*
X141950500Y-117140689D01*
X141950499Y-117140688D01*
X141919800Y-117026117D01*
X141919796Y-117026108D01*
X141910414Y-117009857D01*
X141900500Y-116972858D01*
X141900500Y-114827140D01*
X141910414Y-114790140D01*
X141919799Y-114773886D01*
X141950499Y-114659311D01*
X141950500Y-114659311D01*
X141950500Y-114540689D01*
X141950499Y-114540688D01*
X141944089Y-114516767D01*
X141920319Y-114428055D01*
X141919800Y-114426117D01*
X141919796Y-114426108D01*
X141910414Y-114409857D01*
X141900500Y-114372858D01*
X141900500Y-110496544D01*
X141922173Y-110444219D01*
X143220480Y-109145913D01*
X143273207Y-109054588D01*
X143300500Y-108952727D01*
X143300500Y-108847273D01*
X143300500Y-106946543D01*
X143322173Y-106894218D01*
X144772583Y-105443807D01*
X144805758Y-105424656D01*
X144823882Y-105419800D01*
X144823883Y-105419800D01*
X144823883Y-105419799D01*
X144823886Y-105419799D01*
X144926613Y-105360489D01*
X145010489Y-105276613D01*
X145069799Y-105173886D01*
X145100499Y-105059311D01*
X145100500Y-105059311D01*
X145100500Y-104940689D01*
X145100499Y-104940688D01*
X145094089Y-104916767D01*
X145078495Y-104858567D01*
X145069800Y-104826117D01*
X145069796Y-104826108D01*
X145060414Y-104809857D01*
X145050500Y-104772858D01*
X145050500Y-102540688D01*
X147399500Y-102540688D01*
X147399500Y-102659311D01*
X147430199Y-102773882D01*
X147430201Y-102773887D01*
X147489508Y-102876609D01*
X147489509Y-102876610D01*
X147489511Y-102876613D01*
X147573387Y-102960489D01*
X147573389Y-102960490D01*
X147573390Y-102960491D01*
X147603415Y-102977826D01*
X147676114Y-103019799D01*
X147676115Y-103019799D01*
X147676117Y-103019800D01*
X147708666Y-103028522D01*
X147753599Y-103063001D01*
X147760991Y-103119153D01*
X147726512Y-103164086D01*
X147708666Y-103171478D01*
X147676117Y-103180199D01*
X147676112Y-103180201D01*
X147573390Y-103239508D01*
X147489508Y-103323390D01*
X147430201Y-103426112D01*
X147430199Y-103426117D01*
X147399500Y-103540688D01*
X147399500Y-103659311D01*
X147430199Y-103773882D01*
X147430201Y-103773887D01*
X147489508Y-103876609D01*
X147489509Y-103876610D01*
X147489511Y-103876613D01*
X147573387Y-103960489D01*
X147573389Y-103960490D01*
X147573390Y-103960491D01*
X147640955Y-103999500D01*
X147676114Y-104019799D01*
X147676115Y-104019799D01*
X147676117Y-104019800D01*
X147708666Y-104028522D01*
X147753599Y-104063001D01*
X147760991Y-104119153D01*
X147726512Y-104164086D01*
X147708666Y-104171478D01*
X147676117Y-104180199D01*
X147676112Y-104180201D01*
X147573390Y-104239508D01*
X147489508Y-104323390D01*
X147430201Y-104426112D01*
X147430199Y-104426117D01*
X147399500Y-104540688D01*
X147399500Y-104659311D01*
X147430199Y-104773882D01*
X147430201Y-104773887D01*
X147489508Y-104876609D01*
X147489509Y-104876610D01*
X147489511Y-104876613D01*
X147573387Y-104960489D01*
X147573389Y-104960490D01*
X147573390Y-104960491D01*
X147676112Y-105019798D01*
X147676114Y-105019799D01*
X147676115Y-105019799D01*
X147676117Y-105019800D01*
X147708666Y-105028522D01*
X147753599Y-105063001D01*
X147760991Y-105119153D01*
X147726512Y-105164086D01*
X147708666Y-105171478D01*
X147676117Y-105180199D01*
X147676112Y-105180201D01*
X147573390Y-105239508D01*
X147489508Y-105323390D01*
X147430201Y-105426112D01*
X147430199Y-105426117D01*
X147399500Y-105540688D01*
X147399500Y-105659311D01*
X147430199Y-105773882D01*
X147430201Y-105773887D01*
X147489508Y-105876609D01*
X147489509Y-105876610D01*
X147489511Y-105876613D01*
X147573387Y-105960489D01*
X147573389Y-105960490D01*
X147573390Y-105960491D01*
X147676112Y-106019798D01*
X147676114Y-106019799D01*
X147676115Y-106019799D01*
X147676117Y-106019800D01*
X147707582Y-106028231D01*
X147790688Y-106050499D01*
X147790689Y-106050500D01*
X147790691Y-106050500D01*
X147909311Y-106050500D01*
X147909311Y-106050499D01*
X148023886Y-106019799D01*
X148126613Y-105960489D01*
X148164929Y-105922173D01*
X148217254Y-105900500D01*
X149191902Y-105900500D01*
X149233015Y-105912972D01*
X149271767Y-105938866D01*
X149271768Y-105938866D01*
X149271769Y-105938867D01*
X149330252Y-105950500D01*
X149330254Y-105950500D01*
X150169746Y-105950500D01*
X150169748Y-105950500D01*
X150228231Y-105938867D01*
X150294552Y-105894552D01*
X150338867Y-105828231D01*
X150350500Y-105769748D01*
X150350500Y-105430252D01*
X150338867Y-105371769D01*
X150338866Y-105371768D01*
X150337445Y-105364621D01*
X150341628Y-105363788D01*
X150341527Y-105336191D01*
X150337445Y-105335379D01*
X150339830Y-105323390D01*
X150350500Y-105269748D01*
X150350500Y-104930252D01*
X150338867Y-104871769D01*
X150338866Y-104871768D01*
X150337445Y-104864621D01*
X150341628Y-104863788D01*
X150341527Y-104836191D01*
X150337445Y-104835379D01*
X150338867Y-104828231D01*
X150350500Y-104769748D01*
X150350500Y-104430252D01*
X150338867Y-104371769D01*
X150338866Y-104371768D01*
X150337445Y-104364621D01*
X150341628Y-104363788D01*
X150341527Y-104336191D01*
X150337445Y-104335379D01*
X150339830Y-104323390D01*
X150350500Y-104269748D01*
X150350500Y-103930252D01*
X150338867Y-103871769D01*
X150338866Y-103871768D01*
X150337445Y-103864621D01*
X150341628Y-103863788D01*
X150341527Y-103836191D01*
X150337445Y-103835379D01*
X150347563Y-103784511D01*
X150350500Y-103769748D01*
X150350500Y-103430252D01*
X150338867Y-103371769D01*
X150338866Y-103371768D01*
X150337445Y-103364621D01*
X150341628Y-103363788D01*
X150341527Y-103336191D01*
X150337445Y-103335379D01*
X150339830Y-103323390D01*
X150350500Y-103269748D01*
X150350500Y-102930252D01*
X150338867Y-102871769D01*
X150338866Y-102871768D01*
X150337445Y-102864621D01*
X150341628Y-102863788D01*
X150341527Y-102836191D01*
X150337445Y-102835379D01*
X150348893Y-102777826D01*
X150350500Y-102769748D01*
X150350500Y-102430252D01*
X150338867Y-102371769D01*
X150338866Y-102371768D01*
X150337445Y-102364621D01*
X150341628Y-102363788D01*
X150341527Y-102336191D01*
X150337445Y-102335379D01*
X150339830Y-102323390D01*
X150350500Y-102269748D01*
X150350500Y-101930252D01*
X150949500Y-101930252D01*
X150949500Y-102269748D01*
X150960170Y-102323390D01*
X150962555Y-102335379D01*
X150958448Y-102336195D01*
X150958448Y-102363804D01*
X150962555Y-102364621D01*
X150961133Y-102371768D01*
X150961133Y-102371769D01*
X150949500Y-102430252D01*
X150949500Y-102769748D01*
X150951107Y-102777826D01*
X150962555Y-102835379D01*
X150958448Y-102836195D01*
X150958448Y-102863804D01*
X150962555Y-102864621D01*
X150961133Y-102871768D01*
X150961133Y-102871769D01*
X150949500Y-102930252D01*
X150949500Y-103269748D01*
X150960170Y-103323390D01*
X150962555Y-103335379D01*
X150958448Y-103336195D01*
X150958448Y-103363804D01*
X150962555Y-103364621D01*
X150961133Y-103371768D01*
X150961133Y-103371769D01*
X150949500Y-103430252D01*
X150949500Y-103769748D01*
X150952437Y-103784511D01*
X150962555Y-103835379D01*
X150958448Y-103836195D01*
X150958448Y-103863804D01*
X150962555Y-103864621D01*
X150961133Y-103871768D01*
X150961133Y-103871769D01*
X150949500Y-103930252D01*
X150949500Y-104269748D01*
X150960170Y-104323390D01*
X150962555Y-104335379D01*
X150958448Y-104336195D01*
X150958448Y-104363804D01*
X150962555Y-104364621D01*
X150961133Y-104371768D01*
X150961133Y-104371769D01*
X150949500Y-104430252D01*
X150949500Y-104769748D01*
X150961133Y-104828231D01*
X150962555Y-104835379D01*
X150958448Y-104836195D01*
X150958448Y-104863804D01*
X150962555Y-104864621D01*
X150961133Y-104871768D01*
X150961133Y-104871769D01*
X150949500Y-104930252D01*
X150949500Y-105269748D01*
X150960170Y-105323390D01*
X150962555Y-105335379D01*
X150958448Y-105336195D01*
X150958448Y-105363804D01*
X150962555Y-105364621D01*
X150961133Y-105371768D01*
X150961133Y-105371769D01*
X150949500Y-105430252D01*
X150949500Y-105769748D01*
X150950595Y-105775252D01*
X150961133Y-105828232D01*
X150981899Y-105859309D01*
X151005448Y-105894552D01*
X151014350Y-105900500D01*
X151071767Y-105938866D01*
X151071768Y-105938866D01*
X151071769Y-105938867D01*
X151130252Y-105950500D01*
X151130254Y-105950500D01*
X151969746Y-105950500D01*
X151969748Y-105950500D01*
X152028231Y-105938867D01*
X152066985Y-105912972D01*
X152108098Y-105900500D01*
X181344877Y-105900500D01*
X181397203Y-105922174D01*
X181659540Y-106184511D01*
X181715489Y-106240460D01*
X181784011Y-106280021D01*
X181784012Y-106280021D01*
X181784014Y-106280022D01*
X181795994Y-106283232D01*
X181860435Y-106300499D01*
X181860436Y-106300500D01*
X181860438Y-106300500D01*
X188691583Y-106300500D01*
X188743909Y-106322174D01*
X188765583Y-106374500D01*
X188748931Y-106414701D01*
X188752088Y-106416864D01*
X188748214Y-106422518D01*
X188702910Y-106525124D01*
X188700000Y-106550210D01*
X188700000Y-106700000D01*
X191572999Y-106700000D01*
X191572999Y-106550210D01*
X194427000Y-106550210D01*
X194427000Y-106700000D01*
X197299999Y-106700000D01*
X197299999Y-106550207D01*
X197297091Y-106525131D01*
X197297089Y-106525125D01*
X197251786Y-106422521D01*
X197201219Y-106371954D01*
X197179545Y-106319628D01*
X197188275Y-106290874D01*
X197186078Y-106289964D01*
X197188866Y-106283232D01*
X197188865Y-106283232D01*
X197188867Y-106283231D01*
X197200500Y-106224748D01*
X197200500Y-105775252D01*
X197188867Y-105716769D01*
X197144552Y-105650448D01*
X197144551Y-105650447D01*
X197140503Y-105644389D01*
X197142569Y-105643008D01*
X197124755Y-105600000D01*
X197142569Y-105556991D01*
X197140503Y-105555611D01*
X197150473Y-105540691D01*
X197188867Y-105483231D01*
X197200500Y-105424748D01*
X197200500Y-104975252D01*
X197188867Y-104916769D01*
X197176636Y-104898465D01*
X197162035Y-104876613D01*
X197144552Y-104850448D01*
X197144551Y-104850447D01*
X197140503Y-104844389D01*
X197142569Y-104843008D01*
X197124755Y-104800000D01*
X197142569Y-104756991D01*
X197140503Y-104755611D01*
X197150473Y-104740691D01*
X197188867Y-104683231D01*
X197200500Y-104624748D01*
X197200500Y-104175252D01*
X197188867Y-104116769D01*
X197176636Y-104098465D01*
X197162035Y-104076613D01*
X197144552Y-104050448D01*
X197144551Y-104050447D01*
X197140503Y-104044389D01*
X197142569Y-104043008D01*
X197124755Y-104000000D01*
X197142569Y-103956991D01*
X197140503Y-103955611D01*
X197161676Y-103923925D01*
X197188867Y-103883231D01*
X197200500Y-103824748D01*
X197200500Y-103375252D01*
X197188867Y-103316769D01*
X197176636Y-103298465D01*
X197156529Y-103268373D01*
X197144552Y-103250448D01*
X197144551Y-103250447D01*
X197140503Y-103244389D01*
X197142569Y-103243008D01*
X197124755Y-103200000D01*
X197142569Y-103156991D01*
X197140503Y-103155611D01*
X197144587Y-103149500D01*
X197188867Y-103083231D01*
X197200500Y-103024748D01*
X197200500Y-102575252D01*
X197188867Y-102516769D01*
X197176636Y-102498465D01*
X197140503Y-102444389D01*
X197142569Y-102443008D01*
X197124755Y-102400000D01*
X197142569Y-102356991D01*
X197140503Y-102355611D01*
X197144587Y-102349500D01*
X197188867Y-102283231D01*
X197200500Y-102224748D01*
X197200500Y-101775252D01*
X197188867Y-101716769D01*
X197176636Y-101698465D01*
X197156529Y-101668373D01*
X197144552Y-101650448D01*
X197144551Y-101650447D01*
X197140503Y-101644389D01*
X197142569Y-101643008D01*
X197124755Y-101600000D01*
X197142569Y-101556991D01*
X197140503Y-101555611D01*
X197150628Y-101540459D01*
X197188867Y-101483231D01*
X197200500Y-101424748D01*
X197200500Y-100975252D01*
X197188867Y-100916769D01*
X197176636Y-100898465D01*
X197153476Y-100863804D01*
X197144552Y-100850448D01*
X197144551Y-100850447D01*
X197140503Y-100844389D01*
X197142569Y-100843008D01*
X197124755Y-100800000D01*
X197142569Y-100756991D01*
X197140503Y-100755611D01*
X197150473Y-100740691D01*
X197188867Y-100683231D01*
X197200500Y-100624748D01*
X197200500Y-100175252D01*
X197188867Y-100116769D01*
X197188866Y-100116767D01*
X197188866Y-100116766D01*
X197186077Y-100110032D01*
X197189457Y-100108631D01*
X197180971Y-100065920D01*
X197201221Y-100028044D01*
X197251785Y-99977480D01*
X197297089Y-99874875D01*
X197300000Y-99849789D01*
X197300000Y-99700000D01*
X194427001Y-99700000D01*
X194427001Y-99849792D01*
X194429908Y-99874868D01*
X194429910Y-99874874D01*
X194475213Y-99977478D01*
X194525780Y-100028045D01*
X194547454Y-100080371D01*
X194538733Y-100109128D01*
X194540922Y-100110035D01*
X194538133Y-100116767D01*
X194535451Y-100130252D01*
X194526500Y-100175252D01*
X194526500Y-100624748D01*
X194533375Y-100659309D01*
X194538133Y-100683232D01*
X194586497Y-100755611D01*
X194584430Y-100756991D01*
X194602245Y-100800000D01*
X194584430Y-100843008D01*
X194586497Y-100844389D01*
X194538133Y-100916767D01*
X194535451Y-100930252D01*
X194526500Y-100975252D01*
X194526500Y-101424748D01*
X194533609Y-101460489D01*
X194538133Y-101483232D01*
X194586497Y-101555611D01*
X194584430Y-101556991D01*
X194602245Y-101600000D01*
X194584430Y-101643008D01*
X194586497Y-101644389D01*
X194582448Y-101650447D01*
X194582448Y-101650448D01*
X194575739Y-101660489D01*
X194538133Y-101716767D01*
X194538133Y-101716769D01*
X194529309Y-101761133D01*
X194526500Y-101775253D01*
X194526500Y-102224746D01*
X194538133Y-102283232D01*
X194549672Y-102300500D01*
X194582413Y-102349500D01*
X194586497Y-102355611D01*
X194584430Y-102356991D01*
X194602245Y-102400000D01*
X194584430Y-102443008D01*
X194586497Y-102444389D01*
X194538133Y-102516767D01*
X194531523Y-102550000D01*
X194526500Y-102575252D01*
X194526500Y-103024748D01*
X194534109Y-103063001D01*
X194538133Y-103083232D01*
X194549672Y-103100500D01*
X194582413Y-103149500D01*
X194586497Y-103155611D01*
X194584430Y-103156991D01*
X194602245Y-103200000D01*
X194584430Y-103243008D01*
X194586497Y-103244389D01*
X194582448Y-103250447D01*
X194582448Y-103250448D01*
X194574528Y-103262299D01*
X194538133Y-103316767D01*
X194531622Y-103349500D01*
X194526595Y-103374777D01*
X194526500Y-103375253D01*
X194526500Y-103824746D01*
X194538133Y-103883232D01*
X194586497Y-103955611D01*
X194584430Y-103956991D01*
X194602245Y-104000000D01*
X194584430Y-104043008D01*
X194586497Y-104044389D01*
X194582448Y-104050447D01*
X194582448Y-104050448D01*
X194574528Y-104062299D01*
X194538133Y-104116767D01*
X194535451Y-104130252D01*
X194526500Y-104175252D01*
X194526500Y-104624748D01*
X194527595Y-104630252D01*
X194538133Y-104683232D01*
X194586497Y-104755611D01*
X194584430Y-104756991D01*
X194602245Y-104800000D01*
X194584430Y-104843008D01*
X194586497Y-104844389D01*
X194538133Y-104916767D01*
X194530377Y-104955757D01*
X194526500Y-104975252D01*
X194526500Y-105424748D01*
X194534255Y-105463736D01*
X194538133Y-105483232D01*
X194586497Y-105555611D01*
X194584430Y-105556991D01*
X194602245Y-105600000D01*
X194584430Y-105643008D01*
X194586497Y-105644389D01*
X194538133Y-105716767D01*
X194526500Y-105775253D01*
X194526500Y-106224746D01*
X194538133Y-106283233D01*
X194540923Y-106289968D01*
X194537543Y-106291367D01*
X194546026Y-106334092D01*
X194525779Y-106371954D01*
X194475214Y-106422519D01*
X194429910Y-106525124D01*
X194427000Y-106550210D01*
X191572999Y-106550210D01*
X191572999Y-106550207D01*
X191570091Y-106525131D01*
X191570089Y-106525125D01*
X191524786Y-106422521D01*
X191474219Y-106371954D01*
X191452545Y-106319628D01*
X191461275Y-106290874D01*
X191459078Y-106289964D01*
X191461866Y-106283232D01*
X191461865Y-106283232D01*
X191461867Y-106283231D01*
X191473500Y-106224748D01*
X191473500Y-105775252D01*
X191461867Y-105716769D01*
X191417552Y-105650448D01*
X191417551Y-105650447D01*
X191413503Y-105644389D01*
X191415569Y-105643008D01*
X191397755Y-105600000D01*
X191415569Y-105556991D01*
X191413503Y-105555611D01*
X191423473Y-105540691D01*
X191461867Y-105483231D01*
X191473500Y-105424748D01*
X191473500Y-104975252D01*
X191461867Y-104916769D01*
X191449636Y-104898465D01*
X191435035Y-104876613D01*
X191417552Y-104850448D01*
X191417551Y-104850447D01*
X191413503Y-104844389D01*
X191415569Y-104843008D01*
X191397755Y-104800000D01*
X191415569Y-104756991D01*
X191413503Y-104755611D01*
X191423473Y-104740691D01*
X191461867Y-104683231D01*
X191473500Y-104624748D01*
X191473500Y-104175252D01*
X191461867Y-104116769D01*
X191449636Y-104098465D01*
X191435035Y-104076613D01*
X191417552Y-104050448D01*
X191417551Y-104050447D01*
X191413503Y-104044389D01*
X191415569Y-104043008D01*
X191397755Y-104000000D01*
X191415569Y-103956991D01*
X191413503Y-103955611D01*
X191434676Y-103923925D01*
X191461867Y-103883231D01*
X191473500Y-103824748D01*
X191473500Y-103375252D01*
X191461867Y-103316769D01*
X191449636Y-103298465D01*
X191429529Y-103268373D01*
X191417552Y-103250448D01*
X191417551Y-103250447D01*
X191413503Y-103244389D01*
X191415569Y-103243008D01*
X191397755Y-103200000D01*
X191415569Y-103156991D01*
X191413503Y-103155611D01*
X191417587Y-103149500D01*
X191461867Y-103083231D01*
X191473500Y-103024748D01*
X191473500Y-102575252D01*
X191461867Y-102516769D01*
X191449636Y-102498465D01*
X191413503Y-102444389D01*
X191415569Y-102443008D01*
X191397755Y-102400000D01*
X191415569Y-102356991D01*
X191413503Y-102355611D01*
X191417587Y-102349500D01*
X191461867Y-102283231D01*
X191473500Y-102224748D01*
X191473500Y-101775252D01*
X191461867Y-101716769D01*
X191449636Y-101698465D01*
X191429529Y-101668373D01*
X191417552Y-101650448D01*
X191417551Y-101650447D01*
X191413503Y-101644389D01*
X191415569Y-101643008D01*
X191397755Y-101600000D01*
X191415569Y-101556991D01*
X191413503Y-101555611D01*
X191423628Y-101540459D01*
X191461867Y-101483231D01*
X191473500Y-101424748D01*
X191473500Y-100975252D01*
X191461867Y-100916769D01*
X191449636Y-100898465D01*
X191426476Y-100863804D01*
X191417552Y-100850448D01*
X191417551Y-100850447D01*
X191413503Y-100844389D01*
X191415569Y-100843008D01*
X191397755Y-100800000D01*
X191415569Y-100756991D01*
X191413503Y-100755611D01*
X191423473Y-100740691D01*
X191461867Y-100683231D01*
X191473500Y-100624748D01*
X191473500Y-100175252D01*
X191461867Y-100116769D01*
X191461866Y-100116767D01*
X191461866Y-100116766D01*
X191459077Y-100110032D01*
X191462457Y-100108631D01*
X191453971Y-100065920D01*
X191474221Y-100028044D01*
X191524785Y-99977480D01*
X191570089Y-99874875D01*
X191573000Y-99849789D01*
X191573000Y-99700000D01*
X188700001Y-99700000D01*
X188700001Y-99849792D01*
X188702908Y-99874868D01*
X188702910Y-99874874D01*
X188748214Y-99977481D01*
X188752088Y-99983136D01*
X188748931Y-99985298D01*
X188765583Y-100025500D01*
X188743909Y-100077826D01*
X188691583Y-100099500D01*
X180635436Y-100099500D01*
X180559014Y-100119977D01*
X180559009Y-100119979D01*
X180513692Y-100146144D01*
X180490488Y-100159540D01*
X178872203Y-101777826D01*
X178819877Y-101799500D01*
X152108098Y-101799500D01*
X152066985Y-101787028D01*
X152028232Y-101761133D01*
X152028233Y-101761133D01*
X151998989Y-101755316D01*
X151969748Y-101749500D01*
X151130252Y-101749500D01*
X151101010Y-101755316D01*
X151071767Y-101761133D01*
X151005449Y-101805447D01*
X151005447Y-101805449D01*
X150961133Y-101871767D01*
X150953377Y-101910757D01*
X150949500Y-101930252D01*
X150350500Y-101930252D01*
X150338867Y-101871769D01*
X150294552Y-101805448D01*
X150253215Y-101777827D01*
X150228232Y-101761133D01*
X150228233Y-101761133D01*
X150198989Y-101755316D01*
X150169748Y-101749500D01*
X149330252Y-101749500D01*
X149301010Y-101755316D01*
X149271767Y-101761133D01*
X149233015Y-101787028D01*
X149191902Y-101799500D01*
X148817254Y-101799500D01*
X148764929Y-101777827D01*
X148746642Y-101759540D01*
X148726613Y-101739511D01*
X148726610Y-101739509D01*
X148726609Y-101739508D01*
X148623887Y-101680201D01*
X148623882Y-101680199D01*
X148509311Y-101649500D01*
X148509309Y-101649500D01*
X148390691Y-101649500D01*
X148390689Y-101649500D01*
X148276117Y-101680199D01*
X148276112Y-101680201D01*
X148173390Y-101739508D01*
X148089508Y-101823390D01*
X148030201Y-101926112D01*
X148030199Y-101926117D01*
X147999500Y-102040688D01*
X147999500Y-102077227D01*
X147977826Y-102129553D01*
X147925500Y-102151227D01*
X147914171Y-102149738D01*
X147914120Y-102150133D01*
X147909311Y-102149500D01*
X147909309Y-102149500D01*
X147790691Y-102149500D01*
X147790689Y-102149500D01*
X147676117Y-102180199D01*
X147676112Y-102180201D01*
X147573390Y-102239508D01*
X147489508Y-102323390D01*
X147430201Y-102426112D01*
X147430199Y-102426117D01*
X147399500Y-102540688D01*
X145050500Y-102540688D01*
X145050500Y-98927140D01*
X145060414Y-98890140D01*
X145069799Y-98873886D01*
X145100499Y-98759311D01*
X145100500Y-98759311D01*
X145100500Y-98640689D01*
X145100499Y-98640688D01*
X145069800Y-98526117D01*
X145069798Y-98526112D01*
X145010491Y-98423390D01*
X145010490Y-98423389D01*
X145010489Y-98423387D01*
X144926613Y-98339511D01*
X144926610Y-98339509D01*
X144926609Y-98339508D01*
X144823887Y-98280201D01*
X144823882Y-98280199D01*
X144709311Y-98249500D01*
X144709309Y-98249500D01*
X144590691Y-98249500D01*
X144590689Y-98249500D01*
X144476117Y-98280199D01*
X144476112Y-98280201D01*
X144373390Y-98339508D01*
X144289508Y-98423390D01*
X144230201Y-98526112D01*
X144230199Y-98526117D01*
X144199500Y-98640688D01*
X144199500Y-98759311D01*
X144230199Y-98873882D01*
X144230200Y-98873884D01*
X144230201Y-98873886D01*
X144239585Y-98890140D01*
X144249500Y-98927140D01*
X144249500Y-104772858D01*
X144243867Y-104801177D01*
X144242010Y-104805660D01*
X144230201Y-104826114D01*
X144224088Y-104848927D01*
X144222232Y-104853408D01*
X144217072Y-104858567D01*
X144206191Y-104877415D01*
X142579517Y-106504090D01*
X142526792Y-106595412D01*
X142526793Y-106595413D01*
X142499500Y-106697273D01*
X142499500Y-108703455D01*
X142477826Y-108755781D01*
X141179517Y-110054090D01*
X141126792Y-110145412D01*
X141126793Y-110145413D01*
X141099500Y-110247273D01*
X141099500Y-114372858D01*
X141089586Y-114409857D01*
X141080203Y-114426108D01*
X141080199Y-114426117D01*
X141049500Y-114540688D01*
X127251858Y-114540688D01*
X127231858Y-114529141D01*
X127197381Y-114484208D01*
X127204774Y-114428055D01*
X127216535Y-114412729D01*
X127251786Y-114377478D01*
X127297089Y-114274875D01*
X127300000Y-114249789D01*
X127300000Y-114100000D01*
X124427001Y-114100000D01*
X124427001Y-114249792D01*
X121573000Y-114249792D01*
X121573000Y-114249789D01*
X121573000Y-114100000D01*
X118700001Y-114100000D01*
X118700001Y-114249792D01*
X118702908Y-114274868D01*
X118702910Y-114274874D01*
X118748214Y-114377481D01*
X118752088Y-114383136D01*
X118748931Y-114385298D01*
X118765583Y-114425500D01*
X118743909Y-114477826D01*
X118691583Y-114499500D01*
X118639562Y-114499500D01*
X118560438Y-114499500D01*
X118484012Y-114519978D01*
X118484011Y-114519978D01*
X118484009Y-114519979D01*
X118484007Y-114519980D01*
X118415492Y-114559537D01*
X117915489Y-115059540D01*
X117859540Y-115115488D01*
X117819979Y-115184009D01*
X117819977Y-115184014D01*
X117799500Y-115260435D01*
X117799500Y-115732746D01*
X117777827Y-115785071D01*
X117739508Y-115823390D01*
X117680201Y-115926112D01*
X117680199Y-115926117D01*
X117649500Y-116040688D01*
X108500500Y-116040688D01*
X108500500Y-113750210D01*
X118700000Y-113750210D01*
X118700000Y-113900000D01*
X121572999Y-113900000D01*
X121572999Y-113750210D01*
X124427000Y-113750210D01*
X124427000Y-113900000D01*
X127299999Y-113900000D01*
X127299999Y-113750207D01*
X127297091Y-113725131D01*
X127297089Y-113725125D01*
X127251786Y-113622521D01*
X127201219Y-113571954D01*
X127179545Y-113519628D01*
X127188275Y-113490874D01*
X127186078Y-113489964D01*
X127188866Y-113483232D01*
X127188865Y-113483232D01*
X127188867Y-113483231D01*
X127200500Y-113424748D01*
X127200500Y-112975252D01*
X127188867Y-112916769D01*
X127144552Y-112850448D01*
X127144551Y-112850447D01*
X127140503Y-112844389D01*
X127142569Y-112843008D01*
X127124755Y-112800000D01*
X127142569Y-112756991D01*
X127140503Y-112755611D01*
X127188866Y-112683232D01*
X127188865Y-112683232D01*
X127188867Y-112683231D01*
X127200500Y-112624748D01*
X127200500Y-112175252D01*
X127188867Y-112116769D01*
X127144552Y-112050448D01*
X127144551Y-112050447D01*
X127140503Y-112044389D01*
X127142569Y-112043008D01*
X127124755Y-112000000D01*
X127142569Y-111956991D01*
X127140503Y-111955611D01*
X127188866Y-111883232D01*
X127188865Y-111883232D01*
X127188867Y-111883231D01*
X127200500Y-111824748D01*
X127200500Y-111375252D01*
X127188867Y-111316769D01*
X127144552Y-111250448D01*
X127144551Y-111250447D01*
X127140503Y-111244389D01*
X127142569Y-111243008D01*
X127124755Y-111200000D01*
X127142569Y-111156991D01*
X127140503Y-111155611D01*
X127188866Y-111083232D01*
X127188865Y-111083232D01*
X127188867Y-111083231D01*
X127200500Y-111024748D01*
X127200500Y-110575252D01*
X127188867Y-110516769D01*
X127144552Y-110450448D01*
X127144551Y-110450447D01*
X127140503Y-110444389D01*
X127142569Y-110443008D01*
X127124755Y-110400000D01*
X127142569Y-110356991D01*
X127140503Y-110355611D01*
X127188866Y-110283232D01*
X127188865Y-110283232D01*
X127188867Y-110283231D01*
X127200500Y-110224748D01*
X127200500Y-109775252D01*
X127188867Y-109716769D01*
X127144552Y-109650448D01*
X127144551Y-109650447D01*
X127140503Y-109644389D01*
X127142569Y-109643008D01*
X127124755Y-109600000D01*
X127142569Y-109556991D01*
X127140503Y-109555611D01*
X127188866Y-109483232D01*
X127188865Y-109483232D01*
X127188867Y-109483231D01*
X127200500Y-109424748D01*
X127200500Y-108975252D01*
X127188867Y-108916769D01*
X127144552Y-108850448D01*
X127144551Y-108850447D01*
X127140503Y-108844389D01*
X127142569Y-108843008D01*
X127124755Y-108800000D01*
X127142569Y-108756991D01*
X127140503Y-108755611D01*
X127175354Y-108703455D01*
X127188867Y-108683231D01*
X127200500Y-108624748D01*
X127200500Y-108175252D01*
X127188867Y-108116769D01*
X127144552Y-108050448D01*
X127144551Y-108050447D01*
X127140503Y-108044389D01*
X127142569Y-108043008D01*
X127124755Y-108000000D01*
X127142569Y-107956991D01*
X127140503Y-107955611D01*
X127184252Y-107890138D01*
X127188867Y-107883231D01*
X127200500Y-107824748D01*
X127200500Y-107375252D01*
X127188867Y-107316769D01*
X127188866Y-107316767D01*
X127188866Y-107316766D01*
X127186077Y-107310032D01*
X127189457Y-107308631D01*
X127180971Y-107265920D01*
X127201221Y-107228044D01*
X127251785Y-107177480D01*
X127297089Y-107074875D01*
X127300000Y-107049789D01*
X127300000Y-106900000D01*
X124427001Y-106900000D01*
X124427001Y-107049792D01*
X124429908Y-107074868D01*
X124429910Y-107074874D01*
X124475213Y-107177478D01*
X124525780Y-107228045D01*
X124547454Y-107280371D01*
X124538733Y-107309128D01*
X124540922Y-107310035D01*
X124538133Y-107316767D01*
X124526500Y-107375253D01*
X124526500Y-107824746D01*
X124538133Y-107883232D01*
X124586497Y-107955611D01*
X124584430Y-107956991D01*
X124602245Y-108000000D01*
X124584430Y-108043008D01*
X124586497Y-108044389D01*
X124582448Y-108050447D01*
X124582448Y-108050448D01*
X124575739Y-108060489D01*
X124538133Y-108116767D01*
X124526500Y-108175253D01*
X124526500Y-108624746D01*
X124538133Y-108683232D01*
X124586497Y-108755611D01*
X124584430Y-108756991D01*
X124602245Y-108800000D01*
X124584430Y-108843008D01*
X124586497Y-108844389D01*
X124538133Y-108916767D01*
X124526500Y-108975253D01*
X124526500Y-109424746D01*
X124538133Y-109483232D01*
X124586497Y-109555611D01*
X124584430Y-109556991D01*
X124602245Y-109600000D01*
X124584430Y-109643008D01*
X124586497Y-109644389D01*
X124538133Y-109716767D01*
X124526500Y-109775253D01*
X124526500Y-110224746D01*
X124538133Y-110283232D01*
X124586497Y-110355611D01*
X124584430Y-110356991D01*
X124602245Y-110400000D01*
X124584430Y-110443008D01*
X124586497Y-110444389D01*
X124538133Y-110516767D01*
X124526500Y-110575253D01*
X124526500Y-111024746D01*
X124538133Y-111083232D01*
X124586497Y-111155611D01*
X124584430Y-111156991D01*
X124602245Y-111200000D01*
X124584430Y-111243008D01*
X124586497Y-111244389D01*
X124538133Y-111316767D01*
X124526500Y-111375253D01*
X124526500Y-111824746D01*
X124538133Y-111883232D01*
X124586497Y-111955611D01*
X124584430Y-111956991D01*
X124602245Y-112000000D01*
X124584430Y-112043008D01*
X124586497Y-112044389D01*
X124538133Y-112116767D01*
X124526500Y-112175253D01*
X124526500Y-112624746D01*
X124538133Y-112683232D01*
X124586497Y-112755611D01*
X124584430Y-112756991D01*
X124602245Y-112800000D01*
X124584430Y-112843008D01*
X124586497Y-112844389D01*
X124538133Y-112916767D01*
X124526500Y-112975253D01*
X124526500Y-113424746D01*
X124538133Y-113483233D01*
X124540923Y-113489968D01*
X124537543Y-113491367D01*
X124546026Y-113534092D01*
X124525779Y-113571954D01*
X124475214Y-113622519D01*
X124429910Y-113725124D01*
X124427000Y-113750210D01*
X121572999Y-113750210D01*
X121572999Y-113750207D01*
X121570091Y-113725131D01*
X121570089Y-113725125D01*
X121524786Y-113622521D01*
X121474219Y-113571954D01*
X121452545Y-113519628D01*
X121461275Y-113490874D01*
X121459078Y-113489964D01*
X121461866Y-113483232D01*
X121461865Y-113483232D01*
X121461867Y-113483231D01*
X121473500Y-113424748D01*
X121473500Y-112975252D01*
X121461867Y-112916769D01*
X121417552Y-112850448D01*
X121417551Y-112850447D01*
X121413503Y-112844389D01*
X121415569Y-112843008D01*
X121397755Y-112800000D01*
X121415569Y-112756991D01*
X121413503Y-112755611D01*
X121461866Y-112683232D01*
X121461865Y-112683232D01*
X121461867Y-112683231D01*
X121473500Y-112624748D01*
X121473500Y-112175252D01*
X121461867Y-112116769D01*
X121417552Y-112050448D01*
X121417551Y-112050447D01*
X121413503Y-112044389D01*
X121415569Y-112043008D01*
X121397755Y-112000000D01*
X121415569Y-111956991D01*
X121413503Y-111955611D01*
X121461866Y-111883232D01*
X121461865Y-111883232D01*
X121461867Y-111883231D01*
X121473500Y-111824748D01*
X121473500Y-111375252D01*
X121461867Y-111316769D01*
X121417552Y-111250448D01*
X121417551Y-111250447D01*
X121413503Y-111244389D01*
X121415569Y-111243008D01*
X121397755Y-111200000D01*
X121415569Y-111156991D01*
X121413503Y-111155611D01*
X121461866Y-111083232D01*
X121461865Y-111083232D01*
X121461867Y-111083231D01*
X121473500Y-111024748D01*
X121473500Y-110575252D01*
X121461867Y-110516769D01*
X121417552Y-110450448D01*
X121417551Y-110450447D01*
X121413503Y-110444389D01*
X121415569Y-110443008D01*
X121397755Y-110400000D01*
X121415569Y-110356991D01*
X121413503Y-110355611D01*
X121461866Y-110283232D01*
X121461865Y-110283232D01*
X121461867Y-110283231D01*
X121473500Y-110224748D01*
X121473500Y-109775252D01*
X121461867Y-109716769D01*
X121417552Y-109650448D01*
X121417551Y-109650447D01*
X121413503Y-109644389D01*
X121415569Y-109643008D01*
X121397755Y-109600000D01*
X121415569Y-109556991D01*
X121413503Y-109555611D01*
X121461866Y-109483232D01*
X121461865Y-109483232D01*
X121461867Y-109483231D01*
X121473500Y-109424748D01*
X121473500Y-108975252D01*
X121461867Y-108916769D01*
X121417552Y-108850448D01*
X121417551Y-108850447D01*
X121413503Y-108844389D01*
X121415569Y-108843008D01*
X121397755Y-108800000D01*
X121415569Y-108756991D01*
X121413503Y-108755611D01*
X121448354Y-108703455D01*
X121461867Y-108683231D01*
X121473500Y-108624748D01*
X121473500Y-108175252D01*
X121461867Y-108116769D01*
X121417552Y-108050448D01*
X121417551Y-108050447D01*
X121413503Y-108044389D01*
X121415569Y-108043008D01*
X121397755Y-108000000D01*
X121415569Y-107956991D01*
X121413503Y-107955611D01*
X121457252Y-107890138D01*
X121461867Y-107883231D01*
X121473500Y-107824748D01*
X121473500Y-107375252D01*
X121461867Y-107316769D01*
X121461866Y-107316767D01*
X121461866Y-107316766D01*
X121459077Y-107310032D01*
X121462457Y-107308631D01*
X121453971Y-107265920D01*
X121474221Y-107228044D01*
X121524785Y-107177480D01*
X121570089Y-107074875D01*
X121573000Y-107049789D01*
X121573000Y-106900000D01*
X118700001Y-106900000D01*
X118700001Y-107049792D01*
X118702908Y-107074868D01*
X118702910Y-107074874D01*
X118748213Y-107177478D01*
X118798780Y-107228045D01*
X118820454Y-107280371D01*
X118811733Y-107309128D01*
X118813922Y-107310035D01*
X118811133Y-107316767D01*
X118799500Y-107375253D01*
X118799500Y-107824746D01*
X118811133Y-107883232D01*
X118859497Y-107955611D01*
X118857430Y-107956991D01*
X118875245Y-108000000D01*
X118857430Y-108043008D01*
X118859497Y-108044389D01*
X118855448Y-108050447D01*
X118855448Y-108050448D01*
X118848739Y-108060489D01*
X118811133Y-108116767D01*
X118799500Y-108175253D01*
X118799500Y-108624746D01*
X118811133Y-108683232D01*
X118859497Y-108755611D01*
X118857430Y-108756991D01*
X118875245Y-108800000D01*
X118857430Y-108843008D01*
X118859497Y-108844389D01*
X118811133Y-108916767D01*
X118799500Y-108975253D01*
X118799500Y-109424746D01*
X118811133Y-109483232D01*
X118859497Y-109555611D01*
X118857430Y-109556991D01*
X118875245Y-109600000D01*
X118857430Y-109643008D01*
X118859497Y-109644389D01*
X118811133Y-109716767D01*
X118799500Y-109775253D01*
X118799500Y-110224746D01*
X118811133Y-110283232D01*
X118859497Y-110355611D01*
X118857430Y-110356991D01*
X118875245Y-110400000D01*
X118857430Y-110443008D01*
X118859497Y-110444389D01*
X118811133Y-110516767D01*
X118799500Y-110575253D01*
X118799500Y-111024746D01*
X118811133Y-111083232D01*
X118859497Y-111155611D01*
X118857430Y-111156991D01*
X118875245Y-111200000D01*
X118857430Y-111243008D01*
X118859497Y-111244389D01*
X118811133Y-111316767D01*
X118799500Y-111375253D01*
X118799500Y-111824746D01*
X118811133Y-111883232D01*
X118859497Y-111955611D01*
X118857430Y-111956991D01*
X118875245Y-112000000D01*
X118857430Y-112043008D01*
X118859497Y-112044389D01*
X118811133Y-112116767D01*
X118799500Y-112175253D01*
X118799500Y-112624746D01*
X118811133Y-112683232D01*
X118859497Y-112755611D01*
X118857430Y-112756991D01*
X118875245Y-112800000D01*
X118857430Y-112843008D01*
X118859497Y-112844389D01*
X118811133Y-112916767D01*
X118799500Y-112975253D01*
X118799500Y-113424746D01*
X118811133Y-113483233D01*
X118813923Y-113489968D01*
X118810543Y-113491367D01*
X118819026Y-113534092D01*
X118798779Y-113571954D01*
X118748214Y-113622519D01*
X118702910Y-113725124D01*
X118700000Y-113750210D01*
X108500500Y-113750210D01*
X108500500Y-106550210D01*
X118700000Y-106550210D01*
X118700000Y-106700000D01*
X121572999Y-106700000D01*
X121572999Y-106550210D01*
X124427000Y-106550210D01*
X124427000Y-106700000D01*
X127299999Y-106700000D01*
X127299999Y-106550207D01*
X127297091Y-106525131D01*
X127297089Y-106525125D01*
X127251785Y-106422518D01*
X127247912Y-106416864D01*
X127251068Y-106414701D01*
X127234417Y-106374500D01*
X127256091Y-106322174D01*
X127308417Y-106300500D01*
X127439564Y-106300500D01*
X127439564Y-106300499D01*
X127515989Y-106280021D01*
X127584511Y-106240460D01*
X127640460Y-106184511D01*
X127702797Y-106122174D01*
X127755123Y-106100500D01*
X136291902Y-106100500D01*
X136333015Y-106112972D01*
X136371767Y-106138866D01*
X136371768Y-106138866D01*
X136371769Y-106138867D01*
X136430252Y-106150500D01*
X136430254Y-106150500D01*
X137269746Y-106150500D01*
X137269748Y-106150500D01*
X137328231Y-106138867D01*
X137394552Y-106094552D01*
X137438867Y-106028231D01*
X137450500Y-105969748D01*
X137450500Y-105630252D01*
X137438867Y-105571769D01*
X137438866Y-105571768D01*
X137437445Y-105564621D01*
X137441628Y-105563788D01*
X137441527Y-105536191D01*
X137437445Y-105535379D01*
X137439830Y-105523390D01*
X137450500Y-105469748D01*
X137450500Y-105130252D01*
X137438867Y-105071769D01*
X137438866Y-105071768D01*
X137437445Y-105064621D01*
X137441628Y-105063788D01*
X137441527Y-105036191D01*
X137437445Y-105035379D01*
X137438867Y-105028231D01*
X137450500Y-104969748D01*
X137450500Y-104630252D01*
X137438867Y-104571769D01*
X137438866Y-104571768D01*
X137437445Y-104564621D01*
X137441628Y-104563788D01*
X137441527Y-104536191D01*
X137437445Y-104535379D01*
X137439830Y-104523390D01*
X137450500Y-104469748D01*
X137450500Y-104130252D01*
X137438867Y-104071769D01*
X137438866Y-104071768D01*
X137437445Y-104064621D01*
X137441628Y-104063788D01*
X137441527Y-104036191D01*
X137437445Y-104035379D01*
X137439410Y-104025500D01*
X137450500Y-103969748D01*
X137450500Y-103630252D01*
X137438867Y-103571769D01*
X137438866Y-103571768D01*
X137437445Y-103564621D01*
X137441628Y-103563788D01*
X137441527Y-103536191D01*
X137437445Y-103535379D01*
X137439830Y-103523390D01*
X137450500Y-103469748D01*
X137450500Y-103130252D01*
X137438867Y-103071769D01*
X137438866Y-103071768D01*
X137437445Y-103064621D01*
X137441628Y-103063788D01*
X137441527Y-103036191D01*
X137437445Y-103035379D01*
X137438867Y-103028231D01*
X137450500Y-102969748D01*
X137450500Y-102630252D01*
X137438867Y-102571769D01*
X137438866Y-102571768D01*
X137437445Y-102564621D01*
X137441628Y-102563788D01*
X137441527Y-102536191D01*
X137437445Y-102535379D01*
X137439830Y-102523390D01*
X137450500Y-102469748D01*
X137450500Y-102130252D01*
X138049500Y-102130252D01*
X138049500Y-102469748D01*
X138060170Y-102523390D01*
X138062555Y-102535379D01*
X138058448Y-102536195D01*
X138058448Y-102563804D01*
X138062555Y-102564621D01*
X138061133Y-102571768D01*
X138061133Y-102571769D01*
X138049500Y-102630252D01*
X138049500Y-102969748D01*
X138061133Y-103028231D01*
X138062555Y-103035379D01*
X138058448Y-103036195D01*
X138058448Y-103063804D01*
X138062555Y-103064621D01*
X138061133Y-103071768D01*
X138061133Y-103071769D01*
X138049500Y-103130252D01*
X138049500Y-103469748D01*
X138060170Y-103523390D01*
X138062555Y-103535379D01*
X138058448Y-103536195D01*
X138058448Y-103563804D01*
X138062555Y-103564621D01*
X138061133Y-103571768D01*
X138061133Y-103571769D01*
X138049500Y-103630252D01*
X138049500Y-103969748D01*
X138060590Y-104025500D01*
X138062555Y-104035379D01*
X138058448Y-104036195D01*
X138058448Y-104063804D01*
X138062555Y-104064621D01*
X138061133Y-104071768D01*
X138061133Y-104071769D01*
X138049500Y-104130252D01*
X138049500Y-104469748D01*
X138060170Y-104523390D01*
X138062555Y-104535379D01*
X138058448Y-104536195D01*
X138058448Y-104563804D01*
X138062555Y-104564621D01*
X138061133Y-104571768D01*
X138061133Y-104571769D01*
X138049500Y-104630252D01*
X138049500Y-104969748D01*
X138061133Y-105028231D01*
X138062555Y-105035379D01*
X138058448Y-105036195D01*
X138058448Y-105063804D01*
X138062555Y-105064621D01*
X138061133Y-105071768D01*
X138061133Y-105071769D01*
X138049500Y-105130252D01*
X138049500Y-105469748D01*
X138060170Y-105523390D01*
X138062555Y-105535379D01*
X138058448Y-105536195D01*
X138058448Y-105563804D01*
X138062555Y-105564621D01*
X138061133Y-105571768D01*
X138061133Y-105571769D01*
X138049500Y-105630252D01*
X138049500Y-105969748D01*
X138057255Y-106008736D01*
X138061133Y-106028232D01*
X138076012Y-106050499D01*
X138105448Y-106094552D01*
X138114350Y-106100500D01*
X138171767Y-106138866D01*
X138171768Y-106138866D01*
X138171769Y-106138867D01*
X138230252Y-106150500D01*
X138230254Y-106150500D01*
X139069746Y-106150500D01*
X139069748Y-106150500D01*
X139128231Y-106138867D01*
X139166985Y-106112972D01*
X139208098Y-106100500D01*
X140182746Y-106100500D01*
X140235071Y-106122173D01*
X140273387Y-106160489D01*
X140376114Y-106219799D01*
X140376115Y-106219799D01*
X140376117Y-106219800D01*
X140433402Y-106235149D01*
X140490688Y-106250499D01*
X140490689Y-106250500D01*
X140490691Y-106250500D01*
X140609311Y-106250500D01*
X140609311Y-106250499D01*
X140723886Y-106219799D01*
X140826613Y-106160489D01*
X140910489Y-106076613D01*
X140969799Y-105973886D01*
X141000499Y-105859311D01*
X141000500Y-105859311D01*
X141000500Y-105740689D01*
X141000499Y-105740688D01*
X140994089Y-105716767D01*
X140969799Y-105626114D01*
X140930157Y-105557452D01*
X140910491Y-105523390D01*
X140910490Y-105523389D01*
X140910489Y-105523387D01*
X140826613Y-105439511D01*
X140826610Y-105439509D01*
X140826609Y-105439508D01*
X140723887Y-105380201D01*
X140723882Y-105380199D01*
X140691333Y-105371478D01*
X140646400Y-105337000D01*
X140639008Y-105280847D01*
X140673486Y-105235914D01*
X140691333Y-105228522D01*
X140723882Y-105219800D01*
X140723881Y-105219800D01*
X140723886Y-105219799D01*
X140826613Y-105160489D01*
X140910489Y-105076613D01*
X140969799Y-104973886D01*
X141000499Y-104859311D01*
X141000500Y-104859311D01*
X141000500Y-104740689D01*
X141000499Y-104740688D01*
X140990406Y-104703022D01*
X140969799Y-104626114D01*
X140917884Y-104536195D01*
X140910491Y-104523390D01*
X140910490Y-104523389D01*
X140910489Y-104523387D01*
X140826613Y-104439511D01*
X140826610Y-104439509D01*
X140826609Y-104439508D01*
X140723887Y-104380201D01*
X140723882Y-104380199D01*
X140691333Y-104371478D01*
X140646400Y-104337000D01*
X140639008Y-104280847D01*
X140673486Y-104235914D01*
X140691333Y-104228522D01*
X140723882Y-104219800D01*
X140723881Y-104219800D01*
X140723886Y-104219799D01*
X140826613Y-104160489D01*
X140910489Y-104076613D01*
X140969799Y-103973886D01*
X141000499Y-103859311D01*
X141000500Y-103859311D01*
X141000500Y-103740689D01*
X141000499Y-103740688D01*
X140969800Y-103626117D01*
X140969798Y-103626112D01*
X140910491Y-103523390D01*
X140910490Y-103523389D01*
X140910489Y-103523387D01*
X140826613Y-103439511D01*
X140826610Y-103439509D01*
X140826609Y-103439508D01*
X140723887Y-103380201D01*
X140723882Y-103380199D01*
X140691333Y-103371478D01*
X140646400Y-103337000D01*
X140639008Y-103280847D01*
X140673486Y-103235914D01*
X140691333Y-103228522D01*
X140723882Y-103219800D01*
X140723881Y-103219800D01*
X140723886Y-103219799D01*
X140826613Y-103160489D01*
X140910489Y-103076613D01*
X140969799Y-102973886D01*
X141000499Y-102859311D01*
X141000500Y-102859311D01*
X141000500Y-102740689D01*
X141000499Y-102740688D01*
X140996429Y-102725500D01*
X140969799Y-102626114D01*
X140917884Y-102536195D01*
X140910491Y-102523390D01*
X140910490Y-102523389D01*
X140910489Y-102523387D01*
X140826613Y-102439511D01*
X140826610Y-102439509D01*
X140826609Y-102439508D01*
X140723887Y-102380201D01*
X140723882Y-102380199D01*
X140609311Y-102349500D01*
X140609309Y-102349500D01*
X140490691Y-102349500D01*
X140490689Y-102349500D01*
X140485880Y-102350133D01*
X140485552Y-102347646D01*
X140437477Y-102341299D01*
X140403014Y-102296353D01*
X140400500Y-102277227D01*
X140400500Y-102240689D01*
X140400499Y-102240688D01*
X140396429Y-102225500D01*
X140370908Y-102130252D01*
X140369800Y-102126117D01*
X140369798Y-102126112D01*
X140310491Y-102023390D01*
X140310490Y-102023389D01*
X140310489Y-102023387D01*
X140226613Y-101939511D01*
X140226610Y-101939509D01*
X140226609Y-101939508D01*
X140123887Y-101880201D01*
X140123882Y-101880199D01*
X140009311Y-101849500D01*
X140009309Y-101849500D01*
X139890691Y-101849500D01*
X139890689Y-101849500D01*
X139776117Y-101880199D01*
X139776112Y-101880201D01*
X139673390Y-101939508D01*
X139635071Y-101977827D01*
X139582746Y-101999500D01*
X139208098Y-101999500D01*
X139166985Y-101987028D01*
X139128232Y-101961133D01*
X139128233Y-101961133D01*
X139098989Y-101955316D01*
X139069748Y-101949500D01*
X138230252Y-101949500D01*
X138201010Y-101955316D01*
X138171767Y-101961133D01*
X138105449Y-102005447D01*
X138105447Y-102005449D01*
X138061133Y-102071767D01*
X138061133Y-102071769D01*
X138049500Y-102130252D01*
X137450500Y-102130252D01*
X137438867Y-102071769D01*
X137394552Y-102005448D01*
X137353215Y-101977827D01*
X137328232Y-101961133D01*
X137328233Y-101961133D01*
X137298989Y-101955316D01*
X137269748Y-101949500D01*
X136430252Y-101949500D01*
X136401010Y-101955316D01*
X136371767Y-101961133D01*
X136333015Y-101987028D01*
X136291902Y-101999500D01*
X130755123Y-101999500D01*
X130702797Y-101977826D01*
X128884512Y-100159541D01*
X128884511Y-100159540D01*
X128861308Y-100146144D01*
X128851729Y-100140613D01*
X128815990Y-100119979D01*
X128815985Y-100119977D01*
X128739564Y-100099500D01*
X128739562Y-100099500D01*
X127308417Y-100099500D01*
X127256091Y-100077826D01*
X127234417Y-100025500D01*
X127251068Y-99985298D01*
X127247912Y-99983136D01*
X127251785Y-99977481D01*
X127297089Y-99874875D01*
X127300000Y-99849789D01*
X127300000Y-99700000D01*
X124427001Y-99700000D01*
X124427001Y-99849792D01*
X124429908Y-99874868D01*
X124429910Y-99874874D01*
X124475213Y-99977478D01*
X124525780Y-100028045D01*
X124547454Y-100080371D01*
X124538733Y-100109128D01*
X124540922Y-100110035D01*
X124538133Y-100116767D01*
X124535451Y-100130252D01*
X124526500Y-100175252D01*
X124526500Y-100624748D01*
X124533375Y-100659309D01*
X124538133Y-100683232D01*
X124586497Y-100755611D01*
X124584430Y-100756991D01*
X124602245Y-100800000D01*
X124584430Y-100843008D01*
X124586497Y-100844389D01*
X124538133Y-100916767D01*
X124535451Y-100930252D01*
X124526500Y-100975252D01*
X124526500Y-101424748D01*
X124533609Y-101460489D01*
X124538133Y-101483232D01*
X124586497Y-101555611D01*
X124584430Y-101556991D01*
X124602245Y-101600000D01*
X124584430Y-101643008D01*
X124586497Y-101644389D01*
X124582448Y-101650447D01*
X124582448Y-101650448D01*
X124575739Y-101660489D01*
X124538133Y-101716767D01*
X124538133Y-101716769D01*
X124529309Y-101761133D01*
X124526500Y-101775253D01*
X124526500Y-102224746D01*
X124538133Y-102283232D01*
X124549672Y-102300500D01*
X124582413Y-102349500D01*
X124586497Y-102355611D01*
X124584430Y-102356991D01*
X124602245Y-102400000D01*
X124584430Y-102443008D01*
X124586497Y-102444389D01*
X124538133Y-102516767D01*
X124531523Y-102550000D01*
X124526500Y-102575252D01*
X124526500Y-103024748D01*
X124534109Y-103063001D01*
X124538133Y-103083232D01*
X124549672Y-103100500D01*
X124582413Y-103149500D01*
X124586497Y-103155611D01*
X124584430Y-103156991D01*
X124602245Y-103200000D01*
X124584430Y-103243008D01*
X124586497Y-103244389D01*
X124582448Y-103250447D01*
X124582448Y-103250448D01*
X124574528Y-103262299D01*
X124538133Y-103316767D01*
X124531622Y-103349500D01*
X124526595Y-103374777D01*
X124526500Y-103375253D01*
X124526500Y-103824746D01*
X124538133Y-103883232D01*
X124586497Y-103955611D01*
X124584430Y-103956991D01*
X124602245Y-104000000D01*
X124584430Y-104043008D01*
X124586497Y-104044389D01*
X124582448Y-104050447D01*
X124582448Y-104050448D01*
X124574528Y-104062299D01*
X124538133Y-104116767D01*
X124535451Y-104130252D01*
X124526500Y-104175252D01*
X124526500Y-104624748D01*
X124527595Y-104630252D01*
X124538133Y-104683232D01*
X124586497Y-104755611D01*
X124584430Y-104756991D01*
X124602245Y-104800000D01*
X124584430Y-104843008D01*
X124586497Y-104844389D01*
X124538133Y-104916767D01*
X124530377Y-104955757D01*
X124526500Y-104975252D01*
X124526500Y-105424748D01*
X124534255Y-105463736D01*
X124538133Y-105483232D01*
X124586497Y-105555611D01*
X124584430Y-105556991D01*
X124602245Y-105600000D01*
X124584430Y-105643008D01*
X124586497Y-105644389D01*
X124538133Y-105716767D01*
X124526500Y-105775253D01*
X124526500Y-106224746D01*
X124538133Y-106283233D01*
X124540923Y-106289968D01*
X124537543Y-106291367D01*
X124546026Y-106334092D01*
X124525779Y-106371954D01*
X124475214Y-106422519D01*
X124429910Y-106525124D01*
X124427000Y-106550210D01*
X121572999Y-106550210D01*
X121572999Y-106550207D01*
X121570091Y-106525131D01*
X121570089Y-106525125D01*
X121524786Y-106422521D01*
X121474219Y-106371954D01*
X121452545Y-106319628D01*
X121461275Y-106290874D01*
X121459078Y-106289964D01*
X121461866Y-106283232D01*
X121461865Y-106283232D01*
X121461867Y-106283231D01*
X121473500Y-106224748D01*
X121473500Y-105775252D01*
X121461867Y-105716769D01*
X121417552Y-105650448D01*
X121417551Y-105650447D01*
X121413503Y-105644389D01*
X121415569Y-105643008D01*
X121397755Y-105600000D01*
X121415569Y-105556991D01*
X121413503Y-105555611D01*
X121423473Y-105540691D01*
X121461867Y-105483231D01*
X121473500Y-105424748D01*
X121473500Y-104975252D01*
X121461867Y-104916769D01*
X121449636Y-104898465D01*
X121435035Y-104876613D01*
X121417552Y-104850448D01*
X121417551Y-104850447D01*
X121413503Y-104844389D01*
X121415569Y-104843008D01*
X121397755Y-104800000D01*
X121415569Y-104756991D01*
X121413503Y-104755611D01*
X121423473Y-104740691D01*
X121461867Y-104683231D01*
X121473500Y-104624748D01*
X121473500Y-104175252D01*
X121461867Y-104116769D01*
X121449636Y-104098465D01*
X121435035Y-104076613D01*
X121417552Y-104050448D01*
X121417551Y-104050447D01*
X121413503Y-104044389D01*
X121415569Y-104043008D01*
X121397755Y-104000000D01*
X121415569Y-103956991D01*
X121413503Y-103955611D01*
X121434676Y-103923925D01*
X121461867Y-103883231D01*
X121473500Y-103824748D01*
X121473500Y-103375252D01*
X121461867Y-103316769D01*
X121449636Y-103298465D01*
X121429529Y-103268373D01*
X121417552Y-103250448D01*
X121417551Y-103250447D01*
X121413503Y-103244389D01*
X121415569Y-103243008D01*
X121397755Y-103200000D01*
X121415569Y-103156991D01*
X121413503Y-103155611D01*
X121417587Y-103149500D01*
X121461867Y-103083231D01*
X121473500Y-103024748D01*
X121473500Y-102575252D01*
X121461867Y-102516769D01*
X121449636Y-102498465D01*
X121413503Y-102444389D01*
X121415569Y-102443008D01*
X121397755Y-102400000D01*
X121415569Y-102356991D01*
X121413503Y-102355611D01*
X121417587Y-102349500D01*
X121461867Y-102283231D01*
X121473500Y-102224748D01*
X121473500Y-101775252D01*
X121461867Y-101716769D01*
X121449636Y-101698465D01*
X121429529Y-101668373D01*
X121417552Y-101650448D01*
X121417551Y-101650447D01*
X121413503Y-101644389D01*
X121415569Y-101643008D01*
X121397755Y-101600000D01*
X121415569Y-101556991D01*
X121413503Y-101555611D01*
X121423628Y-101540459D01*
X121461867Y-101483231D01*
X121473500Y-101424748D01*
X121473500Y-100975252D01*
X121461867Y-100916769D01*
X121449636Y-100898465D01*
X121426476Y-100863804D01*
X121417552Y-100850448D01*
X121417551Y-100850447D01*
X121413503Y-100844389D01*
X121415569Y-100843008D01*
X121397755Y-100800000D01*
X121415569Y-100756991D01*
X121413503Y-100755611D01*
X121423473Y-100740691D01*
X121461867Y-100683231D01*
X121473500Y-100624748D01*
X121473500Y-100175252D01*
X121461867Y-100116769D01*
X121461866Y-100116767D01*
X121461866Y-100116766D01*
X121459077Y-100110032D01*
X121462457Y-100108631D01*
X121453971Y-100065920D01*
X121474221Y-100028044D01*
X121524785Y-99977480D01*
X121570089Y-99874875D01*
X121573000Y-99849789D01*
X121573000Y-99700000D01*
X118700001Y-99700000D01*
X118700001Y-99849792D01*
X118702908Y-99874868D01*
X118702910Y-99874874D01*
X118748213Y-99977478D01*
X118798780Y-100028045D01*
X118820454Y-100080371D01*
X118811733Y-100109128D01*
X118813922Y-100110035D01*
X118811133Y-100116767D01*
X118808451Y-100130252D01*
X118799500Y-100175252D01*
X118799500Y-100624748D01*
X118806375Y-100659309D01*
X118811133Y-100683232D01*
X118859497Y-100755611D01*
X118857430Y-100756991D01*
X118875245Y-100800000D01*
X118857430Y-100843008D01*
X118859497Y-100844389D01*
X118811133Y-100916767D01*
X118808451Y-100930252D01*
X118799500Y-100975252D01*
X118799500Y-101424748D01*
X118806609Y-101460489D01*
X118811133Y-101483232D01*
X118859497Y-101555611D01*
X118857430Y-101556991D01*
X118875245Y-101600000D01*
X118857430Y-101643008D01*
X118859497Y-101644389D01*
X118855448Y-101650447D01*
X118855448Y-101650448D01*
X118848739Y-101660489D01*
X118811133Y-101716767D01*
X118811133Y-101716769D01*
X118802309Y-101761133D01*
X118799500Y-101775253D01*
X118799500Y-102224746D01*
X118811133Y-102283232D01*
X118822672Y-102300500D01*
X118855413Y-102349500D01*
X118859497Y-102355611D01*
X118857430Y-102356991D01*
X118875245Y-102400000D01*
X118857430Y-102443008D01*
X118859497Y-102444389D01*
X118811133Y-102516767D01*
X118804523Y-102550000D01*
X118799500Y-102575252D01*
X118799500Y-103024748D01*
X118807109Y-103063001D01*
X118811133Y-103083232D01*
X118822672Y-103100500D01*
X118855413Y-103149500D01*
X118859497Y-103155611D01*
X118857430Y-103156991D01*
X118875245Y-103200000D01*
X118857430Y-103243008D01*
X118859497Y-103244389D01*
X118855448Y-103250447D01*
X118855448Y-103250448D01*
X118847528Y-103262299D01*
X118811133Y-103316767D01*
X118804622Y-103349500D01*
X118799595Y-103374777D01*
X118799500Y-103375253D01*
X118799500Y-103824746D01*
X118811133Y-103883232D01*
X118859497Y-103955611D01*
X118857430Y-103956991D01*
X118875245Y-104000000D01*
X118857430Y-104043008D01*
X118859497Y-104044389D01*
X118855448Y-104050447D01*
X118855448Y-104050448D01*
X118847528Y-104062299D01*
X118811133Y-104116767D01*
X118808451Y-104130252D01*
X118799500Y-104175252D01*
X118799500Y-104624748D01*
X118800595Y-104630252D01*
X118811133Y-104683232D01*
X118859497Y-104755611D01*
X118857430Y-104756991D01*
X118875245Y-104800000D01*
X118857430Y-104843008D01*
X118859497Y-104844389D01*
X118811133Y-104916767D01*
X118803377Y-104955757D01*
X118799500Y-104975252D01*
X118799500Y-105424748D01*
X118807255Y-105463736D01*
X118811133Y-105483232D01*
X118859497Y-105555611D01*
X118857430Y-105556991D01*
X118875245Y-105600000D01*
X118857430Y-105643008D01*
X118859497Y-105644389D01*
X118811133Y-105716767D01*
X118799500Y-105775253D01*
X118799500Y-106224746D01*
X118811133Y-106283233D01*
X118813923Y-106289968D01*
X118810543Y-106291367D01*
X118819026Y-106334092D01*
X118798779Y-106371954D01*
X118748214Y-106422519D01*
X118702910Y-106525124D01*
X118700000Y-106550210D01*
X108500500Y-106550210D01*
X108500500Y-99350210D01*
X118700000Y-99350210D01*
X118700000Y-99500000D01*
X121572999Y-99500000D01*
X121572999Y-99350210D01*
X124427000Y-99350210D01*
X124427000Y-99500000D01*
X127299999Y-99500000D01*
X127299999Y-99350207D01*
X127297091Y-99325131D01*
X127297089Y-99325125D01*
X127251785Y-99222518D01*
X127247912Y-99216864D01*
X127251068Y-99214701D01*
X127234417Y-99174500D01*
X127256091Y-99122174D01*
X127308417Y-99100500D01*
X129232057Y-99100500D01*
X129284383Y-99122174D01*
X131646720Y-101484511D01*
X131702669Y-101540460D01*
X131771191Y-101580021D01*
X131771192Y-101580021D01*
X131771194Y-101580022D01*
X131809404Y-101590260D01*
X131847615Y-101600499D01*
X131847616Y-101600500D01*
X131847618Y-101600500D01*
X131926742Y-101600500D01*
X136291902Y-101600500D01*
X136333015Y-101612972D01*
X136371767Y-101638866D01*
X136371768Y-101638866D01*
X136371769Y-101638867D01*
X136430252Y-101650500D01*
X136430254Y-101650500D01*
X137269746Y-101650500D01*
X137269748Y-101650500D01*
X137328231Y-101638867D01*
X137394552Y-101594552D01*
X137438867Y-101528231D01*
X137450500Y-101469748D01*
X137450500Y-101130252D01*
X137438867Y-101071769D01*
X137438866Y-101071768D01*
X137437445Y-101064621D01*
X137441628Y-101063788D01*
X137441527Y-101036191D01*
X137437445Y-101035379D01*
X137439830Y-101023390D01*
X137450500Y-100969748D01*
X137450500Y-100630252D01*
X137438867Y-100571769D01*
X137438866Y-100571768D01*
X137437445Y-100564621D01*
X137441628Y-100563788D01*
X137441527Y-100536191D01*
X137437445Y-100535379D01*
X137438867Y-100528231D01*
X137450500Y-100469748D01*
X137450500Y-100130252D01*
X137438867Y-100071769D01*
X137438866Y-100071768D01*
X137437445Y-100064621D01*
X137441628Y-100063788D01*
X137441527Y-100036191D01*
X137437445Y-100035379D01*
X137439830Y-100023390D01*
X137450500Y-99969748D01*
X137450500Y-99630252D01*
X137438867Y-99571769D01*
X137438866Y-99571768D01*
X137437445Y-99564621D01*
X137441628Y-99563788D01*
X137441527Y-99536191D01*
X137437445Y-99535379D01*
X137438867Y-99528231D01*
X137450500Y-99469748D01*
X137450500Y-99130252D01*
X137438867Y-99071769D01*
X137438866Y-99071768D01*
X137437445Y-99064621D01*
X137441628Y-99063788D01*
X137441527Y-99036191D01*
X137437445Y-99035379D01*
X137439830Y-99023390D01*
X137450500Y-98969748D01*
X137450500Y-98630252D01*
X137438867Y-98571769D01*
X137438866Y-98571768D01*
X137437445Y-98564621D01*
X137441628Y-98563788D01*
X137441527Y-98536191D01*
X137437445Y-98535379D01*
X137438867Y-98528231D01*
X137450500Y-98469748D01*
X137450500Y-98130252D01*
X137438867Y-98071769D01*
X137438866Y-98071768D01*
X137437445Y-98064621D01*
X137441628Y-98063788D01*
X137441527Y-98036191D01*
X137437445Y-98035379D01*
X137439830Y-98023390D01*
X137450500Y-97969748D01*
X137450500Y-97630252D01*
X138049500Y-97630252D01*
X138049500Y-97969748D01*
X138060170Y-98023390D01*
X138062555Y-98035379D01*
X138058448Y-98036195D01*
X138058448Y-98063804D01*
X138062555Y-98064621D01*
X138061133Y-98071768D01*
X138061133Y-98071769D01*
X138049500Y-98130252D01*
X138049500Y-98469748D01*
X138061133Y-98528231D01*
X138062555Y-98535379D01*
X138058448Y-98536195D01*
X138058448Y-98563804D01*
X138062555Y-98564621D01*
X138061133Y-98571768D01*
X138061133Y-98571769D01*
X138049500Y-98630252D01*
X138049500Y-98969748D01*
X138060170Y-99023390D01*
X138062555Y-99035379D01*
X138058448Y-99036195D01*
X138058448Y-99063804D01*
X138062555Y-99064621D01*
X138061133Y-99071768D01*
X138061133Y-99071769D01*
X138049500Y-99130252D01*
X138049500Y-99469748D01*
X138061133Y-99528231D01*
X138062555Y-99535379D01*
X138058448Y-99536195D01*
X138058448Y-99563804D01*
X138062555Y-99564621D01*
X138061133Y-99571768D01*
X138061133Y-99571769D01*
X138049500Y-99630252D01*
X138049500Y-99969748D01*
X138060170Y-100023390D01*
X138062555Y-100035379D01*
X138058448Y-100036195D01*
X138058448Y-100063804D01*
X138062555Y-100064621D01*
X138061133Y-100071768D01*
X138061133Y-100071769D01*
X138049500Y-100130252D01*
X138049500Y-100469748D01*
X138061133Y-100528231D01*
X138062555Y-100535379D01*
X138058448Y-100536195D01*
X138058448Y-100563804D01*
X138062555Y-100564621D01*
X138061133Y-100571768D01*
X138061133Y-100571769D01*
X138049500Y-100630252D01*
X138049500Y-100969748D01*
X138060170Y-101023390D01*
X138062555Y-101035379D01*
X138058448Y-101036195D01*
X138058448Y-101063804D01*
X138062555Y-101064621D01*
X138061133Y-101071768D01*
X138061133Y-101071769D01*
X138049500Y-101130252D01*
X138049500Y-101469748D01*
X138052182Y-101483231D01*
X138061133Y-101528232D01*
X138069304Y-101540460D01*
X138105448Y-101594552D01*
X138133015Y-101612972D01*
X138171767Y-101638866D01*
X138171768Y-101638866D01*
X138171769Y-101638867D01*
X138230252Y-101650500D01*
X138230254Y-101650500D01*
X139069746Y-101650500D01*
X139069748Y-101650500D01*
X139128231Y-101638867D01*
X139166985Y-101612972D01*
X139208098Y-101600500D01*
X140182746Y-101600500D01*
X140235071Y-101622173D01*
X140273387Y-101660489D01*
X140273389Y-101660490D01*
X140273390Y-101660491D01*
X140340955Y-101699500D01*
X140376114Y-101719799D01*
X140376115Y-101719799D01*
X140376117Y-101719800D01*
X140433402Y-101735149D01*
X140490688Y-101750499D01*
X140490689Y-101750500D01*
X140490691Y-101750500D01*
X140609311Y-101750500D01*
X140609311Y-101750499D01*
X140723886Y-101719799D01*
X140826613Y-101660489D01*
X140910489Y-101576613D01*
X140969799Y-101473886D01*
X141000499Y-101359311D01*
X141000500Y-101359311D01*
X141000500Y-101240689D01*
X141000499Y-101240688D01*
X140969800Y-101126117D01*
X140969798Y-101126112D01*
X140910491Y-101023390D01*
X140910490Y-101023389D01*
X140910489Y-101023387D01*
X140826613Y-100939511D01*
X140826610Y-100939509D01*
X140826609Y-100939508D01*
X140723887Y-100880201D01*
X140723882Y-100880199D01*
X140691333Y-100871478D01*
X140646400Y-100837000D01*
X140639008Y-100780847D01*
X140673486Y-100735914D01*
X140691333Y-100728522D01*
X140723882Y-100719800D01*
X140723881Y-100719800D01*
X140723886Y-100719799D01*
X140826613Y-100660489D01*
X140910489Y-100576613D01*
X140969799Y-100473886D01*
X141000499Y-100359311D01*
X141000500Y-100359311D01*
X141000500Y-100240689D01*
X141000499Y-100240688D01*
X140996429Y-100225500D01*
X140969799Y-100126114D01*
X140964404Y-100116769D01*
X140910491Y-100023390D01*
X140910490Y-100023389D01*
X140910489Y-100023387D01*
X140826613Y-99939511D01*
X140826610Y-99939509D01*
X140826609Y-99939508D01*
X140723887Y-99880201D01*
X140723882Y-99880199D01*
X140691333Y-99871478D01*
X140646400Y-99837000D01*
X140639008Y-99780847D01*
X140673486Y-99735914D01*
X140691333Y-99728522D01*
X140723882Y-99719800D01*
X140723881Y-99719800D01*
X140723886Y-99719799D01*
X140826613Y-99660489D01*
X140910489Y-99576613D01*
X140969799Y-99473886D01*
X141000499Y-99359311D01*
X141000500Y-99359311D01*
X141000500Y-99240689D01*
X141000499Y-99240688D01*
X140996429Y-99225500D01*
X140969799Y-99126114D01*
X140948928Y-99089964D01*
X140910491Y-99023390D01*
X140910490Y-99023389D01*
X140910489Y-99023387D01*
X140826613Y-98939511D01*
X140826610Y-98939509D01*
X140826609Y-98939508D01*
X140723887Y-98880201D01*
X140723882Y-98880199D01*
X140691333Y-98871478D01*
X140646400Y-98837000D01*
X140639008Y-98780847D01*
X140673486Y-98735914D01*
X140691333Y-98728522D01*
X140723882Y-98719800D01*
X140723881Y-98719800D01*
X140723886Y-98719799D01*
X140826613Y-98660489D01*
X140910489Y-98576613D01*
X140969799Y-98473886D01*
X141000499Y-98359311D01*
X141000500Y-98359311D01*
X141000500Y-98240689D01*
X141000499Y-98240688D01*
X140996429Y-98225500D01*
X140969799Y-98126114D01*
X140925854Y-98050000D01*
X140920478Y-98040688D01*
X147399500Y-98040688D01*
X147399500Y-98159311D01*
X147430199Y-98273882D01*
X147430201Y-98273887D01*
X147489508Y-98376609D01*
X147489509Y-98376610D01*
X147489511Y-98376613D01*
X147573387Y-98460489D01*
X147573389Y-98460490D01*
X147573390Y-98460491D01*
X147640955Y-98499500D01*
X147676114Y-98519799D01*
X147676115Y-98519799D01*
X147676117Y-98519800D01*
X147708666Y-98528522D01*
X147753599Y-98563001D01*
X147760991Y-98619153D01*
X147726512Y-98664086D01*
X147708666Y-98671478D01*
X147676117Y-98680199D01*
X147676112Y-98680201D01*
X147573390Y-98739508D01*
X147489508Y-98823390D01*
X147430201Y-98926112D01*
X147430199Y-98926117D01*
X147399500Y-99040688D01*
X147399500Y-99159311D01*
X147430199Y-99273882D01*
X147430201Y-99273887D01*
X147489508Y-99376609D01*
X147489509Y-99376610D01*
X147489511Y-99376613D01*
X147573387Y-99460489D01*
X147573389Y-99460490D01*
X147573390Y-99460491D01*
X147603415Y-99477826D01*
X147676114Y-99519799D01*
X147676115Y-99519799D01*
X147676117Y-99519800D01*
X147708666Y-99528522D01*
X147753599Y-99563001D01*
X147760991Y-99619153D01*
X147726512Y-99664086D01*
X147708666Y-99671478D01*
X147676117Y-99680199D01*
X147676112Y-99680201D01*
X147573390Y-99739508D01*
X147489508Y-99823390D01*
X147430201Y-99926112D01*
X147430199Y-99926117D01*
X147399500Y-100040688D01*
X147399500Y-100159311D01*
X147430199Y-100273882D01*
X147430201Y-100273887D01*
X147489508Y-100376609D01*
X147489509Y-100376610D01*
X147489511Y-100376613D01*
X147573387Y-100460489D01*
X147573389Y-100460490D01*
X147573390Y-100460491D01*
X147614994Y-100484511D01*
X147676114Y-100519799D01*
X147676115Y-100519799D01*
X147676117Y-100519800D01*
X147708666Y-100528522D01*
X147753599Y-100563001D01*
X147760991Y-100619153D01*
X147726512Y-100664086D01*
X147708666Y-100671478D01*
X147676117Y-100680199D01*
X147676112Y-100680201D01*
X147573390Y-100739508D01*
X147489508Y-100823390D01*
X147430201Y-100926112D01*
X147430199Y-100926117D01*
X147399500Y-101040688D01*
X147399500Y-101159311D01*
X147430199Y-101273882D01*
X147430201Y-101273887D01*
X147489508Y-101376609D01*
X147489509Y-101376610D01*
X147489511Y-101376613D01*
X147573387Y-101460489D01*
X147573389Y-101460490D01*
X147573390Y-101460491D01*
X147614994Y-101484511D01*
X147676114Y-101519799D01*
X147676115Y-101519799D01*
X147676117Y-101519800D01*
X147707582Y-101528231D01*
X147790688Y-101550499D01*
X147790689Y-101550500D01*
X147790691Y-101550500D01*
X147909311Y-101550500D01*
X147909311Y-101550499D01*
X148023886Y-101519799D01*
X148126613Y-101460489D01*
X148164929Y-101422173D01*
X148217254Y-101400500D01*
X149191902Y-101400500D01*
X149233015Y-101412972D01*
X149271767Y-101438866D01*
X149271768Y-101438866D01*
X149271769Y-101438867D01*
X149330252Y-101450500D01*
X149330254Y-101450500D01*
X150169746Y-101450500D01*
X150169748Y-101450500D01*
X150228231Y-101438867D01*
X150294552Y-101394552D01*
X150338867Y-101328231D01*
X150350500Y-101269748D01*
X150350500Y-100930252D01*
X150338867Y-100871769D01*
X150338866Y-100871768D01*
X150337445Y-100864621D01*
X150341628Y-100863788D01*
X150341527Y-100836191D01*
X150337445Y-100835379D01*
X150339830Y-100823390D01*
X150350500Y-100769748D01*
X150350500Y-100430252D01*
X150338867Y-100371769D01*
X150338866Y-100371768D01*
X150337445Y-100364621D01*
X150341628Y-100363788D01*
X150341527Y-100336191D01*
X150337445Y-100335379D01*
X150348893Y-100277826D01*
X150350500Y-100269748D01*
X150350500Y-99930252D01*
X150338867Y-99871769D01*
X150338866Y-99871768D01*
X150337445Y-99864621D01*
X150341628Y-99863788D01*
X150341527Y-99836191D01*
X150337445Y-99835379D01*
X150339830Y-99823390D01*
X150350500Y-99769748D01*
X150350500Y-99430252D01*
X150338867Y-99371769D01*
X150338866Y-99371768D01*
X150337445Y-99364621D01*
X150341628Y-99363788D01*
X150341527Y-99336191D01*
X150337445Y-99335379D01*
X150338867Y-99328231D01*
X150350500Y-99269748D01*
X150350500Y-98930252D01*
X150338867Y-98871769D01*
X150338866Y-98871768D01*
X150337445Y-98864621D01*
X150341628Y-98863788D01*
X150341527Y-98836191D01*
X150337445Y-98835379D01*
X150339830Y-98823390D01*
X150350500Y-98769748D01*
X150350500Y-98430252D01*
X150338867Y-98371769D01*
X150338866Y-98371768D01*
X150337445Y-98364621D01*
X150341628Y-98363788D01*
X150341527Y-98336191D01*
X150337445Y-98335379D01*
X150347818Y-98283231D01*
X150350500Y-98269748D01*
X150350500Y-97930252D01*
X150338867Y-97871769D01*
X150338866Y-97871768D01*
X150337445Y-97864621D01*
X150341628Y-97863788D01*
X150341527Y-97836191D01*
X150337445Y-97835379D01*
X150339830Y-97823390D01*
X150350500Y-97769748D01*
X150350500Y-97430252D01*
X150949500Y-97430252D01*
X150949500Y-97769748D01*
X150960170Y-97823390D01*
X150962555Y-97835379D01*
X150958448Y-97836195D01*
X150958448Y-97863804D01*
X150962555Y-97864621D01*
X150961133Y-97871768D01*
X150961133Y-97871769D01*
X150949500Y-97930252D01*
X150949500Y-98269748D01*
X150952182Y-98283231D01*
X150962555Y-98335379D01*
X150958448Y-98336195D01*
X150958448Y-98363804D01*
X150962555Y-98364621D01*
X150961133Y-98371768D01*
X150961133Y-98371769D01*
X150949500Y-98430252D01*
X150949500Y-98769748D01*
X150960170Y-98823390D01*
X150962555Y-98835379D01*
X150958448Y-98836195D01*
X150958448Y-98863804D01*
X150962555Y-98864621D01*
X150961133Y-98871768D01*
X150961133Y-98871769D01*
X150949500Y-98930252D01*
X150949500Y-99269748D01*
X150961133Y-99328231D01*
X150962555Y-99335379D01*
X150958448Y-99336195D01*
X150958448Y-99363804D01*
X150962555Y-99364621D01*
X150961133Y-99371768D01*
X150961133Y-99371769D01*
X150949500Y-99430252D01*
X150949500Y-99769748D01*
X150960170Y-99823390D01*
X150962555Y-99835379D01*
X150958448Y-99836195D01*
X150958448Y-99863804D01*
X150962555Y-99864621D01*
X150961133Y-99871768D01*
X150961133Y-99871769D01*
X150949500Y-99930252D01*
X150949500Y-100269748D01*
X150951107Y-100277826D01*
X150962555Y-100335379D01*
X150958448Y-100336195D01*
X150958448Y-100363804D01*
X150962555Y-100364621D01*
X150961133Y-100371768D01*
X150961133Y-100371769D01*
X150949500Y-100430252D01*
X150949500Y-100769748D01*
X150960170Y-100823390D01*
X150962555Y-100835379D01*
X150958448Y-100836195D01*
X150958448Y-100863804D01*
X150962555Y-100864621D01*
X150961133Y-100871768D01*
X150961133Y-100871769D01*
X150949500Y-100930252D01*
X150949500Y-101269748D01*
X150952437Y-101284511D01*
X150961133Y-101328232D01*
X150969304Y-101340460D01*
X151005448Y-101394552D01*
X151014350Y-101400500D01*
X151071767Y-101438866D01*
X151071768Y-101438866D01*
X151071769Y-101438867D01*
X151130252Y-101450500D01*
X151130254Y-101450500D01*
X151969746Y-101450500D01*
X151969748Y-101450500D01*
X152028231Y-101438867D01*
X152066985Y-101412972D01*
X152108098Y-101400500D01*
X177464564Y-101400500D01*
X177464564Y-101400499D01*
X177540989Y-101380021D01*
X177609511Y-101340460D01*
X177665460Y-101284511D01*
X179827797Y-99122174D01*
X179880123Y-99100500D01*
X188691583Y-99100500D01*
X188743909Y-99122174D01*
X188765583Y-99174500D01*
X188748931Y-99214701D01*
X188752088Y-99216864D01*
X188748214Y-99222518D01*
X188702910Y-99325124D01*
X188700000Y-99350210D01*
X188700000Y-99500000D01*
X191572999Y-99500000D01*
X191572999Y-99350210D01*
X194427000Y-99350210D01*
X194427000Y-99500000D01*
X197299999Y-99500000D01*
X197299999Y-99350207D01*
X197297091Y-99325131D01*
X197297089Y-99325125D01*
X197251786Y-99222521D01*
X197201219Y-99171954D01*
X197179545Y-99119628D01*
X197188275Y-99090874D01*
X197186078Y-99089964D01*
X197188866Y-99083232D01*
X197188865Y-99083232D01*
X197188867Y-99083231D01*
X197200500Y-99024748D01*
X197200500Y-98575252D01*
X197188867Y-98516769D01*
X197176636Y-98498465D01*
X197155353Y-98466613D01*
X197144552Y-98450448D01*
X197144551Y-98450447D01*
X197140503Y-98444389D01*
X197142569Y-98443008D01*
X197124755Y-98400000D01*
X197142569Y-98356991D01*
X197140503Y-98355611D01*
X197153480Y-98336191D01*
X197188867Y-98283231D01*
X197200500Y-98224748D01*
X197200500Y-97775252D01*
X197188867Y-97716769D01*
X197176636Y-97698465D01*
X197150473Y-97659309D01*
X197144552Y-97650448D01*
X197144551Y-97650447D01*
X197140503Y-97644389D01*
X197142569Y-97643008D01*
X197124755Y-97600000D01*
X197142569Y-97556991D01*
X197140503Y-97555611D01*
X197150473Y-97540691D01*
X197188867Y-97483231D01*
X197200500Y-97424748D01*
X197200500Y-96975252D01*
X197188867Y-96916769D01*
X197176636Y-96898465D01*
X197140503Y-96844389D01*
X197142569Y-96843008D01*
X197124755Y-96800000D01*
X197142569Y-96756991D01*
X197140503Y-96755611D01*
X197162846Y-96722174D01*
X197188867Y-96683231D01*
X197200500Y-96624748D01*
X197200500Y-96175252D01*
X197188867Y-96116769D01*
X197176636Y-96098465D01*
X197140503Y-96044389D01*
X197142569Y-96043008D01*
X197124755Y-96000000D01*
X197142569Y-95956991D01*
X197140503Y-95955611D01*
X197162846Y-95922174D01*
X197188867Y-95883231D01*
X197200500Y-95824748D01*
X197200500Y-95375252D01*
X197188867Y-95316769D01*
X197176636Y-95298465D01*
X197140503Y-95244389D01*
X197142569Y-95243008D01*
X197124755Y-95200000D01*
X197142569Y-95156991D01*
X197140503Y-95155611D01*
X197162846Y-95122174D01*
X197188867Y-95083231D01*
X197200500Y-95024748D01*
X197200500Y-94575252D01*
X197188867Y-94516769D01*
X197176636Y-94498465D01*
X197140503Y-94444389D01*
X197142569Y-94443008D01*
X197124755Y-94400000D01*
X197142569Y-94356991D01*
X197140503Y-94355611D01*
X197162846Y-94322174D01*
X197188867Y-94283231D01*
X197200500Y-94224748D01*
X197200500Y-93775252D01*
X197188867Y-93716769D01*
X197176636Y-93698465D01*
X197140503Y-93644389D01*
X197142569Y-93643008D01*
X197124755Y-93600000D01*
X197142569Y-93556991D01*
X197140503Y-93555611D01*
X197162846Y-93522174D01*
X197188867Y-93483231D01*
X197200500Y-93424748D01*
X197200500Y-92975252D01*
X197188867Y-92916769D01*
X197188866Y-92916767D01*
X197188866Y-92916766D01*
X197186077Y-92910032D01*
X197189457Y-92908631D01*
X197180971Y-92865920D01*
X197201221Y-92828044D01*
X197251785Y-92777480D01*
X197297089Y-92674875D01*
X197300000Y-92649789D01*
X197300000Y-92500000D01*
X194427001Y-92500000D01*
X194427001Y-92649792D01*
X194429908Y-92674868D01*
X194429910Y-92674874D01*
X194475213Y-92777478D01*
X194525780Y-92828045D01*
X194547454Y-92880371D01*
X194538733Y-92909128D01*
X194540922Y-92910035D01*
X194538133Y-92916767D01*
X194526500Y-92975253D01*
X194526500Y-93424746D01*
X194538133Y-93483232D01*
X194586497Y-93555611D01*
X194584430Y-93556991D01*
X194602245Y-93600000D01*
X194584430Y-93643008D01*
X194586497Y-93644389D01*
X194538133Y-93716767D01*
X194526500Y-93775253D01*
X194526500Y-94224746D01*
X194538133Y-94283232D01*
X194586497Y-94355611D01*
X194584430Y-94356991D01*
X194602245Y-94400000D01*
X194584430Y-94443008D01*
X194586497Y-94444389D01*
X194538133Y-94516767D01*
X194526500Y-94575253D01*
X194526500Y-95024746D01*
X194538133Y-95083232D01*
X194586497Y-95155611D01*
X194584430Y-95156991D01*
X194602245Y-95200000D01*
X194584430Y-95243008D01*
X194586497Y-95244389D01*
X194538133Y-95316767D01*
X194526500Y-95375253D01*
X194526500Y-95824746D01*
X194538133Y-95883232D01*
X194586497Y-95955611D01*
X194584430Y-95956991D01*
X194602245Y-96000000D01*
X194584430Y-96043008D01*
X194586497Y-96044389D01*
X194538133Y-96116767D01*
X194526500Y-96175253D01*
X194526500Y-96624746D01*
X194538133Y-96683232D01*
X194586497Y-96755611D01*
X194584430Y-96756991D01*
X194602245Y-96800000D01*
X194584430Y-96843008D01*
X194586497Y-96844389D01*
X194538133Y-96916767D01*
X194538133Y-96916769D01*
X194526500Y-96975252D01*
X194526500Y-97424748D01*
X194533737Y-97461133D01*
X194538133Y-97483232D01*
X194586497Y-97555611D01*
X194584430Y-97556991D01*
X194602245Y-97600000D01*
X194584430Y-97643008D01*
X194586497Y-97644389D01*
X194582448Y-97650447D01*
X194582448Y-97650448D01*
X194576527Y-97659309D01*
X194538133Y-97716767D01*
X194530377Y-97755757D01*
X194526500Y-97775252D01*
X194526500Y-98224748D01*
X194534255Y-98263736D01*
X194538133Y-98283232D01*
X194586497Y-98355611D01*
X194584430Y-98356991D01*
X194602245Y-98400000D01*
X194584430Y-98443008D01*
X194586497Y-98444389D01*
X194538133Y-98516767D01*
X194526500Y-98575253D01*
X194526500Y-99024746D01*
X194538133Y-99083233D01*
X194540923Y-99089968D01*
X194537543Y-99091367D01*
X194546026Y-99134092D01*
X194525779Y-99171954D01*
X194475214Y-99222519D01*
X194429910Y-99325124D01*
X194427000Y-99350210D01*
X191572999Y-99350210D01*
X191572999Y-99350207D01*
X191570091Y-99325131D01*
X191570089Y-99325125D01*
X191524786Y-99222521D01*
X191474219Y-99171954D01*
X191452545Y-99119628D01*
X191461275Y-99090874D01*
X191459078Y-99089964D01*
X191461866Y-99083232D01*
X191461865Y-99083232D01*
X191461867Y-99083231D01*
X191473500Y-99024748D01*
X191473500Y-98575252D01*
X191461867Y-98516769D01*
X191449636Y-98498465D01*
X191428353Y-98466613D01*
X191417552Y-98450448D01*
X191417551Y-98450447D01*
X191413503Y-98444389D01*
X191415569Y-98443008D01*
X191397755Y-98400000D01*
X191415569Y-98356991D01*
X191413503Y-98355611D01*
X191426480Y-98336191D01*
X191461867Y-98283231D01*
X191473500Y-98224748D01*
X191473500Y-97775252D01*
X191461867Y-97716769D01*
X191449636Y-97698465D01*
X191423473Y-97659309D01*
X191417552Y-97650448D01*
X191417551Y-97650447D01*
X191413503Y-97644389D01*
X191415569Y-97643008D01*
X191397755Y-97600000D01*
X191415569Y-97556991D01*
X191413503Y-97555611D01*
X191423473Y-97540691D01*
X191461867Y-97483231D01*
X191473500Y-97424748D01*
X191473500Y-96975252D01*
X191461867Y-96916769D01*
X191449636Y-96898465D01*
X191413503Y-96844389D01*
X191415569Y-96843008D01*
X191397755Y-96800000D01*
X191415569Y-96756991D01*
X191413503Y-96755611D01*
X191435846Y-96722174D01*
X191461867Y-96683231D01*
X191473500Y-96624748D01*
X191473500Y-96175252D01*
X191461867Y-96116769D01*
X191449636Y-96098465D01*
X191413503Y-96044389D01*
X191415569Y-96043008D01*
X191397755Y-96000000D01*
X191415569Y-95956991D01*
X191413503Y-95955611D01*
X191435846Y-95922174D01*
X191461867Y-95883231D01*
X191473500Y-95824748D01*
X191473500Y-95375252D01*
X191461867Y-95316769D01*
X191449636Y-95298465D01*
X191413503Y-95244389D01*
X191415569Y-95243008D01*
X191397755Y-95200000D01*
X191415569Y-95156991D01*
X191413503Y-95155611D01*
X191435846Y-95122174D01*
X191461867Y-95083231D01*
X191473500Y-95024748D01*
X191473500Y-94575252D01*
X191461867Y-94516769D01*
X191449636Y-94498465D01*
X191413503Y-94444389D01*
X191415569Y-94443008D01*
X191397755Y-94400000D01*
X191415569Y-94356991D01*
X191413503Y-94355611D01*
X191435846Y-94322174D01*
X191461867Y-94283231D01*
X191473500Y-94224748D01*
X191473500Y-93775252D01*
X191461867Y-93716769D01*
X191449636Y-93698465D01*
X191413503Y-93644389D01*
X191415569Y-93643008D01*
X191397755Y-93600000D01*
X191415569Y-93556991D01*
X191413503Y-93555611D01*
X191435846Y-93522174D01*
X191461867Y-93483231D01*
X191473500Y-93424748D01*
X191473500Y-92975252D01*
X191461867Y-92916769D01*
X191461866Y-92916767D01*
X191461866Y-92916766D01*
X191459077Y-92910032D01*
X191462457Y-92908631D01*
X191453971Y-92865920D01*
X191474221Y-92828044D01*
X191524785Y-92777480D01*
X191570089Y-92674875D01*
X191573000Y-92649789D01*
X191573000Y-92500000D01*
X188700001Y-92500000D01*
X188700001Y-92649792D01*
X188702908Y-92674868D01*
X188702910Y-92674874D01*
X188748214Y-92777481D01*
X188752088Y-92783136D01*
X188748931Y-92785298D01*
X188765583Y-92825500D01*
X188743909Y-92877826D01*
X188691583Y-92899500D01*
X177189564Y-92899500D01*
X177110440Y-92899500D01*
X177034014Y-92919978D01*
X177034013Y-92919978D01*
X177034011Y-92919979D01*
X177034009Y-92919980D01*
X176965494Y-92959537D01*
X172647205Y-97277826D01*
X172594879Y-97299500D01*
X152108098Y-97299500D01*
X152066985Y-97287028D01*
X152028232Y-97261133D01*
X152028233Y-97261133D01*
X151998989Y-97255316D01*
X151969748Y-97249500D01*
X151130252Y-97249500D01*
X151101010Y-97255316D01*
X151071767Y-97261133D01*
X151005449Y-97305447D01*
X151005447Y-97305449D01*
X150961133Y-97371767D01*
X150953377Y-97410757D01*
X150949500Y-97430252D01*
X150350500Y-97430252D01*
X150338867Y-97371769D01*
X150294552Y-97305448D01*
X150253215Y-97277827D01*
X150228232Y-97261133D01*
X150228233Y-97261133D01*
X150198989Y-97255316D01*
X150169748Y-97249500D01*
X149330252Y-97249500D01*
X149301010Y-97255316D01*
X149271767Y-97261133D01*
X149233015Y-97287028D01*
X149191902Y-97299500D01*
X148817254Y-97299500D01*
X148764929Y-97277827D01*
X148748235Y-97261133D01*
X148726613Y-97239511D01*
X148726610Y-97239509D01*
X148726609Y-97239508D01*
X148623887Y-97180201D01*
X148623882Y-97180199D01*
X148509311Y-97149500D01*
X148509309Y-97149500D01*
X148390691Y-97149500D01*
X148390689Y-97149500D01*
X148276117Y-97180199D01*
X148276112Y-97180201D01*
X148173390Y-97239508D01*
X148089508Y-97323390D01*
X148030201Y-97426112D01*
X148030199Y-97426117D01*
X147999500Y-97540688D01*
X147999500Y-97577227D01*
X147977826Y-97629553D01*
X147925500Y-97651227D01*
X147914171Y-97649738D01*
X147914120Y-97650133D01*
X147909311Y-97649500D01*
X147909309Y-97649500D01*
X147790691Y-97649500D01*
X147790689Y-97649500D01*
X147676117Y-97680199D01*
X147676112Y-97680201D01*
X147573390Y-97739508D01*
X147489508Y-97823390D01*
X147430201Y-97926112D01*
X147430199Y-97926117D01*
X147399500Y-98040688D01*
X140920478Y-98040688D01*
X140910491Y-98023390D01*
X140910490Y-98023389D01*
X140910489Y-98023387D01*
X140826613Y-97939511D01*
X140826610Y-97939509D01*
X140826609Y-97939508D01*
X140723887Y-97880201D01*
X140723882Y-97880199D01*
X140609311Y-97849500D01*
X140609309Y-97849500D01*
X140490691Y-97849500D01*
X140490689Y-97849500D01*
X140485880Y-97850133D01*
X140485552Y-97847646D01*
X140437477Y-97841299D01*
X140403014Y-97796353D01*
X140400500Y-97777227D01*
X140400500Y-97740689D01*
X140400499Y-97740688D01*
X140396429Y-97725500D01*
X140370908Y-97630252D01*
X140369800Y-97626117D01*
X140369798Y-97626112D01*
X140310491Y-97523390D01*
X140310490Y-97523389D01*
X140310489Y-97523387D01*
X140226613Y-97439511D01*
X140226610Y-97439509D01*
X140226609Y-97439508D01*
X140123887Y-97380201D01*
X140123882Y-97380199D01*
X140009311Y-97349500D01*
X140009309Y-97349500D01*
X139890691Y-97349500D01*
X139890689Y-97349500D01*
X139776117Y-97380199D01*
X139776112Y-97380201D01*
X139673390Y-97439508D01*
X139635071Y-97477827D01*
X139582746Y-97499500D01*
X139208098Y-97499500D01*
X139166985Y-97487028D01*
X139128232Y-97461133D01*
X139128233Y-97461133D01*
X139098989Y-97455316D01*
X139069748Y-97449500D01*
X138230252Y-97449500D01*
X138201010Y-97455316D01*
X138171767Y-97461133D01*
X138105449Y-97505447D01*
X138105447Y-97505449D01*
X138061133Y-97571767D01*
X138054298Y-97606133D01*
X138049500Y-97630252D01*
X137450500Y-97630252D01*
X137438867Y-97571769D01*
X137436707Y-97568537D01*
X137418099Y-97540688D01*
X137394552Y-97505448D01*
X137361304Y-97483232D01*
X137328232Y-97461133D01*
X137328233Y-97461133D01*
X137298989Y-97455316D01*
X137269748Y-97449500D01*
X136430252Y-97449500D01*
X136401010Y-97455316D01*
X136371767Y-97461133D01*
X136333015Y-97487028D01*
X136291902Y-97499500D01*
X135855125Y-97499500D01*
X135802799Y-97477826D01*
X131284513Y-92959540D01*
X131215992Y-92919979D01*
X131215987Y-92919977D01*
X131139566Y-92899500D01*
X131139564Y-92899500D01*
X127308417Y-92899500D01*
X127256091Y-92877826D01*
X127234417Y-92825500D01*
X127251068Y-92785298D01*
X127247912Y-92783136D01*
X127251785Y-92777481D01*
X127297089Y-92674875D01*
X127300000Y-92649789D01*
X127300000Y-92500000D01*
X124427001Y-92500000D01*
X124427001Y-92649792D01*
X124429908Y-92674868D01*
X124429910Y-92674874D01*
X124475213Y-92777478D01*
X124525780Y-92828045D01*
X124547454Y-92880371D01*
X124538733Y-92909128D01*
X124540922Y-92910035D01*
X124538133Y-92916767D01*
X124526500Y-92975253D01*
X124526500Y-93424746D01*
X124538133Y-93483232D01*
X124586497Y-93555611D01*
X124584430Y-93556991D01*
X124602245Y-93600000D01*
X124584430Y-93643008D01*
X124586497Y-93644389D01*
X124538133Y-93716767D01*
X124526500Y-93775253D01*
X124526500Y-94224746D01*
X124538133Y-94283232D01*
X124586497Y-94355611D01*
X124584430Y-94356991D01*
X124602245Y-94400000D01*
X124584430Y-94443008D01*
X124586497Y-94444389D01*
X124538133Y-94516767D01*
X124526500Y-94575253D01*
X124526500Y-95024746D01*
X124538133Y-95083232D01*
X124586497Y-95155611D01*
X124584430Y-95156991D01*
X124602245Y-95200000D01*
X124584430Y-95243008D01*
X124586497Y-95244389D01*
X124538133Y-95316767D01*
X124526500Y-95375253D01*
X124526500Y-95824746D01*
X124538133Y-95883232D01*
X124586497Y-95955611D01*
X124584430Y-95956991D01*
X124602245Y-96000000D01*
X124584430Y-96043008D01*
X124586497Y-96044389D01*
X124538133Y-96116767D01*
X124526500Y-96175253D01*
X124526500Y-96624746D01*
X124538133Y-96683232D01*
X124586497Y-96755611D01*
X124584430Y-96756991D01*
X124602245Y-96800000D01*
X124584430Y-96843008D01*
X124586497Y-96844389D01*
X124538133Y-96916767D01*
X124538133Y-96916769D01*
X124526500Y-96975252D01*
X124526500Y-97424748D01*
X124533737Y-97461133D01*
X124538133Y-97483232D01*
X124586497Y-97555611D01*
X124584430Y-97556991D01*
X124602245Y-97600000D01*
X124584430Y-97643008D01*
X124586497Y-97644389D01*
X124582448Y-97650447D01*
X124582448Y-97650448D01*
X124576527Y-97659309D01*
X124538133Y-97716767D01*
X124530377Y-97755757D01*
X124526500Y-97775252D01*
X124526500Y-98224748D01*
X124534255Y-98263736D01*
X124538133Y-98283232D01*
X124586497Y-98355611D01*
X124584430Y-98356991D01*
X124602245Y-98400000D01*
X124584430Y-98443008D01*
X124586497Y-98444389D01*
X124538133Y-98516767D01*
X124526500Y-98575253D01*
X124526500Y-99024746D01*
X124538133Y-99083233D01*
X124540923Y-99089968D01*
X124537543Y-99091367D01*
X124546026Y-99134092D01*
X124525779Y-99171954D01*
X124475214Y-99222519D01*
X124429910Y-99325124D01*
X124427000Y-99350210D01*
X121572999Y-99350210D01*
X121572999Y-99350207D01*
X121570091Y-99325131D01*
X121570089Y-99325125D01*
X121524786Y-99222521D01*
X121474219Y-99171954D01*
X121452545Y-99119628D01*
X121461275Y-99090874D01*
X121459078Y-99089964D01*
X121461866Y-99083232D01*
X121461865Y-99083232D01*
X121461867Y-99083231D01*
X121473500Y-99024748D01*
X121473500Y-98575252D01*
X121461867Y-98516769D01*
X121449636Y-98498465D01*
X121428353Y-98466613D01*
X121417552Y-98450448D01*
X121417551Y-98450447D01*
X121413503Y-98444389D01*
X121415569Y-98443008D01*
X121397755Y-98400000D01*
X121415569Y-98356991D01*
X121413503Y-98355611D01*
X121426480Y-98336191D01*
X121461867Y-98283231D01*
X121473500Y-98224748D01*
X121473500Y-97775252D01*
X121461867Y-97716769D01*
X121449636Y-97698465D01*
X121423473Y-97659309D01*
X121417552Y-97650448D01*
X121417551Y-97650447D01*
X121413503Y-97644389D01*
X121415569Y-97643008D01*
X121397755Y-97600000D01*
X121415569Y-97556991D01*
X121413503Y-97555611D01*
X121423473Y-97540691D01*
X121461867Y-97483231D01*
X121473500Y-97424748D01*
X121473500Y-96975252D01*
X121461867Y-96916769D01*
X121449636Y-96898465D01*
X121413503Y-96844389D01*
X121415569Y-96843008D01*
X121397755Y-96800000D01*
X121415569Y-96756991D01*
X121413503Y-96755611D01*
X121435846Y-96722174D01*
X121461867Y-96683231D01*
X121473500Y-96624748D01*
X121473500Y-96175252D01*
X121461867Y-96116769D01*
X121449636Y-96098465D01*
X121413503Y-96044389D01*
X121415569Y-96043008D01*
X121397755Y-96000000D01*
X121415569Y-95956991D01*
X121413503Y-95955611D01*
X121435846Y-95922174D01*
X121461867Y-95883231D01*
X121473500Y-95824748D01*
X121473500Y-95375252D01*
X121461867Y-95316769D01*
X121449636Y-95298465D01*
X121413503Y-95244389D01*
X121415569Y-95243008D01*
X121397755Y-95200000D01*
X121415569Y-95156991D01*
X121413503Y-95155611D01*
X121435846Y-95122174D01*
X121461867Y-95083231D01*
X121473500Y-95024748D01*
X121473500Y-94575252D01*
X121461867Y-94516769D01*
X121449636Y-94498465D01*
X121413503Y-94444389D01*
X121415569Y-94443008D01*
X121397755Y-94400000D01*
X121415569Y-94356991D01*
X121413503Y-94355611D01*
X121435846Y-94322174D01*
X121461867Y-94283231D01*
X121473500Y-94224748D01*
X121473500Y-93775252D01*
X121461867Y-93716769D01*
X121449636Y-93698465D01*
X121413503Y-93644389D01*
X121415569Y-93643008D01*
X121397755Y-93600000D01*
X121415569Y-93556991D01*
X121413503Y-93555611D01*
X121435846Y-93522174D01*
X121461867Y-93483231D01*
X121473500Y-93424748D01*
X121473500Y-92975252D01*
X121461867Y-92916769D01*
X121461866Y-92916767D01*
X121461866Y-92916766D01*
X121459077Y-92910032D01*
X121462457Y-92908631D01*
X121453971Y-92865920D01*
X121474221Y-92828044D01*
X121524785Y-92777480D01*
X121570089Y-92674875D01*
X121573000Y-92649789D01*
X121573000Y-92500000D01*
X118700001Y-92500000D01*
X118700001Y-92649792D01*
X118702908Y-92674868D01*
X118702910Y-92674874D01*
X118748213Y-92777478D01*
X118798780Y-92828045D01*
X118820454Y-92880371D01*
X118811733Y-92909128D01*
X118813922Y-92910035D01*
X118811133Y-92916767D01*
X118799500Y-92975253D01*
X118799500Y-93424746D01*
X118811133Y-93483232D01*
X118859497Y-93555611D01*
X118857430Y-93556991D01*
X118875245Y-93600000D01*
X118857430Y-93643008D01*
X118859497Y-93644389D01*
X118811133Y-93716767D01*
X118799500Y-93775253D01*
X118799500Y-94224746D01*
X118811133Y-94283232D01*
X118859497Y-94355611D01*
X118857430Y-94356991D01*
X118875245Y-94400000D01*
X118857430Y-94443008D01*
X118859497Y-94444389D01*
X118811133Y-94516767D01*
X118799500Y-94575253D01*
X118799500Y-95024746D01*
X118811133Y-95083232D01*
X118859497Y-95155611D01*
X118857430Y-95156991D01*
X118875245Y-95200000D01*
X118857430Y-95243008D01*
X118859497Y-95244389D01*
X118811133Y-95316767D01*
X118799500Y-95375253D01*
X118799500Y-95824746D01*
X118811133Y-95883232D01*
X118859497Y-95955611D01*
X118857430Y-95956991D01*
X118875245Y-96000000D01*
X118857430Y-96043008D01*
X118859497Y-96044389D01*
X118811133Y-96116767D01*
X118799500Y-96175253D01*
X118799500Y-96624746D01*
X118811133Y-96683232D01*
X118859497Y-96755611D01*
X118857430Y-96756991D01*
X118875245Y-96800000D01*
X118857430Y-96843008D01*
X118859497Y-96844389D01*
X118811133Y-96916767D01*
X118811133Y-96916769D01*
X118799500Y-96975252D01*
X118799500Y-97424748D01*
X118806737Y-97461133D01*
X118811133Y-97483232D01*
X118859497Y-97555611D01*
X118857430Y-97556991D01*
X118875245Y-97600000D01*
X118857430Y-97643008D01*
X118859497Y-97644389D01*
X118855448Y-97650447D01*
X118855448Y-97650448D01*
X118849527Y-97659309D01*
X118811133Y-97716767D01*
X118803377Y-97755757D01*
X118799500Y-97775252D01*
X118799500Y-98224748D01*
X118807255Y-98263736D01*
X118811133Y-98283232D01*
X118859497Y-98355611D01*
X118857430Y-98356991D01*
X118875245Y-98400000D01*
X118857430Y-98443008D01*
X118859497Y-98444389D01*
X118811133Y-98516767D01*
X118799500Y-98575253D01*
X118799500Y-99024746D01*
X118811133Y-99083233D01*
X118813923Y-99089968D01*
X118810543Y-99091367D01*
X118819026Y-99134092D01*
X118798779Y-99171954D01*
X118748214Y-99222519D01*
X118702910Y-99325124D01*
X118700000Y-99350210D01*
X108500500Y-99350210D01*
X108500500Y-92150210D01*
X118700000Y-92150210D01*
X118700000Y-92300000D01*
X121572999Y-92300000D01*
X121572999Y-92150210D01*
X124427000Y-92150210D01*
X124427000Y-92300000D01*
X127299999Y-92300000D01*
X127299999Y-92150210D01*
X188700000Y-92150210D01*
X188700000Y-92300000D01*
X191572999Y-92300000D01*
X191572999Y-92150210D01*
X194427000Y-92150210D01*
X194427000Y-92300000D01*
X197299999Y-92300000D01*
X197299999Y-92150207D01*
X197297091Y-92125131D01*
X197297089Y-92125125D01*
X197251786Y-92022521D01*
X197201219Y-91971954D01*
X197179545Y-91919628D01*
X197188275Y-91890874D01*
X197186078Y-91889964D01*
X197188866Y-91883232D01*
X197188865Y-91883232D01*
X197188867Y-91883231D01*
X197200500Y-91824748D01*
X197200500Y-91375252D01*
X197188867Y-91316769D01*
X197144552Y-91250448D01*
X197144551Y-91250447D01*
X197140503Y-91244389D01*
X197142569Y-91243008D01*
X197124755Y-91200000D01*
X197142569Y-91156991D01*
X197140503Y-91155611D01*
X197188866Y-91083232D01*
X197188865Y-91083232D01*
X197188867Y-91083231D01*
X197200500Y-91024748D01*
X197200500Y-90575252D01*
X197188867Y-90516769D01*
X197144552Y-90450448D01*
X197144551Y-90450447D01*
X197140503Y-90444389D01*
X197142569Y-90443008D01*
X197124755Y-90400000D01*
X197142569Y-90356991D01*
X197140503Y-90355611D01*
X197188866Y-90283232D01*
X197188865Y-90283232D01*
X197188867Y-90283231D01*
X197200500Y-90224748D01*
X197200500Y-89775252D01*
X197188867Y-89716769D01*
X197144552Y-89650448D01*
X197144551Y-89650447D01*
X197140503Y-89644389D01*
X197142569Y-89643008D01*
X197124755Y-89600000D01*
X197142569Y-89556991D01*
X197140503Y-89555611D01*
X197188866Y-89483232D01*
X197188865Y-89483232D01*
X197188867Y-89483231D01*
X197200500Y-89424748D01*
X197200500Y-88975252D01*
X197188867Y-88916769D01*
X197144552Y-88850448D01*
X197144551Y-88850447D01*
X197140503Y-88844389D01*
X197142569Y-88843008D01*
X197124755Y-88800000D01*
X197142569Y-88756991D01*
X197140503Y-88755611D01*
X197188866Y-88683232D01*
X197188865Y-88683232D01*
X197188867Y-88683231D01*
X197200500Y-88624748D01*
X197200500Y-88175252D01*
X197188867Y-88116769D01*
X197144552Y-88050448D01*
X197144551Y-88050447D01*
X197140503Y-88044389D01*
X197142569Y-88043008D01*
X197124755Y-88000000D01*
X197142569Y-87956991D01*
X197140503Y-87955611D01*
X197188866Y-87883232D01*
X197188865Y-87883232D01*
X197188867Y-87883231D01*
X197200500Y-87824748D01*
X197200500Y-87375252D01*
X197188867Y-87316769D01*
X197144552Y-87250448D01*
X197144551Y-87250447D01*
X197140503Y-87244389D01*
X197142569Y-87243008D01*
X197124755Y-87200000D01*
X197142569Y-87156991D01*
X197140503Y-87155611D01*
X197188866Y-87083232D01*
X197188865Y-87083232D01*
X197188867Y-87083231D01*
X197200500Y-87024748D01*
X197200500Y-86575252D01*
X197188867Y-86516769D01*
X197144552Y-86450448D01*
X197144551Y-86450447D01*
X197140503Y-86444389D01*
X197142569Y-86443008D01*
X197124755Y-86400000D01*
X197142569Y-86356991D01*
X197140503Y-86355611D01*
X197188866Y-86283232D01*
X197188865Y-86283232D01*
X197188867Y-86283231D01*
X197200500Y-86224748D01*
X197200500Y-85775252D01*
X197188867Y-85716769D01*
X197188866Y-85716767D01*
X197188866Y-85716766D01*
X197186077Y-85710032D01*
X197189457Y-85708631D01*
X197180971Y-85665920D01*
X197201221Y-85628044D01*
X197251785Y-85577480D01*
X197297089Y-85474875D01*
X197300000Y-85449789D01*
X197300000Y-85300000D01*
X194427001Y-85300000D01*
X194427001Y-85449792D01*
X194429908Y-85474868D01*
X194429910Y-85474874D01*
X194475213Y-85577478D01*
X194525780Y-85628045D01*
X194547454Y-85680371D01*
X194538733Y-85709128D01*
X194540922Y-85710035D01*
X194538133Y-85716767D01*
X194526500Y-85775253D01*
X194526500Y-86224746D01*
X194538133Y-86283232D01*
X194586497Y-86355611D01*
X194584430Y-86356991D01*
X194602245Y-86400000D01*
X194584430Y-86443008D01*
X194586497Y-86444389D01*
X194538133Y-86516767D01*
X194526500Y-86575253D01*
X194526500Y-87024746D01*
X194538133Y-87083232D01*
X194586497Y-87155611D01*
X194584430Y-87156991D01*
X194602245Y-87200000D01*
X194584430Y-87243008D01*
X194586497Y-87244389D01*
X194538133Y-87316767D01*
X194526500Y-87375253D01*
X194526500Y-87824746D01*
X194538133Y-87883232D01*
X194586497Y-87955611D01*
X194584430Y-87956991D01*
X194602245Y-88000000D01*
X194584430Y-88043008D01*
X194586497Y-88044389D01*
X194538133Y-88116767D01*
X194526500Y-88175253D01*
X194526500Y-88624746D01*
X194538133Y-88683232D01*
X194586497Y-88755611D01*
X194584430Y-88756991D01*
X194602245Y-88800000D01*
X194584430Y-88843008D01*
X194586497Y-88844389D01*
X194538133Y-88916767D01*
X194526500Y-88975253D01*
X194526500Y-89424746D01*
X194538133Y-89483232D01*
X194586497Y-89555611D01*
X194584430Y-89556991D01*
X194602245Y-89600000D01*
X194584430Y-89643008D01*
X194586497Y-89644389D01*
X194538133Y-89716767D01*
X194526500Y-89775253D01*
X194526500Y-90224746D01*
X194538133Y-90283232D01*
X194586497Y-90355611D01*
X194584430Y-90356991D01*
X194602245Y-90400000D01*
X194584430Y-90443008D01*
X194586497Y-90444389D01*
X194538133Y-90516767D01*
X194526500Y-90575253D01*
X194526500Y-91024746D01*
X194538133Y-91083232D01*
X194586497Y-91155611D01*
X194584430Y-91156991D01*
X194602245Y-91200000D01*
X194584430Y-91243008D01*
X194586497Y-91244389D01*
X194538133Y-91316767D01*
X194526500Y-91375253D01*
X194526500Y-91824746D01*
X194538133Y-91883233D01*
X194540923Y-91889968D01*
X194537543Y-91891367D01*
X194546026Y-91934092D01*
X194525779Y-91971954D01*
X194475214Y-92022519D01*
X194429910Y-92125124D01*
X194427000Y-92150210D01*
X191572999Y-92150210D01*
X191572999Y-92150207D01*
X191570091Y-92125131D01*
X191570089Y-92125125D01*
X191524786Y-92022521D01*
X191474219Y-91971954D01*
X191452545Y-91919628D01*
X191461275Y-91890874D01*
X191459078Y-91889964D01*
X191461866Y-91883232D01*
X191461865Y-91883232D01*
X191461867Y-91883231D01*
X191473500Y-91824748D01*
X191473500Y-91375252D01*
X191461867Y-91316769D01*
X191417552Y-91250448D01*
X191417551Y-91250447D01*
X191413503Y-91244389D01*
X191415569Y-91243008D01*
X191397755Y-91200000D01*
X191415569Y-91156991D01*
X191413503Y-91155611D01*
X191461866Y-91083232D01*
X191461865Y-91083232D01*
X191461867Y-91083231D01*
X191473500Y-91024748D01*
X191473500Y-90575252D01*
X191461867Y-90516769D01*
X191417552Y-90450448D01*
X191417551Y-90450447D01*
X191413503Y-90444389D01*
X191415569Y-90443008D01*
X191397755Y-90400000D01*
X191415569Y-90356991D01*
X191413503Y-90355611D01*
X191461866Y-90283232D01*
X191461865Y-90283232D01*
X191461867Y-90283231D01*
X191473500Y-90224748D01*
X191473500Y-89775252D01*
X191461867Y-89716769D01*
X191417552Y-89650448D01*
X191417551Y-89650447D01*
X191413503Y-89644389D01*
X191415569Y-89643008D01*
X191397755Y-89600000D01*
X191415569Y-89556991D01*
X191413503Y-89555611D01*
X191461866Y-89483232D01*
X191461865Y-89483232D01*
X191461867Y-89483231D01*
X191473500Y-89424748D01*
X191473500Y-88975252D01*
X191461867Y-88916769D01*
X191417552Y-88850448D01*
X191417551Y-88850447D01*
X191413503Y-88844389D01*
X191415569Y-88843008D01*
X191397755Y-88800000D01*
X191415569Y-88756991D01*
X191413503Y-88755611D01*
X191461866Y-88683232D01*
X191461865Y-88683232D01*
X191461867Y-88683231D01*
X191473500Y-88624748D01*
X191473500Y-88175252D01*
X191461867Y-88116769D01*
X191417552Y-88050448D01*
X191417551Y-88050447D01*
X191413503Y-88044389D01*
X191415569Y-88043008D01*
X191397755Y-88000000D01*
X191415569Y-87956991D01*
X191413503Y-87955611D01*
X191461866Y-87883232D01*
X191461865Y-87883232D01*
X191461867Y-87883231D01*
X191473500Y-87824748D01*
X191473500Y-87375252D01*
X191461867Y-87316769D01*
X191417552Y-87250448D01*
X191417551Y-87250447D01*
X191413503Y-87244389D01*
X191415569Y-87243008D01*
X191397755Y-87200000D01*
X191415569Y-87156991D01*
X191413503Y-87155611D01*
X191461866Y-87083232D01*
X191461865Y-87083232D01*
X191461867Y-87083231D01*
X191473500Y-87024748D01*
X191473500Y-86575252D01*
X191461867Y-86516769D01*
X191417552Y-86450448D01*
X191417551Y-86450447D01*
X191413503Y-86444389D01*
X191415569Y-86443008D01*
X191397755Y-86400000D01*
X191415569Y-86356991D01*
X191413503Y-86355611D01*
X191461866Y-86283232D01*
X191461865Y-86283232D01*
X191461867Y-86283231D01*
X191473500Y-86224748D01*
X191473500Y-85775252D01*
X191461867Y-85716769D01*
X191461866Y-85716767D01*
X191461866Y-85716766D01*
X191459077Y-85710032D01*
X191462457Y-85708631D01*
X191453971Y-85665920D01*
X191474221Y-85628044D01*
X191524785Y-85577480D01*
X191570089Y-85474875D01*
X191573000Y-85449789D01*
X191573000Y-85300000D01*
X188700001Y-85300000D01*
X188700001Y-85449792D01*
X188702908Y-85474868D01*
X188702910Y-85474874D01*
X188748213Y-85577478D01*
X188798780Y-85628045D01*
X188820454Y-85680371D01*
X188811733Y-85709128D01*
X188813922Y-85710035D01*
X188811133Y-85716767D01*
X188799500Y-85775253D01*
X188799500Y-86224746D01*
X188811133Y-86283232D01*
X188859497Y-86355611D01*
X188857430Y-86356991D01*
X188875245Y-86400000D01*
X188857430Y-86443008D01*
X188859497Y-86444389D01*
X188811133Y-86516767D01*
X188799500Y-86575253D01*
X188799500Y-87024746D01*
X188811133Y-87083232D01*
X188859497Y-87155611D01*
X188857430Y-87156991D01*
X188875245Y-87200000D01*
X188857430Y-87243008D01*
X188859497Y-87244389D01*
X188811133Y-87316767D01*
X188799500Y-87375253D01*
X188799500Y-87824746D01*
X188811133Y-87883232D01*
X188859497Y-87955611D01*
X188857430Y-87956991D01*
X188875245Y-88000000D01*
X188857430Y-88043008D01*
X188859497Y-88044389D01*
X188811133Y-88116767D01*
X188799500Y-88175253D01*
X188799500Y-88624746D01*
X188811133Y-88683232D01*
X188859497Y-88755611D01*
X188857430Y-88756991D01*
X188875245Y-88800000D01*
X188857430Y-88843008D01*
X188859497Y-88844389D01*
X188811133Y-88916767D01*
X188799500Y-88975253D01*
X188799500Y-89424746D01*
X188811133Y-89483232D01*
X188859497Y-89555611D01*
X188857430Y-89556991D01*
X188875245Y-89600000D01*
X188857430Y-89643008D01*
X188859497Y-89644389D01*
X188811133Y-89716767D01*
X188799500Y-89775253D01*
X188799500Y-90224746D01*
X188811133Y-90283232D01*
X188859497Y-90355611D01*
X188857430Y-90356991D01*
X188875245Y-90400000D01*
X188857430Y-90443008D01*
X188859497Y-90444389D01*
X188811133Y-90516767D01*
X188799500Y-90575253D01*
X188799500Y-91024746D01*
X188811133Y-91083232D01*
X188859497Y-91155611D01*
X188857430Y-91156991D01*
X188875245Y-91200000D01*
X188857430Y-91243008D01*
X188859497Y-91244389D01*
X188811133Y-91316767D01*
X188799500Y-91375253D01*
X188799500Y-91824746D01*
X188811133Y-91883233D01*
X188813923Y-91889968D01*
X188810543Y-91891367D01*
X188819026Y-91934092D01*
X188798779Y-91971954D01*
X188748214Y-92022519D01*
X188702910Y-92125124D01*
X188700000Y-92150210D01*
X127299999Y-92150210D01*
X127299999Y-92150207D01*
X127297091Y-92125131D01*
X127297089Y-92125125D01*
X127251786Y-92022521D01*
X127201219Y-91971954D01*
X127179545Y-91919628D01*
X127188275Y-91890874D01*
X127186078Y-91889964D01*
X127188866Y-91883232D01*
X127188865Y-91883232D01*
X127188867Y-91883231D01*
X127200500Y-91824748D01*
X127200500Y-91375252D01*
X127188867Y-91316769D01*
X127144552Y-91250448D01*
X127144551Y-91250447D01*
X127140503Y-91244389D01*
X127142569Y-91243008D01*
X127124755Y-91200000D01*
X127142569Y-91156991D01*
X127140503Y-91155611D01*
X127188866Y-91083232D01*
X127188865Y-91083232D01*
X127188867Y-91083231D01*
X127200500Y-91024748D01*
X127200500Y-90575252D01*
X127188867Y-90516769D01*
X127144552Y-90450448D01*
X127144551Y-90450447D01*
X127140503Y-90444389D01*
X127142569Y-90443008D01*
X127124755Y-90400000D01*
X127142569Y-90356991D01*
X127140503Y-90355611D01*
X127188866Y-90283232D01*
X127188865Y-90283232D01*
X127188867Y-90283231D01*
X127200500Y-90224748D01*
X127200500Y-89775252D01*
X127188867Y-89716769D01*
X127144552Y-89650448D01*
X127144551Y-89650447D01*
X127140503Y-89644389D01*
X127142569Y-89643008D01*
X127124755Y-89600000D01*
X127142569Y-89556991D01*
X127140503Y-89555611D01*
X127188866Y-89483232D01*
X127188865Y-89483232D01*
X127188867Y-89483231D01*
X127200500Y-89424748D01*
X127200500Y-88975252D01*
X127188867Y-88916769D01*
X127144552Y-88850448D01*
X127144551Y-88850447D01*
X127140503Y-88844389D01*
X127142569Y-88843008D01*
X127124755Y-88800000D01*
X127142569Y-88756991D01*
X127140503Y-88755611D01*
X127188866Y-88683232D01*
X127188865Y-88683232D01*
X127188867Y-88683231D01*
X127200500Y-88624748D01*
X127200500Y-88175252D01*
X127188867Y-88116769D01*
X127144552Y-88050448D01*
X127144551Y-88050447D01*
X127140503Y-88044389D01*
X127142569Y-88043008D01*
X127124755Y-88000000D01*
X127142569Y-87956991D01*
X127140503Y-87955611D01*
X127188866Y-87883232D01*
X127188865Y-87883232D01*
X127188867Y-87883231D01*
X127200500Y-87824748D01*
X127200500Y-87375252D01*
X127188867Y-87316769D01*
X127144552Y-87250448D01*
X127144551Y-87250447D01*
X127140503Y-87244389D01*
X127142569Y-87243008D01*
X127124755Y-87200000D01*
X127142569Y-87156991D01*
X127140503Y-87155611D01*
X127188866Y-87083232D01*
X127188865Y-87083232D01*
X127188867Y-87083231D01*
X127200500Y-87024748D01*
X127200500Y-86575252D01*
X127188867Y-86516769D01*
X127144552Y-86450448D01*
X127144551Y-86450447D01*
X127140503Y-86444389D01*
X127142569Y-86443008D01*
X127124755Y-86400000D01*
X127142569Y-86356991D01*
X127140503Y-86355611D01*
X127188866Y-86283232D01*
X127188865Y-86283232D01*
X127188867Y-86283231D01*
X127200500Y-86224748D01*
X127200500Y-85775252D01*
X127188867Y-85716769D01*
X127188866Y-85716767D01*
X127188866Y-85716766D01*
X127186077Y-85710032D01*
X127189457Y-85708631D01*
X127180971Y-85665920D01*
X127201221Y-85628044D01*
X127251785Y-85577480D01*
X127297089Y-85474875D01*
X127300000Y-85449789D01*
X127300000Y-85300000D01*
X124427001Y-85300000D01*
X124427001Y-85449792D01*
X124429908Y-85474868D01*
X124429910Y-85474874D01*
X124475213Y-85577478D01*
X124525780Y-85628045D01*
X124547454Y-85680371D01*
X124538733Y-85709128D01*
X124540922Y-85710035D01*
X124538133Y-85716767D01*
X124526500Y-85775253D01*
X124526500Y-86224746D01*
X124538133Y-86283232D01*
X124586497Y-86355611D01*
X124584430Y-86356991D01*
X124602245Y-86400000D01*
X124584430Y-86443008D01*
X124586497Y-86444389D01*
X124538133Y-86516767D01*
X124526500Y-86575253D01*
X124526500Y-87024746D01*
X124538133Y-87083232D01*
X124586497Y-87155611D01*
X124584430Y-87156991D01*
X124602245Y-87200000D01*
X124584430Y-87243008D01*
X124586497Y-87244389D01*
X124538133Y-87316767D01*
X124526500Y-87375253D01*
X124526500Y-87824746D01*
X124538133Y-87883232D01*
X124586497Y-87955611D01*
X124584430Y-87956991D01*
X124602245Y-88000000D01*
X124584430Y-88043008D01*
X124586497Y-88044389D01*
X124538133Y-88116767D01*
X124526500Y-88175253D01*
X124526500Y-88624746D01*
X124538133Y-88683232D01*
X124586497Y-88755611D01*
X124584430Y-88756991D01*
X124602245Y-88800000D01*
X124584430Y-88843008D01*
X124586497Y-88844389D01*
X124538133Y-88916767D01*
X124526500Y-88975253D01*
X124526500Y-89424746D01*
X124538133Y-89483232D01*
X124586497Y-89555611D01*
X124584430Y-89556991D01*
X124602245Y-89600000D01*
X124584430Y-89643008D01*
X124586497Y-89644389D01*
X124538133Y-89716767D01*
X124526500Y-89775253D01*
X124526500Y-90224746D01*
X124538133Y-90283232D01*
X124586497Y-90355611D01*
X124584430Y-90356991D01*
X124602245Y-90400000D01*
X124584430Y-90443008D01*
X124586497Y-90444389D01*
X124538133Y-90516767D01*
X124526500Y-90575253D01*
X124526500Y-91024746D01*
X124538133Y-91083232D01*
X124586497Y-91155611D01*
X124584430Y-91156991D01*
X124602245Y-91200000D01*
X124584430Y-91243008D01*
X124586497Y-91244389D01*
X124538133Y-91316767D01*
X124526500Y-91375253D01*
X124526500Y-91824746D01*
X124538133Y-91883233D01*
X124540923Y-91889968D01*
X124537543Y-91891367D01*
X124546026Y-91934092D01*
X124525779Y-91971954D01*
X124475214Y-92022519D01*
X124429910Y-92125124D01*
X124427000Y-92150210D01*
X121572999Y-92150210D01*
X121572999Y-92150207D01*
X121570091Y-92125131D01*
X121570089Y-92125125D01*
X121524786Y-92022521D01*
X121474219Y-91971954D01*
X121452545Y-91919628D01*
X121461275Y-91890874D01*
X121459078Y-91889964D01*
X121461866Y-91883232D01*
X121461865Y-91883232D01*
X121461867Y-91883231D01*
X121473500Y-91824748D01*
X121473500Y-91375252D01*
X121461867Y-91316769D01*
X121417552Y-91250448D01*
X121417551Y-91250447D01*
X121413503Y-91244389D01*
X121415569Y-91243008D01*
X121397755Y-91200000D01*
X121415569Y-91156991D01*
X121413503Y-91155611D01*
X121461866Y-91083232D01*
X121461865Y-91083232D01*
X121461867Y-91083231D01*
X121473500Y-91024748D01*
X121473500Y-90575252D01*
X121461867Y-90516769D01*
X121417552Y-90450448D01*
X121417551Y-90450447D01*
X121413503Y-90444389D01*
X121415569Y-90443008D01*
X121397755Y-90400000D01*
X121415569Y-90356991D01*
X121413503Y-90355611D01*
X121461866Y-90283232D01*
X121461865Y-90283232D01*
X121461867Y-90283231D01*
X121473500Y-90224748D01*
X121473500Y-89775252D01*
X121461867Y-89716769D01*
X121417552Y-89650448D01*
X121417551Y-89650447D01*
X121413503Y-89644389D01*
X121415569Y-89643008D01*
X121397755Y-89600000D01*
X121415569Y-89556991D01*
X121413503Y-89555611D01*
X121461866Y-89483232D01*
X121461865Y-89483232D01*
X121461867Y-89483231D01*
X121473500Y-89424748D01*
X121473500Y-88975252D01*
X121461867Y-88916769D01*
X121417552Y-88850448D01*
X121417551Y-88850447D01*
X121413503Y-88844389D01*
X121415569Y-88843008D01*
X121397755Y-88800000D01*
X121415569Y-88756991D01*
X121413503Y-88755611D01*
X121461866Y-88683232D01*
X121461865Y-88683232D01*
X121461867Y-88683231D01*
X121473500Y-88624748D01*
X121473500Y-88175252D01*
X121461867Y-88116769D01*
X121417552Y-88050448D01*
X121417551Y-88050447D01*
X121413503Y-88044389D01*
X121415569Y-88043008D01*
X121397755Y-88000000D01*
X121415569Y-87956991D01*
X121413503Y-87955611D01*
X121461866Y-87883232D01*
X121461865Y-87883232D01*
X121461867Y-87883231D01*
X121473500Y-87824748D01*
X121473500Y-87375252D01*
X121461867Y-87316769D01*
X121417552Y-87250448D01*
X121417551Y-87250447D01*
X121413503Y-87244389D01*
X121415569Y-87243008D01*
X121397755Y-87200000D01*
X121415569Y-87156991D01*
X121413503Y-87155611D01*
X121461866Y-87083232D01*
X121461865Y-87083232D01*
X121461867Y-87083231D01*
X121473500Y-87024748D01*
X121473500Y-86575252D01*
X121461867Y-86516769D01*
X121417552Y-86450448D01*
X121417551Y-86450447D01*
X121413503Y-86444389D01*
X121415569Y-86443008D01*
X121397755Y-86400000D01*
X121415569Y-86356991D01*
X121413503Y-86355611D01*
X121461866Y-86283232D01*
X121461865Y-86283232D01*
X121461867Y-86283231D01*
X121473500Y-86224748D01*
X121473500Y-85775252D01*
X121461867Y-85716769D01*
X121461866Y-85716767D01*
X121461866Y-85716766D01*
X121459077Y-85710032D01*
X121462457Y-85708631D01*
X121453971Y-85665920D01*
X121474221Y-85628044D01*
X121524785Y-85577480D01*
X121570089Y-85474875D01*
X121573000Y-85449789D01*
X121573000Y-85300000D01*
X118700001Y-85300000D01*
X118700001Y-85449792D01*
X118702908Y-85474868D01*
X118702910Y-85474874D01*
X118748213Y-85577478D01*
X118798780Y-85628045D01*
X118820454Y-85680371D01*
X118811733Y-85709128D01*
X118813922Y-85710035D01*
X118811133Y-85716767D01*
X118799500Y-85775253D01*
X118799500Y-86224746D01*
X118811133Y-86283232D01*
X118859497Y-86355611D01*
X118857430Y-86356991D01*
X118875245Y-86400000D01*
X118857430Y-86443008D01*
X118859497Y-86444389D01*
X118811133Y-86516767D01*
X118799500Y-86575253D01*
X118799500Y-87024746D01*
X118811133Y-87083232D01*
X118859497Y-87155611D01*
X118857430Y-87156991D01*
X118875245Y-87200000D01*
X118857430Y-87243008D01*
X118859497Y-87244389D01*
X118811133Y-87316767D01*
X118799500Y-87375253D01*
X118799500Y-87824746D01*
X118811133Y-87883232D01*
X118859497Y-87955611D01*
X118857430Y-87956991D01*
X118875245Y-88000000D01*
X118857430Y-88043008D01*
X118859497Y-88044389D01*
X118811133Y-88116767D01*
X118799500Y-88175253D01*
X118799500Y-88624746D01*
X118811133Y-88683232D01*
X118859497Y-88755611D01*
X118857430Y-88756991D01*
X118875245Y-88800000D01*
X118857430Y-88843008D01*
X118859497Y-88844389D01*
X118811133Y-88916767D01*
X118799500Y-88975253D01*
X118799500Y-89424746D01*
X118811133Y-89483232D01*
X118859497Y-89555611D01*
X118857430Y-89556991D01*
X118875245Y-89600000D01*
X118857430Y-89643008D01*
X118859497Y-89644389D01*
X118811133Y-89716767D01*
X118799500Y-89775253D01*
X118799500Y-90224746D01*
X118811133Y-90283232D01*
X118859497Y-90355611D01*
X118857430Y-90356991D01*
X118875245Y-90400000D01*
X118857430Y-90443008D01*
X118859497Y-90444389D01*
X118811133Y-90516767D01*
X118799500Y-90575253D01*
X118799500Y-91024746D01*
X118811133Y-91083232D01*
X118859497Y-91155611D01*
X118857430Y-91156991D01*
X118875245Y-91200000D01*
X118857430Y-91243008D01*
X118859497Y-91244389D01*
X118811133Y-91316767D01*
X118799500Y-91375253D01*
X118799500Y-91824746D01*
X118811133Y-91883233D01*
X118813923Y-91889968D01*
X118810543Y-91891367D01*
X118819026Y-91934092D01*
X118798779Y-91971954D01*
X118748214Y-92022519D01*
X118702910Y-92125124D01*
X118700000Y-92150210D01*
X108500500Y-92150210D01*
X108500500Y-84950210D01*
X118700000Y-84950210D01*
X118700000Y-85100000D01*
X120036500Y-85100000D01*
X120236500Y-85100000D01*
X121572999Y-85100000D01*
X121572999Y-84950210D01*
X124427000Y-84950210D01*
X124427000Y-85100000D01*
X125763500Y-85100000D01*
X125963500Y-85100000D01*
X127299999Y-85100000D01*
X127299999Y-84950210D01*
X188700000Y-84950210D01*
X188700000Y-85100000D01*
X190036500Y-85100000D01*
X190236500Y-85100000D01*
X191572999Y-85100000D01*
X191572999Y-84950210D01*
X194427000Y-84950210D01*
X194427000Y-85100000D01*
X195763500Y-85100000D01*
X195963500Y-85100000D01*
X197299999Y-85100000D01*
X197299999Y-84950207D01*
X197297091Y-84925131D01*
X197297089Y-84925126D01*
X197255039Y-84829890D01*
X197253731Y-84773268D01*
X197255039Y-84770110D01*
X197297089Y-84674875D01*
X197300000Y-84649789D01*
X197300000Y-84500000D01*
X195963500Y-84500000D01*
X195963500Y-85100000D01*
X195763500Y-85100000D01*
X195763500Y-84500000D01*
X194427001Y-84500000D01*
X194427001Y-84649792D01*
X194429908Y-84674868D01*
X194429910Y-84674874D01*
X194471960Y-84770109D01*
X194473268Y-84826731D01*
X194471960Y-84829889D01*
X194429910Y-84925123D01*
X194427000Y-84950210D01*
X191572999Y-84950210D01*
X191572999Y-84950207D01*
X191570091Y-84925131D01*
X191570089Y-84925126D01*
X191528039Y-84829890D01*
X191526731Y-84773268D01*
X191528039Y-84770110D01*
X191570089Y-84674875D01*
X191573000Y-84649789D01*
X191573000Y-84500000D01*
X190236500Y-84500000D01*
X190236500Y-85100000D01*
X190036500Y-85100000D01*
X190036500Y-84500000D01*
X188700001Y-84500000D01*
X188700001Y-84649792D01*
X188702908Y-84674868D01*
X188702910Y-84674874D01*
X188744960Y-84770109D01*
X188746268Y-84826731D01*
X188744960Y-84829889D01*
X188702910Y-84925123D01*
X188700000Y-84950210D01*
X127299999Y-84950210D01*
X127299999Y-84950207D01*
X127297091Y-84925131D01*
X127297089Y-84925126D01*
X127255039Y-84829890D01*
X127253731Y-84773268D01*
X127255039Y-84770110D01*
X127297089Y-84674875D01*
X127300000Y-84649789D01*
X127300000Y-84500000D01*
X125963500Y-84500000D01*
X125963500Y-85100000D01*
X125763500Y-85100000D01*
X125763500Y-84500000D01*
X124427001Y-84500000D01*
X124427001Y-84649792D01*
X124429908Y-84674868D01*
X124429910Y-84674874D01*
X124471960Y-84770109D01*
X124473268Y-84826731D01*
X124471960Y-84829889D01*
X124429910Y-84925123D01*
X124427000Y-84950210D01*
X121572999Y-84950210D01*
X121572999Y-84950207D01*
X121570091Y-84925131D01*
X121570089Y-84925126D01*
X121528039Y-84829890D01*
X121526731Y-84773268D01*
X121528039Y-84770110D01*
X121570089Y-84674875D01*
X121573000Y-84649789D01*
X121573000Y-84500000D01*
X120236500Y-84500000D01*
X120236500Y-85100000D01*
X120036500Y-85100000D01*
X120036500Y-84500000D01*
X118700001Y-84500000D01*
X118700001Y-84649792D01*
X118702908Y-84674868D01*
X118702910Y-84674874D01*
X118744960Y-84770109D01*
X118746268Y-84826731D01*
X118744960Y-84829889D01*
X118702910Y-84925123D01*
X118700000Y-84950210D01*
X108500500Y-84950210D01*
X108500500Y-84150210D01*
X118700000Y-84150210D01*
X118700000Y-84300000D01*
X120036500Y-84300000D01*
X120236500Y-84300000D01*
X121572999Y-84300000D01*
X121572999Y-84150210D01*
X124427000Y-84150210D01*
X124427000Y-84300000D01*
X125763500Y-84300000D01*
X125963500Y-84300000D01*
X127299999Y-84300000D01*
X127299999Y-84150210D01*
X188700000Y-84150210D01*
X188700000Y-84300000D01*
X190036500Y-84300000D01*
X190236500Y-84300000D01*
X191572999Y-84300000D01*
X191572999Y-84150210D01*
X194427000Y-84150210D01*
X194427000Y-84300000D01*
X195763500Y-84300000D01*
X195963500Y-84300000D01*
X197299999Y-84300000D01*
X197299999Y-84150207D01*
X197297091Y-84125131D01*
X197297089Y-84125125D01*
X197251786Y-84022521D01*
X197172478Y-83943213D01*
X197069875Y-83897910D01*
X197069876Y-83897910D01*
X197044789Y-83895000D01*
X195963500Y-83895000D01*
X195963500Y-84300000D01*
X195763500Y-84300000D01*
X195763500Y-83895000D01*
X194682207Y-83895000D01*
X194657131Y-83897908D01*
X194657125Y-83897910D01*
X194554521Y-83943213D01*
X194475213Y-84022521D01*
X194429910Y-84125124D01*
X194427000Y-84150210D01*
X191572999Y-84150210D01*
X191572999Y-84150207D01*
X191570091Y-84125131D01*
X191570089Y-84125125D01*
X191524786Y-84022521D01*
X191445478Y-83943213D01*
X191342875Y-83897910D01*
X191342876Y-83897910D01*
X191317789Y-83895000D01*
X190236500Y-83895000D01*
X190236500Y-84300000D01*
X190036500Y-84300000D01*
X190036500Y-83895000D01*
X188955207Y-83895000D01*
X188930131Y-83897908D01*
X188930125Y-83897910D01*
X188827521Y-83943213D01*
X188748213Y-84022521D01*
X188702910Y-84125124D01*
X188700000Y-84150210D01*
X127299999Y-84150210D01*
X127299999Y-84150207D01*
X127297091Y-84125131D01*
X127297089Y-84125125D01*
X127251786Y-84022521D01*
X127172478Y-83943213D01*
X127069875Y-83897910D01*
X127069876Y-83897910D01*
X127044789Y-83895000D01*
X125963500Y-83895000D01*
X125963500Y-84300000D01*
X125763500Y-84300000D01*
X125763500Y-83895000D01*
X124682207Y-83895000D01*
X124657131Y-83897908D01*
X124657125Y-83897910D01*
X124554521Y-83943213D01*
X124475213Y-84022521D01*
X124429910Y-84125124D01*
X124427000Y-84150210D01*
X121572999Y-84150210D01*
X121572999Y-84150207D01*
X121570091Y-84125131D01*
X121570089Y-84125125D01*
X121524786Y-84022521D01*
X121445478Y-83943213D01*
X121342875Y-83897910D01*
X121342876Y-83897910D01*
X121317789Y-83895000D01*
X120236500Y-83895000D01*
X120236500Y-84300000D01*
X120036500Y-84300000D01*
X120036500Y-83895000D01*
X118955207Y-83895000D01*
X118930131Y-83897908D01*
X118930125Y-83897910D01*
X118827521Y-83943213D01*
X118748213Y-84022521D01*
X118702910Y-84125124D01*
X118700000Y-84150210D01*
X108500500Y-84150210D01*
X108500500Y-81874871D01*
X119719500Y-81874871D01*
X119719500Y-81995128D01*
X119742959Y-82113069D01*
X119742961Y-82113076D01*
X119788981Y-82224179D01*
X119788982Y-82224180D01*
X119855794Y-82324171D01*
X119940829Y-82409206D01*
X120040820Y-82476018D01*
X120151924Y-82522039D01*
X120269871Y-82545500D01*
X120269872Y-82545500D01*
X120390128Y-82545500D01*
X120390129Y-82545500D01*
X120508076Y-82522039D01*
X120619180Y-82476018D01*
X120719171Y-82409206D01*
X120804206Y-82324171D01*
X120871018Y-82224180D01*
X120917039Y-82113076D01*
X120940500Y-81995129D01*
X120940500Y-81874871D01*
X189719500Y-81874871D01*
X189719500Y-81995128D01*
X189742959Y-82113069D01*
X189742961Y-82113076D01*
X189788981Y-82224179D01*
X189788982Y-82224180D01*
X189855794Y-82324171D01*
X189940829Y-82409206D01*
X190040820Y-82476018D01*
X190151924Y-82522039D01*
X190269871Y-82545500D01*
X190269872Y-82545500D01*
X190390128Y-82545500D01*
X190390129Y-82545500D01*
X190508076Y-82522039D01*
X190619180Y-82476018D01*
X190719171Y-82409206D01*
X190804206Y-82324171D01*
X190871018Y-82224180D01*
X190917039Y-82113076D01*
X190940500Y-81995129D01*
X190940500Y-81874871D01*
X190917039Y-81756924D01*
X190871018Y-81645820D01*
X190804206Y-81545829D01*
X190719171Y-81460794D01*
X190619180Y-81393982D01*
X190619181Y-81393982D01*
X190619179Y-81393981D01*
X190508076Y-81347961D01*
X190508069Y-81347959D01*
X190419215Y-81330285D01*
X190390129Y-81324500D01*
X190269871Y-81324500D01*
X190246538Y-81329141D01*
X190151930Y-81347959D01*
X190151923Y-81347961D01*
X190040820Y-81393981D01*
X189940832Y-81460791D01*
X189855791Y-81545832D01*
X189788981Y-81645820D01*
X189742961Y-81756923D01*
X189742959Y-81756930D01*
X189719500Y-81874871D01*
X120940500Y-81874871D01*
X120917039Y-81756924D01*
X120871018Y-81645820D01*
X120804206Y-81545829D01*
X120719171Y-81460794D01*
X120619180Y-81393982D01*
X120619181Y-81393982D01*
X120619179Y-81393981D01*
X120508076Y-81347961D01*
X120508069Y-81347959D01*
X120419215Y-81330285D01*
X120390129Y-81324500D01*
X120269871Y-81324500D01*
X120246538Y-81329141D01*
X120151930Y-81347959D01*
X120151923Y-81347961D01*
X120040820Y-81393981D01*
X119940832Y-81460791D01*
X119855791Y-81545832D01*
X119788981Y-81645820D01*
X119742961Y-81756923D01*
X119742959Y-81756930D01*
X119719500Y-81874871D01*
X108500500Y-81874871D01*
X108500500Y-71002236D01*
X108500635Y-70997768D01*
X108510902Y-70828031D01*
X108518454Y-70703176D01*
X108519528Y-70694328D01*
X108572328Y-70406211D01*
X108574458Y-70397568D01*
X108661597Y-70117931D01*
X108664754Y-70109604D01*
X108784971Y-69842493D01*
X108789115Y-69834599D01*
X108940636Y-69583952D01*
X108945712Y-69576599D01*
X108998000Y-69509858D01*
X109126343Y-69346039D01*
X109132254Y-69339367D01*
X109339367Y-69132254D01*
X109346039Y-69126343D01*
X109576599Y-68945711D01*
X109583953Y-68940636D01*
X109834599Y-68789115D01*
X109842493Y-68784971D01*
X110109604Y-68664754D01*
X110117931Y-68661597D01*
X110397568Y-68574458D01*
X110406211Y-68572328D01*
X110694328Y-68519528D01*
X110703176Y-68518454D01*
X110997768Y-68500634D01*
X111002236Y-68500500D01*
X111065892Y-68500500D01*
X211812808Y-68500500D01*
X211876465Y-68500500D01*
X211880943Y-68500636D01*
G37*
%TD.AperFunction*%
%TD*%
M02*
