%TF.GenerationSoftware,KiCad,Pcbnew,9.0.3*%
%TF.CreationDate,2026-01-11T20:48:13+08:00*%
%TF.ProjectId,ephys-test-module-molex-504070-32,65706879-732d-4746-9573-742d6d6f6475,E*%
%TF.SameCoordinates,Original*%
%TF.FileFunction,Legend,Bot*%
%TF.FilePolarity,Positive*%
%FSLAX46Y46*%
G04 Gerber Fmt 4.6, Leading zero omitted, Abs format (unit mm)*
G04 Created by KiCad (PCBNEW 9.0.3) date 2026-01-11 20:48:13*
%MOMM*%
%LPD*%
G01*
G04 APERTURE LIST*
%ADD10C,0.150000*%
%ADD11C,0.120000*%
%ADD12C,0.200000*%
G04 APERTURE END LIST*
D10*
X154640476Y-99779819D02*
X154973809Y-99303628D01*
X155211904Y-99779819D02*
X155211904Y-98779819D01*
X155211904Y-98779819D02*
X154830952Y-98779819D01*
X154830952Y-98779819D02*
X154735714Y-98827438D01*
X154735714Y-98827438D02*
X154688095Y-98875057D01*
X154688095Y-98875057D02*
X154640476Y-98970295D01*
X154640476Y-98970295D02*
X154640476Y-99113152D01*
X154640476Y-99113152D02*
X154688095Y-99208390D01*
X154688095Y-99208390D02*
X154735714Y-99256009D01*
X154735714Y-99256009D02*
X154830952Y-99303628D01*
X154830952Y-99303628D02*
X155211904Y-99303628D01*
X154211904Y-99779819D02*
X154211904Y-98779819D01*
X154211904Y-98779819D02*
X153640476Y-99779819D01*
X153640476Y-99779819D02*
X153640476Y-98779819D01*
X152735714Y-99113152D02*
X152735714Y-99779819D01*
X152973809Y-98732200D02*
X153211904Y-99446485D01*
X153211904Y-99446485D02*
X152592857Y-99446485D01*
X135240476Y-104454819D02*
X135573809Y-103978628D01*
X135811904Y-104454819D02*
X135811904Y-103454819D01*
X135811904Y-103454819D02*
X135430952Y-103454819D01*
X135430952Y-103454819D02*
X135335714Y-103502438D01*
X135335714Y-103502438D02*
X135288095Y-103550057D01*
X135288095Y-103550057D02*
X135240476Y-103645295D01*
X135240476Y-103645295D02*
X135240476Y-103788152D01*
X135240476Y-103788152D02*
X135288095Y-103883390D01*
X135288095Y-103883390D02*
X135335714Y-103931009D01*
X135335714Y-103931009D02*
X135430952Y-103978628D01*
X135430952Y-103978628D02*
X135811904Y-103978628D01*
X134811904Y-104454819D02*
X134811904Y-103454819D01*
X134811904Y-103454819D02*
X134240476Y-104454819D01*
X134240476Y-104454819D02*
X134240476Y-103454819D01*
X133240476Y-104454819D02*
X133811904Y-104454819D01*
X133526190Y-104454819D02*
X133526190Y-103454819D01*
X133526190Y-103454819D02*
X133621428Y-103597676D01*
X133621428Y-103597676D02*
X133716666Y-103692914D01*
X133716666Y-103692914D02*
X133811904Y-103740533D01*
X135240476Y-99979819D02*
X135573809Y-99503628D01*
X135811904Y-99979819D02*
X135811904Y-98979819D01*
X135811904Y-98979819D02*
X135430952Y-98979819D01*
X135430952Y-98979819D02*
X135335714Y-99027438D01*
X135335714Y-99027438D02*
X135288095Y-99075057D01*
X135288095Y-99075057D02*
X135240476Y-99170295D01*
X135240476Y-99170295D02*
X135240476Y-99313152D01*
X135240476Y-99313152D02*
X135288095Y-99408390D01*
X135288095Y-99408390D02*
X135335714Y-99456009D01*
X135335714Y-99456009D02*
X135430952Y-99503628D01*
X135430952Y-99503628D02*
X135811904Y-99503628D01*
X134811904Y-99979819D02*
X134811904Y-98979819D01*
X134811904Y-98979819D02*
X134240476Y-99979819D01*
X134240476Y-99979819D02*
X134240476Y-98979819D01*
X133811904Y-99075057D02*
X133764285Y-99027438D01*
X133764285Y-99027438D02*
X133669047Y-98979819D01*
X133669047Y-98979819D02*
X133430952Y-98979819D01*
X133430952Y-98979819D02*
X133335714Y-99027438D01*
X133335714Y-99027438D02*
X133288095Y-99075057D01*
X133288095Y-99075057D02*
X133240476Y-99170295D01*
X133240476Y-99170295D02*
X133240476Y-99265533D01*
X133240476Y-99265533D02*
X133288095Y-99408390D01*
X133288095Y-99408390D02*
X133859523Y-99979819D01*
X133859523Y-99979819D02*
X133240476Y-99979819D01*
X154640476Y-104279819D02*
X154973809Y-103803628D01*
X155211904Y-104279819D02*
X155211904Y-103279819D01*
X155211904Y-103279819D02*
X154830952Y-103279819D01*
X154830952Y-103279819D02*
X154735714Y-103327438D01*
X154735714Y-103327438D02*
X154688095Y-103375057D01*
X154688095Y-103375057D02*
X154640476Y-103470295D01*
X154640476Y-103470295D02*
X154640476Y-103613152D01*
X154640476Y-103613152D02*
X154688095Y-103708390D01*
X154688095Y-103708390D02*
X154735714Y-103756009D01*
X154735714Y-103756009D02*
X154830952Y-103803628D01*
X154830952Y-103803628D02*
X155211904Y-103803628D01*
X154211904Y-104279819D02*
X154211904Y-103279819D01*
X154211904Y-103279819D02*
X153640476Y-104279819D01*
X153640476Y-104279819D02*
X153640476Y-103279819D01*
X153259523Y-103279819D02*
X152640476Y-103279819D01*
X152640476Y-103279819D02*
X152973809Y-103660771D01*
X152973809Y-103660771D02*
X152830952Y-103660771D01*
X152830952Y-103660771D02*
X152735714Y-103708390D01*
X152735714Y-103708390D02*
X152688095Y-103756009D01*
X152688095Y-103756009D02*
X152640476Y-103851247D01*
X152640476Y-103851247D02*
X152640476Y-104089342D01*
X152640476Y-104089342D02*
X152688095Y-104184580D01*
X152688095Y-104184580D02*
X152735714Y-104232200D01*
X152735714Y-104232200D02*
X152830952Y-104279819D01*
X152830952Y-104279819D02*
X153116666Y-104279819D01*
X153116666Y-104279819D02*
X153211904Y-104232200D01*
X153211904Y-104232200D02*
X153259523Y-104184580D01*
X123533333Y-119654819D02*
X123533333Y-120369104D01*
X123533333Y-120369104D02*
X123580952Y-120511961D01*
X123580952Y-120511961D02*
X123676190Y-120607200D01*
X123676190Y-120607200D02*
X123819047Y-120654819D01*
X123819047Y-120654819D02*
X123914285Y-120654819D01*
X122628571Y-119988152D02*
X122628571Y-120654819D01*
X122866666Y-119607200D02*
X123104761Y-120321485D01*
X123104761Y-120321485D02*
X122485714Y-120321485D01*
X193533333Y-119654819D02*
X193533333Y-120369104D01*
X193533333Y-120369104D02*
X193580952Y-120511961D01*
X193580952Y-120511961D02*
X193676190Y-120607200D01*
X193676190Y-120607200D02*
X193819047Y-120654819D01*
X193819047Y-120654819D02*
X193914285Y-120654819D01*
X192580952Y-119654819D02*
X193057142Y-119654819D01*
X193057142Y-119654819D02*
X193104761Y-120131009D01*
X193104761Y-120131009D02*
X193057142Y-120083390D01*
X193057142Y-120083390D02*
X192961904Y-120035771D01*
X192961904Y-120035771D02*
X192723809Y-120035771D01*
X192723809Y-120035771D02*
X192628571Y-120083390D01*
X192628571Y-120083390D02*
X192580952Y-120131009D01*
X192580952Y-120131009D02*
X192533333Y-120226247D01*
X192533333Y-120226247D02*
X192533333Y-120464342D01*
X192533333Y-120464342D02*
X192580952Y-120559580D01*
X192580952Y-120559580D02*
X192628571Y-120607200D01*
X192628571Y-120607200D02*
X192723809Y-120654819D01*
X192723809Y-120654819D02*
X192961904Y-120654819D01*
X192961904Y-120654819D02*
X193057142Y-120607200D01*
X193057142Y-120607200D02*
X193104761Y-120559580D01*
D11*
%TO.C,RN4*%
X151150000Y-101470000D02*
X150150000Y-101470000D01*
X151150000Y-97230000D02*
X150150000Y-97230000D01*
%TO.C,RN1*%
X138250000Y-101930000D02*
X137250000Y-101930000D01*
X138250000Y-106170000D02*
X137250000Y-106170000D01*
%TO.C,RN2*%
X138250000Y-101670000D02*
X137250000Y-101670000D01*
X138250000Y-97430000D02*
X137250000Y-97430000D01*
%TO.C,RN3*%
X151150000Y-105970000D02*
X150150000Y-105970000D01*
X151150000Y-101730000D02*
X150150000Y-101730000D01*
D12*
%TO.C,J4*%
X119380500Y-81365000D02*
X119380500Y-83845000D01*
X119380500Y-118635000D02*
X119380500Y-116155000D01*
X121600000Y-81365000D02*
X126619500Y-81365000D01*
X121600000Y-118635000D02*
X126619500Y-118635000D01*
X126619500Y-81365000D02*
X126619500Y-83845000D01*
X126619500Y-118635000D02*
X126619500Y-116155000D01*
X127700000Y-84400000D02*
G75*
G02*
X127500000Y-84400000I-100000J0D01*
G01*
X127500000Y-84400000D02*
G75*
G02*
X127700000Y-84400000I100000J0D01*
G01*
%TO.C,J5*%
X189380500Y-81365000D02*
X189380500Y-83845000D01*
X189380500Y-118635000D02*
X189380500Y-116155000D01*
X191600000Y-81365000D02*
X196619500Y-81365000D01*
X191600000Y-118635000D02*
X196619500Y-118635000D01*
X196619500Y-81365000D02*
X196619500Y-83845000D01*
X196619500Y-118635000D02*
X196619500Y-116155000D01*
X197700000Y-84400000D02*
G75*
G02*
X197500000Y-84400000I-100000J0D01*
G01*
X197500000Y-84400000D02*
G75*
G02*
X197700000Y-84400000I100000J0D01*
G01*
%TD*%
M02*
