%TF.GenerationSoftware,KiCad,Pcbnew,9.0.6*%
%TF.CreationDate,2026-01-13T13:16:06-05:00*%
%TF.ProjectId,ephys-test-module-molex-504070-32,65706879-732d-4746-9573-742d6d6f6475,E*%
%TF.SameCoordinates,PX66ff300PY82a7440*%
%TF.FileFunction,Legend,Bot*%
%TF.FilePolarity,Positive*%
%FSLAX46Y46*%
G04 Gerber Fmt 4.6, Leading zero omitted, Abs format (unit mm)*
G04 Created by KiCad (PCBNEW 9.0.6) date 2026-01-13 13:16:06*
%MOMM*%
%LPD*%
G01*
G04 APERTURE LIST*
%ADD10C,0.150000*%
%ADD11C,0.120000*%
%ADD12C,0.200000*%
G04 APERTURE END LIST*
D10*
X46640476Y37220181D02*
X46973809Y37696372D01*
X47211904Y37220181D02*
X47211904Y38220181D01*
X47211904Y38220181D02*
X46830952Y38220181D01*
X46830952Y38220181D02*
X46735714Y38172562D01*
X46735714Y38172562D02*
X46688095Y38124943D01*
X46688095Y38124943D02*
X46640476Y38029705D01*
X46640476Y38029705D02*
X46640476Y37886848D01*
X46640476Y37886848D02*
X46688095Y37791610D01*
X46688095Y37791610D02*
X46735714Y37743991D01*
X46735714Y37743991D02*
X46830952Y37696372D01*
X46830952Y37696372D02*
X47211904Y37696372D01*
X46211904Y37220181D02*
X46211904Y38220181D01*
X46211904Y38220181D02*
X45640476Y37220181D01*
X45640476Y37220181D02*
X45640476Y38220181D01*
X44735714Y37886848D02*
X44735714Y37220181D01*
X44973809Y38267800D02*
X45211904Y37553515D01*
X45211904Y37553515D02*
X44592857Y37553515D01*
X15533333Y17345181D02*
X15533333Y16630896D01*
X15533333Y16630896D02*
X15580952Y16488039D01*
X15580952Y16488039D02*
X15676190Y16392800D01*
X15676190Y16392800D02*
X15819047Y16345181D01*
X15819047Y16345181D02*
X15914285Y16345181D01*
X14628571Y17011848D02*
X14628571Y16345181D01*
X14866666Y17392800D02*
X15104761Y16678515D01*
X15104761Y16678515D02*
X14485714Y16678515D01*
X27240476Y32545181D02*
X27573809Y33021372D01*
X27811904Y32545181D02*
X27811904Y33545181D01*
X27811904Y33545181D02*
X27430952Y33545181D01*
X27430952Y33545181D02*
X27335714Y33497562D01*
X27335714Y33497562D02*
X27288095Y33449943D01*
X27288095Y33449943D02*
X27240476Y33354705D01*
X27240476Y33354705D02*
X27240476Y33211848D01*
X27240476Y33211848D02*
X27288095Y33116610D01*
X27288095Y33116610D02*
X27335714Y33068991D01*
X27335714Y33068991D02*
X27430952Y33021372D01*
X27430952Y33021372D02*
X27811904Y33021372D01*
X26811904Y32545181D02*
X26811904Y33545181D01*
X26811904Y33545181D02*
X26240476Y32545181D01*
X26240476Y32545181D02*
X26240476Y33545181D01*
X25240476Y32545181D02*
X25811904Y32545181D01*
X25526190Y32545181D02*
X25526190Y33545181D01*
X25526190Y33545181D02*
X25621428Y33402324D01*
X25621428Y33402324D02*
X25716666Y33307086D01*
X25716666Y33307086D02*
X25811904Y33259467D01*
X27240476Y37020181D02*
X27573809Y37496372D01*
X27811904Y37020181D02*
X27811904Y38020181D01*
X27811904Y38020181D02*
X27430952Y38020181D01*
X27430952Y38020181D02*
X27335714Y37972562D01*
X27335714Y37972562D02*
X27288095Y37924943D01*
X27288095Y37924943D02*
X27240476Y37829705D01*
X27240476Y37829705D02*
X27240476Y37686848D01*
X27240476Y37686848D02*
X27288095Y37591610D01*
X27288095Y37591610D02*
X27335714Y37543991D01*
X27335714Y37543991D02*
X27430952Y37496372D01*
X27430952Y37496372D02*
X27811904Y37496372D01*
X26811904Y37020181D02*
X26811904Y38020181D01*
X26811904Y38020181D02*
X26240476Y37020181D01*
X26240476Y37020181D02*
X26240476Y38020181D01*
X25811904Y37924943D02*
X25764285Y37972562D01*
X25764285Y37972562D02*
X25669047Y38020181D01*
X25669047Y38020181D02*
X25430952Y38020181D01*
X25430952Y38020181D02*
X25335714Y37972562D01*
X25335714Y37972562D02*
X25288095Y37924943D01*
X25288095Y37924943D02*
X25240476Y37829705D01*
X25240476Y37829705D02*
X25240476Y37734467D01*
X25240476Y37734467D02*
X25288095Y37591610D01*
X25288095Y37591610D02*
X25859523Y37020181D01*
X25859523Y37020181D02*
X25240476Y37020181D01*
X46640476Y32720181D02*
X46973809Y33196372D01*
X47211904Y32720181D02*
X47211904Y33720181D01*
X47211904Y33720181D02*
X46830952Y33720181D01*
X46830952Y33720181D02*
X46735714Y33672562D01*
X46735714Y33672562D02*
X46688095Y33624943D01*
X46688095Y33624943D02*
X46640476Y33529705D01*
X46640476Y33529705D02*
X46640476Y33386848D01*
X46640476Y33386848D02*
X46688095Y33291610D01*
X46688095Y33291610D02*
X46735714Y33243991D01*
X46735714Y33243991D02*
X46830952Y33196372D01*
X46830952Y33196372D02*
X47211904Y33196372D01*
X46211904Y32720181D02*
X46211904Y33720181D01*
X46211904Y33720181D02*
X45640476Y32720181D01*
X45640476Y32720181D02*
X45640476Y33720181D01*
X45259523Y33720181D02*
X44640476Y33720181D01*
X44640476Y33720181D02*
X44973809Y33339229D01*
X44973809Y33339229D02*
X44830952Y33339229D01*
X44830952Y33339229D02*
X44735714Y33291610D01*
X44735714Y33291610D02*
X44688095Y33243991D01*
X44688095Y33243991D02*
X44640476Y33148753D01*
X44640476Y33148753D02*
X44640476Y32910658D01*
X44640476Y32910658D02*
X44688095Y32815420D01*
X44688095Y32815420D02*
X44735714Y32767800D01*
X44735714Y32767800D02*
X44830952Y32720181D01*
X44830952Y32720181D02*
X45116666Y32720181D01*
X45116666Y32720181D02*
X45211904Y32767800D01*
X45211904Y32767800D02*
X45259523Y32815420D01*
X85533333Y17345181D02*
X85533333Y16630896D01*
X85533333Y16630896D02*
X85580952Y16488039D01*
X85580952Y16488039D02*
X85676190Y16392800D01*
X85676190Y16392800D02*
X85819047Y16345181D01*
X85819047Y16345181D02*
X85914285Y16345181D01*
X84580952Y17345181D02*
X85057142Y17345181D01*
X85057142Y17345181D02*
X85104761Y16868991D01*
X85104761Y16868991D02*
X85057142Y16916610D01*
X85057142Y16916610D02*
X84961904Y16964229D01*
X84961904Y16964229D02*
X84723809Y16964229D01*
X84723809Y16964229D02*
X84628571Y16916610D01*
X84628571Y16916610D02*
X84580952Y16868991D01*
X84580952Y16868991D02*
X84533333Y16773753D01*
X84533333Y16773753D02*
X84533333Y16535658D01*
X84533333Y16535658D02*
X84580952Y16440420D01*
X84580952Y16440420D02*
X84628571Y16392800D01*
X84628571Y16392800D02*
X84723809Y16345181D01*
X84723809Y16345181D02*
X84961904Y16345181D01*
X84961904Y16345181D02*
X85057142Y16392800D01*
X85057142Y16392800D02*
X85104761Y16440420D01*
D11*
%TO.C,RN4*%
X43150000Y39770000D02*
X42150000Y39770000D01*
X43150000Y35530000D02*
X42150000Y35530000D01*
D12*
%TO.C,J4*%
X11380500Y55635000D02*
X11380500Y53155000D01*
X11380500Y18365000D02*
X11380500Y20845000D01*
X13600000Y55635000D02*
X18619500Y55635000D01*
X13600000Y18365000D02*
X18619500Y18365000D01*
X18619500Y55635000D02*
X18619500Y53155000D01*
X18619500Y18365000D02*
X18619500Y20845000D01*
X19700000Y52600000D02*
G75*
G02*
X19500000Y52600000I-100000J0D01*
G01*
X19500000Y52600000D02*
G75*
G02*
X19700000Y52600000I100000J0D01*
G01*
D11*
%TO.C,RN1*%
X30250000Y35070000D02*
X29250000Y35070000D01*
X30250000Y30830000D02*
X29250000Y30830000D01*
%TO.C,RN2*%
X30250000Y39570000D02*
X29250000Y39570000D01*
X30250000Y35330000D02*
X29250000Y35330000D01*
%TO.C,RN3*%
X43150000Y35270000D02*
X42150000Y35270000D01*
X43150000Y31030000D02*
X42150000Y31030000D01*
D12*
%TO.C,J5*%
X81380500Y55635000D02*
X81380500Y53155000D01*
X81380500Y18365000D02*
X81380500Y20845000D01*
X83600000Y55635000D02*
X88619500Y55635000D01*
X83600000Y18365000D02*
X88619500Y18365000D01*
X88619500Y55635000D02*
X88619500Y53155000D01*
X88619500Y18365000D02*
X88619500Y20845000D01*
X89700000Y52600000D02*
G75*
G02*
X89500000Y52600000I-100000J0D01*
G01*
X89500000Y52600000D02*
G75*
G02*
X89700000Y52600000I100000J0D01*
G01*
%TD*%
M02*
