%TF.GenerationSoftware,KiCad,Pcbnew,9.0.3*%
%TF.CreationDate,2026-01-11T20:48:13+08:00*%
%TF.ProjectId,ephys-test-module-molex-504070-32,65706879-732d-4746-9573-742d6d6f6475,E*%
%TF.SameCoordinates,Original*%
%TF.FileFunction,AssemblyDrawing,Bot*%
%FSLAX46Y46*%
G04 Gerber Fmt 4.6, Leading zero omitted, Abs format (unit mm)*
G04 Created by KiCad (PCBNEW 9.0.3) date 2026-01-11 20:48:13*
%MOMM*%
%LPD*%
G01*
G04 APERTURE LIST*
%ADD10C,0.150000*%
%ADD11C,0.100000*%
%ADD12C,0.200000*%
G04 APERTURE END LIST*
D10*
X151104819Y-98659523D02*
X150628628Y-98326190D01*
X151104819Y-98088095D02*
X150104819Y-98088095D01*
X150104819Y-98088095D02*
X150104819Y-98469047D01*
X150104819Y-98469047D02*
X150152438Y-98564285D01*
X150152438Y-98564285D02*
X150200057Y-98611904D01*
X150200057Y-98611904D02*
X150295295Y-98659523D01*
X150295295Y-98659523D02*
X150438152Y-98659523D01*
X150438152Y-98659523D02*
X150533390Y-98611904D01*
X150533390Y-98611904D02*
X150581009Y-98564285D01*
X150581009Y-98564285D02*
X150628628Y-98469047D01*
X150628628Y-98469047D02*
X150628628Y-98088095D01*
X151104819Y-99088095D02*
X150104819Y-99088095D01*
X150104819Y-99088095D02*
X151104819Y-99659523D01*
X151104819Y-99659523D02*
X150104819Y-99659523D01*
X150438152Y-100564285D02*
X151104819Y-100564285D01*
X150057200Y-100326190D02*
X150771485Y-100088095D01*
X150771485Y-100088095D02*
X150771485Y-100707142D01*
X138204819Y-103359523D02*
X137728628Y-103026190D01*
X138204819Y-102788095D02*
X137204819Y-102788095D01*
X137204819Y-102788095D02*
X137204819Y-103169047D01*
X137204819Y-103169047D02*
X137252438Y-103264285D01*
X137252438Y-103264285D02*
X137300057Y-103311904D01*
X137300057Y-103311904D02*
X137395295Y-103359523D01*
X137395295Y-103359523D02*
X137538152Y-103359523D01*
X137538152Y-103359523D02*
X137633390Y-103311904D01*
X137633390Y-103311904D02*
X137681009Y-103264285D01*
X137681009Y-103264285D02*
X137728628Y-103169047D01*
X137728628Y-103169047D02*
X137728628Y-102788095D01*
X138204819Y-103788095D02*
X137204819Y-103788095D01*
X137204819Y-103788095D02*
X138204819Y-104359523D01*
X138204819Y-104359523D02*
X137204819Y-104359523D01*
X138204819Y-105359523D02*
X138204819Y-104788095D01*
X138204819Y-105073809D02*
X137204819Y-105073809D01*
X137204819Y-105073809D02*
X137347676Y-104978571D01*
X137347676Y-104978571D02*
X137442914Y-104883333D01*
X137442914Y-104883333D02*
X137490533Y-104788095D01*
X138204819Y-98859523D02*
X137728628Y-98526190D01*
X138204819Y-98288095D02*
X137204819Y-98288095D01*
X137204819Y-98288095D02*
X137204819Y-98669047D01*
X137204819Y-98669047D02*
X137252438Y-98764285D01*
X137252438Y-98764285D02*
X137300057Y-98811904D01*
X137300057Y-98811904D02*
X137395295Y-98859523D01*
X137395295Y-98859523D02*
X137538152Y-98859523D01*
X137538152Y-98859523D02*
X137633390Y-98811904D01*
X137633390Y-98811904D02*
X137681009Y-98764285D01*
X137681009Y-98764285D02*
X137728628Y-98669047D01*
X137728628Y-98669047D02*
X137728628Y-98288095D01*
X138204819Y-99288095D02*
X137204819Y-99288095D01*
X137204819Y-99288095D02*
X138204819Y-99859523D01*
X138204819Y-99859523D02*
X137204819Y-99859523D01*
X137300057Y-100288095D02*
X137252438Y-100335714D01*
X137252438Y-100335714D02*
X137204819Y-100430952D01*
X137204819Y-100430952D02*
X137204819Y-100669047D01*
X137204819Y-100669047D02*
X137252438Y-100764285D01*
X137252438Y-100764285D02*
X137300057Y-100811904D01*
X137300057Y-100811904D02*
X137395295Y-100859523D01*
X137395295Y-100859523D02*
X137490533Y-100859523D01*
X137490533Y-100859523D02*
X137633390Y-100811904D01*
X137633390Y-100811904D02*
X138204819Y-100240476D01*
X138204819Y-100240476D02*
X138204819Y-100859523D01*
X151104819Y-103159523D02*
X150628628Y-102826190D01*
X151104819Y-102588095D02*
X150104819Y-102588095D01*
X150104819Y-102588095D02*
X150104819Y-102969047D01*
X150104819Y-102969047D02*
X150152438Y-103064285D01*
X150152438Y-103064285D02*
X150200057Y-103111904D01*
X150200057Y-103111904D02*
X150295295Y-103159523D01*
X150295295Y-103159523D02*
X150438152Y-103159523D01*
X150438152Y-103159523D02*
X150533390Y-103111904D01*
X150533390Y-103111904D02*
X150581009Y-103064285D01*
X150581009Y-103064285D02*
X150628628Y-102969047D01*
X150628628Y-102969047D02*
X150628628Y-102588095D01*
X151104819Y-103588095D02*
X150104819Y-103588095D01*
X150104819Y-103588095D02*
X151104819Y-104159523D01*
X151104819Y-104159523D02*
X150104819Y-104159523D01*
X150104819Y-104540476D02*
X150104819Y-105159523D01*
X150104819Y-105159523D02*
X150485771Y-104826190D01*
X150485771Y-104826190D02*
X150485771Y-104969047D01*
X150485771Y-104969047D02*
X150533390Y-105064285D01*
X150533390Y-105064285D02*
X150581009Y-105111904D01*
X150581009Y-105111904D02*
X150676247Y-105159523D01*
X150676247Y-105159523D02*
X150914342Y-105159523D01*
X150914342Y-105159523D02*
X151009580Y-105111904D01*
X151009580Y-105111904D02*
X151057200Y-105064285D01*
X151057200Y-105064285D02*
X151104819Y-104969047D01*
X151104819Y-104969047D02*
X151104819Y-104683333D01*
X151104819Y-104683333D02*
X151057200Y-104588095D01*
X151057200Y-104588095D02*
X151009580Y-104540476D01*
X122454819Y-99666666D02*
X123169104Y-99666666D01*
X123169104Y-99666666D02*
X123311961Y-99619047D01*
X123311961Y-99619047D02*
X123407200Y-99523809D01*
X123407200Y-99523809D02*
X123454819Y-99380952D01*
X123454819Y-99380952D02*
X123454819Y-99285714D01*
X122788152Y-100571428D02*
X123454819Y-100571428D01*
X122407200Y-100333333D02*
X123121485Y-100095238D01*
X123121485Y-100095238D02*
X123121485Y-100714285D01*
X192454819Y-99666666D02*
X193169104Y-99666666D01*
X193169104Y-99666666D02*
X193311961Y-99619047D01*
X193311961Y-99619047D02*
X193407200Y-99523809D01*
X193407200Y-99523809D02*
X193454819Y-99380952D01*
X193454819Y-99380952D02*
X193454819Y-99285714D01*
X192454819Y-100619047D02*
X192454819Y-100142857D01*
X192454819Y-100142857D02*
X192931009Y-100095238D01*
X192931009Y-100095238D02*
X192883390Y-100142857D01*
X192883390Y-100142857D02*
X192835771Y-100238095D01*
X192835771Y-100238095D02*
X192835771Y-100476190D01*
X192835771Y-100476190D02*
X192883390Y-100571428D01*
X192883390Y-100571428D02*
X192931009Y-100619047D01*
X192931009Y-100619047D02*
X193026247Y-100666666D01*
X193026247Y-100666666D02*
X193264342Y-100666666D01*
X193264342Y-100666666D02*
X193359580Y-100619047D01*
X193359580Y-100619047D02*
X193407200Y-100571428D01*
X193407200Y-100571428D02*
X193454819Y-100476190D01*
X193454819Y-100476190D02*
X193454819Y-100238095D01*
X193454819Y-100238095D02*
X193407200Y-100142857D01*
X193407200Y-100142857D02*
X193359580Y-100095238D01*
D11*
%TO.C,RN4*%
X149850000Y-101350000D02*
X149850000Y-97350000D01*
X149850000Y-97350000D02*
X151450000Y-97350000D01*
X151450000Y-101350000D02*
X149850000Y-101350000D01*
X151450000Y-97350000D02*
X151450000Y-101350000D01*
%TO.C,RN1*%
X138550000Y-102050000D02*
X138550000Y-106050000D01*
X138550000Y-106050000D02*
X136950000Y-106050000D01*
X136950000Y-102050000D02*
X138550000Y-102050000D01*
X136950000Y-106050000D02*
X136950000Y-102050000D01*
%TO.C,RN2*%
X136950000Y-101550000D02*
X136950000Y-97550000D01*
X136950000Y-97550000D02*
X138550000Y-97550000D01*
X138550000Y-101550000D02*
X136950000Y-101550000D01*
X138550000Y-97550000D02*
X138550000Y-101550000D01*
%TO.C,RN3*%
X149850000Y-105850000D02*
X149850000Y-101850000D01*
X149850000Y-101850000D02*
X151450000Y-101850000D01*
X151450000Y-105850000D02*
X149850000Y-105850000D01*
X151450000Y-101850000D02*
X151450000Y-105850000D01*
%TO.C,J4*%
X119380500Y-81365000D02*
X126619500Y-81365000D01*
X119380500Y-118635000D02*
X119380500Y-81365000D01*
X126619500Y-81365000D02*
X126619500Y-118635000D01*
X126619500Y-118635000D02*
X119380500Y-118635000D01*
D12*
X127700000Y-84400000D02*
G75*
G02*
X127500000Y-84400000I-100000J0D01*
G01*
X127500000Y-84400000D02*
G75*
G02*
X127700000Y-84400000I100000J0D01*
G01*
D11*
%TO.C,J5*%
X189380500Y-81365000D02*
X196619500Y-81365000D01*
X189380500Y-118635000D02*
X189380500Y-81365000D01*
X196619500Y-81365000D02*
X196619500Y-118635000D01*
X196619500Y-118635000D02*
X189380500Y-118635000D01*
D12*
X197700000Y-84400000D02*
G75*
G02*
X197500000Y-84400000I-100000J0D01*
G01*
X197500000Y-84400000D02*
G75*
G02*
X197700000Y-84400000I100000J0D01*
G01*
%TD*%
M02*
