%TF.GenerationSoftware,KiCad,Pcbnew,9.0.6*%
%TF.CreationDate,2026-01-13T13:16:06-05:00*%
%TF.ProjectId,ephys-test-module-molex-504070-32,65706879-732d-4746-9573-742d6d6f6475,E*%
%TF.SameCoordinates,PX66ff300PY82a7440*%
%TF.FileFunction,Legend,Top*%
%TF.FilePolarity,Positive*%
%FSLAX46Y46*%
G04 Gerber Fmt 4.6, Leading zero omitted, Abs format (unit mm)*
G04 Created by KiCad (PCBNEW 9.0.6) date 2026-01-13 13:16:06*
%MOMM*%
%LPD*%
G01*
G04 APERTURE LIST*
%ADD10C,0.200000*%
%ADD11C,0.300000*%
%ADD12C,0.150000*%
%ADD13C,0.120000*%
%ADD14C,0.100000*%
G04 APERTURE END LIST*
D10*
X41898524Y21772091D02*
X41774714Y21833996D01*
X41774714Y21833996D02*
X41589000Y21833996D01*
X41589000Y21833996D02*
X41403286Y21772091D01*
X41403286Y21772091D02*
X41279476Y21648281D01*
X41279476Y21648281D02*
X41217571Y21524472D01*
X41217571Y21524472D02*
X41155667Y21276853D01*
X41155667Y21276853D02*
X41155667Y21091139D01*
X41155667Y21091139D02*
X41217571Y20843520D01*
X41217571Y20843520D02*
X41279476Y20719710D01*
X41279476Y20719710D02*
X41403286Y20595900D01*
X41403286Y20595900D02*
X41589000Y20533996D01*
X41589000Y20533996D02*
X41712809Y20533996D01*
X41712809Y20533996D02*
X41898524Y20595900D01*
X41898524Y20595900D02*
X41960428Y20657805D01*
X41960428Y20657805D02*
X41960428Y21091139D01*
X41960428Y21091139D02*
X41712809Y21091139D01*
X42517571Y20533996D02*
X42517571Y21833996D01*
X42517571Y21833996D02*
X43260428Y20533996D01*
X43260428Y20533996D02*
X43260428Y21833996D01*
X43879476Y20533996D02*
X43879476Y21833996D01*
X43879476Y21833996D02*
X44189000Y21833996D01*
X44189000Y21833996D02*
X44374714Y21772091D01*
X44374714Y21772091D02*
X44498524Y21648281D01*
X44498524Y21648281D02*
X44560429Y21524472D01*
X44560429Y21524472D02*
X44622333Y21276853D01*
X44622333Y21276853D02*
X44622333Y21091139D01*
X44622333Y21091139D02*
X44560429Y20843520D01*
X44560429Y20843520D02*
X44498524Y20719710D01*
X44498524Y20719710D02*
X44374714Y20595900D01*
X44374714Y20595900D02*
X44189000Y20533996D01*
X44189000Y20533996D02*
X43879476Y20533996D01*
X26687618Y10169496D02*
X26687618Y11469496D01*
X26687618Y11469496D02*
X27430475Y10169496D01*
X27430475Y10169496D02*
X27430475Y11469496D01*
X27863809Y11469496D02*
X28606666Y11469496D01*
X28235238Y10169496D02*
X28235238Y11469496D01*
X29782856Y10293305D02*
X29720952Y10231400D01*
X29720952Y10231400D02*
X29535237Y10169496D01*
X29535237Y10169496D02*
X29411428Y10169496D01*
X29411428Y10169496D02*
X29225714Y10231400D01*
X29225714Y10231400D02*
X29101904Y10355210D01*
X29101904Y10355210D02*
X29039999Y10479020D01*
X29039999Y10479020D02*
X28978095Y10726639D01*
X28978095Y10726639D02*
X28978095Y10912353D01*
X28978095Y10912353D02*
X29039999Y11159972D01*
X29039999Y11159972D02*
X29101904Y11283781D01*
X29101904Y11283781D02*
X29225714Y11407591D01*
X29225714Y11407591D02*
X29411428Y11469496D01*
X29411428Y11469496D02*
X29535237Y11469496D01*
X29535237Y11469496D02*
X29720952Y11407591D01*
X29720952Y11407591D02*
X29782856Y11345686D01*
X30228571Y10323020D02*
X30723809Y10323020D01*
X30129523Y10025877D02*
X30476190Y11065877D01*
X30476190Y11065877D02*
X30822856Y10025877D01*
X28486142Y20433996D02*
X28052809Y21053043D01*
X27743285Y20433996D02*
X27743285Y21733996D01*
X27743285Y21733996D02*
X28238523Y21733996D01*
X28238523Y21733996D02*
X28362333Y21672091D01*
X28362333Y21672091D02*
X28424238Y21610186D01*
X28424238Y21610186D02*
X28486142Y21486377D01*
X28486142Y21486377D02*
X28486142Y21300662D01*
X28486142Y21300662D02*
X28424238Y21176853D01*
X28424238Y21176853D02*
X28362333Y21114948D01*
X28362333Y21114948D02*
X28238523Y21053043D01*
X28238523Y21053043D02*
X27743285Y21053043D01*
X29043285Y21114948D02*
X29476619Y21114948D01*
X29662333Y20433996D02*
X29043285Y20433996D01*
X29043285Y20433996D02*
X29043285Y21733996D01*
X29043285Y21733996D02*
X29662333Y21733996D01*
X30652809Y21114948D02*
X30219475Y21114948D01*
X30219475Y20433996D02*
X30219475Y21733996D01*
X30219475Y21733996D02*
X30838523Y21733996D01*
X41491101Y12769496D02*
X41491101Y14069496D01*
X41491101Y14069496D02*
X42233958Y12769496D01*
X42233958Y12769496D02*
X42233958Y14069496D01*
X42667292Y14069496D02*
X43410149Y14069496D01*
X43038721Y12769496D02*
X43038721Y14069496D01*
X44586339Y12893305D02*
X44524435Y12831400D01*
X44524435Y12831400D02*
X44338720Y12769496D01*
X44338720Y12769496D02*
X44214911Y12769496D01*
X44214911Y12769496D02*
X44029197Y12831400D01*
X44029197Y12831400D02*
X43905387Y12955210D01*
X43905387Y12955210D02*
X43843482Y13079020D01*
X43843482Y13079020D02*
X43781578Y13326639D01*
X43781578Y13326639D02*
X43781578Y13512353D01*
X43781578Y13512353D02*
X43843482Y13759972D01*
X43843482Y13759972D02*
X43905387Y13883781D01*
X43905387Y13883781D02*
X44029197Y14007591D01*
X44029197Y14007591D02*
X44214911Y14069496D01*
X44214911Y14069496D02*
X44338720Y14069496D01*
X44338720Y14069496D02*
X44524435Y14007591D01*
X44524435Y14007591D02*
X44586339Y13945686D01*
X45428244Y13170639D02*
X45576816Y13121115D01*
X45576816Y13121115D02*
X45626339Y13071591D01*
X45626339Y13071591D02*
X45675863Y12972543D01*
X45675863Y12972543D02*
X45675863Y12823972D01*
X45675863Y12823972D02*
X45626339Y12724924D01*
X45626339Y12724924D02*
X45576816Y12675400D01*
X45576816Y12675400D02*
X45477768Y12625877D01*
X45477768Y12625877D02*
X45081578Y12625877D01*
X45081578Y12625877D02*
X45081578Y13665877D01*
X45081578Y13665877D02*
X45428244Y13665877D01*
X45428244Y13665877D02*
X45527292Y13616353D01*
X45527292Y13616353D02*
X45576816Y13566829D01*
X45576816Y13566829D02*
X45626339Y13467781D01*
X45626339Y13467781D02*
X45626339Y13368734D01*
X45626339Y13368734D02*
X45576816Y13269686D01*
X45576816Y13269686D02*
X45527292Y13220162D01*
X45527292Y13220162D02*
X45428244Y13170639D01*
X45428244Y13170639D02*
X45081578Y13170639D01*
X41491101Y10169496D02*
X41491101Y11469496D01*
X41491101Y11469496D02*
X42233958Y10169496D01*
X42233958Y10169496D02*
X42233958Y11469496D01*
X42667292Y11469496D02*
X43410149Y11469496D01*
X43038721Y10169496D02*
X43038721Y11469496D01*
X44586339Y10293305D02*
X44524435Y10231400D01*
X44524435Y10231400D02*
X44338720Y10169496D01*
X44338720Y10169496D02*
X44214911Y10169496D01*
X44214911Y10169496D02*
X44029197Y10231400D01*
X44029197Y10231400D02*
X43905387Y10355210D01*
X43905387Y10355210D02*
X43843482Y10479020D01*
X43843482Y10479020D02*
X43781578Y10726639D01*
X43781578Y10726639D02*
X43781578Y10912353D01*
X43781578Y10912353D02*
X43843482Y11159972D01*
X43843482Y11159972D02*
X43905387Y11283781D01*
X43905387Y11283781D02*
X44029197Y11407591D01*
X44029197Y11407591D02*
X44214911Y11469496D01*
X44214911Y11469496D02*
X44338720Y11469496D01*
X44338720Y11469496D02*
X44524435Y11407591D01*
X44524435Y11407591D02*
X44586339Y11345686D01*
X45428244Y10570639D02*
X45576816Y10521115D01*
X45576816Y10521115D02*
X45626339Y10471591D01*
X45626339Y10471591D02*
X45675863Y10372543D01*
X45675863Y10372543D02*
X45675863Y10223972D01*
X45675863Y10223972D02*
X45626339Y10124924D01*
X45626339Y10124924D02*
X45576816Y10075400D01*
X45576816Y10075400D02*
X45477768Y10025877D01*
X45477768Y10025877D02*
X45081578Y10025877D01*
X45081578Y10025877D02*
X45081578Y11065877D01*
X45081578Y11065877D02*
X45428244Y11065877D01*
X45428244Y11065877D02*
X45527292Y11016353D01*
X45527292Y11016353D02*
X45576816Y10966829D01*
X45576816Y10966829D02*
X45626339Y10867781D01*
X45626339Y10867781D02*
X45626339Y10768734D01*
X45626339Y10768734D02*
X45576816Y10669686D01*
X45576816Y10669686D02*
X45527292Y10620162D01*
X45527292Y10620162D02*
X45428244Y10570639D01*
X45428244Y10570639D02*
X45081578Y10570639D01*
X13122054Y2507591D02*
X12998244Y2569496D01*
X12998244Y2569496D02*
X12812530Y2569496D01*
X12812530Y2569496D02*
X12626816Y2507591D01*
X12626816Y2507591D02*
X12503006Y2383781D01*
X12503006Y2383781D02*
X12441101Y2259972D01*
X12441101Y2259972D02*
X12379197Y2012353D01*
X12379197Y2012353D02*
X12379197Y1826639D01*
X12379197Y1826639D02*
X12441101Y1579020D01*
X12441101Y1579020D02*
X12503006Y1455210D01*
X12503006Y1455210D02*
X12626816Y1331400D01*
X12626816Y1331400D02*
X12812530Y1269496D01*
X12812530Y1269496D02*
X12936339Y1269496D01*
X12936339Y1269496D02*
X13122054Y1331400D01*
X13122054Y1331400D02*
X13183958Y1393305D01*
X13183958Y1393305D02*
X13183958Y1826639D01*
X13183958Y1826639D02*
X12936339Y1826639D01*
X13741101Y1269496D02*
X13741101Y2569496D01*
X13741101Y2569496D02*
X14483958Y1269496D01*
X14483958Y1269496D02*
X14483958Y2569496D01*
X15103006Y1269496D02*
X15103006Y2569496D01*
X15103006Y2569496D02*
X15412530Y2569496D01*
X15412530Y2569496D02*
X15598244Y2507591D01*
X15598244Y2507591D02*
X15722054Y2383781D01*
X15722054Y2383781D02*
X15783959Y2259972D01*
X15783959Y2259972D02*
X15845863Y2012353D01*
X15845863Y2012353D02*
X15845863Y1826639D01*
X15845863Y1826639D02*
X15783959Y1579020D01*
X15783959Y1579020D02*
X15722054Y1455210D01*
X15722054Y1455210D02*
X15598244Y1331400D01*
X15598244Y1331400D02*
X15412530Y1269496D01*
X15412530Y1269496D02*
X15103006Y1269496D01*
X26687618Y12769496D02*
X26687618Y14069496D01*
X26687618Y14069496D02*
X27430475Y12769496D01*
X27430475Y12769496D02*
X27430475Y14069496D01*
X27863809Y14069496D02*
X28606666Y14069496D01*
X28235238Y12769496D02*
X28235238Y14069496D01*
X29782856Y12893305D02*
X29720952Y12831400D01*
X29720952Y12831400D02*
X29535237Y12769496D01*
X29535237Y12769496D02*
X29411428Y12769496D01*
X29411428Y12769496D02*
X29225714Y12831400D01*
X29225714Y12831400D02*
X29101904Y12955210D01*
X29101904Y12955210D02*
X29039999Y13079020D01*
X29039999Y13079020D02*
X28978095Y13326639D01*
X28978095Y13326639D02*
X28978095Y13512353D01*
X28978095Y13512353D02*
X29039999Y13759972D01*
X29039999Y13759972D02*
X29101904Y13883781D01*
X29101904Y13883781D02*
X29225714Y14007591D01*
X29225714Y14007591D02*
X29411428Y14069496D01*
X29411428Y14069496D02*
X29535237Y14069496D01*
X29535237Y14069496D02*
X29720952Y14007591D01*
X29720952Y14007591D02*
X29782856Y13945686D01*
X30228571Y12923020D02*
X30723809Y12923020D01*
X30129523Y12625877D02*
X30476190Y13665877D01*
X30476190Y13665877D02*
X30822856Y12625877D01*
X28486142Y17933996D02*
X28052809Y18553043D01*
X27743285Y17933996D02*
X27743285Y19233996D01*
X27743285Y19233996D02*
X28238523Y19233996D01*
X28238523Y19233996D02*
X28362333Y19172091D01*
X28362333Y19172091D02*
X28424238Y19110186D01*
X28424238Y19110186D02*
X28486142Y18986377D01*
X28486142Y18986377D02*
X28486142Y18800662D01*
X28486142Y18800662D02*
X28424238Y18676853D01*
X28424238Y18676853D02*
X28362333Y18614948D01*
X28362333Y18614948D02*
X28238523Y18553043D01*
X28238523Y18553043D02*
X27743285Y18553043D01*
X29043285Y18614948D02*
X29476619Y18614948D01*
X29662333Y17933996D02*
X29043285Y17933996D01*
X29043285Y17933996D02*
X29043285Y19233996D01*
X29043285Y19233996D02*
X29662333Y19233996D01*
X30652809Y18614948D02*
X30219475Y18614948D01*
X30219475Y17933996D02*
X30219475Y19233996D01*
X30219475Y19233996D02*
X30838523Y19233996D01*
X44591101Y1269496D02*
X44591101Y2569496D01*
X44591101Y2569496D02*
X45333958Y1269496D01*
X45333958Y1269496D02*
X45333958Y2569496D01*
X45767292Y2569496D02*
X46510149Y2569496D01*
X46138721Y1269496D02*
X46138721Y2569496D01*
X47686339Y1393305D02*
X47624435Y1331400D01*
X47624435Y1331400D02*
X47438720Y1269496D01*
X47438720Y1269496D02*
X47314911Y1269496D01*
X47314911Y1269496D02*
X47129197Y1331400D01*
X47129197Y1331400D02*
X47005387Y1455210D01*
X47005387Y1455210D02*
X46943482Y1579020D01*
X46943482Y1579020D02*
X46881578Y1826639D01*
X46881578Y1826639D02*
X46881578Y2012353D01*
X46881578Y2012353D02*
X46943482Y2259972D01*
X46943482Y2259972D02*
X47005387Y2383781D01*
X47005387Y2383781D02*
X47129197Y2507591D01*
X47129197Y2507591D02*
X47314911Y2569496D01*
X47314911Y2569496D02*
X47438720Y2569496D01*
X47438720Y2569496D02*
X47624435Y2507591D01*
X47624435Y2507591D02*
X47686339Y2445686D01*
X48528244Y1670639D02*
X48676816Y1621115D01*
X48676816Y1621115D02*
X48726339Y1571591D01*
X48726339Y1571591D02*
X48775863Y1472543D01*
X48775863Y1472543D02*
X48775863Y1323972D01*
X48775863Y1323972D02*
X48726339Y1224924D01*
X48726339Y1224924D02*
X48676816Y1175400D01*
X48676816Y1175400D02*
X48577768Y1125877D01*
X48577768Y1125877D02*
X48181578Y1125877D01*
X48181578Y1125877D02*
X48181578Y2165877D01*
X48181578Y2165877D02*
X48528244Y2165877D01*
X48528244Y2165877D02*
X48627292Y2116353D01*
X48627292Y2116353D02*
X48676816Y2066829D01*
X48676816Y2066829D02*
X48726339Y1967781D01*
X48726339Y1967781D02*
X48726339Y1868734D01*
X48726339Y1868734D02*
X48676816Y1769686D01*
X48676816Y1769686D02*
X48627292Y1720162D01*
X48627292Y1720162D02*
X48528244Y1670639D01*
X48528244Y1670639D02*
X48181578Y1670639D01*
X41898524Y19272091D02*
X41774714Y19333996D01*
X41774714Y19333996D02*
X41589000Y19333996D01*
X41589000Y19333996D02*
X41403286Y19272091D01*
X41403286Y19272091D02*
X41279476Y19148281D01*
X41279476Y19148281D02*
X41217571Y19024472D01*
X41217571Y19024472D02*
X41155667Y18776853D01*
X41155667Y18776853D02*
X41155667Y18591139D01*
X41155667Y18591139D02*
X41217571Y18343520D01*
X41217571Y18343520D02*
X41279476Y18219710D01*
X41279476Y18219710D02*
X41403286Y18095900D01*
X41403286Y18095900D02*
X41589000Y18033996D01*
X41589000Y18033996D02*
X41712809Y18033996D01*
X41712809Y18033996D02*
X41898524Y18095900D01*
X41898524Y18095900D02*
X41960428Y18157805D01*
X41960428Y18157805D02*
X41960428Y18591139D01*
X41960428Y18591139D02*
X41712809Y18591139D01*
X42517571Y18033996D02*
X42517571Y19333996D01*
X42517571Y19333996D02*
X43260428Y18033996D01*
X43260428Y18033996D02*
X43260428Y19333996D01*
X43879476Y18033996D02*
X43879476Y19333996D01*
X43879476Y19333996D02*
X44189000Y19333996D01*
X44189000Y19333996D02*
X44374714Y19272091D01*
X44374714Y19272091D02*
X44498524Y19148281D01*
X44498524Y19148281D02*
X44560429Y19024472D01*
X44560429Y19024472D02*
X44622333Y18776853D01*
X44622333Y18776853D02*
X44622333Y18591139D01*
X44622333Y18591139D02*
X44560429Y18343520D01*
X44560429Y18343520D02*
X44498524Y18219710D01*
X44498524Y18219710D02*
X44374714Y18095900D01*
X44374714Y18095900D02*
X44189000Y18033996D01*
X44189000Y18033996D02*
X43879476Y18033996D01*
X23987618Y1269496D02*
X23987618Y2569496D01*
X23987618Y2569496D02*
X24730475Y1269496D01*
X24730475Y1269496D02*
X24730475Y2569496D01*
X25163809Y2569496D02*
X25906666Y2569496D01*
X25535238Y1269496D02*
X25535238Y2569496D01*
X27082856Y1393305D02*
X27020952Y1331400D01*
X27020952Y1331400D02*
X26835237Y1269496D01*
X26835237Y1269496D02*
X26711428Y1269496D01*
X26711428Y1269496D02*
X26525714Y1331400D01*
X26525714Y1331400D02*
X26401904Y1455210D01*
X26401904Y1455210D02*
X26339999Y1579020D01*
X26339999Y1579020D02*
X26278095Y1826639D01*
X26278095Y1826639D02*
X26278095Y2012353D01*
X26278095Y2012353D02*
X26339999Y2259972D01*
X26339999Y2259972D02*
X26401904Y2383781D01*
X26401904Y2383781D02*
X26525714Y2507591D01*
X26525714Y2507591D02*
X26711428Y2569496D01*
X26711428Y2569496D02*
X26835237Y2569496D01*
X26835237Y2569496D02*
X27020952Y2507591D01*
X27020952Y2507591D02*
X27082856Y2445686D01*
X27528571Y1423020D02*
X28023809Y1423020D01*
X27429523Y1125877D02*
X27776190Y2165877D01*
X27776190Y2165877D02*
X28122856Y1125877D01*
D11*
X4602129Y62756528D02*
X5168796Y62756528D01*
X5411653Y61866052D02*
X4602129Y61866052D01*
X4602129Y61866052D02*
X4602129Y63566052D01*
X4602129Y63566052D02*
X5411653Y63566052D01*
X6140224Y62999385D02*
X6140224Y61299385D01*
X6140224Y62918433D02*
X6302129Y62999385D01*
X6302129Y62999385D02*
X6625939Y62999385D01*
X6625939Y62999385D02*
X6787843Y62918433D01*
X6787843Y62918433D02*
X6868796Y62837481D01*
X6868796Y62837481D02*
X6949748Y62675576D01*
X6949748Y62675576D02*
X6949748Y62189862D01*
X6949748Y62189862D02*
X6868796Y62027957D01*
X6868796Y62027957D02*
X6787843Y61947004D01*
X6787843Y61947004D02*
X6625939Y61866052D01*
X6625939Y61866052D02*
X6302129Y61866052D01*
X6302129Y61866052D02*
X6140224Y61947004D01*
X7678319Y61866052D02*
X7678319Y63566052D01*
X8406891Y61866052D02*
X8406891Y62756528D01*
X8406891Y62756528D02*
X8325938Y62918433D01*
X8325938Y62918433D02*
X8164034Y62999385D01*
X8164034Y62999385D02*
X7921177Y62999385D01*
X7921177Y62999385D02*
X7759272Y62918433D01*
X7759272Y62918433D02*
X7678319Y62837481D01*
X9054510Y62999385D02*
X9459272Y61866052D01*
X9864033Y62999385D02*
X9459272Y61866052D01*
X9459272Y61866052D02*
X9297367Y61461290D01*
X9297367Y61461290D02*
X9216414Y61380338D01*
X9216414Y61380338D02*
X9054510Y61299385D01*
X10430700Y61947004D02*
X10592605Y61866052D01*
X10592605Y61866052D02*
X10916414Y61866052D01*
X10916414Y61866052D02*
X11078319Y61947004D01*
X11078319Y61947004D02*
X11159271Y62108909D01*
X11159271Y62108909D02*
X11159271Y62189862D01*
X11159271Y62189862D02*
X11078319Y62351766D01*
X11078319Y62351766D02*
X10916414Y62432719D01*
X10916414Y62432719D02*
X10673557Y62432719D01*
X10673557Y62432719D02*
X10511652Y62513671D01*
X10511652Y62513671D02*
X10430700Y62675576D01*
X10430700Y62675576D02*
X10430700Y62756528D01*
X10430700Y62756528D02*
X10511652Y62918433D01*
X10511652Y62918433D02*
X10673557Y62999385D01*
X10673557Y62999385D02*
X10916414Y62999385D01*
X10916414Y62999385D02*
X11078319Y62918433D01*
X12940223Y63566052D02*
X13911652Y63566052D01*
X13425938Y61866052D02*
X13425938Y63566052D01*
X15125937Y61947004D02*
X14964033Y61866052D01*
X14964033Y61866052D02*
X14640223Y61866052D01*
X14640223Y61866052D02*
X14478318Y61947004D01*
X14478318Y61947004D02*
X14397366Y62108909D01*
X14397366Y62108909D02*
X14397366Y62756528D01*
X14397366Y62756528D02*
X14478318Y62918433D01*
X14478318Y62918433D02*
X14640223Y62999385D01*
X14640223Y62999385D02*
X14964033Y62999385D01*
X14964033Y62999385D02*
X15125937Y62918433D01*
X15125937Y62918433D02*
X15206890Y62756528D01*
X15206890Y62756528D02*
X15206890Y62594624D01*
X15206890Y62594624D02*
X14397366Y62432719D01*
X15854509Y61947004D02*
X16016414Y61866052D01*
X16016414Y61866052D02*
X16340223Y61866052D01*
X16340223Y61866052D02*
X16502128Y61947004D01*
X16502128Y61947004D02*
X16583080Y62108909D01*
X16583080Y62108909D02*
X16583080Y62189862D01*
X16583080Y62189862D02*
X16502128Y62351766D01*
X16502128Y62351766D02*
X16340223Y62432719D01*
X16340223Y62432719D02*
X16097366Y62432719D01*
X16097366Y62432719D02*
X15935461Y62513671D01*
X15935461Y62513671D02*
X15854509Y62675576D01*
X15854509Y62675576D02*
X15854509Y62756528D01*
X15854509Y62756528D02*
X15935461Y62918433D01*
X15935461Y62918433D02*
X16097366Y62999385D01*
X16097366Y62999385D02*
X16340223Y62999385D01*
X16340223Y62999385D02*
X16502128Y62918433D01*
X17068794Y62999385D02*
X17716413Y62999385D01*
X17311651Y63566052D02*
X17311651Y62108909D01*
X17311651Y62108909D02*
X17392604Y61947004D01*
X17392604Y61947004D02*
X17554509Y61866052D01*
X17554509Y61866052D02*
X17716413Y61866052D01*
X19578318Y61866052D02*
X19578318Y63566052D01*
X19578318Y63566052D02*
X20144985Y62351766D01*
X20144985Y62351766D02*
X20711652Y63566052D01*
X20711652Y63566052D02*
X20711652Y61866052D01*
X21764033Y61866052D02*
X21602128Y61947004D01*
X21602128Y61947004D02*
X21521175Y62027957D01*
X21521175Y62027957D02*
X21440223Y62189862D01*
X21440223Y62189862D02*
X21440223Y62675576D01*
X21440223Y62675576D02*
X21521175Y62837481D01*
X21521175Y62837481D02*
X21602128Y62918433D01*
X21602128Y62918433D02*
X21764033Y62999385D01*
X21764033Y62999385D02*
X22006890Y62999385D01*
X22006890Y62999385D02*
X22168794Y62918433D01*
X22168794Y62918433D02*
X22249747Y62837481D01*
X22249747Y62837481D02*
X22330699Y62675576D01*
X22330699Y62675576D02*
X22330699Y62189862D01*
X22330699Y62189862D02*
X22249747Y62027957D01*
X22249747Y62027957D02*
X22168794Y61947004D01*
X22168794Y61947004D02*
X22006890Y61866052D01*
X22006890Y61866052D02*
X21764033Y61866052D01*
X23787842Y61866052D02*
X23787842Y63566052D01*
X23787842Y61947004D02*
X23625937Y61866052D01*
X23625937Y61866052D02*
X23302128Y61866052D01*
X23302128Y61866052D02*
X23140223Y61947004D01*
X23140223Y61947004D02*
X23059270Y62027957D01*
X23059270Y62027957D02*
X22978318Y62189862D01*
X22978318Y62189862D02*
X22978318Y62675576D01*
X22978318Y62675576D02*
X23059270Y62837481D01*
X23059270Y62837481D02*
X23140223Y62918433D01*
X23140223Y62918433D02*
X23302128Y62999385D01*
X23302128Y62999385D02*
X23625937Y62999385D01*
X23625937Y62999385D02*
X23787842Y62918433D01*
X25325937Y62999385D02*
X25325937Y61866052D01*
X24597365Y62999385D02*
X24597365Y62108909D01*
X24597365Y62108909D02*
X24678318Y61947004D01*
X24678318Y61947004D02*
X24840223Y61866052D01*
X24840223Y61866052D02*
X25083080Y61866052D01*
X25083080Y61866052D02*
X25244984Y61947004D01*
X25244984Y61947004D02*
X25325937Y62027957D01*
X26378318Y61866052D02*
X26216413Y61947004D01*
X26216413Y61947004D02*
X26135460Y62108909D01*
X26135460Y62108909D02*
X26135460Y63566052D01*
X27673555Y61947004D02*
X27511651Y61866052D01*
X27511651Y61866052D02*
X27187841Y61866052D01*
X27187841Y61866052D02*
X27025936Y61947004D01*
X27025936Y61947004D02*
X26944984Y62108909D01*
X26944984Y62108909D02*
X26944984Y62756528D01*
X26944984Y62756528D02*
X27025936Y62918433D01*
X27025936Y62918433D02*
X27187841Y62999385D01*
X27187841Y62999385D02*
X27511651Y62999385D01*
X27511651Y62999385D02*
X27673555Y62918433D01*
X27673555Y62918433D02*
X27754508Y62756528D01*
X27754508Y62756528D02*
X27754508Y62594624D01*
X27754508Y62594624D02*
X26944984Y62432719D01*
X4602129Y59129147D02*
X4602129Y60829147D01*
X4602129Y60829147D02*
X5168796Y59614861D01*
X5168796Y59614861D02*
X5735463Y60829147D01*
X5735463Y60829147D02*
X5735463Y59129147D01*
X6787844Y59129147D02*
X6625939Y59210099D01*
X6625939Y59210099D02*
X6544986Y59291052D01*
X6544986Y59291052D02*
X6464034Y59452957D01*
X6464034Y59452957D02*
X6464034Y59938671D01*
X6464034Y59938671D02*
X6544986Y60100576D01*
X6544986Y60100576D02*
X6625939Y60181528D01*
X6625939Y60181528D02*
X6787844Y60262480D01*
X6787844Y60262480D02*
X7030701Y60262480D01*
X7030701Y60262480D02*
X7192605Y60181528D01*
X7192605Y60181528D02*
X7273558Y60100576D01*
X7273558Y60100576D02*
X7354510Y59938671D01*
X7354510Y59938671D02*
X7354510Y59452957D01*
X7354510Y59452957D02*
X7273558Y59291052D01*
X7273558Y59291052D02*
X7192605Y59210099D01*
X7192605Y59210099D02*
X7030701Y59129147D01*
X7030701Y59129147D02*
X6787844Y59129147D01*
X8325939Y59129147D02*
X8164034Y59210099D01*
X8164034Y59210099D02*
X8083081Y59372004D01*
X8083081Y59372004D02*
X8083081Y60829147D01*
X9621176Y59210099D02*
X9459272Y59129147D01*
X9459272Y59129147D02*
X9135462Y59129147D01*
X9135462Y59129147D02*
X8973557Y59210099D01*
X8973557Y59210099D02*
X8892605Y59372004D01*
X8892605Y59372004D02*
X8892605Y60019623D01*
X8892605Y60019623D02*
X8973557Y60181528D01*
X8973557Y60181528D02*
X9135462Y60262480D01*
X9135462Y60262480D02*
X9459272Y60262480D01*
X9459272Y60262480D02*
X9621176Y60181528D01*
X9621176Y60181528D02*
X9702129Y60019623D01*
X9702129Y60019623D02*
X9702129Y59857719D01*
X9702129Y59857719D02*
X8892605Y59695814D01*
X10268796Y59129147D02*
X11159272Y60262480D01*
X10268796Y60262480D02*
X11159272Y59129147D01*
X13911652Y60829147D02*
X13102128Y60829147D01*
X13102128Y60829147D02*
X13021176Y60019623D01*
X13021176Y60019623D02*
X13102128Y60100576D01*
X13102128Y60100576D02*
X13264033Y60181528D01*
X13264033Y60181528D02*
X13668795Y60181528D01*
X13668795Y60181528D02*
X13830700Y60100576D01*
X13830700Y60100576D02*
X13911652Y60019623D01*
X13911652Y60019623D02*
X13992605Y59857719D01*
X13992605Y59857719D02*
X13992605Y59452957D01*
X13992605Y59452957D02*
X13911652Y59291052D01*
X13911652Y59291052D02*
X13830700Y59210099D01*
X13830700Y59210099D02*
X13668795Y59129147D01*
X13668795Y59129147D02*
X13264033Y59129147D01*
X13264033Y59129147D02*
X13102128Y59210099D01*
X13102128Y59210099D02*
X13021176Y59291052D01*
X15044986Y60829147D02*
X15206891Y60829147D01*
X15206891Y60829147D02*
X15368795Y60748195D01*
X15368795Y60748195D02*
X15449748Y60667242D01*
X15449748Y60667242D02*
X15530700Y60505338D01*
X15530700Y60505338D02*
X15611653Y60181528D01*
X15611653Y60181528D02*
X15611653Y59776766D01*
X15611653Y59776766D02*
X15530700Y59452957D01*
X15530700Y59452957D02*
X15449748Y59291052D01*
X15449748Y59291052D02*
X15368795Y59210099D01*
X15368795Y59210099D02*
X15206891Y59129147D01*
X15206891Y59129147D02*
X15044986Y59129147D01*
X15044986Y59129147D02*
X14883081Y59210099D01*
X14883081Y59210099D02*
X14802129Y59291052D01*
X14802129Y59291052D02*
X14721176Y59452957D01*
X14721176Y59452957D02*
X14640224Y59776766D01*
X14640224Y59776766D02*
X14640224Y60181528D01*
X14640224Y60181528D02*
X14721176Y60505338D01*
X14721176Y60505338D02*
X14802129Y60667242D01*
X14802129Y60667242D02*
X14883081Y60748195D01*
X14883081Y60748195D02*
X15044986Y60829147D01*
X17068796Y60262480D02*
X17068796Y59129147D01*
X16664034Y60910099D02*
X16259272Y59695814D01*
X16259272Y59695814D02*
X17311653Y59695814D01*
X18283082Y60829147D02*
X18444987Y60829147D01*
X18444987Y60829147D02*
X18606891Y60748195D01*
X18606891Y60748195D02*
X18687844Y60667242D01*
X18687844Y60667242D02*
X18768796Y60505338D01*
X18768796Y60505338D02*
X18849749Y60181528D01*
X18849749Y60181528D02*
X18849749Y59776766D01*
X18849749Y59776766D02*
X18768796Y59452957D01*
X18768796Y59452957D02*
X18687844Y59291052D01*
X18687844Y59291052D02*
X18606891Y59210099D01*
X18606891Y59210099D02*
X18444987Y59129147D01*
X18444987Y59129147D02*
X18283082Y59129147D01*
X18283082Y59129147D02*
X18121177Y59210099D01*
X18121177Y59210099D02*
X18040225Y59291052D01*
X18040225Y59291052D02*
X17959272Y59452957D01*
X17959272Y59452957D02*
X17878320Y59776766D01*
X17878320Y59776766D02*
X17878320Y60181528D01*
X17878320Y60181528D02*
X17959272Y60505338D01*
X17959272Y60505338D02*
X18040225Y60667242D01*
X18040225Y60667242D02*
X18121177Y60748195D01*
X18121177Y60748195D02*
X18283082Y60829147D01*
X19416416Y60829147D02*
X20549749Y60829147D01*
X20549749Y60829147D02*
X19821178Y59129147D01*
X21521178Y60829147D02*
X21683083Y60829147D01*
X21683083Y60829147D02*
X21844987Y60748195D01*
X21844987Y60748195D02*
X21925940Y60667242D01*
X21925940Y60667242D02*
X22006892Y60505338D01*
X22006892Y60505338D02*
X22087845Y60181528D01*
X22087845Y60181528D02*
X22087845Y59776766D01*
X22087845Y59776766D02*
X22006892Y59452957D01*
X22006892Y59452957D02*
X21925940Y59291052D01*
X21925940Y59291052D02*
X21844987Y59210099D01*
X21844987Y59210099D02*
X21683083Y59129147D01*
X21683083Y59129147D02*
X21521178Y59129147D01*
X21521178Y59129147D02*
X21359273Y59210099D01*
X21359273Y59210099D02*
X21278321Y59291052D01*
X21278321Y59291052D02*
X21197368Y59452957D01*
X21197368Y59452957D02*
X21116416Y59776766D01*
X21116416Y59776766D02*
X21116416Y60181528D01*
X21116416Y60181528D02*
X21197368Y60505338D01*
X21197368Y60505338D02*
X21278321Y60667242D01*
X21278321Y60667242D02*
X21359273Y60748195D01*
X21359273Y60748195D02*
X21521178Y60829147D01*
X23949750Y60829147D02*
X25002131Y60829147D01*
X25002131Y60829147D02*
X24435464Y60181528D01*
X24435464Y60181528D02*
X24678321Y60181528D01*
X24678321Y60181528D02*
X24840226Y60100576D01*
X24840226Y60100576D02*
X24921178Y60019623D01*
X24921178Y60019623D02*
X25002131Y59857719D01*
X25002131Y59857719D02*
X25002131Y59452957D01*
X25002131Y59452957D02*
X24921178Y59291052D01*
X24921178Y59291052D02*
X24840226Y59210099D01*
X24840226Y59210099D02*
X24678321Y59129147D01*
X24678321Y59129147D02*
X24192607Y59129147D01*
X24192607Y59129147D02*
X24030702Y59210099D01*
X24030702Y59210099D02*
X23949750Y59291052D01*
X25649750Y60667242D02*
X25730702Y60748195D01*
X25730702Y60748195D02*
X25892607Y60829147D01*
X25892607Y60829147D02*
X26297369Y60829147D01*
X26297369Y60829147D02*
X26459274Y60748195D01*
X26459274Y60748195D02*
X26540226Y60667242D01*
X26540226Y60667242D02*
X26621179Y60505338D01*
X26621179Y60505338D02*
X26621179Y60343433D01*
X26621179Y60343433D02*
X26540226Y60100576D01*
X26540226Y60100576D02*
X25568798Y59129147D01*
X25568798Y59129147D02*
X26621179Y59129147D01*
X29616417Y59291052D02*
X29535465Y59210099D01*
X29535465Y59210099D02*
X29292607Y59129147D01*
X29292607Y59129147D02*
X29130703Y59129147D01*
X29130703Y59129147D02*
X28887846Y59210099D01*
X28887846Y59210099D02*
X28725941Y59372004D01*
X28725941Y59372004D02*
X28644988Y59533909D01*
X28644988Y59533909D02*
X28564036Y59857719D01*
X28564036Y59857719D02*
X28564036Y60100576D01*
X28564036Y60100576D02*
X28644988Y60424385D01*
X28644988Y60424385D02*
X28725941Y60586290D01*
X28725941Y60586290D02*
X28887846Y60748195D01*
X28887846Y60748195D02*
X29130703Y60829147D01*
X29130703Y60829147D02*
X29292607Y60829147D01*
X29292607Y60829147D02*
X29535465Y60748195D01*
X29535465Y60748195D02*
X29616417Y60667242D01*
X30344988Y59129147D02*
X30344988Y60829147D01*
X31073560Y59129147D02*
X31073560Y60019623D01*
X31073560Y60019623D02*
X30992607Y60181528D01*
X30992607Y60181528D02*
X30830703Y60262480D01*
X30830703Y60262480D02*
X30587846Y60262480D01*
X30587846Y60262480D02*
X30425941Y60181528D01*
X30425941Y60181528D02*
X30344988Y60100576D01*
X31883083Y59291052D02*
X31964036Y59210099D01*
X31964036Y59210099D02*
X31883083Y59129147D01*
X31883083Y59129147D02*
X31802131Y59210099D01*
X31802131Y59210099D02*
X31883083Y59291052D01*
X31883083Y59291052D02*
X31883083Y59129147D01*
X5573558Y56392242D02*
X5006891Y57201766D01*
X4602129Y56392242D02*
X4602129Y58092242D01*
X4602129Y58092242D02*
X5249748Y58092242D01*
X5249748Y58092242D02*
X5411653Y58011290D01*
X5411653Y58011290D02*
X5492606Y57930337D01*
X5492606Y57930337D02*
X5573558Y57768433D01*
X5573558Y57768433D02*
X5573558Y57525575D01*
X5573558Y57525575D02*
X5492606Y57363671D01*
X5492606Y57363671D02*
X5411653Y57282718D01*
X5411653Y57282718D02*
X5249748Y57201766D01*
X5249748Y57201766D02*
X4602129Y57201766D01*
X6949748Y56473194D02*
X6787844Y56392242D01*
X6787844Y56392242D02*
X6464034Y56392242D01*
X6464034Y56392242D02*
X6302129Y56473194D01*
X6302129Y56473194D02*
X6221177Y56635099D01*
X6221177Y56635099D02*
X6221177Y57282718D01*
X6221177Y57282718D02*
X6302129Y57444623D01*
X6302129Y57444623D02*
X6464034Y57525575D01*
X6464034Y57525575D02*
X6787844Y57525575D01*
X6787844Y57525575D02*
X6949748Y57444623D01*
X6949748Y57444623D02*
X7030701Y57282718D01*
X7030701Y57282718D02*
X7030701Y57120814D01*
X7030701Y57120814D02*
X6221177Y56958909D01*
X7597368Y57525575D02*
X8002130Y56392242D01*
X8002130Y56392242D02*
X8406891Y57525575D01*
X9054510Y56554147D02*
X9135463Y56473194D01*
X9135463Y56473194D02*
X9054510Y56392242D01*
X9054510Y56392242D02*
X8973558Y56473194D01*
X8973558Y56473194D02*
X9054510Y56554147D01*
X9054510Y56554147D02*
X9054510Y56392242D01*
X11078320Y56877956D02*
X11887844Y56877956D01*
X10916415Y56392242D02*
X11483082Y58092242D01*
X11483082Y58092242D02*
X12049749Y56392242D01*
D12*
X29888095Y7545181D02*
X30459523Y7545181D01*
X30173809Y6545181D02*
X30173809Y7545181D01*
X30792857Y6545181D02*
X30792857Y7545181D01*
X30792857Y7545181D02*
X31173809Y7545181D01*
X31173809Y7545181D02*
X31269047Y7497562D01*
X31269047Y7497562D02*
X31316666Y7449943D01*
X31316666Y7449943D02*
X31364285Y7354705D01*
X31364285Y7354705D02*
X31364285Y7211848D01*
X31364285Y7211848D02*
X31316666Y7116610D01*
X31316666Y7116610D02*
X31269047Y7068991D01*
X31269047Y7068991D02*
X31173809Y7021372D01*
X31173809Y7021372D02*
X30792857Y7021372D01*
X32316666Y6545181D02*
X31745238Y6545181D01*
X32030952Y6545181D02*
X32030952Y7545181D01*
X32030952Y7545181D02*
X31935714Y7402324D01*
X31935714Y7402324D02*
X31840476Y7307086D01*
X31840476Y7307086D02*
X31745238Y7259467D01*
X39888095Y7545181D02*
X40459523Y7545181D01*
X40173809Y6545181D02*
X40173809Y7545181D01*
X40792857Y6545181D02*
X40792857Y7545181D01*
X40792857Y7545181D02*
X41173809Y7545181D01*
X41173809Y7545181D02*
X41269047Y7497562D01*
X41269047Y7497562D02*
X41316666Y7449943D01*
X41316666Y7449943D02*
X41364285Y7354705D01*
X41364285Y7354705D02*
X41364285Y7211848D01*
X41364285Y7211848D02*
X41316666Y7116610D01*
X41316666Y7116610D02*
X41269047Y7068991D01*
X41269047Y7068991D02*
X41173809Y7021372D01*
X41173809Y7021372D02*
X40792857Y7021372D01*
X41745238Y7449943D02*
X41792857Y7497562D01*
X41792857Y7497562D02*
X41888095Y7545181D01*
X41888095Y7545181D02*
X42126190Y7545181D01*
X42126190Y7545181D02*
X42221428Y7497562D01*
X42221428Y7497562D02*
X42269047Y7449943D01*
X42269047Y7449943D02*
X42316666Y7354705D01*
X42316666Y7354705D02*
X42316666Y7259467D01*
X42316666Y7259467D02*
X42269047Y7116610D01*
X42269047Y7116610D02*
X41697619Y6545181D01*
X41697619Y6545181D02*
X42316666Y6545181D01*
X35666666Y23945181D02*
X35666666Y23230896D01*
X35666666Y23230896D02*
X35619047Y23088039D01*
X35619047Y23088039D02*
X35523809Y22992800D01*
X35523809Y22992800D02*
X35380952Y22945181D01*
X35380952Y22945181D02*
X35285714Y22945181D01*
X36047619Y23945181D02*
X36666666Y23945181D01*
X36666666Y23945181D02*
X36333333Y23564229D01*
X36333333Y23564229D02*
X36476190Y23564229D01*
X36476190Y23564229D02*
X36571428Y23516610D01*
X36571428Y23516610D02*
X36619047Y23468991D01*
X36619047Y23468991D02*
X36666666Y23373753D01*
X36666666Y23373753D02*
X36666666Y23135658D01*
X36666666Y23135658D02*
X36619047Y23040420D01*
X36619047Y23040420D02*
X36571428Y22992800D01*
X36571428Y22992800D02*
X36476190Y22945181D01*
X36476190Y22945181D02*
X36190476Y22945181D01*
X36190476Y22945181D02*
X36095238Y22992800D01*
X36095238Y22992800D02*
X36047619Y23040420D01*
X12733333Y16645181D02*
X12400000Y17121372D01*
X12161905Y16645181D02*
X12161905Y17645181D01*
X12161905Y17645181D02*
X12542857Y17645181D01*
X12542857Y17645181D02*
X12638095Y17597562D01*
X12638095Y17597562D02*
X12685714Y17549943D01*
X12685714Y17549943D02*
X12733333Y17454705D01*
X12733333Y17454705D02*
X12733333Y17311848D01*
X12733333Y17311848D02*
X12685714Y17216610D01*
X12685714Y17216610D02*
X12638095Y17168991D01*
X12638095Y17168991D02*
X12542857Y17121372D01*
X12542857Y17121372D02*
X12161905Y17121372D01*
X13114286Y17549943D02*
X13161905Y17597562D01*
X13161905Y17597562D02*
X13257143Y17645181D01*
X13257143Y17645181D02*
X13495238Y17645181D01*
X13495238Y17645181D02*
X13590476Y17597562D01*
X13590476Y17597562D02*
X13638095Y17549943D01*
X13638095Y17549943D02*
X13685714Y17454705D01*
X13685714Y17454705D02*
X13685714Y17359467D01*
X13685714Y17359467D02*
X13638095Y17216610D01*
X13638095Y17216610D02*
X13066667Y16645181D01*
X13066667Y16645181D02*
X13685714Y16645181D01*
X35816666Y16095181D02*
X35816666Y15380896D01*
X35816666Y15380896D02*
X35769047Y15238039D01*
X35769047Y15238039D02*
X35673809Y15142800D01*
X35673809Y15142800D02*
X35530952Y15095181D01*
X35530952Y15095181D02*
X35435714Y15095181D01*
X36816666Y15095181D02*
X36245238Y15095181D01*
X36530952Y15095181D02*
X36530952Y16095181D01*
X36530952Y16095181D02*
X36435714Y15952324D01*
X36435714Y15952324D02*
X36340476Y15857086D01*
X36340476Y15857086D02*
X36245238Y15809467D01*
X11333333Y15345181D02*
X11000000Y15821372D01*
X10761905Y15345181D02*
X10761905Y16345181D01*
X10761905Y16345181D02*
X11142857Y16345181D01*
X11142857Y16345181D02*
X11238095Y16297562D01*
X11238095Y16297562D02*
X11285714Y16249943D01*
X11285714Y16249943D02*
X11333333Y16154705D01*
X11333333Y16154705D02*
X11333333Y16011848D01*
X11333333Y16011848D02*
X11285714Y15916610D01*
X11285714Y15916610D02*
X11238095Y15868991D01*
X11238095Y15868991D02*
X11142857Y15821372D01*
X11142857Y15821372D02*
X10761905Y15821372D01*
X12285714Y15345181D02*
X11714286Y15345181D01*
X12000000Y15345181D02*
X12000000Y16345181D01*
X12000000Y16345181D02*
X11904762Y16202324D01*
X11904762Y16202324D02*
X11809524Y16107086D01*
X11809524Y16107086D02*
X11714286Y16059467D01*
X17838095Y7445181D02*
X18409523Y7445181D01*
X18123809Y6445181D02*
X18123809Y7445181D01*
X18742857Y6445181D02*
X18742857Y7445181D01*
X18742857Y7445181D02*
X19123809Y7445181D01*
X19123809Y7445181D02*
X19219047Y7397562D01*
X19219047Y7397562D02*
X19266666Y7349943D01*
X19266666Y7349943D02*
X19314285Y7254705D01*
X19314285Y7254705D02*
X19314285Y7111848D01*
X19314285Y7111848D02*
X19266666Y7016610D01*
X19266666Y7016610D02*
X19219047Y6968991D01*
X19219047Y6968991D02*
X19123809Y6921372D01*
X19123809Y6921372D02*
X18742857Y6921372D01*
X19647619Y7445181D02*
X20266666Y7445181D01*
X20266666Y7445181D02*
X19933333Y7064229D01*
X19933333Y7064229D02*
X20076190Y7064229D01*
X20076190Y7064229D02*
X20171428Y7016610D01*
X20171428Y7016610D02*
X20219047Y6968991D01*
X20219047Y6968991D02*
X20266666Y6873753D01*
X20266666Y6873753D02*
X20266666Y6635658D01*
X20266666Y6635658D02*
X20219047Y6540420D01*
X20219047Y6540420D02*
X20171428Y6492800D01*
X20171428Y6492800D02*
X20076190Y6445181D01*
X20076190Y6445181D02*
X19790476Y6445181D01*
X19790476Y6445181D02*
X19695238Y6492800D01*
X19695238Y6492800D02*
X19647619Y6540420D01*
X18054819Y10538096D02*
X18864342Y10538096D01*
X18864342Y10538096D02*
X18959580Y10585715D01*
X18959580Y10585715D02*
X19007200Y10633334D01*
X19007200Y10633334D02*
X19054819Y10728572D01*
X19054819Y10728572D02*
X19054819Y10919048D01*
X19054819Y10919048D02*
X19007200Y11014286D01*
X19007200Y11014286D02*
X18959580Y11061905D01*
X18959580Y11061905D02*
X18864342Y11109524D01*
X18864342Y11109524D02*
X18054819Y11109524D01*
X19054819Y12109524D02*
X19054819Y11538096D01*
X19054819Y11823810D02*
X18054819Y11823810D01*
X18054819Y11823810D02*
X18197676Y11728572D01*
X18197676Y11728572D02*
X18292914Y11633334D01*
X18292914Y11633334D02*
X18340533Y11538096D01*
X13933333Y18125181D02*
X13600000Y18601372D01*
X13361905Y18125181D02*
X13361905Y19125181D01*
X13361905Y19125181D02*
X13742857Y19125181D01*
X13742857Y19125181D02*
X13838095Y19077562D01*
X13838095Y19077562D02*
X13885714Y19029943D01*
X13885714Y19029943D02*
X13933333Y18934705D01*
X13933333Y18934705D02*
X13933333Y18791848D01*
X13933333Y18791848D02*
X13885714Y18696610D01*
X13885714Y18696610D02*
X13838095Y18648991D01*
X13838095Y18648991D02*
X13742857Y18601372D01*
X13742857Y18601372D02*
X13361905Y18601372D01*
X14266667Y19125181D02*
X14885714Y19125181D01*
X14885714Y19125181D02*
X14552381Y18744229D01*
X14552381Y18744229D02*
X14695238Y18744229D01*
X14695238Y18744229D02*
X14790476Y18696610D01*
X14790476Y18696610D02*
X14838095Y18648991D01*
X14838095Y18648991D02*
X14885714Y18553753D01*
X14885714Y18553753D02*
X14885714Y18315658D01*
X14885714Y18315658D02*
X14838095Y18220420D01*
X14838095Y18220420D02*
X14790476Y18172800D01*
X14790476Y18172800D02*
X14695238Y18125181D01*
X14695238Y18125181D02*
X14409524Y18125181D01*
X14409524Y18125181D02*
X14314286Y18172800D01*
X14314286Y18172800D02*
X14266667Y18220420D01*
X35866666Y41045181D02*
X35866666Y40330896D01*
X35866666Y40330896D02*
X35819047Y40188039D01*
X35819047Y40188039D02*
X35723809Y40092800D01*
X35723809Y40092800D02*
X35580952Y40045181D01*
X35580952Y40045181D02*
X35485714Y40045181D01*
X36295238Y40949943D02*
X36342857Y40997562D01*
X36342857Y40997562D02*
X36438095Y41045181D01*
X36438095Y41045181D02*
X36676190Y41045181D01*
X36676190Y41045181D02*
X36771428Y40997562D01*
X36771428Y40997562D02*
X36819047Y40949943D01*
X36819047Y40949943D02*
X36866666Y40854705D01*
X36866666Y40854705D02*
X36866666Y40759467D01*
X36866666Y40759467D02*
X36819047Y40616610D01*
X36819047Y40616610D02*
X36247619Y40045181D01*
X36247619Y40045181D02*
X36866666Y40045181D01*
X10659580Y11133334D02*
X10707200Y11085715D01*
X10707200Y11085715D02*
X10754819Y10942858D01*
X10754819Y10942858D02*
X10754819Y10847620D01*
X10754819Y10847620D02*
X10707200Y10704763D01*
X10707200Y10704763D02*
X10611961Y10609525D01*
X10611961Y10609525D02*
X10516723Y10561906D01*
X10516723Y10561906D02*
X10326247Y10514287D01*
X10326247Y10514287D02*
X10183390Y10514287D01*
X10183390Y10514287D02*
X9992914Y10561906D01*
X9992914Y10561906D02*
X9897676Y10609525D01*
X9897676Y10609525D02*
X9802438Y10704763D01*
X9802438Y10704763D02*
X9754819Y10847620D01*
X9754819Y10847620D02*
X9754819Y10942858D01*
X9754819Y10942858D02*
X9802438Y11085715D01*
X9802438Y11085715D02*
X9850057Y11133334D01*
X10754819Y12085715D02*
X10754819Y11514287D01*
X10754819Y11800001D02*
X9754819Y11800001D01*
X9754819Y11800001D02*
X9897676Y11704763D01*
X9897676Y11704763D02*
X9992914Y11609525D01*
X9992914Y11609525D02*
X10040533Y11514287D01*
D13*
%TO.C,TP1*%
X33850000Y3000000D02*
G75*
G02*
X28450000Y3000000I-2700000J0D01*
G01*
X28450000Y3000000D02*
G75*
G02*
X33850000Y3000000I2700000J0D01*
G01*
%TO.C,TP2*%
X43850000Y3000000D02*
G75*
G02*
X38450000Y3000000I-2700000J0D01*
G01*
X38450000Y3000000D02*
G75*
G02*
X43850000Y3000000I2700000J0D01*
G01*
%TO.C,J3*%
X31960000Y21880000D02*
X33350000Y21880000D01*
X33350000Y22450000D02*
X33350000Y21880000D01*
X33350000Y22450000D02*
X38650000Y22450000D01*
X33350000Y20260000D02*
X33350000Y19340000D01*
X33350000Y17720000D02*
X33350000Y17150000D01*
X33350000Y17150000D02*
X38650000Y17150000D01*
X38650000Y22450000D02*
X38650000Y21880000D01*
X38650000Y20260000D02*
X38650000Y19340000D01*
X38650000Y17720000D02*
X38650000Y17150000D01*
%TO.C,R2*%
X15046359Y17380000D02*
X15353641Y17380000D01*
X15046359Y16620000D02*
X15353641Y16620000D01*
%TO.C,J1*%
X32110000Y13980000D02*
X33500000Y13980000D01*
X33500000Y14550000D02*
X33500000Y13980000D01*
X33500000Y14550000D02*
X38800000Y14550000D01*
X33500000Y12360000D02*
X33500000Y11440000D01*
X33500000Y9820000D02*
X33500000Y9250000D01*
X33500000Y9250000D02*
X38800000Y9250000D01*
X38800000Y14550000D02*
X38800000Y13980000D01*
X38800000Y12360000D02*
X38800000Y11440000D01*
X38800000Y9820000D02*
X38800000Y9250000D01*
%TO.C,R1*%
X13746359Y16280000D02*
X14053641Y16280000D01*
X13746359Y15520000D02*
X14053641Y15520000D01*
%TO.C,TP3*%
X21800000Y3100000D02*
G75*
G02*
X16400000Y3100000I-2700000J0D01*
G01*
X16400000Y3100000D02*
G75*
G02*
X21800000Y3100000I2700000J0D01*
G01*
%TO.C,H1*%
D14*
X4600000Y54200000D02*
X25000000Y54200000D01*
X25000000Y45800000D01*
X4600000Y45800000D01*
X4600000Y54200000D01*
D13*
%TO.C,U1*%
X12640000Y11300000D02*
X12640000Y13250000D01*
X12640000Y11300000D02*
X12640000Y9350000D01*
X17760000Y11300000D02*
X17760000Y13250000D01*
X17760000Y11300000D02*
X17760000Y9350000D01*
X12735000Y8600000D02*
X12405000Y8360000D01*
X12405000Y8840000D01*
X12735000Y8600000D01*
G36*
X12735000Y8600000D02*
G01*
X12405000Y8360000D01*
X12405000Y8840000D01*
X12735000Y8600000D01*
G37*
%TO.C,R3*%
X16446359Y18580000D02*
X16753641Y18580000D01*
X16446359Y17820000D02*
X16753641Y17820000D01*
%TO.C,J2*%
X34650000Y39350001D02*
X36696404Y39350001D01*
X34650000Y38850002D02*
X34650000Y39350001D01*
X34650000Y30249999D02*
X34650000Y30749998D01*
X36696404Y30249999D02*
X34650000Y30249999D01*
%TO.C,C1*%
X11340000Y11407836D02*
X11340000Y11192164D01*
X12060000Y11407836D02*
X12060000Y11192164D01*
%TD*%
M02*
