%TF.GenerationSoftware,KiCad,Pcbnew,9.0.6*%
%TF.CreationDate,2026-01-13T13:16:06-05:00*%
%TF.ProjectId,ephys-test-module-molex-504070-32,65706879-732d-4746-9573-742d6d6f6475,E*%
%TF.SameCoordinates,PX66ff300PY82a7440*%
%TF.FileFunction,AssemblyDrawing,Top*%
%FSLAX46Y46*%
G04 Gerber Fmt 4.6, Leading zero omitted, Abs format (unit mm)*
G04 Created by KiCad (PCBNEW 9.0.6) date 2026-01-13 13:16:06*
%MOMM*%
%LPD*%
G01*
G04 APERTURE LIST*
%ADD10C,0.150000*%
%ADD11C,0.040000*%
%ADD12C,0.100000*%
%ADD13C,0.127000*%
G04 APERTURE END LIST*
D10*
X29888095Y7545181D02*
X30459523Y7545181D01*
X30173809Y6545181D02*
X30173809Y7545181D01*
X30792857Y6545181D02*
X30792857Y7545181D01*
X30792857Y7545181D02*
X31173809Y7545181D01*
X31173809Y7545181D02*
X31269047Y7497562D01*
X31269047Y7497562D02*
X31316666Y7449943D01*
X31316666Y7449943D02*
X31364285Y7354705D01*
X31364285Y7354705D02*
X31364285Y7211848D01*
X31364285Y7211848D02*
X31316666Y7116610D01*
X31316666Y7116610D02*
X31269047Y7068991D01*
X31269047Y7068991D02*
X31173809Y7021372D01*
X31173809Y7021372D02*
X30792857Y7021372D01*
X32316666Y6545181D02*
X31745238Y6545181D01*
X32030952Y6545181D02*
X32030952Y7545181D01*
X32030952Y7545181D02*
X31935714Y7402324D01*
X31935714Y7402324D02*
X31840476Y7307086D01*
X31840476Y7307086D02*
X31745238Y7259467D01*
X29668804Y7045181D02*
X32535957Y7045181D01*
X39888095Y7545181D02*
X40459523Y7545181D01*
X40173809Y6545181D02*
X40173809Y7545181D01*
X40792857Y6545181D02*
X40792857Y7545181D01*
X40792857Y7545181D02*
X41173809Y7545181D01*
X41173809Y7545181D02*
X41269047Y7497562D01*
X41269047Y7497562D02*
X41316666Y7449943D01*
X41316666Y7449943D02*
X41364285Y7354705D01*
X41364285Y7354705D02*
X41364285Y7211848D01*
X41364285Y7211848D02*
X41316666Y7116610D01*
X41316666Y7116610D02*
X41269047Y7068991D01*
X41269047Y7068991D02*
X41173809Y7021372D01*
X41173809Y7021372D02*
X40792857Y7021372D01*
X41745238Y7449943D02*
X41792857Y7497562D01*
X41792857Y7497562D02*
X41888095Y7545181D01*
X41888095Y7545181D02*
X42126190Y7545181D01*
X42126190Y7545181D02*
X42221428Y7497562D01*
X42221428Y7497562D02*
X42269047Y7449943D01*
X42269047Y7449943D02*
X42316666Y7354705D01*
X42316666Y7354705D02*
X42316666Y7259467D01*
X42316666Y7259467D02*
X42269047Y7116610D01*
X42269047Y7116610D02*
X41697619Y6545181D01*
X41697619Y6545181D02*
X42316666Y6545181D01*
X39668804Y7045181D02*
X42541666Y7045181D01*
X35666666Y20345181D02*
X35666666Y19630896D01*
X35666666Y19630896D02*
X35619047Y19488039D01*
X35619047Y19488039D02*
X35523809Y19392800D01*
X35523809Y19392800D02*
X35380952Y19345181D01*
X35380952Y19345181D02*
X35285714Y19345181D01*
X36047619Y20345181D02*
X36666666Y20345181D01*
X36666666Y20345181D02*
X36333333Y19964229D01*
X36333333Y19964229D02*
X36476190Y19964229D01*
X36476190Y19964229D02*
X36571428Y19916610D01*
X36571428Y19916610D02*
X36619047Y19868991D01*
X36619047Y19868991D02*
X36666666Y19773753D01*
X36666666Y19773753D02*
X36666666Y19535658D01*
X36666666Y19535658D02*
X36619047Y19440420D01*
X36619047Y19440420D02*
X36571428Y19392800D01*
X36571428Y19392800D02*
X36476190Y19345181D01*
X36476190Y19345181D02*
X36190476Y19345181D01*
X36190476Y19345181D02*
X36095238Y19392800D01*
X36095238Y19392800D02*
X36047619Y19440420D01*
D11*
X15156667Y16881800D02*
X15070000Y17005609D01*
X15008095Y16881800D02*
X15008095Y17141800D01*
X15008095Y17141800D02*
X15107143Y17141800D01*
X15107143Y17141800D02*
X15131905Y17129419D01*
X15131905Y17129419D02*
X15144286Y17117038D01*
X15144286Y17117038D02*
X15156667Y17092276D01*
X15156667Y17092276D02*
X15156667Y17055133D01*
X15156667Y17055133D02*
X15144286Y17030371D01*
X15144286Y17030371D02*
X15131905Y17017990D01*
X15131905Y17017990D02*
X15107143Y17005609D01*
X15107143Y17005609D02*
X15008095Y17005609D01*
X15255714Y17117038D02*
X15268095Y17129419D01*
X15268095Y17129419D02*
X15292857Y17141800D01*
X15292857Y17141800D02*
X15354762Y17141800D01*
X15354762Y17141800D02*
X15379524Y17129419D01*
X15379524Y17129419D02*
X15391905Y17117038D01*
X15391905Y17117038D02*
X15404286Y17092276D01*
X15404286Y17092276D02*
X15404286Y17067514D01*
X15404286Y17067514D02*
X15391905Y17030371D01*
X15391905Y17030371D02*
X15243333Y16881800D01*
X15243333Y16881800D02*
X15404286Y16881800D01*
D10*
X35816666Y12445181D02*
X35816666Y11730896D01*
X35816666Y11730896D02*
X35769047Y11588039D01*
X35769047Y11588039D02*
X35673809Y11492800D01*
X35673809Y11492800D02*
X35530952Y11445181D01*
X35530952Y11445181D02*
X35435714Y11445181D01*
X36816666Y11445181D02*
X36245238Y11445181D01*
X36530952Y11445181D02*
X36530952Y12445181D01*
X36530952Y12445181D02*
X36435714Y12302324D01*
X36435714Y12302324D02*
X36340476Y12207086D01*
X36340476Y12207086D02*
X36245238Y12159467D01*
D11*
X13856667Y15781800D02*
X13770000Y15905609D01*
X13708095Y15781800D02*
X13708095Y16041800D01*
X13708095Y16041800D02*
X13807143Y16041800D01*
X13807143Y16041800D02*
X13831905Y16029419D01*
X13831905Y16029419D02*
X13844286Y16017038D01*
X13844286Y16017038D02*
X13856667Y15992276D01*
X13856667Y15992276D02*
X13856667Y15955133D01*
X13856667Y15955133D02*
X13844286Y15930371D01*
X13844286Y15930371D02*
X13831905Y15917990D01*
X13831905Y15917990D02*
X13807143Y15905609D01*
X13807143Y15905609D02*
X13708095Y15905609D01*
X14104286Y15781800D02*
X13955714Y15781800D01*
X14030000Y15781800D02*
X14030000Y16041800D01*
X14030000Y16041800D02*
X14005238Y16004657D01*
X14005238Y16004657D02*
X13980476Y15979895D01*
X13980476Y15979895D02*
X13955714Y15967514D01*
D10*
X17838095Y7445181D02*
X18409523Y7445181D01*
X18123809Y6445181D02*
X18123809Y7445181D01*
X18742857Y6445181D02*
X18742857Y7445181D01*
X18742857Y7445181D02*
X19123809Y7445181D01*
X19123809Y7445181D02*
X19219047Y7397562D01*
X19219047Y7397562D02*
X19266666Y7349943D01*
X19266666Y7349943D02*
X19314285Y7254705D01*
X19314285Y7254705D02*
X19314285Y7111848D01*
X19314285Y7111848D02*
X19266666Y7016610D01*
X19266666Y7016610D02*
X19219047Y6968991D01*
X19219047Y6968991D02*
X19123809Y6921372D01*
X19123809Y6921372D02*
X18742857Y6921372D01*
X19647619Y7445181D02*
X20266666Y7445181D01*
X20266666Y7445181D02*
X19933333Y7064229D01*
X19933333Y7064229D02*
X20076190Y7064229D01*
X20076190Y7064229D02*
X20171428Y7016610D01*
X20171428Y7016610D02*
X20219047Y6968991D01*
X20219047Y6968991D02*
X20266666Y6873753D01*
X20266666Y6873753D02*
X20266666Y6635658D01*
X20266666Y6635658D02*
X20219047Y6540420D01*
X20219047Y6540420D02*
X20171428Y6492800D01*
X20171428Y6492800D02*
X20076190Y6445181D01*
X20076190Y6445181D02*
X19790476Y6445181D01*
X19790476Y6445181D02*
X19695238Y6492800D01*
X19695238Y6492800D02*
X19647619Y6540420D01*
X17618804Y6945181D02*
X20491666Y6945181D01*
X14038095Y49545181D02*
X14038095Y50545181D01*
X14038095Y50068991D02*
X14609523Y50068991D01*
X14609523Y49545181D02*
X14609523Y50545181D01*
X15609523Y49545181D02*
X15038095Y49545181D01*
X15323809Y49545181D02*
X15323809Y50545181D01*
X15323809Y50545181D02*
X15228571Y50402324D01*
X15228571Y50402324D02*
X15133333Y50307086D01*
X15133333Y50307086D02*
X15038095Y50259467D01*
X14665566Y10553334D02*
X15458900Y10553334D01*
X15458900Y10553334D02*
X15552233Y10600000D01*
X15552233Y10600000D02*
X15598900Y10646667D01*
X15598900Y10646667D02*
X15645566Y10740000D01*
X15645566Y10740000D02*
X15645566Y10926667D01*
X15645566Y10926667D02*
X15598900Y11020000D01*
X15598900Y11020000D02*
X15552233Y11066667D01*
X15552233Y11066667D02*
X15458900Y11113334D01*
X15458900Y11113334D02*
X14665566Y11113334D01*
X15645566Y12093334D02*
X15645566Y11533334D01*
X15645566Y11813334D02*
X14665566Y11813334D01*
X14665566Y11813334D02*
X14805566Y11720001D01*
X14805566Y11720001D02*
X14898900Y11626667D01*
X14898900Y11626667D02*
X14945566Y11533334D01*
D11*
X16556667Y18081800D02*
X16470000Y18205609D01*
X16408095Y18081800D02*
X16408095Y18341800D01*
X16408095Y18341800D02*
X16507143Y18341800D01*
X16507143Y18341800D02*
X16531905Y18329419D01*
X16531905Y18329419D02*
X16544286Y18317038D01*
X16544286Y18317038D02*
X16556667Y18292276D01*
X16556667Y18292276D02*
X16556667Y18255133D01*
X16556667Y18255133D02*
X16544286Y18230371D01*
X16544286Y18230371D02*
X16531905Y18217990D01*
X16531905Y18217990D02*
X16507143Y18205609D01*
X16507143Y18205609D02*
X16408095Y18205609D01*
X16643333Y18341800D02*
X16804286Y18341800D01*
X16804286Y18341800D02*
X16717619Y18242752D01*
X16717619Y18242752D02*
X16754762Y18242752D01*
X16754762Y18242752D02*
X16779524Y18230371D01*
X16779524Y18230371D02*
X16791905Y18217990D01*
X16791905Y18217990D02*
X16804286Y18193228D01*
X16804286Y18193228D02*
X16804286Y18131323D01*
X16804286Y18131323D02*
X16791905Y18106561D01*
X16791905Y18106561D02*
X16779524Y18094180D01*
X16779524Y18094180D02*
X16754762Y18081800D01*
X16754762Y18081800D02*
X16680476Y18081800D01*
X16680476Y18081800D02*
X16655714Y18094180D01*
X16655714Y18094180D02*
X16643333Y18106561D01*
D10*
X36483333Y34254820D02*
X36483333Y34969105D01*
X36483333Y34969105D02*
X36530952Y35111962D01*
X36530952Y35111962D02*
X36626190Y35207200D01*
X36626190Y35207200D02*
X36769047Y35254820D01*
X36769047Y35254820D02*
X36864285Y35254820D01*
X36054761Y34350058D02*
X36007142Y34302439D01*
X36007142Y34302439D02*
X35911904Y34254820D01*
X35911904Y34254820D02*
X35673809Y34254820D01*
X35673809Y34254820D02*
X35578571Y34302439D01*
X35578571Y34302439D02*
X35530952Y34350058D01*
X35530952Y34350058D02*
X35483333Y34445296D01*
X35483333Y34445296D02*
X35483333Y34540534D01*
X35483333Y34540534D02*
X35530952Y34683391D01*
X35530952Y34683391D02*
X36102380Y35254820D01*
X36102380Y35254820D02*
X35483333Y35254820D01*
D11*
X11789765Y11258334D02*
X11801670Y11246430D01*
X11801670Y11246430D02*
X11813574Y11210715D01*
X11813574Y11210715D02*
X11813574Y11186906D01*
X11813574Y11186906D02*
X11801670Y11151192D01*
X11801670Y11151192D02*
X11777860Y11127382D01*
X11777860Y11127382D02*
X11754050Y11115477D01*
X11754050Y11115477D02*
X11706431Y11103573D01*
X11706431Y11103573D02*
X11670717Y11103573D01*
X11670717Y11103573D02*
X11623098Y11115477D01*
X11623098Y11115477D02*
X11599289Y11127382D01*
X11599289Y11127382D02*
X11575479Y11151192D01*
X11575479Y11151192D02*
X11563574Y11186906D01*
X11563574Y11186906D02*
X11563574Y11210715D01*
X11563574Y11210715D02*
X11575479Y11246430D01*
X11575479Y11246430D02*
X11587384Y11258334D01*
X11813574Y11496430D02*
X11813574Y11353573D01*
X11813574Y11425001D02*
X11563574Y11425001D01*
X11563574Y11425001D02*
X11599289Y11401192D01*
X11599289Y11401192D02*
X11623098Y11377382D01*
X11623098Y11377382D02*
X11635003Y11353573D01*
D12*
X29190000Y3300000D02*
X29190000Y2700000D01*
X29310000Y2700000D02*
G75*
G02*
X29190000Y2700000I-60000J0D01*
G01*
X29310000Y2700000D02*
X29310000Y3300000D01*
X29310000Y3300000D02*
G75*
G03*
X29190000Y3300000I-60000J0D01*
G01*
X29250000Y2640000D02*
X33050000Y2640000D01*
X33050000Y2760000D02*
G75*
G02*
X33050000Y2640000I0J-60000D01*
G01*
X33050000Y2760000D02*
X29250000Y2760000D01*
X29250000Y2760000D02*
G75*
G03*
X29250000Y2640000I0J-60000D01*
G01*
X33050000Y3360000D02*
X29250000Y3360000D01*
X29250000Y3240000D02*
G75*
G02*
X29250000Y3360000I0J60000D01*
G01*
X29250000Y3240000D02*
X33050000Y3240000D01*
X33050000Y3240000D02*
G75*
G03*
X33050000Y3360000I0J60000D01*
G01*
X33110000Y2700000D02*
X33110000Y3300000D01*
X32990000Y3300000D02*
G75*
G02*
X33110000Y3300000I60000J0D01*
G01*
X32990000Y3300000D02*
X32990000Y2700000D01*
X32990000Y2700000D02*
G75*
G03*
X33110000Y2700000I60000J0D01*
G01*
X39190000Y3300000D02*
X39190000Y2700000D01*
X39310000Y2700000D02*
G75*
G02*
X39190000Y2700000I-60000J0D01*
G01*
X39310000Y2700000D02*
X39310000Y3300000D01*
X39310000Y3300000D02*
G75*
G03*
X39190000Y3300000I-60000J0D01*
G01*
X39250000Y2640000D02*
X43050000Y2640000D01*
X43050000Y2760000D02*
G75*
G02*
X43050000Y2640000I0J-60000D01*
G01*
X43050000Y2760000D02*
X39250000Y2760000D01*
X39250000Y2760000D02*
G75*
G03*
X39250000Y2640000I0J-60000D01*
G01*
X43050000Y3360000D02*
X39250000Y3360000D01*
X39250000Y3240000D02*
G75*
G02*
X39250000Y3360000I0J60000D01*
G01*
X39250000Y3240000D02*
X43050000Y3240000D01*
X43050000Y3240000D02*
G75*
G03*
X43050000Y3360000I0J60000D01*
G01*
X43110000Y2700000D02*
X43110000Y3300000D01*
X42990000Y3300000D02*
G75*
G02*
X43110000Y3300000I60000J0D01*
G01*
X42990000Y3300000D02*
X42990000Y2700000D01*
X42990000Y2700000D02*
G75*
G03*
X43110000Y2700000I60000J0D01*
G01*
%TO.C,J3*%
X32400000Y21390000D02*
X32400000Y20750000D01*
X32400000Y20750000D02*
X33460000Y20750000D01*
X32400000Y18850000D02*
X32400000Y18210000D01*
X32400000Y18210000D02*
X33460000Y18210000D01*
X33460000Y21390000D02*
X32400000Y21390000D01*
X33460000Y21390000D02*
X34410000Y22340000D01*
X33460000Y18850000D02*
X32400000Y18850000D01*
X33460000Y17260000D02*
X33460000Y21390000D01*
X34410000Y22340000D02*
X38540000Y22340000D01*
X38540000Y22340000D02*
X38540000Y17260000D01*
X38540000Y21390000D02*
X39600000Y21390000D01*
X38540000Y18850000D02*
X39600000Y18850000D01*
X38540000Y17260000D02*
X33460000Y17260000D01*
X39600000Y21390000D02*
X39600000Y20750000D01*
X39600000Y20750000D02*
X38540000Y20750000D01*
X39600000Y18850000D02*
X39600000Y18210000D01*
X39600000Y18210000D02*
X38540000Y18210000D01*
%TO.C,R2*%
X14675000Y17270000D02*
X15725000Y17270000D01*
X14675000Y16730000D02*
X14675000Y17270000D01*
X15725000Y17270000D02*
X15725000Y16730000D01*
X15725000Y16730000D02*
X14675000Y16730000D01*
%TO.C,J1*%
X32550000Y13490000D02*
X32550000Y12850000D01*
X32550000Y12850000D02*
X33610000Y12850000D01*
X32550000Y10950000D02*
X32550000Y10310000D01*
X32550000Y10310000D02*
X33610000Y10310000D01*
X33610000Y13490000D02*
X32550000Y13490000D01*
X33610000Y13490000D02*
X34560000Y14440000D01*
X33610000Y10950000D02*
X32550000Y10950000D01*
X33610000Y9360000D02*
X33610000Y13490000D01*
X34560000Y14440000D02*
X38690000Y14440000D01*
X38690000Y14440000D02*
X38690000Y9360000D01*
X38690000Y13490000D02*
X39750000Y13490000D01*
X38690000Y10950000D02*
X39750000Y10950000D01*
X38690000Y9360000D02*
X33610000Y9360000D01*
X39750000Y13490000D02*
X39750000Y12850000D01*
X39750000Y12850000D02*
X38690000Y12850000D01*
X39750000Y10950000D02*
X39750000Y10310000D01*
X39750000Y10310000D02*
X38690000Y10310000D01*
%TO.C,R1*%
X13375000Y16170000D02*
X14425000Y16170000D01*
X13375000Y15630000D02*
X13375000Y16170000D01*
X14425000Y16170000D02*
X14425000Y15630000D01*
X14425000Y15630000D02*
X13375000Y15630000D01*
X17140000Y3400000D02*
X17140000Y2800000D01*
X17260000Y2800000D02*
G75*
G02*
X17140000Y2800000I-60000J0D01*
G01*
X17260000Y2800000D02*
X17260000Y3400000D01*
X17260000Y3400000D02*
G75*
G03*
X17140000Y3400000I-60000J0D01*
G01*
X17200000Y2740000D02*
X21000000Y2740000D01*
X21000000Y2860000D02*
G75*
G02*
X21000000Y2740000I0J-60000D01*
G01*
X21000000Y2860000D02*
X17200000Y2860000D01*
X17200000Y2860000D02*
G75*
G03*
X17200000Y2740000I0J-60000D01*
G01*
X21000000Y3460000D02*
X17200000Y3460000D01*
X17200000Y3340000D02*
G75*
G02*
X17200000Y3460000I0J60000D01*
G01*
X17200000Y3340000D02*
X21000000Y3340000D01*
X21000000Y3340000D02*
G75*
G03*
X21000000Y3460000I0J60000D01*
G01*
X21060000Y2800000D02*
X21060000Y3400000D01*
X20940000Y3400000D02*
G75*
G02*
X21060000Y3400000I60000J0D01*
G01*
X20940000Y3400000D02*
X20940000Y2800000D01*
X20940000Y2800000D02*
G75*
G03*
X21060000Y2800000I60000J0D01*
G01*
%TO.C,H1*%
X4600000Y54200000D02*
X25000000Y54200000D01*
X25000000Y45800000D01*
X4600000Y45800000D01*
X4600000Y54200000D01*
%TO.C,U1*%
X12750000Y13250000D02*
X17650000Y13250000D01*
X12750000Y10325000D02*
X12750000Y13250000D01*
X13725000Y9350000D02*
X12750000Y10325000D01*
X17650000Y13250000D02*
X17650000Y9350000D01*
X17650000Y9350000D02*
X13725000Y9350000D01*
%TO.C,R3*%
X16075000Y18470000D02*
X17125000Y18470000D01*
X16075000Y17930000D02*
X16075000Y18470000D01*
X17125000Y18470000D02*
X17125000Y17930000D01*
X17125000Y17930000D02*
X16075000Y17930000D01*
D13*
%TO.C,J2*%
X34650000Y39350001D02*
X37550000Y39350001D01*
X34650000Y38850002D02*
X34650000Y39350001D01*
X34650000Y30749998D02*
X34850000Y30749998D01*
X34650000Y30249999D02*
X34650000Y30749998D01*
X34700000Y38499990D02*
X34850000Y38499990D01*
X34700000Y31100010D02*
X34700000Y38499990D01*
X34850000Y38850002D02*
X34650000Y38850002D01*
X34850000Y38499990D02*
X34850000Y38850002D01*
X34850000Y31100010D02*
X34700000Y31100010D01*
X34850000Y30749998D02*
X34850000Y31100010D01*
X37550000Y39350001D02*
X37550000Y38699761D01*
X37550000Y38699761D02*
X37650000Y38699761D01*
X37550000Y30900239D02*
X37550000Y30249999D01*
X37550000Y30249999D02*
X34650000Y30249999D01*
X37650000Y38699761D02*
X37650000Y30900239D01*
X37650000Y30900239D02*
X37550000Y30900239D01*
D12*
%TO.C,C1*%
X11450000Y11800000D02*
X11950000Y11800000D01*
X11450000Y10800000D02*
X11450000Y11800000D01*
X11950000Y11800000D02*
X11950000Y10800000D01*
X11950000Y10800000D02*
X11450000Y10800000D01*
%TD*%
X28202457Y5946270D02*
X34094999Y53731D01*
X28202457Y53731D02*
X34094999Y5946270D01*
X38202457Y5946270D02*
X44094999Y53731D01*
X38202457Y53731D02*
X44094999Y5946270D01*
X16152457Y6046270D02*
X22044999Y153731D01*
X16152457Y153731D02*
X22044999Y6046270D01*
M02*
