%TF.GenerationSoftware,KiCad,Pcbnew,9.0.3*%
%TF.CreationDate,2026-01-11T20:48:13+08:00*%
%TF.ProjectId,ephys-test-module-molex-504070-32,65706879-732d-4746-9573-742d6d6f6475,E*%
%TF.SameCoordinates,Original*%
%TF.FileFunction,AssemblyDrawing,Top*%
%FSLAX46Y46*%
G04 Gerber Fmt 4.6, Leading zero omitted, Abs format (unit mm)*
G04 Created by KiCad (PCBNEW 9.0.3) date 2026-01-11 20:48:13*
%MOMM*%
%LPD*%
G01*
G04 APERTURE LIST*
%ADD10C,0.150000*%
%ADD11C,0.040000*%
%ADD12C,0.127000*%
%ADD13C,0.100000*%
G04 APERTURE END LIST*
D10*
X144483333Y-102745180D02*
X144483333Y-102030895D01*
X144483333Y-102030895D02*
X144530952Y-101888038D01*
X144530952Y-101888038D02*
X144626190Y-101792800D01*
X144626190Y-101792800D02*
X144769047Y-101745180D01*
X144769047Y-101745180D02*
X144864285Y-101745180D01*
X144054761Y-102649942D02*
X144007142Y-102697561D01*
X144007142Y-102697561D02*
X143911904Y-102745180D01*
X143911904Y-102745180D02*
X143673809Y-102745180D01*
X143673809Y-102745180D02*
X143578571Y-102697561D01*
X143578571Y-102697561D02*
X143530952Y-102649942D01*
X143530952Y-102649942D02*
X143483333Y-102554704D01*
X143483333Y-102554704D02*
X143483333Y-102459466D01*
X143483333Y-102459466D02*
X143530952Y-102316609D01*
X143530952Y-102316609D02*
X144102380Y-101745180D01*
X144102380Y-101745180D02*
X143483333Y-101745180D01*
X147888095Y-129454819D02*
X148459523Y-129454819D01*
X148173809Y-130454819D02*
X148173809Y-129454819D01*
X148792857Y-130454819D02*
X148792857Y-129454819D01*
X148792857Y-129454819D02*
X149173809Y-129454819D01*
X149173809Y-129454819D02*
X149269047Y-129502438D01*
X149269047Y-129502438D02*
X149316666Y-129550057D01*
X149316666Y-129550057D02*
X149364285Y-129645295D01*
X149364285Y-129645295D02*
X149364285Y-129788152D01*
X149364285Y-129788152D02*
X149316666Y-129883390D01*
X149316666Y-129883390D02*
X149269047Y-129931009D01*
X149269047Y-129931009D02*
X149173809Y-129978628D01*
X149173809Y-129978628D02*
X148792857Y-129978628D01*
X149745238Y-129550057D02*
X149792857Y-129502438D01*
X149792857Y-129502438D02*
X149888095Y-129454819D01*
X149888095Y-129454819D02*
X150126190Y-129454819D01*
X150126190Y-129454819D02*
X150221428Y-129502438D01*
X150221428Y-129502438D02*
X150269047Y-129550057D01*
X150269047Y-129550057D02*
X150316666Y-129645295D01*
X150316666Y-129645295D02*
X150316666Y-129740533D01*
X150316666Y-129740533D02*
X150269047Y-129883390D01*
X150269047Y-129883390D02*
X149697619Y-130454819D01*
X149697619Y-130454819D02*
X150316666Y-130454819D01*
X147668804Y-129954819D02*
X150541666Y-129954819D01*
X137888095Y-129454819D02*
X138459523Y-129454819D01*
X138173809Y-130454819D02*
X138173809Y-129454819D01*
X138792857Y-130454819D02*
X138792857Y-129454819D01*
X138792857Y-129454819D02*
X139173809Y-129454819D01*
X139173809Y-129454819D02*
X139269047Y-129502438D01*
X139269047Y-129502438D02*
X139316666Y-129550057D01*
X139316666Y-129550057D02*
X139364285Y-129645295D01*
X139364285Y-129645295D02*
X139364285Y-129788152D01*
X139364285Y-129788152D02*
X139316666Y-129883390D01*
X139316666Y-129883390D02*
X139269047Y-129931009D01*
X139269047Y-129931009D02*
X139173809Y-129978628D01*
X139173809Y-129978628D02*
X138792857Y-129978628D01*
X140316666Y-130454819D02*
X139745238Y-130454819D01*
X140030952Y-130454819D02*
X140030952Y-129454819D01*
X140030952Y-129454819D02*
X139935714Y-129597676D01*
X139935714Y-129597676D02*
X139840476Y-129692914D01*
X139840476Y-129692914D02*
X139745238Y-129740533D01*
X137668804Y-129954819D02*
X140535957Y-129954819D01*
X122038095Y-87454819D02*
X122038095Y-86454819D01*
X122038095Y-86931009D02*
X122609523Y-86931009D01*
X122609523Y-87454819D02*
X122609523Y-86454819D01*
X123609523Y-87454819D02*
X123038095Y-87454819D01*
X123323809Y-87454819D02*
X123323809Y-86454819D01*
X123323809Y-86454819D02*
X123228571Y-86597676D01*
X123228571Y-86597676D02*
X123133333Y-86692914D01*
X123133333Y-86692914D02*
X123038095Y-86740533D01*
X143816666Y-124554819D02*
X143816666Y-125269104D01*
X143816666Y-125269104D02*
X143769047Y-125411961D01*
X143769047Y-125411961D02*
X143673809Y-125507200D01*
X143673809Y-125507200D02*
X143530952Y-125554819D01*
X143530952Y-125554819D02*
X143435714Y-125554819D01*
X144816666Y-125554819D02*
X144245238Y-125554819D01*
X144530952Y-125554819D02*
X144530952Y-124554819D01*
X144530952Y-124554819D02*
X144435714Y-124697676D01*
X144435714Y-124697676D02*
X144340476Y-124792914D01*
X144340476Y-124792914D02*
X144245238Y-124840533D01*
X143666666Y-116654819D02*
X143666666Y-117369104D01*
X143666666Y-117369104D02*
X143619047Y-117511961D01*
X143619047Y-117511961D02*
X143523809Y-117607200D01*
X143523809Y-117607200D02*
X143380952Y-117654819D01*
X143380952Y-117654819D02*
X143285714Y-117654819D01*
X144047619Y-116654819D02*
X144666666Y-116654819D01*
X144666666Y-116654819D02*
X144333333Y-117035771D01*
X144333333Y-117035771D02*
X144476190Y-117035771D01*
X144476190Y-117035771D02*
X144571428Y-117083390D01*
X144571428Y-117083390D02*
X144619047Y-117131009D01*
X144619047Y-117131009D02*
X144666666Y-117226247D01*
X144666666Y-117226247D02*
X144666666Y-117464342D01*
X144666666Y-117464342D02*
X144619047Y-117559580D01*
X144619047Y-117559580D02*
X144571428Y-117607200D01*
X144571428Y-117607200D02*
X144476190Y-117654819D01*
X144476190Y-117654819D02*
X144190476Y-117654819D01*
X144190476Y-117654819D02*
X144095238Y-117607200D01*
X144095238Y-117607200D02*
X144047619Y-117559580D01*
X125838095Y-129554819D02*
X126409523Y-129554819D01*
X126123809Y-130554819D02*
X126123809Y-129554819D01*
X126742857Y-130554819D02*
X126742857Y-129554819D01*
X126742857Y-129554819D02*
X127123809Y-129554819D01*
X127123809Y-129554819D02*
X127219047Y-129602438D01*
X127219047Y-129602438D02*
X127266666Y-129650057D01*
X127266666Y-129650057D02*
X127314285Y-129745295D01*
X127314285Y-129745295D02*
X127314285Y-129888152D01*
X127314285Y-129888152D02*
X127266666Y-129983390D01*
X127266666Y-129983390D02*
X127219047Y-130031009D01*
X127219047Y-130031009D02*
X127123809Y-130078628D01*
X127123809Y-130078628D02*
X126742857Y-130078628D01*
X127647619Y-129554819D02*
X128266666Y-129554819D01*
X128266666Y-129554819D02*
X127933333Y-129935771D01*
X127933333Y-129935771D02*
X128076190Y-129935771D01*
X128076190Y-129935771D02*
X128171428Y-129983390D01*
X128171428Y-129983390D02*
X128219047Y-130031009D01*
X128219047Y-130031009D02*
X128266666Y-130126247D01*
X128266666Y-130126247D02*
X128266666Y-130364342D01*
X128266666Y-130364342D02*
X128219047Y-130459580D01*
X128219047Y-130459580D02*
X128171428Y-130507200D01*
X128171428Y-130507200D02*
X128076190Y-130554819D01*
X128076190Y-130554819D02*
X127790476Y-130554819D01*
X127790476Y-130554819D02*
X127695238Y-130507200D01*
X127695238Y-130507200D02*
X127647619Y-130459580D01*
X125618804Y-130054819D02*
X128491666Y-130054819D01*
X122665566Y-126446666D02*
X123458900Y-126446666D01*
X123458900Y-126446666D02*
X123552233Y-126400000D01*
X123552233Y-126400000D02*
X123598900Y-126353333D01*
X123598900Y-126353333D02*
X123645566Y-126260000D01*
X123645566Y-126260000D02*
X123645566Y-126073333D01*
X123645566Y-126073333D02*
X123598900Y-125980000D01*
X123598900Y-125980000D02*
X123552233Y-125933333D01*
X123552233Y-125933333D02*
X123458900Y-125886666D01*
X123458900Y-125886666D02*
X122665566Y-125886666D01*
X123645566Y-124906666D02*
X123645566Y-125466666D01*
X123645566Y-125186666D02*
X122665566Y-125186666D01*
X122665566Y-125186666D02*
X122805566Y-125279999D01*
X122805566Y-125279999D02*
X122898900Y-125373333D01*
X122898900Y-125373333D02*
X122945566Y-125466666D01*
D11*
X123156667Y-120118200D02*
X123070000Y-119994391D01*
X123008095Y-120118200D02*
X123008095Y-119858200D01*
X123008095Y-119858200D02*
X123107143Y-119858200D01*
X123107143Y-119858200D02*
X123131905Y-119870581D01*
X123131905Y-119870581D02*
X123144286Y-119882962D01*
X123144286Y-119882962D02*
X123156667Y-119907724D01*
X123156667Y-119907724D02*
X123156667Y-119944867D01*
X123156667Y-119944867D02*
X123144286Y-119969629D01*
X123144286Y-119969629D02*
X123131905Y-119982010D01*
X123131905Y-119982010D02*
X123107143Y-119994391D01*
X123107143Y-119994391D02*
X123008095Y-119994391D01*
X123255714Y-119882962D02*
X123268095Y-119870581D01*
X123268095Y-119870581D02*
X123292857Y-119858200D01*
X123292857Y-119858200D02*
X123354762Y-119858200D01*
X123354762Y-119858200D02*
X123379524Y-119870581D01*
X123379524Y-119870581D02*
X123391905Y-119882962D01*
X123391905Y-119882962D02*
X123404286Y-119907724D01*
X123404286Y-119907724D02*
X123404286Y-119932486D01*
X123404286Y-119932486D02*
X123391905Y-119969629D01*
X123391905Y-119969629D02*
X123243333Y-120118200D01*
X123243333Y-120118200D02*
X123404286Y-120118200D01*
X121856667Y-121218200D02*
X121770000Y-121094391D01*
X121708095Y-121218200D02*
X121708095Y-120958200D01*
X121708095Y-120958200D02*
X121807143Y-120958200D01*
X121807143Y-120958200D02*
X121831905Y-120970581D01*
X121831905Y-120970581D02*
X121844286Y-120982962D01*
X121844286Y-120982962D02*
X121856667Y-121007724D01*
X121856667Y-121007724D02*
X121856667Y-121044867D01*
X121856667Y-121044867D02*
X121844286Y-121069629D01*
X121844286Y-121069629D02*
X121831905Y-121082010D01*
X121831905Y-121082010D02*
X121807143Y-121094391D01*
X121807143Y-121094391D02*
X121708095Y-121094391D01*
X122104286Y-121218200D02*
X121955714Y-121218200D01*
X122030000Y-121218200D02*
X122030000Y-120958200D01*
X122030000Y-120958200D02*
X122005238Y-120995343D01*
X122005238Y-120995343D02*
X121980476Y-121020105D01*
X121980476Y-121020105D02*
X121955714Y-121032486D01*
X124556667Y-118918200D02*
X124470000Y-118794391D01*
X124408095Y-118918200D02*
X124408095Y-118658200D01*
X124408095Y-118658200D02*
X124507143Y-118658200D01*
X124507143Y-118658200D02*
X124531905Y-118670581D01*
X124531905Y-118670581D02*
X124544286Y-118682962D01*
X124544286Y-118682962D02*
X124556667Y-118707724D01*
X124556667Y-118707724D02*
X124556667Y-118744867D01*
X124556667Y-118744867D02*
X124544286Y-118769629D01*
X124544286Y-118769629D02*
X124531905Y-118782010D01*
X124531905Y-118782010D02*
X124507143Y-118794391D01*
X124507143Y-118794391D02*
X124408095Y-118794391D01*
X124643333Y-118658200D02*
X124804286Y-118658200D01*
X124804286Y-118658200D02*
X124717619Y-118757248D01*
X124717619Y-118757248D02*
X124754762Y-118757248D01*
X124754762Y-118757248D02*
X124779524Y-118769629D01*
X124779524Y-118769629D02*
X124791905Y-118782010D01*
X124791905Y-118782010D02*
X124804286Y-118806772D01*
X124804286Y-118806772D02*
X124804286Y-118868677D01*
X124804286Y-118868677D02*
X124791905Y-118893439D01*
X124791905Y-118893439D02*
X124779524Y-118905820D01*
X124779524Y-118905820D02*
X124754762Y-118918200D01*
X124754762Y-118918200D02*
X124680476Y-118918200D01*
X124680476Y-118918200D02*
X124655714Y-118905820D01*
X124655714Y-118905820D02*
X124643333Y-118893439D01*
X119789765Y-125741666D02*
X119801670Y-125753570D01*
X119801670Y-125753570D02*
X119813574Y-125789285D01*
X119813574Y-125789285D02*
X119813574Y-125813094D01*
X119813574Y-125813094D02*
X119801670Y-125848808D01*
X119801670Y-125848808D02*
X119777860Y-125872618D01*
X119777860Y-125872618D02*
X119754050Y-125884523D01*
X119754050Y-125884523D02*
X119706431Y-125896427D01*
X119706431Y-125896427D02*
X119670717Y-125896427D01*
X119670717Y-125896427D02*
X119623098Y-125884523D01*
X119623098Y-125884523D02*
X119599289Y-125872618D01*
X119599289Y-125872618D02*
X119575479Y-125848808D01*
X119575479Y-125848808D02*
X119563574Y-125813094D01*
X119563574Y-125813094D02*
X119563574Y-125789285D01*
X119563574Y-125789285D02*
X119575479Y-125753570D01*
X119575479Y-125753570D02*
X119587384Y-125741666D01*
X119813574Y-125503570D02*
X119813574Y-125646427D01*
X119813574Y-125574999D02*
X119563574Y-125574999D01*
X119563574Y-125574999D02*
X119599289Y-125598808D01*
X119599289Y-125598808D02*
X119623098Y-125622618D01*
X119623098Y-125622618D02*
X119635003Y-125646427D01*
D12*
%TO.C,J2*%
X142650000Y-106750001D02*
X142650000Y-106250002D01*
X145550000Y-106750001D02*
X142650000Y-106750001D01*
X142650000Y-106250002D02*
X142850000Y-106250002D01*
X142850000Y-106250002D02*
X142850000Y-105899990D01*
X145550000Y-106099761D02*
X145550000Y-106750001D01*
X145650000Y-106099761D02*
X145550000Y-106099761D01*
X142700000Y-105899990D02*
X142700000Y-98500010D01*
X142850000Y-105899990D02*
X142700000Y-105899990D01*
X142700000Y-98500010D02*
X142850000Y-98500010D01*
X142850000Y-98500010D02*
X142850000Y-98149998D01*
X145550000Y-98300239D02*
X145650000Y-98300239D01*
X145650000Y-98300239D02*
X145650000Y-106099761D01*
X142650000Y-98149998D02*
X142650000Y-97649999D01*
X142850000Y-98149998D02*
X142650000Y-98149998D01*
X142650000Y-97649999D02*
X145550000Y-97649999D01*
X145550000Y-97649999D02*
X145550000Y-98300239D01*
D13*
X147190000Y-133700000D02*
X147190000Y-134300000D01*
X147310000Y-134300000D02*
G75*
G02*
X147190000Y-134300000I-60000J0D01*
G01*
X147310000Y-134300000D02*
X147310000Y-133700000D01*
X147310000Y-133700000D02*
G75*
G03*
X147190000Y-133700000I-60000J0D01*
G01*
X147250000Y-134360000D02*
X151050000Y-134360000D01*
X151050000Y-134240000D02*
G75*
G02*
X151050000Y-134360000I0J-60000D01*
G01*
X151050000Y-134240000D02*
X147250000Y-134240000D01*
X147250000Y-134240000D02*
G75*
G03*
X147250000Y-134360000I0J-60000D01*
G01*
X151050000Y-133640000D02*
X147250000Y-133640000D01*
X147250000Y-133760000D02*
G75*
G02*
X147250000Y-133640000I0J60000D01*
G01*
X147250000Y-133760000D02*
X151050000Y-133760000D01*
X151050000Y-133760000D02*
G75*
G03*
X151050000Y-133640000I0J60000D01*
G01*
X151110000Y-134300000D02*
X151110000Y-133700000D01*
X150990000Y-133700000D02*
G75*
G02*
X151110000Y-133700000I60000J0D01*
G01*
X150990000Y-133700000D02*
X150990000Y-134300000D01*
X150990000Y-134300000D02*
G75*
G03*
X151110000Y-134300000I60000J0D01*
G01*
X137190000Y-133700000D02*
X137190000Y-134300000D01*
X137310000Y-134300000D02*
G75*
G02*
X137190000Y-134300000I-60000J0D01*
G01*
X137310000Y-134300000D02*
X137310000Y-133700000D01*
X137310000Y-133700000D02*
G75*
G03*
X137190000Y-133700000I-60000J0D01*
G01*
X137250000Y-134360000D02*
X141050000Y-134360000D01*
X141050000Y-134240000D02*
G75*
G02*
X141050000Y-134360000I0J-60000D01*
G01*
X141050000Y-134240000D02*
X137250000Y-134240000D01*
X137250000Y-134240000D02*
G75*
G03*
X137250000Y-134360000I0J-60000D01*
G01*
X141050000Y-133640000D02*
X137250000Y-133640000D01*
X137250000Y-133760000D02*
G75*
G02*
X137250000Y-133640000I0J60000D01*
G01*
X137250000Y-133760000D02*
X141050000Y-133760000D01*
X141050000Y-133760000D02*
G75*
G03*
X141050000Y-133640000I0J60000D01*
G01*
X141110000Y-134300000D02*
X141110000Y-133700000D01*
X140990000Y-133700000D02*
G75*
G02*
X141110000Y-133700000I60000J0D01*
G01*
X140990000Y-133700000D02*
X140990000Y-134300000D01*
X140990000Y-134300000D02*
G75*
G03*
X141110000Y-134300000I60000J0D01*
G01*
%TO.C,H1*%
X112600000Y-82800000D02*
X133000000Y-82800000D01*
X133000000Y-91200000D01*
X112600000Y-91200000D01*
X112600000Y-82800000D01*
%TO.C,J1*%
X147750000Y-126690000D02*
X146690000Y-126690000D01*
X147750000Y-126050000D02*
X147750000Y-126690000D01*
X147750000Y-124150000D02*
X146690000Y-124150000D01*
X147750000Y-123510000D02*
X147750000Y-124150000D01*
X146690000Y-127640000D02*
X141610000Y-127640000D01*
X146690000Y-126050000D02*
X147750000Y-126050000D01*
X146690000Y-123510000D02*
X147750000Y-123510000D01*
X146690000Y-122560000D02*
X146690000Y-127640000D01*
X142560000Y-122560000D02*
X146690000Y-122560000D01*
X141610000Y-127640000D02*
X141610000Y-123510000D01*
X141610000Y-126050000D02*
X140550000Y-126050000D01*
X141610000Y-123510000D02*
X142560000Y-122560000D01*
X141610000Y-123510000D02*
X140550000Y-123510000D01*
X140550000Y-126690000D02*
X141610000Y-126690000D01*
X140550000Y-126050000D02*
X140550000Y-126690000D01*
X140550000Y-124150000D02*
X141610000Y-124150000D01*
X140550000Y-123510000D02*
X140550000Y-124150000D01*
%TO.C,J3*%
X147600000Y-118790000D02*
X146540000Y-118790000D01*
X147600000Y-118150000D02*
X147600000Y-118790000D01*
X147600000Y-116250000D02*
X146540000Y-116250000D01*
X147600000Y-115610000D02*
X147600000Y-116250000D01*
X146540000Y-119740000D02*
X141460000Y-119740000D01*
X146540000Y-118150000D02*
X147600000Y-118150000D01*
X146540000Y-115610000D02*
X147600000Y-115610000D01*
X146540000Y-114660000D02*
X146540000Y-119740000D01*
X142410000Y-114660000D02*
X146540000Y-114660000D01*
X141460000Y-119740000D02*
X141460000Y-115610000D01*
X141460000Y-118150000D02*
X140400000Y-118150000D01*
X141460000Y-115610000D02*
X142410000Y-114660000D01*
X141460000Y-115610000D02*
X140400000Y-115610000D01*
X140400000Y-118790000D02*
X141460000Y-118790000D01*
X140400000Y-118150000D02*
X140400000Y-118790000D01*
X140400000Y-116250000D02*
X141460000Y-116250000D01*
X140400000Y-115610000D02*
X140400000Y-116250000D01*
X129060000Y-134200000D02*
X129060000Y-133600000D01*
X128940000Y-133600000D02*
G75*
G02*
X129060000Y-133600000I60000J0D01*
G01*
X128940000Y-133600000D02*
X128940000Y-134200000D01*
X128940000Y-134200000D02*
G75*
G03*
X129060000Y-134200000I60000J0D01*
G01*
X129000000Y-133540000D02*
X125200000Y-133540000D01*
X125200000Y-133660000D02*
G75*
G02*
X125200000Y-133540000I0J60000D01*
G01*
X125200000Y-133660000D02*
X129000000Y-133660000D01*
X129000000Y-133660000D02*
G75*
G03*
X129000000Y-133540000I0J60000D01*
G01*
X125200000Y-134260000D02*
X129000000Y-134260000D01*
X129000000Y-134140000D02*
G75*
G02*
X129000000Y-134260000I0J-60000D01*
G01*
X129000000Y-134140000D02*
X125200000Y-134140000D01*
X125200000Y-134140000D02*
G75*
G03*
X125200000Y-134260000I0J-60000D01*
G01*
X125140000Y-133600000D02*
X125140000Y-134200000D01*
X125260000Y-134200000D02*
G75*
G02*
X125140000Y-134200000I-60000J0D01*
G01*
X125260000Y-134200000D02*
X125260000Y-133600000D01*
X125260000Y-133600000D02*
G75*
G03*
X125140000Y-133600000I-60000J0D01*
G01*
%TO.C,U1*%
X121725000Y-127650000D02*
X120750000Y-126675000D01*
X125650000Y-127650000D02*
X121725000Y-127650000D01*
X120750000Y-126675000D02*
X120750000Y-123750000D01*
X120750000Y-123750000D02*
X125650000Y-123750000D01*
X125650000Y-123750000D02*
X125650000Y-127650000D01*
%TO.C,R2*%
X122675000Y-119730000D02*
X123725000Y-119730000D01*
X122675000Y-120270000D02*
X122675000Y-119730000D01*
X123725000Y-119730000D02*
X123725000Y-120270000D01*
X123725000Y-120270000D02*
X122675000Y-120270000D01*
%TO.C,R1*%
X121375000Y-120830000D02*
X122425000Y-120830000D01*
X121375000Y-121370000D02*
X121375000Y-120830000D01*
X122425000Y-120830000D02*
X122425000Y-121370000D01*
X122425000Y-121370000D02*
X121375000Y-121370000D01*
%TO.C,R3*%
X124075000Y-118530000D02*
X125125000Y-118530000D01*
X124075000Y-119070000D02*
X124075000Y-118530000D01*
X125125000Y-118530000D02*
X125125000Y-119070000D01*
X125125000Y-119070000D02*
X124075000Y-119070000D01*
%TO.C,C1*%
X119450000Y-125200000D02*
X119950000Y-125200000D01*
X119450000Y-126200000D02*
X119450000Y-125200000D01*
X119950000Y-125200000D02*
X119950000Y-126200000D01*
X119950000Y-126200000D02*
X119450000Y-126200000D01*
%TD*%
X146225000Y-129354870D02*
X152075000Y-136925000D01*
X146225000Y-136925000D02*
X152075000Y-129354870D01*
X136225000Y-129354870D02*
X142075000Y-136925000D01*
X136225000Y-136925000D02*
X142075000Y-129354870D01*
X124175000Y-129454870D02*
X130025000Y-136825000D01*
X124175000Y-136825000D02*
X130025000Y-129454870D01*
M02*
