%TF.GenerationSoftware,KiCad,Pcbnew,9.0.3*%
%TF.CreationDate,2026-01-11T20:48:13+08:00*%
%TF.ProjectId,ephys-test-module-molex-504070-32,65706879-732d-4746-9573-742d6d6f6475,E*%
%TF.SameCoordinates,Original*%
%TF.FileFunction,Paste,Bot*%
%TF.FilePolarity,Positive*%
%FSLAX46Y46*%
G04 Gerber Fmt 4.6, Leading zero omitted, Abs format (unit mm)*
G04 Created by KiCad (PCBNEW 9.0.3) date 2026-01-11 20:48:13*
%MOMM*%
%LPD*%
G01*
G04 APERTURE LIST*
%ADD10R,0.800000X0.300000*%
%ADD11R,2.273000X0.410000*%
G04 APERTURE END LIST*
D10*
%TO.C,RN4*%
X151550000Y-101100000D03*
X151550000Y-100600000D03*
X151550000Y-100100000D03*
X151550000Y-99600000D03*
X151550000Y-99100000D03*
X151550000Y-98600000D03*
X151550000Y-98100000D03*
X151550000Y-97600000D03*
X149750000Y-97600000D03*
X149750000Y-98100000D03*
X149750000Y-98600000D03*
X149750000Y-99100000D03*
X149750000Y-99600000D03*
X149750000Y-100100000D03*
X149750000Y-100600000D03*
X149750000Y-101100000D03*
%TD*%
%TO.C,RN1*%
X136850000Y-105800000D03*
X136850000Y-105300000D03*
X136850000Y-104800000D03*
X136850000Y-104300000D03*
X136850000Y-103800000D03*
X136850000Y-103300000D03*
X136850000Y-102800000D03*
X136850000Y-102300000D03*
X138650000Y-102300000D03*
X138650000Y-102800000D03*
X138650000Y-103300000D03*
X138650000Y-103800000D03*
X138650000Y-104300000D03*
X138650000Y-104800000D03*
X138650000Y-105300000D03*
X138650000Y-105800000D03*
%TD*%
%TO.C,RN2*%
X138650000Y-101300000D03*
X138650000Y-100800000D03*
X138650000Y-100300000D03*
X138650000Y-99800000D03*
X138650000Y-99300000D03*
X138650000Y-98800000D03*
X138650000Y-98300000D03*
X138650000Y-97800000D03*
X136850000Y-97800000D03*
X136850000Y-98300000D03*
X136850000Y-98800000D03*
X136850000Y-99300000D03*
X136850000Y-99800000D03*
X136850000Y-100300000D03*
X136850000Y-100800000D03*
X136850000Y-101300000D03*
%TD*%
%TO.C,RN3*%
X151550000Y-105600000D03*
X151550000Y-105100000D03*
X151550000Y-104600000D03*
X151550000Y-104100000D03*
X151550000Y-103600000D03*
X151550000Y-103100000D03*
X151550000Y-102600000D03*
X151550000Y-102100000D03*
X149750000Y-102100000D03*
X149750000Y-102600000D03*
X149750000Y-103100000D03*
X149750000Y-103600000D03*
X149750000Y-104100000D03*
X149750000Y-104600000D03*
X149750000Y-105100000D03*
X149750000Y-105600000D03*
%TD*%
D11*
%TO.C,J4*%
X125863500Y-84400000D03*
X120136500Y-84400000D03*
X125863500Y-85200000D03*
X120136500Y-85200000D03*
X125863500Y-86000000D03*
X120136500Y-86000000D03*
X125863500Y-86800000D03*
X120136500Y-86800000D03*
X125863500Y-87600000D03*
X120136500Y-87600000D03*
X125863500Y-88400000D03*
X120136500Y-88400000D03*
X125863500Y-89200000D03*
X120136500Y-89200000D03*
X125863500Y-90000000D03*
X120136500Y-90000000D03*
X125863500Y-90800000D03*
X120136500Y-90800000D03*
X125863500Y-91600000D03*
X120136500Y-91600000D03*
X125863500Y-92400000D03*
X120136500Y-92400000D03*
X125863500Y-93200000D03*
X120136500Y-93200000D03*
X125863500Y-94000000D03*
X120136500Y-94000000D03*
X125863500Y-94800000D03*
X120136500Y-94800000D03*
X125863500Y-95600000D03*
X120136500Y-95600000D03*
X125863500Y-96400000D03*
X120136500Y-96400000D03*
X125863500Y-97200000D03*
X120136500Y-97200000D03*
X125863500Y-98000000D03*
X120136500Y-98000000D03*
X125863500Y-98800000D03*
X120136500Y-98800000D03*
X125863500Y-99600000D03*
X120136500Y-99600000D03*
X125863500Y-100400000D03*
X120136500Y-100400000D03*
X125863500Y-101200000D03*
X120136500Y-101200000D03*
X125863500Y-102000000D03*
X120136500Y-102000000D03*
X125863500Y-102800000D03*
X120136500Y-102800000D03*
X125863500Y-103600000D03*
X120136500Y-103600000D03*
X125863500Y-104400000D03*
X120136500Y-104400000D03*
X125863500Y-105200000D03*
X120136500Y-105200000D03*
X125863500Y-106000000D03*
X120136500Y-106000000D03*
X125863500Y-106800000D03*
X120136500Y-106800000D03*
X125863500Y-107600000D03*
X120136500Y-107600000D03*
X125863500Y-108400000D03*
X120136500Y-108400000D03*
X125863500Y-109200000D03*
X120136500Y-109200000D03*
X125863500Y-110000000D03*
X120136500Y-110000000D03*
X125863500Y-110800000D03*
X120136500Y-110800000D03*
X125863500Y-111600000D03*
X120136500Y-111600000D03*
X125863500Y-112400000D03*
X120136500Y-112400000D03*
X125863500Y-113200000D03*
X120136500Y-113200000D03*
X125863500Y-114000000D03*
X120136500Y-114000000D03*
X125863500Y-114800000D03*
X120136500Y-114800000D03*
X125863500Y-115600000D03*
X120136500Y-115600000D03*
%TD*%
%TO.C,J5*%
X195863500Y-84400000D03*
X190136500Y-84400000D03*
X195863500Y-85200000D03*
X190136500Y-85200000D03*
X195863500Y-86000000D03*
X190136500Y-86000000D03*
X195863500Y-86800000D03*
X190136500Y-86800000D03*
X195863500Y-87600000D03*
X190136500Y-87600000D03*
X195863500Y-88400000D03*
X190136500Y-88400000D03*
X195863500Y-89200000D03*
X190136500Y-89200000D03*
X195863500Y-90000000D03*
X190136500Y-90000000D03*
X195863500Y-90800000D03*
X190136500Y-90800000D03*
X195863500Y-91600000D03*
X190136500Y-91600000D03*
X195863500Y-92400000D03*
X190136500Y-92400000D03*
X195863500Y-93200000D03*
X190136500Y-93200000D03*
X195863500Y-94000000D03*
X190136500Y-94000000D03*
X195863500Y-94800000D03*
X190136500Y-94800000D03*
X195863500Y-95600000D03*
X190136500Y-95600000D03*
X195863500Y-96400000D03*
X190136500Y-96400000D03*
X195863500Y-97200000D03*
X190136500Y-97200000D03*
X195863500Y-98000000D03*
X190136500Y-98000000D03*
X195863500Y-98800000D03*
X190136500Y-98800000D03*
X195863500Y-99600000D03*
X190136500Y-99600000D03*
X195863500Y-100400000D03*
X190136500Y-100400000D03*
X195863500Y-101200000D03*
X190136500Y-101200000D03*
X195863500Y-102000000D03*
X190136500Y-102000000D03*
X195863500Y-102800000D03*
X190136500Y-102800000D03*
X195863500Y-103600000D03*
X190136500Y-103600000D03*
X195863500Y-104400000D03*
X190136500Y-104400000D03*
X195863500Y-105200000D03*
X190136500Y-105200000D03*
X195863500Y-106000000D03*
X190136500Y-106000000D03*
X195863500Y-106800000D03*
X190136500Y-106800000D03*
X195863500Y-107600000D03*
X190136500Y-107600000D03*
X195863500Y-108400000D03*
X190136500Y-108400000D03*
X195863500Y-109200000D03*
X190136500Y-109200000D03*
X195863500Y-110000000D03*
X190136500Y-110000000D03*
X195863500Y-110800000D03*
X190136500Y-110800000D03*
X195863500Y-111600000D03*
X190136500Y-111600000D03*
X195863500Y-112400000D03*
X190136500Y-112400000D03*
X195863500Y-113200000D03*
X190136500Y-113200000D03*
X195863500Y-114000000D03*
X190136500Y-114000000D03*
X195863500Y-114800000D03*
X190136500Y-114800000D03*
X195863500Y-115600000D03*
X190136500Y-115600000D03*
%TD*%
M02*
