M48
; DRILL file {KiCad 9.0.6} date 2026-01-13T13:16:04-0500
; FORMAT={-:-/ absolute / metric / decimal}
; #@! TF.CreationDate,2026-01-13T13:16:04-05:00
; #@! TF.GenerationSoftware,Kicad,Pcbnew,9.0.6
; #@! TF.FileFunction,Plated,1,2,PTH
FMAT,2
METRIC
; #@! TA.AperFunction,Plated,PTH,ViaDrill
T1C0.300
; #@! TA.AperFunction,Plated,PTH,ComponentDrill
T2C2.800
%
G90
G05
T1
X2.0Y34.2
X2.4Y56.2
X3.0Y43.2
X3.5Y18.5
X3.7Y3.7
X6.1Y66.2
X7.4Y27.2
X10.1Y20.9
X11.7Y13.3
X11.7Y12.8
X12.8Y16.0
X14.2Y17.4
X15.0Y26.4
X15.2Y11.3
X15.241Y45.832
X15.45Y18.65
X17.1Y17.5
X17.1Y16.1
X17.863Y20.463
X18.55Y37.375
X19.2Y12.2
X19.7Y21.6
X20.8Y44.6
X20.9Y37.4
X21.0Y30.0
X21.125Y51.925
X21.4Y22.25
X22.9Y15.8
X23.1Y35.25
X24.3Y4.0
X27.0Y56.2
X27.505Y12.893
X27.7Y40.325
X27.8Y24.6
X27.85Y19.8
X29.25Y29.9
X31.25Y35.2
X31.95Y39.2
X31.95Y38.2
X31.95Y37.2
X31.95Y36.2
X31.95Y34.7
X31.95Y33.7
X31.95Y32.7
X31.95Y31.7
X32.4Y65.4
X32.55Y38.7
X32.55Y37.7
X32.55Y36.7
X32.55Y35.7
X32.55Y34.2
X32.55Y33.2
X32.55Y32.2
X32.55Y31.2
X33.5Y22.4
X33.5Y19.8
X33.63Y14.5
X33.65Y9.3
X33.75Y39.6
X33.75Y30.5
X35.4Y25.8
X35.6Y18.675
X35.65Y39.0
X35.7Y32.0
X36.05Y7.7
X36.5Y29.5
X36.65Y38.3
X36.65Y32.0
X36.75Y43.3
X37.1Y52.6
X37.43Y15.8
X37.5Y25.3
X37.65Y29.6
X38.35Y39.6
X38.45Y29.3
X38.63Y14.4
X38.65Y9.3
X39.85Y38.9
X39.85Y37.9
X39.85Y36.9
X39.85Y35.9
X39.85Y34.4
X39.85Y33.4
X39.85Y32.4
X39.85Y31.4
X40.45Y39.4
X40.45Y38.4
X40.45Y37.4
X40.45Y36.4
X40.45Y34.9
X40.45Y33.9
X40.45Y32.9
X40.45Y31.9
X41.15Y35.4
X42.65Y22.7
X45.7Y29.2
X47.0Y20.0
X51.8Y51.7
X52.6Y40.6
X53.7Y4.4
X54.3Y65.3
X56.8Y26.3
X56.8Y13.8
X64.6Y40.2
X65.525Y52.25
X67.3Y30.2
X67.981Y22.538
X68.8Y44.55
X70.5Y35.7
X71.7Y4.4
X73.725Y37.325
X74.2Y65.5
X77.4Y13.6
X77.5Y54.2
X79.2Y37.4
X79.5Y44.5
X79.5Y30.2
X79.904Y22.827
X84.9Y21.8
X85.0Y49.0
X86.6Y3.9
X89.3Y66.2
X97.0Y36.2
X99.2Y61.7
X100.5Y4.1
X101.2Y13.7
X101.5Y46.8
X101.8Y30.4
T2
X19.1Y3.1
X31.15Y3.0
X41.15Y3.0
M30
