%TF.GenerationSoftware,KiCad,Pcbnew,9.0.3*%
%TF.CreationDate,2026-01-11T20:48:13+08:00*%
%TF.ProjectId,ephys-test-module-molex-504070-32,65706879-732d-4746-9573-742d6d6f6475,E*%
%TF.SameCoordinates,Original*%
%TF.FileFunction,Legend,Top*%
%TF.FilePolarity,Positive*%
%FSLAX46Y46*%
G04 Gerber Fmt 4.6, Leading zero omitted, Abs format (unit mm)*
G04 Created by KiCad (PCBNEW 9.0.3) date 2026-01-11 20:48:13*
%MOMM*%
%LPD*%
G01*
G04 APERTURE LIST*
%ADD10C,0.200000*%
%ADD11C,0.300000*%
%ADD12C,0.150000*%
%ADD13C,0.120000*%
%ADD14C,0.100000*%
G04 APERTURE END LIST*
D10*
X134687618Y-126830504D02*
X134687618Y-125530504D01*
X134687618Y-125530504D02*
X135430475Y-126830504D01*
X135430475Y-126830504D02*
X135430475Y-125530504D01*
X135863809Y-125530504D02*
X136606666Y-125530504D01*
X136235238Y-126830504D02*
X136235238Y-125530504D01*
X137782856Y-126706695D02*
X137720952Y-126768600D01*
X137720952Y-126768600D02*
X137535237Y-126830504D01*
X137535237Y-126830504D02*
X137411428Y-126830504D01*
X137411428Y-126830504D02*
X137225714Y-126768600D01*
X137225714Y-126768600D02*
X137101904Y-126644790D01*
X137101904Y-126644790D02*
X137039999Y-126520980D01*
X137039999Y-126520980D02*
X136978095Y-126273361D01*
X136978095Y-126273361D02*
X136978095Y-126087647D01*
X136978095Y-126087647D02*
X137039999Y-125840028D01*
X137039999Y-125840028D02*
X137101904Y-125716219D01*
X137101904Y-125716219D02*
X137225714Y-125592409D01*
X137225714Y-125592409D02*
X137411428Y-125530504D01*
X137411428Y-125530504D02*
X137535237Y-125530504D01*
X137535237Y-125530504D02*
X137720952Y-125592409D01*
X137720952Y-125592409D02*
X137782856Y-125654314D01*
X138228571Y-126676980D02*
X138723809Y-126676980D01*
X138129523Y-126974123D02*
X138476190Y-125934123D01*
X138476190Y-125934123D02*
X138822856Y-126974123D01*
X134687618Y-124230504D02*
X134687618Y-122930504D01*
X134687618Y-122930504D02*
X135430475Y-124230504D01*
X135430475Y-124230504D02*
X135430475Y-122930504D01*
X135863809Y-122930504D02*
X136606666Y-122930504D01*
X136235238Y-124230504D02*
X136235238Y-122930504D01*
X137782856Y-124106695D02*
X137720952Y-124168600D01*
X137720952Y-124168600D02*
X137535237Y-124230504D01*
X137535237Y-124230504D02*
X137411428Y-124230504D01*
X137411428Y-124230504D02*
X137225714Y-124168600D01*
X137225714Y-124168600D02*
X137101904Y-124044790D01*
X137101904Y-124044790D02*
X137039999Y-123920980D01*
X137039999Y-123920980D02*
X136978095Y-123673361D01*
X136978095Y-123673361D02*
X136978095Y-123487647D01*
X136978095Y-123487647D02*
X137039999Y-123240028D01*
X137039999Y-123240028D02*
X137101904Y-123116219D01*
X137101904Y-123116219D02*
X137225714Y-122992409D01*
X137225714Y-122992409D02*
X137411428Y-122930504D01*
X137411428Y-122930504D02*
X137535237Y-122930504D01*
X137535237Y-122930504D02*
X137720952Y-122992409D01*
X137720952Y-122992409D02*
X137782856Y-123054314D01*
X138228571Y-124076980D02*
X138723809Y-124076980D01*
X138129523Y-124374123D02*
X138476190Y-123334123D01*
X138476190Y-123334123D02*
X138822856Y-124374123D01*
X149491101Y-124230504D02*
X149491101Y-122930504D01*
X149491101Y-122930504D02*
X150233958Y-124230504D01*
X150233958Y-124230504D02*
X150233958Y-122930504D01*
X150667292Y-122930504D02*
X151410149Y-122930504D01*
X151038721Y-124230504D02*
X151038721Y-122930504D01*
X152586339Y-124106695D02*
X152524435Y-124168600D01*
X152524435Y-124168600D02*
X152338720Y-124230504D01*
X152338720Y-124230504D02*
X152214911Y-124230504D01*
X152214911Y-124230504D02*
X152029197Y-124168600D01*
X152029197Y-124168600D02*
X151905387Y-124044790D01*
X151905387Y-124044790D02*
X151843482Y-123920980D01*
X151843482Y-123920980D02*
X151781578Y-123673361D01*
X151781578Y-123673361D02*
X151781578Y-123487647D01*
X151781578Y-123487647D02*
X151843482Y-123240028D01*
X151843482Y-123240028D02*
X151905387Y-123116219D01*
X151905387Y-123116219D02*
X152029197Y-122992409D01*
X152029197Y-122992409D02*
X152214911Y-122930504D01*
X152214911Y-122930504D02*
X152338720Y-122930504D01*
X152338720Y-122930504D02*
X152524435Y-122992409D01*
X152524435Y-122992409D02*
X152586339Y-123054314D01*
X153428244Y-123829361D02*
X153576816Y-123878885D01*
X153576816Y-123878885D02*
X153626339Y-123928409D01*
X153626339Y-123928409D02*
X153675863Y-124027457D01*
X153675863Y-124027457D02*
X153675863Y-124176028D01*
X153675863Y-124176028D02*
X153626339Y-124275076D01*
X153626339Y-124275076D02*
X153576816Y-124324600D01*
X153576816Y-124324600D02*
X153477768Y-124374123D01*
X153477768Y-124374123D02*
X153081578Y-124374123D01*
X153081578Y-124374123D02*
X153081578Y-123334123D01*
X153081578Y-123334123D02*
X153428244Y-123334123D01*
X153428244Y-123334123D02*
X153527292Y-123383647D01*
X153527292Y-123383647D02*
X153576816Y-123433171D01*
X153576816Y-123433171D02*
X153626339Y-123532219D01*
X153626339Y-123532219D02*
X153626339Y-123631266D01*
X153626339Y-123631266D02*
X153576816Y-123730314D01*
X153576816Y-123730314D02*
X153527292Y-123779838D01*
X153527292Y-123779838D02*
X153428244Y-123829361D01*
X153428244Y-123829361D02*
X153081578Y-123829361D01*
X149491101Y-126830504D02*
X149491101Y-125530504D01*
X149491101Y-125530504D02*
X150233958Y-126830504D01*
X150233958Y-126830504D02*
X150233958Y-125530504D01*
X150667292Y-125530504D02*
X151410149Y-125530504D01*
X151038721Y-126830504D02*
X151038721Y-125530504D01*
X152586339Y-126706695D02*
X152524435Y-126768600D01*
X152524435Y-126768600D02*
X152338720Y-126830504D01*
X152338720Y-126830504D02*
X152214911Y-126830504D01*
X152214911Y-126830504D02*
X152029197Y-126768600D01*
X152029197Y-126768600D02*
X151905387Y-126644790D01*
X151905387Y-126644790D02*
X151843482Y-126520980D01*
X151843482Y-126520980D02*
X151781578Y-126273361D01*
X151781578Y-126273361D02*
X151781578Y-126087647D01*
X151781578Y-126087647D02*
X151843482Y-125840028D01*
X151843482Y-125840028D02*
X151905387Y-125716219D01*
X151905387Y-125716219D02*
X152029197Y-125592409D01*
X152029197Y-125592409D02*
X152214911Y-125530504D01*
X152214911Y-125530504D02*
X152338720Y-125530504D01*
X152338720Y-125530504D02*
X152524435Y-125592409D01*
X152524435Y-125592409D02*
X152586339Y-125654314D01*
X153428244Y-126429361D02*
X153576816Y-126478885D01*
X153576816Y-126478885D02*
X153626339Y-126528409D01*
X153626339Y-126528409D02*
X153675863Y-126627457D01*
X153675863Y-126627457D02*
X153675863Y-126776028D01*
X153675863Y-126776028D02*
X153626339Y-126875076D01*
X153626339Y-126875076D02*
X153576816Y-126924600D01*
X153576816Y-126924600D02*
X153477768Y-126974123D01*
X153477768Y-126974123D02*
X153081578Y-126974123D01*
X153081578Y-126974123D02*
X153081578Y-125934123D01*
X153081578Y-125934123D02*
X153428244Y-125934123D01*
X153428244Y-125934123D02*
X153527292Y-125983647D01*
X153527292Y-125983647D02*
X153576816Y-126033171D01*
X153576816Y-126033171D02*
X153626339Y-126132219D01*
X153626339Y-126132219D02*
X153626339Y-126231266D01*
X153626339Y-126231266D02*
X153576816Y-126330314D01*
X153576816Y-126330314D02*
X153527292Y-126379838D01*
X153527292Y-126379838D02*
X153428244Y-126429361D01*
X153428244Y-126429361D02*
X153081578Y-126429361D01*
X152591101Y-135730504D02*
X152591101Y-134430504D01*
X152591101Y-134430504D02*
X153333958Y-135730504D01*
X153333958Y-135730504D02*
X153333958Y-134430504D01*
X153767292Y-134430504D02*
X154510149Y-134430504D01*
X154138721Y-135730504D02*
X154138721Y-134430504D01*
X155686339Y-135606695D02*
X155624435Y-135668600D01*
X155624435Y-135668600D02*
X155438720Y-135730504D01*
X155438720Y-135730504D02*
X155314911Y-135730504D01*
X155314911Y-135730504D02*
X155129197Y-135668600D01*
X155129197Y-135668600D02*
X155005387Y-135544790D01*
X155005387Y-135544790D02*
X154943482Y-135420980D01*
X154943482Y-135420980D02*
X154881578Y-135173361D01*
X154881578Y-135173361D02*
X154881578Y-134987647D01*
X154881578Y-134987647D02*
X154943482Y-134740028D01*
X154943482Y-134740028D02*
X155005387Y-134616219D01*
X155005387Y-134616219D02*
X155129197Y-134492409D01*
X155129197Y-134492409D02*
X155314911Y-134430504D01*
X155314911Y-134430504D02*
X155438720Y-134430504D01*
X155438720Y-134430504D02*
X155624435Y-134492409D01*
X155624435Y-134492409D02*
X155686339Y-134554314D01*
X156528244Y-135329361D02*
X156676816Y-135378885D01*
X156676816Y-135378885D02*
X156726339Y-135428409D01*
X156726339Y-135428409D02*
X156775863Y-135527457D01*
X156775863Y-135527457D02*
X156775863Y-135676028D01*
X156775863Y-135676028D02*
X156726339Y-135775076D01*
X156726339Y-135775076D02*
X156676816Y-135824600D01*
X156676816Y-135824600D02*
X156577768Y-135874123D01*
X156577768Y-135874123D02*
X156181578Y-135874123D01*
X156181578Y-135874123D02*
X156181578Y-134834123D01*
X156181578Y-134834123D02*
X156528244Y-134834123D01*
X156528244Y-134834123D02*
X156627292Y-134883647D01*
X156627292Y-134883647D02*
X156676816Y-134933171D01*
X156676816Y-134933171D02*
X156726339Y-135032219D01*
X156726339Y-135032219D02*
X156726339Y-135131266D01*
X156726339Y-135131266D02*
X156676816Y-135230314D01*
X156676816Y-135230314D02*
X156627292Y-135279838D01*
X156627292Y-135279838D02*
X156528244Y-135329361D01*
X156528244Y-135329361D02*
X156181578Y-135329361D01*
X131987618Y-135730504D02*
X131987618Y-134430504D01*
X131987618Y-134430504D02*
X132730475Y-135730504D01*
X132730475Y-135730504D02*
X132730475Y-134430504D01*
X133163809Y-134430504D02*
X133906666Y-134430504D01*
X133535238Y-135730504D02*
X133535238Y-134430504D01*
X135082856Y-135606695D02*
X135020952Y-135668600D01*
X135020952Y-135668600D02*
X134835237Y-135730504D01*
X134835237Y-135730504D02*
X134711428Y-135730504D01*
X134711428Y-135730504D02*
X134525714Y-135668600D01*
X134525714Y-135668600D02*
X134401904Y-135544790D01*
X134401904Y-135544790D02*
X134339999Y-135420980D01*
X134339999Y-135420980D02*
X134278095Y-135173361D01*
X134278095Y-135173361D02*
X134278095Y-134987647D01*
X134278095Y-134987647D02*
X134339999Y-134740028D01*
X134339999Y-134740028D02*
X134401904Y-134616219D01*
X134401904Y-134616219D02*
X134525714Y-134492409D01*
X134525714Y-134492409D02*
X134711428Y-134430504D01*
X134711428Y-134430504D02*
X134835237Y-134430504D01*
X134835237Y-134430504D02*
X135020952Y-134492409D01*
X135020952Y-134492409D02*
X135082856Y-134554314D01*
X135528571Y-135576980D02*
X136023809Y-135576980D01*
X135429523Y-135874123D02*
X135776190Y-134834123D01*
X135776190Y-134834123D02*
X136122856Y-135874123D01*
X121122054Y-134492409D02*
X120998244Y-134430504D01*
X120998244Y-134430504D02*
X120812530Y-134430504D01*
X120812530Y-134430504D02*
X120626816Y-134492409D01*
X120626816Y-134492409D02*
X120503006Y-134616219D01*
X120503006Y-134616219D02*
X120441101Y-134740028D01*
X120441101Y-134740028D02*
X120379197Y-134987647D01*
X120379197Y-134987647D02*
X120379197Y-135173361D01*
X120379197Y-135173361D02*
X120441101Y-135420980D01*
X120441101Y-135420980D02*
X120503006Y-135544790D01*
X120503006Y-135544790D02*
X120626816Y-135668600D01*
X120626816Y-135668600D02*
X120812530Y-135730504D01*
X120812530Y-135730504D02*
X120936339Y-135730504D01*
X120936339Y-135730504D02*
X121122054Y-135668600D01*
X121122054Y-135668600D02*
X121183958Y-135606695D01*
X121183958Y-135606695D02*
X121183958Y-135173361D01*
X121183958Y-135173361D02*
X120936339Y-135173361D01*
X121741101Y-135730504D02*
X121741101Y-134430504D01*
X121741101Y-134430504D02*
X122483958Y-135730504D01*
X122483958Y-135730504D02*
X122483958Y-134430504D01*
X123103006Y-135730504D02*
X123103006Y-134430504D01*
X123103006Y-134430504D02*
X123412530Y-134430504D01*
X123412530Y-134430504D02*
X123598244Y-134492409D01*
X123598244Y-134492409D02*
X123722054Y-134616219D01*
X123722054Y-134616219D02*
X123783959Y-134740028D01*
X123783959Y-134740028D02*
X123845863Y-134987647D01*
X123845863Y-134987647D02*
X123845863Y-135173361D01*
X123845863Y-135173361D02*
X123783959Y-135420980D01*
X123783959Y-135420980D02*
X123722054Y-135544790D01*
X123722054Y-135544790D02*
X123598244Y-135668600D01*
X123598244Y-135668600D02*
X123412530Y-135730504D01*
X123412530Y-135730504D02*
X123103006Y-135730504D01*
X149898524Y-115227909D02*
X149774714Y-115166004D01*
X149774714Y-115166004D02*
X149589000Y-115166004D01*
X149589000Y-115166004D02*
X149403286Y-115227909D01*
X149403286Y-115227909D02*
X149279476Y-115351719D01*
X149279476Y-115351719D02*
X149217571Y-115475528D01*
X149217571Y-115475528D02*
X149155667Y-115723147D01*
X149155667Y-115723147D02*
X149155667Y-115908861D01*
X149155667Y-115908861D02*
X149217571Y-116156480D01*
X149217571Y-116156480D02*
X149279476Y-116280290D01*
X149279476Y-116280290D02*
X149403286Y-116404100D01*
X149403286Y-116404100D02*
X149589000Y-116466004D01*
X149589000Y-116466004D02*
X149712809Y-116466004D01*
X149712809Y-116466004D02*
X149898524Y-116404100D01*
X149898524Y-116404100D02*
X149960428Y-116342195D01*
X149960428Y-116342195D02*
X149960428Y-115908861D01*
X149960428Y-115908861D02*
X149712809Y-115908861D01*
X150517571Y-116466004D02*
X150517571Y-115166004D01*
X150517571Y-115166004D02*
X151260428Y-116466004D01*
X151260428Y-116466004D02*
X151260428Y-115166004D01*
X151879476Y-116466004D02*
X151879476Y-115166004D01*
X151879476Y-115166004D02*
X152189000Y-115166004D01*
X152189000Y-115166004D02*
X152374714Y-115227909D01*
X152374714Y-115227909D02*
X152498524Y-115351719D01*
X152498524Y-115351719D02*
X152560429Y-115475528D01*
X152560429Y-115475528D02*
X152622333Y-115723147D01*
X152622333Y-115723147D02*
X152622333Y-115908861D01*
X152622333Y-115908861D02*
X152560429Y-116156480D01*
X152560429Y-116156480D02*
X152498524Y-116280290D01*
X152498524Y-116280290D02*
X152374714Y-116404100D01*
X152374714Y-116404100D02*
X152189000Y-116466004D01*
X152189000Y-116466004D02*
X151879476Y-116466004D01*
X136486142Y-116566004D02*
X136052809Y-115946957D01*
X135743285Y-116566004D02*
X135743285Y-115266004D01*
X135743285Y-115266004D02*
X136238523Y-115266004D01*
X136238523Y-115266004D02*
X136362333Y-115327909D01*
X136362333Y-115327909D02*
X136424238Y-115389814D01*
X136424238Y-115389814D02*
X136486142Y-115513623D01*
X136486142Y-115513623D02*
X136486142Y-115699338D01*
X136486142Y-115699338D02*
X136424238Y-115823147D01*
X136424238Y-115823147D02*
X136362333Y-115885052D01*
X136362333Y-115885052D02*
X136238523Y-115946957D01*
X136238523Y-115946957D02*
X135743285Y-115946957D01*
X137043285Y-115885052D02*
X137476619Y-115885052D01*
X137662333Y-116566004D02*
X137043285Y-116566004D01*
X137043285Y-116566004D02*
X137043285Y-115266004D01*
X137043285Y-115266004D02*
X137662333Y-115266004D01*
X138652809Y-115885052D02*
X138219475Y-115885052D01*
X138219475Y-116566004D02*
X138219475Y-115266004D01*
X138219475Y-115266004D02*
X138838523Y-115266004D01*
X136486142Y-119066004D02*
X136052809Y-118446957D01*
X135743285Y-119066004D02*
X135743285Y-117766004D01*
X135743285Y-117766004D02*
X136238523Y-117766004D01*
X136238523Y-117766004D02*
X136362333Y-117827909D01*
X136362333Y-117827909D02*
X136424238Y-117889814D01*
X136424238Y-117889814D02*
X136486142Y-118013623D01*
X136486142Y-118013623D02*
X136486142Y-118199338D01*
X136486142Y-118199338D02*
X136424238Y-118323147D01*
X136424238Y-118323147D02*
X136362333Y-118385052D01*
X136362333Y-118385052D02*
X136238523Y-118446957D01*
X136238523Y-118446957D02*
X135743285Y-118446957D01*
X137043285Y-118385052D02*
X137476619Y-118385052D01*
X137662333Y-119066004D02*
X137043285Y-119066004D01*
X137043285Y-119066004D02*
X137043285Y-117766004D01*
X137043285Y-117766004D02*
X137662333Y-117766004D01*
X138652809Y-118385052D02*
X138219475Y-118385052D01*
X138219475Y-119066004D02*
X138219475Y-117766004D01*
X138219475Y-117766004D02*
X138838523Y-117766004D01*
X149898524Y-117727909D02*
X149774714Y-117666004D01*
X149774714Y-117666004D02*
X149589000Y-117666004D01*
X149589000Y-117666004D02*
X149403286Y-117727909D01*
X149403286Y-117727909D02*
X149279476Y-117851719D01*
X149279476Y-117851719D02*
X149217571Y-117975528D01*
X149217571Y-117975528D02*
X149155667Y-118223147D01*
X149155667Y-118223147D02*
X149155667Y-118408861D01*
X149155667Y-118408861D02*
X149217571Y-118656480D01*
X149217571Y-118656480D02*
X149279476Y-118780290D01*
X149279476Y-118780290D02*
X149403286Y-118904100D01*
X149403286Y-118904100D02*
X149589000Y-118966004D01*
X149589000Y-118966004D02*
X149712809Y-118966004D01*
X149712809Y-118966004D02*
X149898524Y-118904100D01*
X149898524Y-118904100D02*
X149960428Y-118842195D01*
X149960428Y-118842195D02*
X149960428Y-118408861D01*
X149960428Y-118408861D02*
X149712809Y-118408861D01*
X150517571Y-118966004D02*
X150517571Y-117666004D01*
X150517571Y-117666004D02*
X151260428Y-118966004D01*
X151260428Y-118966004D02*
X151260428Y-117666004D01*
X151879476Y-118966004D02*
X151879476Y-117666004D01*
X151879476Y-117666004D02*
X152189000Y-117666004D01*
X152189000Y-117666004D02*
X152374714Y-117727909D01*
X152374714Y-117727909D02*
X152498524Y-117851719D01*
X152498524Y-117851719D02*
X152560429Y-117975528D01*
X152560429Y-117975528D02*
X152622333Y-118223147D01*
X152622333Y-118223147D02*
X152622333Y-118408861D01*
X152622333Y-118408861D02*
X152560429Y-118656480D01*
X152560429Y-118656480D02*
X152498524Y-118780290D01*
X152498524Y-118780290D02*
X152374714Y-118904100D01*
X152374714Y-118904100D02*
X152189000Y-118966004D01*
X152189000Y-118966004D02*
X151879476Y-118966004D01*
D11*
X112602129Y-74243472D02*
X113168796Y-74243472D01*
X113411653Y-75133948D02*
X112602129Y-75133948D01*
X112602129Y-75133948D02*
X112602129Y-73433948D01*
X112602129Y-73433948D02*
X113411653Y-73433948D01*
X114140224Y-74000615D02*
X114140224Y-75700615D01*
X114140224Y-74081567D02*
X114302129Y-74000615D01*
X114302129Y-74000615D02*
X114625939Y-74000615D01*
X114625939Y-74000615D02*
X114787843Y-74081567D01*
X114787843Y-74081567D02*
X114868796Y-74162519D01*
X114868796Y-74162519D02*
X114949748Y-74324424D01*
X114949748Y-74324424D02*
X114949748Y-74810138D01*
X114949748Y-74810138D02*
X114868796Y-74972043D01*
X114868796Y-74972043D02*
X114787843Y-75052996D01*
X114787843Y-75052996D02*
X114625939Y-75133948D01*
X114625939Y-75133948D02*
X114302129Y-75133948D01*
X114302129Y-75133948D02*
X114140224Y-75052996D01*
X115678319Y-75133948D02*
X115678319Y-73433948D01*
X116406891Y-75133948D02*
X116406891Y-74243472D01*
X116406891Y-74243472D02*
X116325938Y-74081567D01*
X116325938Y-74081567D02*
X116164034Y-74000615D01*
X116164034Y-74000615D02*
X115921177Y-74000615D01*
X115921177Y-74000615D02*
X115759272Y-74081567D01*
X115759272Y-74081567D02*
X115678319Y-74162519D01*
X117054510Y-74000615D02*
X117459272Y-75133948D01*
X117864033Y-74000615D02*
X117459272Y-75133948D01*
X117459272Y-75133948D02*
X117297367Y-75538710D01*
X117297367Y-75538710D02*
X117216414Y-75619662D01*
X117216414Y-75619662D02*
X117054510Y-75700615D01*
X118430700Y-75052996D02*
X118592605Y-75133948D01*
X118592605Y-75133948D02*
X118916414Y-75133948D01*
X118916414Y-75133948D02*
X119078319Y-75052996D01*
X119078319Y-75052996D02*
X119159271Y-74891091D01*
X119159271Y-74891091D02*
X119159271Y-74810138D01*
X119159271Y-74810138D02*
X119078319Y-74648234D01*
X119078319Y-74648234D02*
X118916414Y-74567281D01*
X118916414Y-74567281D02*
X118673557Y-74567281D01*
X118673557Y-74567281D02*
X118511652Y-74486329D01*
X118511652Y-74486329D02*
X118430700Y-74324424D01*
X118430700Y-74324424D02*
X118430700Y-74243472D01*
X118430700Y-74243472D02*
X118511652Y-74081567D01*
X118511652Y-74081567D02*
X118673557Y-74000615D01*
X118673557Y-74000615D02*
X118916414Y-74000615D01*
X118916414Y-74000615D02*
X119078319Y-74081567D01*
X120940223Y-73433948D02*
X121911652Y-73433948D01*
X121425938Y-75133948D02*
X121425938Y-73433948D01*
X123125937Y-75052996D02*
X122964033Y-75133948D01*
X122964033Y-75133948D02*
X122640223Y-75133948D01*
X122640223Y-75133948D02*
X122478318Y-75052996D01*
X122478318Y-75052996D02*
X122397366Y-74891091D01*
X122397366Y-74891091D02*
X122397366Y-74243472D01*
X122397366Y-74243472D02*
X122478318Y-74081567D01*
X122478318Y-74081567D02*
X122640223Y-74000615D01*
X122640223Y-74000615D02*
X122964033Y-74000615D01*
X122964033Y-74000615D02*
X123125937Y-74081567D01*
X123125937Y-74081567D02*
X123206890Y-74243472D01*
X123206890Y-74243472D02*
X123206890Y-74405376D01*
X123206890Y-74405376D02*
X122397366Y-74567281D01*
X123854509Y-75052996D02*
X124016414Y-75133948D01*
X124016414Y-75133948D02*
X124340223Y-75133948D01*
X124340223Y-75133948D02*
X124502128Y-75052996D01*
X124502128Y-75052996D02*
X124583080Y-74891091D01*
X124583080Y-74891091D02*
X124583080Y-74810138D01*
X124583080Y-74810138D02*
X124502128Y-74648234D01*
X124502128Y-74648234D02*
X124340223Y-74567281D01*
X124340223Y-74567281D02*
X124097366Y-74567281D01*
X124097366Y-74567281D02*
X123935461Y-74486329D01*
X123935461Y-74486329D02*
X123854509Y-74324424D01*
X123854509Y-74324424D02*
X123854509Y-74243472D01*
X123854509Y-74243472D02*
X123935461Y-74081567D01*
X123935461Y-74081567D02*
X124097366Y-74000615D01*
X124097366Y-74000615D02*
X124340223Y-74000615D01*
X124340223Y-74000615D02*
X124502128Y-74081567D01*
X125068794Y-74000615D02*
X125716413Y-74000615D01*
X125311651Y-73433948D02*
X125311651Y-74891091D01*
X125311651Y-74891091D02*
X125392604Y-75052996D01*
X125392604Y-75052996D02*
X125554509Y-75133948D01*
X125554509Y-75133948D02*
X125716413Y-75133948D01*
X127578318Y-75133948D02*
X127578318Y-73433948D01*
X127578318Y-73433948D02*
X128144985Y-74648234D01*
X128144985Y-74648234D02*
X128711652Y-73433948D01*
X128711652Y-73433948D02*
X128711652Y-75133948D01*
X129764033Y-75133948D02*
X129602128Y-75052996D01*
X129602128Y-75052996D02*
X129521175Y-74972043D01*
X129521175Y-74972043D02*
X129440223Y-74810138D01*
X129440223Y-74810138D02*
X129440223Y-74324424D01*
X129440223Y-74324424D02*
X129521175Y-74162519D01*
X129521175Y-74162519D02*
X129602128Y-74081567D01*
X129602128Y-74081567D02*
X129764033Y-74000615D01*
X129764033Y-74000615D02*
X130006890Y-74000615D01*
X130006890Y-74000615D02*
X130168794Y-74081567D01*
X130168794Y-74081567D02*
X130249747Y-74162519D01*
X130249747Y-74162519D02*
X130330699Y-74324424D01*
X130330699Y-74324424D02*
X130330699Y-74810138D01*
X130330699Y-74810138D02*
X130249747Y-74972043D01*
X130249747Y-74972043D02*
X130168794Y-75052996D01*
X130168794Y-75052996D02*
X130006890Y-75133948D01*
X130006890Y-75133948D02*
X129764033Y-75133948D01*
X131787842Y-75133948D02*
X131787842Y-73433948D01*
X131787842Y-75052996D02*
X131625937Y-75133948D01*
X131625937Y-75133948D02*
X131302128Y-75133948D01*
X131302128Y-75133948D02*
X131140223Y-75052996D01*
X131140223Y-75052996D02*
X131059270Y-74972043D01*
X131059270Y-74972043D02*
X130978318Y-74810138D01*
X130978318Y-74810138D02*
X130978318Y-74324424D01*
X130978318Y-74324424D02*
X131059270Y-74162519D01*
X131059270Y-74162519D02*
X131140223Y-74081567D01*
X131140223Y-74081567D02*
X131302128Y-74000615D01*
X131302128Y-74000615D02*
X131625937Y-74000615D01*
X131625937Y-74000615D02*
X131787842Y-74081567D01*
X133325937Y-74000615D02*
X133325937Y-75133948D01*
X132597365Y-74000615D02*
X132597365Y-74891091D01*
X132597365Y-74891091D02*
X132678318Y-75052996D01*
X132678318Y-75052996D02*
X132840223Y-75133948D01*
X132840223Y-75133948D02*
X133083080Y-75133948D01*
X133083080Y-75133948D02*
X133244984Y-75052996D01*
X133244984Y-75052996D02*
X133325937Y-74972043D01*
X134378318Y-75133948D02*
X134216413Y-75052996D01*
X134216413Y-75052996D02*
X134135460Y-74891091D01*
X134135460Y-74891091D02*
X134135460Y-73433948D01*
X135673555Y-75052996D02*
X135511651Y-75133948D01*
X135511651Y-75133948D02*
X135187841Y-75133948D01*
X135187841Y-75133948D02*
X135025936Y-75052996D01*
X135025936Y-75052996D02*
X134944984Y-74891091D01*
X134944984Y-74891091D02*
X134944984Y-74243472D01*
X134944984Y-74243472D02*
X135025936Y-74081567D01*
X135025936Y-74081567D02*
X135187841Y-74000615D01*
X135187841Y-74000615D02*
X135511651Y-74000615D01*
X135511651Y-74000615D02*
X135673555Y-74081567D01*
X135673555Y-74081567D02*
X135754508Y-74243472D01*
X135754508Y-74243472D02*
X135754508Y-74405376D01*
X135754508Y-74405376D02*
X134944984Y-74567281D01*
X112602129Y-77870853D02*
X112602129Y-76170853D01*
X112602129Y-76170853D02*
X113168796Y-77385139D01*
X113168796Y-77385139D02*
X113735463Y-76170853D01*
X113735463Y-76170853D02*
X113735463Y-77870853D01*
X114787844Y-77870853D02*
X114625939Y-77789901D01*
X114625939Y-77789901D02*
X114544986Y-77708948D01*
X114544986Y-77708948D02*
X114464034Y-77547043D01*
X114464034Y-77547043D02*
X114464034Y-77061329D01*
X114464034Y-77061329D02*
X114544986Y-76899424D01*
X114544986Y-76899424D02*
X114625939Y-76818472D01*
X114625939Y-76818472D02*
X114787844Y-76737520D01*
X114787844Y-76737520D02*
X115030701Y-76737520D01*
X115030701Y-76737520D02*
X115192605Y-76818472D01*
X115192605Y-76818472D02*
X115273558Y-76899424D01*
X115273558Y-76899424D02*
X115354510Y-77061329D01*
X115354510Y-77061329D02*
X115354510Y-77547043D01*
X115354510Y-77547043D02*
X115273558Y-77708948D01*
X115273558Y-77708948D02*
X115192605Y-77789901D01*
X115192605Y-77789901D02*
X115030701Y-77870853D01*
X115030701Y-77870853D02*
X114787844Y-77870853D01*
X116325939Y-77870853D02*
X116164034Y-77789901D01*
X116164034Y-77789901D02*
X116083081Y-77627996D01*
X116083081Y-77627996D02*
X116083081Y-76170853D01*
X117621176Y-77789901D02*
X117459272Y-77870853D01*
X117459272Y-77870853D02*
X117135462Y-77870853D01*
X117135462Y-77870853D02*
X116973557Y-77789901D01*
X116973557Y-77789901D02*
X116892605Y-77627996D01*
X116892605Y-77627996D02*
X116892605Y-76980377D01*
X116892605Y-76980377D02*
X116973557Y-76818472D01*
X116973557Y-76818472D02*
X117135462Y-76737520D01*
X117135462Y-76737520D02*
X117459272Y-76737520D01*
X117459272Y-76737520D02*
X117621176Y-76818472D01*
X117621176Y-76818472D02*
X117702129Y-76980377D01*
X117702129Y-76980377D02*
X117702129Y-77142281D01*
X117702129Y-77142281D02*
X116892605Y-77304186D01*
X118268796Y-77870853D02*
X119159272Y-76737520D01*
X118268796Y-76737520D02*
X119159272Y-77870853D01*
X121911652Y-76170853D02*
X121102128Y-76170853D01*
X121102128Y-76170853D02*
X121021176Y-76980377D01*
X121021176Y-76980377D02*
X121102128Y-76899424D01*
X121102128Y-76899424D02*
X121264033Y-76818472D01*
X121264033Y-76818472D02*
X121668795Y-76818472D01*
X121668795Y-76818472D02*
X121830700Y-76899424D01*
X121830700Y-76899424D02*
X121911652Y-76980377D01*
X121911652Y-76980377D02*
X121992605Y-77142281D01*
X121992605Y-77142281D02*
X121992605Y-77547043D01*
X121992605Y-77547043D02*
X121911652Y-77708948D01*
X121911652Y-77708948D02*
X121830700Y-77789901D01*
X121830700Y-77789901D02*
X121668795Y-77870853D01*
X121668795Y-77870853D02*
X121264033Y-77870853D01*
X121264033Y-77870853D02*
X121102128Y-77789901D01*
X121102128Y-77789901D02*
X121021176Y-77708948D01*
X123044986Y-76170853D02*
X123206891Y-76170853D01*
X123206891Y-76170853D02*
X123368795Y-76251805D01*
X123368795Y-76251805D02*
X123449748Y-76332758D01*
X123449748Y-76332758D02*
X123530700Y-76494662D01*
X123530700Y-76494662D02*
X123611653Y-76818472D01*
X123611653Y-76818472D02*
X123611653Y-77223234D01*
X123611653Y-77223234D02*
X123530700Y-77547043D01*
X123530700Y-77547043D02*
X123449748Y-77708948D01*
X123449748Y-77708948D02*
X123368795Y-77789901D01*
X123368795Y-77789901D02*
X123206891Y-77870853D01*
X123206891Y-77870853D02*
X123044986Y-77870853D01*
X123044986Y-77870853D02*
X122883081Y-77789901D01*
X122883081Y-77789901D02*
X122802129Y-77708948D01*
X122802129Y-77708948D02*
X122721176Y-77547043D01*
X122721176Y-77547043D02*
X122640224Y-77223234D01*
X122640224Y-77223234D02*
X122640224Y-76818472D01*
X122640224Y-76818472D02*
X122721176Y-76494662D01*
X122721176Y-76494662D02*
X122802129Y-76332758D01*
X122802129Y-76332758D02*
X122883081Y-76251805D01*
X122883081Y-76251805D02*
X123044986Y-76170853D01*
X125068796Y-76737520D02*
X125068796Y-77870853D01*
X124664034Y-76089901D02*
X124259272Y-77304186D01*
X124259272Y-77304186D02*
X125311653Y-77304186D01*
X126283082Y-76170853D02*
X126444987Y-76170853D01*
X126444987Y-76170853D02*
X126606891Y-76251805D01*
X126606891Y-76251805D02*
X126687844Y-76332758D01*
X126687844Y-76332758D02*
X126768796Y-76494662D01*
X126768796Y-76494662D02*
X126849749Y-76818472D01*
X126849749Y-76818472D02*
X126849749Y-77223234D01*
X126849749Y-77223234D02*
X126768796Y-77547043D01*
X126768796Y-77547043D02*
X126687844Y-77708948D01*
X126687844Y-77708948D02*
X126606891Y-77789901D01*
X126606891Y-77789901D02*
X126444987Y-77870853D01*
X126444987Y-77870853D02*
X126283082Y-77870853D01*
X126283082Y-77870853D02*
X126121177Y-77789901D01*
X126121177Y-77789901D02*
X126040225Y-77708948D01*
X126040225Y-77708948D02*
X125959272Y-77547043D01*
X125959272Y-77547043D02*
X125878320Y-77223234D01*
X125878320Y-77223234D02*
X125878320Y-76818472D01*
X125878320Y-76818472D02*
X125959272Y-76494662D01*
X125959272Y-76494662D02*
X126040225Y-76332758D01*
X126040225Y-76332758D02*
X126121177Y-76251805D01*
X126121177Y-76251805D02*
X126283082Y-76170853D01*
X127416416Y-76170853D02*
X128549749Y-76170853D01*
X128549749Y-76170853D02*
X127821178Y-77870853D01*
X129521178Y-76170853D02*
X129683083Y-76170853D01*
X129683083Y-76170853D02*
X129844987Y-76251805D01*
X129844987Y-76251805D02*
X129925940Y-76332758D01*
X129925940Y-76332758D02*
X130006892Y-76494662D01*
X130006892Y-76494662D02*
X130087845Y-76818472D01*
X130087845Y-76818472D02*
X130087845Y-77223234D01*
X130087845Y-77223234D02*
X130006892Y-77547043D01*
X130006892Y-77547043D02*
X129925940Y-77708948D01*
X129925940Y-77708948D02*
X129844987Y-77789901D01*
X129844987Y-77789901D02*
X129683083Y-77870853D01*
X129683083Y-77870853D02*
X129521178Y-77870853D01*
X129521178Y-77870853D02*
X129359273Y-77789901D01*
X129359273Y-77789901D02*
X129278321Y-77708948D01*
X129278321Y-77708948D02*
X129197368Y-77547043D01*
X129197368Y-77547043D02*
X129116416Y-77223234D01*
X129116416Y-77223234D02*
X129116416Y-76818472D01*
X129116416Y-76818472D02*
X129197368Y-76494662D01*
X129197368Y-76494662D02*
X129278321Y-76332758D01*
X129278321Y-76332758D02*
X129359273Y-76251805D01*
X129359273Y-76251805D02*
X129521178Y-76170853D01*
X131949750Y-76170853D02*
X133002131Y-76170853D01*
X133002131Y-76170853D02*
X132435464Y-76818472D01*
X132435464Y-76818472D02*
X132678321Y-76818472D01*
X132678321Y-76818472D02*
X132840226Y-76899424D01*
X132840226Y-76899424D02*
X132921178Y-76980377D01*
X132921178Y-76980377D02*
X133002131Y-77142281D01*
X133002131Y-77142281D02*
X133002131Y-77547043D01*
X133002131Y-77547043D02*
X132921178Y-77708948D01*
X132921178Y-77708948D02*
X132840226Y-77789901D01*
X132840226Y-77789901D02*
X132678321Y-77870853D01*
X132678321Y-77870853D02*
X132192607Y-77870853D01*
X132192607Y-77870853D02*
X132030702Y-77789901D01*
X132030702Y-77789901D02*
X131949750Y-77708948D01*
X133649750Y-76332758D02*
X133730702Y-76251805D01*
X133730702Y-76251805D02*
X133892607Y-76170853D01*
X133892607Y-76170853D02*
X134297369Y-76170853D01*
X134297369Y-76170853D02*
X134459274Y-76251805D01*
X134459274Y-76251805D02*
X134540226Y-76332758D01*
X134540226Y-76332758D02*
X134621179Y-76494662D01*
X134621179Y-76494662D02*
X134621179Y-76656567D01*
X134621179Y-76656567D02*
X134540226Y-76899424D01*
X134540226Y-76899424D02*
X133568798Y-77870853D01*
X133568798Y-77870853D02*
X134621179Y-77870853D01*
X137616417Y-77708948D02*
X137535465Y-77789901D01*
X137535465Y-77789901D02*
X137292607Y-77870853D01*
X137292607Y-77870853D02*
X137130703Y-77870853D01*
X137130703Y-77870853D02*
X136887846Y-77789901D01*
X136887846Y-77789901D02*
X136725941Y-77627996D01*
X136725941Y-77627996D02*
X136644988Y-77466091D01*
X136644988Y-77466091D02*
X136564036Y-77142281D01*
X136564036Y-77142281D02*
X136564036Y-76899424D01*
X136564036Y-76899424D02*
X136644988Y-76575615D01*
X136644988Y-76575615D02*
X136725941Y-76413710D01*
X136725941Y-76413710D02*
X136887846Y-76251805D01*
X136887846Y-76251805D02*
X137130703Y-76170853D01*
X137130703Y-76170853D02*
X137292607Y-76170853D01*
X137292607Y-76170853D02*
X137535465Y-76251805D01*
X137535465Y-76251805D02*
X137616417Y-76332758D01*
X138344988Y-77870853D02*
X138344988Y-76170853D01*
X139073560Y-77870853D02*
X139073560Y-76980377D01*
X139073560Y-76980377D02*
X138992607Y-76818472D01*
X138992607Y-76818472D02*
X138830703Y-76737520D01*
X138830703Y-76737520D02*
X138587846Y-76737520D01*
X138587846Y-76737520D02*
X138425941Y-76818472D01*
X138425941Y-76818472D02*
X138344988Y-76899424D01*
X139883083Y-77708948D02*
X139964036Y-77789901D01*
X139964036Y-77789901D02*
X139883083Y-77870853D01*
X139883083Y-77870853D02*
X139802131Y-77789901D01*
X139802131Y-77789901D02*
X139883083Y-77708948D01*
X139883083Y-77708948D02*
X139883083Y-77870853D01*
X113573558Y-80607758D02*
X113006891Y-79798234D01*
X112602129Y-80607758D02*
X112602129Y-78907758D01*
X112602129Y-78907758D02*
X113249748Y-78907758D01*
X113249748Y-78907758D02*
X113411653Y-78988710D01*
X113411653Y-78988710D02*
X113492606Y-79069663D01*
X113492606Y-79069663D02*
X113573558Y-79231567D01*
X113573558Y-79231567D02*
X113573558Y-79474425D01*
X113573558Y-79474425D02*
X113492606Y-79636329D01*
X113492606Y-79636329D02*
X113411653Y-79717282D01*
X113411653Y-79717282D02*
X113249748Y-79798234D01*
X113249748Y-79798234D02*
X112602129Y-79798234D01*
X114949748Y-80526806D02*
X114787844Y-80607758D01*
X114787844Y-80607758D02*
X114464034Y-80607758D01*
X114464034Y-80607758D02*
X114302129Y-80526806D01*
X114302129Y-80526806D02*
X114221177Y-80364901D01*
X114221177Y-80364901D02*
X114221177Y-79717282D01*
X114221177Y-79717282D02*
X114302129Y-79555377D01*
X114302129Y-79555377D02*
X114464034Y-79474425D01*
X114464034Y-79474425D02*
X114787844Y-79474425D01*
X114787844Y-79474425D02*
X114949748Y-79555377D01*
X114949748Y-79555377D02*
X115030701Y-79717282D01*
X115030701Y-79717282D02*
X115030701Y-79879186D01*
X115030701Y-79879186D02*
X114221177Y-80041091D01*
X115597368Y-79474425D02*
X116002130Y-80607758D01*
X116002130Y-80607758D02*
X116406891Y-79474425D01*
X117054510Y-80445853D02*
X117135463Y-80526806D01*
X117135463Y-80526806D02*
X117054510Y-80607758D01*
X117054510Y-80607758D02*
X116973558Y-80526806D01*
X116973558Y-80526806D02*
X117054510Y-80445853D01*
X117054510Y-80445853D02*
X117054510Y-80607758D01*
X119078320Y-80122044D02*
X119887844Y-80122044D01*
X118916415Y-80607758D02*
X119483082Y-78907758D01*
X119483082Y-78907758D02*
X120049749Y-80607758D01*
D12*
X143866666Y-95954819D02*
X143866666Y-96669104D01*
X143866666Y-96669104D02*
X143819047Y-96811961D01*
X143819047Y-96811961D02*
X143723809Y-96907200D01*
X143723809Y-96907200D02*
X143580952Y-96954819D01*
X143580952Y-96954819D02*
X143485714Y-96954819D01*
X144295238Y-96050057D02*
X144342857Y-96002438D01*
X144342857Y-96002438D02*
X144438095Y-95954819D01*
X144438095Y-95954819D02*
X144676190Y-95954819D01*
X144676190Y-95954819D02*
X144771428Y-96002438D01*
X144771428Y-96002438D02*
X144819047Y-96050057D01*
X144819047Y-96050057D02*
X144866666Y-96145295D01*
X144866666Y-96145295D02*
X144866666Y-96240533D01*
X144866666Y-96240533D02*
X144819047Y-96383390D01*
X144819047Y-96383390D02*
X144247619Y-96954819D01*
X144247619Y-96954819D02*
X144866666Y-96954819D01*
X147888095Y-129454819D02*
X148459523Y-129454819D01*
X148173809Y-130454819D02*
X148173809Y-129454819D01*
X148792857Y-130454819D02*
X148792857Y-129454819D01*
X148792857Y-129454819D02*
X149173809Y-129454819D01*
X149173809Y-129454819D02*
X149269047Y-129502438D01*
X149269047Y-129502438D02*
X149316666Y-129550057D01*
X149316666Y-129550057D02*
X149364285Y-129645295D01*
X149364285Y-129645295D02*
X149364285Y-129788152D01*
X149364285Y-129788152D02*
X149316666Y-129883390D01*
X149316666Y-129883390D02*
X149269047Y-129931009D01*
X149269047Y-129931009D02*
X149173809Y-129978628D01*
X149173809Y-129978628D02*
X148792857Y-129978628D01*
X149745238Y-129550057D02*
X149792857Y-129502438D01*
X149792857Y-129502438D02*
X149888095Y-129454819D01*
X149888095Y-129454819D02*
X150126190Y-129454819D01*
X150126190Y-129454819D02*
X150221428Y-129502438D01*
X150221428Y-129502438D02*
X150269047Y-129550057D01*
X150269047Y-129550057D02*
X150316666Y-129645295D01*
X150316666Y-129645295D02*
X150316666Y-129740533D01*
X150316666Y-129740533D02*
X150269047Y-129883390D01*
X150269047Y-129883390D02*
X149697619Y-130454819D01*
X149697619Y-130454819D02*
X150316666Y-130454819D01*
X137888095Y-129454819D02*
X138459523Y-129454819D01*
X138173809Y-130454819D02*
X138173809Y-129454819D01*
X138792857Y-130454819D02*
X138792857Y-129454819D01*
X138792857Y-129454819D02*
X139173809Y-129454819D01*
X139173809Y-129454819D02*
X139269047Y-129502438D01*
X139269047Y-129502438D02*
X139316666Y-129550057D01*
X139316666Y-129550057D02*
X139364285Y-129645295D01*
X139364285Y-129645295D02*
X139364285Y-129788152D01*
X139364285Y-129788152D02*
X139316666Y-129883390D01*
X139316666Y-129883390D02*
X139269047Y-129931009D01*
X139269047Y-129931009D02*
X139173809Y-129978628D01*
X139173809Y-129978628D02*
X138792857Y-129978628D01*
X140316666Y-130454819D02*
X139745238Y-130454819D01*
X140030952Y-130454819D02*
X140030952Y-129454819D01*
X140030952Y-129454819D02*
X139935714Y-129597676D01*
X139935714Y-129597676D02*
X139840476Y-129692914D01*
X139840476Y-129692914D02*
X139745238Y-129740533D01*
X143816666Y-120904819D02*
X143816666Y-121619104D01*
X143816666Y-121619104D02*
X143769047Y-121761961D01*
X143769047Y-121761961D02*
X143673809Y-121857200D01*
X143673809Y-121857200D02*
X143530952Y-121904819D01*
X143530952Y-121904819D02*
X143435714Y-121904819D01*
X144816666Y-121904819D02*
X144245238Y-121904819D01*
X144530952Y-121904819D02*
X144530952Y-120904819D01*
X144530952Y-120904819D02*
X144435714Y-121047676D01*
X144435714Y-121047676D02*
X144340476Y-121142914D01*
X144340476Y-121142914D02*
X144245238Y-121190533D01*
X143666666Y-113054819D02*
X143666666Y-113769104D01*
X143666666Y-113769104D02*
X143619047Y-113911961D01*
X143619047Y-113911961D02*
X143523809Y-114007200D01*
X143523809Y-114007200D02*
X143380952Y-114054819D01*
X143380952Y-114054819D02*
X143285714Y-114054819D01*
X144047619Y-113054819D02*
X144666666Y-113054819D01*
X144666666Y-113054819D02*
X144333333Y-113435771D01*
X144333333Y-113435771D02*
X144476190Y-113435771D01*
X144476190Y-113435771D02*
X144571428Y-113483390D01*
X144571428Y-113483390D02*
X144619047Y-113531009D01*
X144619047Y-113531009D02*
X144666666Y-113626247D01*
X144666666Y-113626247D02*
X144666666Y-113864342D01*
X144666666Y-113864342D02*
X144619047Y-113959580D01*
X144619047Y-113959580D02*
X144571428Y-114007200D01*
X144571428Y-114007200D02*
X144476190Y-114054819D01*
X144476190Y-114054819D02*
X144190476Y-114054819D01*
X144190476Y-114054819D02*
X144095238Y-114007200D01*
X144095238Y-114007200D02*
X144047619Y-113959580D01*
X125838095Y-129554819D02*
X126409523Y-129554819D01*
X126123809Y-130554819D02*
X126123809Y-129554819D01*
X126742857Y-130554819D02*
X126742857Y-129554819D01*
X126742857Y-129554819D02*
X127123809Y-129554819D01*
X127123809Y-129554819D02*
X127219047Y-129602438D01*
X127219047Y-129602438D02*
X127266666Y-129650057D01*
X127266666Y-129650057D02*
X127314285Y-129745295D01*
X127314285Y-129745295D02*
X127314285Y-129888152D01*
X127314285Y-129888152D02*
X127266666Y-129983390D01*
X127266666Y-129983390D02*
X127219047Y-130031009D01*
X127219047Y-130031009D02*
X127123809Y-130078628D01*
X127123809Y-130078628D02*
X126742857Y-130078628D01*
X127647619Y-129554819D02*
X128266666Y-129554819D01*
X128266666Y-129554819D02*
X127933333Y-129935771D01*
X127933333Y-129935771D02*
X128076190Y-129935771D01*
X128076190Y-129935771D02*
X128171428Y-129983390D01*
X128171428Y-129983390D02*
X128219047Y-130031009D01*
X128219047Y-130031009D02*
X128266666Y-130126247D01*
X128266666Y-130126247D02*
X128266666Y-130364342D01*
X128266666Y-130364342D02*
X128219047Y-130459580D01*
X128219047Y-130459580D02*
X128171428Y-130507200D01*
X128171428Y-130507200D02*
X128076190Y-130554819D01*
X128076190Y-130554819D02*
X127790476Y-130554819D01*
X127790476Y-130554819D02*
X127695238Y-130507200D01*
X127695238Y-130507200D02*
X127647619Y-130459580D01*
X126054819Y-126461904D02*
X126864342Y-126461904D01*
X126864342Y-126461904D02*
X126959580Y-126414285D01*
X126959580Y-126414285D02*
X127007200Y-126366666D01*
X127007200Y-126366666D02*
X127054819Y-126271428D01*
X127054819Y-126271428D02*
X127054819Y-126080952D01*
X127054819Y-126080952D02*
X127007200Y-125985714D01*
X127007200Y-125985714D02*
X126959580Y-125938095D01*
X126959580Y-125938095D02*
X126864342Y-125890476D01*
X126864342Y-125890476D02*
X126054819Y-125890476D01*
X127054819Y-124890476D02*
X127054819Y-125461904D01*
X127054819Y-125176190D02*
X126054819Y-125176190D01*
X126054819Y-125176190D02*
X126197676Y-125271428D01*
X126197676Y-125271428D02*
X126292914Y-125366666D01*
X126292914Y-125366666D02*
X126340533Y-125461904D01*
X120733333Y-120354819D02*
X120400000Y-119878628D01*
X120161905Y-120354819D02*
X120161905Y-119354819D01*
X120161905Y-119354819D02*
X120542857Y-119354819D01*
X120542857Y-119354819D02*
X120638095Y-119402438D01*
X120638095Y-119402438D02*
X120685714Y-119450057D01*
X120685714Y-119450057D02*
X120733333Y-119545295D01*
X120733333Y-119545295D02*
X120733333Y-119688152D01*
X120733333Y-119688152D02*
X120685714Y-119783390D01*
X120685714Y-119783390D02*
X120638095Y-119831009D01*
X120638095Y-119831009D02*
X120542857Y-119878628D01*
X120542857Y-119878628D02*
X120161905Y-119878628D01*
X121114286Y-119450057D02*
X121161905Y-119402438D01*
X121161905Y-119402438D02*
X121257143Y-119354819D01*
X121257143Y-119354819D02*
X121495238Y-119354819D01*
X121495238Y-119354819D02*
X121590476Y-119402438D01*
X121590476Y-119402438D02*
X121638095Y-119450057D01*
X121638095Y-119450057D02*
X121685714Y-119545295D01*
X121685714Y-119545295D02*
X121685714Y-119640533D01*
X121685714Y-119640533D02*
X121638095Y-119783390D01*
X121638095Y-119783390D02*
X121066667Y-120354819D01*
X121066667Y-120354819D02*
X121685714Y-120354819D01*
X119333333Y-121654819D02*
X119000000Y-121178628D01*
X118761905Y-121654819D02*
X118761905Y-120654819D01*
X118761905Y-120654819D02*
X119142857Y-120654819D01*
X119142857Y-120654819D02*
X119238095Y-120702438D01*
X119238095Y-120702438D02*
X119285714Y-120750057D01*
X119285714Y-120750057D02*
X119333333Y-120845295D01*
X119333333Y-120845295D02*
X119333333Y-120988152D01*
X119333333Y-120988152D02*
X119285714Y-121083390D01*
X119285714Y-121083390D02*
X119238095Y-121131009D01*
X119238095Y-121131009D02*
X119142857Y-121178628D01*
X119142857Y-121178628D02*
X118761905Y-121178628D01*
X120285714Y-121654819D02*
X119714286Y-121654819D01*
X120000000Y-121654819D02*
X120000000Y-120654819D01*
X120000000Y-120654819D02*
X119904762Y-120797676D01*
X119904762Y-120797676D02*
X119809524Y-120892914D01*
X119809524Y-120892914D02*
X119714286Y-120940533D01*
X121933333Y-118874819D02*
X121600000Y-118398628D01*
X121361905Y-118874819D02*
X121361905Y-117874819D01*
X121361905Y-117874819D02*
X121742857Y-117874819D01*
X121742857Y-117874819D02*
X121838095Y-117922438D01*
X121838095Y-117922438D02*
X121885714Y-117970057D01*
X121885714Y-117970057D02*
X121933333Y-118065295D01*
X121933333Y-118065295D02*
X121933333Y-118208152D01*
X121933333Y-118208152D02*
X121885714Y-118303390D01*
X121885714Y-118303390D02*
X121838095Y-118351009D01*
X121838095Y-118351009D02*
X121742857Y-118398628D01*
X121742857Y-118398628D02*
X121361905Y-118398628D01*
X122266667Y-117874819D02*
X122885714Y-117874819D01*
X122885714Y-117874819D02*
X122552381Y-118255771D01*
X122552381Y-118255771D02*
X122695238Y-118255771D01*
X122695238Y-118255771D02*
X122790476Y-118303390D01*
X122790476Y-118303390D02*
X122838095Y-118351009D01*
X122838095Y-118351009D02*
X122885714Y-118446247D01*
X122885714Y-118446247D02*
X122885714Y-118684342D01*
X122885714Y-118684342D02*
X122838095Y-118779580D01*
X122838095Y-118779580D02*
X122790476Y-118827200D01*
X122790476Y-118827200D02*
X122695238Y-118874819D01*
X122695238Y-118874819D02*
X122409524Y-118874819D01*
X122409524Y-118874819D02*
X122314286Y-118827200D01*
X122314286Y-118827200D02*
X122266667Y-118779580D01*
X118659580Y-125866666D02*
X118707200Y-125914285D01*
X118707200Y-125914285D02*
X118754819Y-126057142D01*
X118754819Y-126057142D02*
X118754819Y-126152380D01*
X118754819Y-126152380D02*
X118707200Y-126295237D01*
X118707200Y-126295237D02*
X118611961Y-126390475D01*
X118611961Y-126390475D02*
X118516723Y-126438094D01*
X118516723Y-126438094D02*
X118326247Y-126485713D01*
X118326247Y-126485713D02*
X118183390Y-126485713D01*
X118183390Y-126485713D02*
X117992914Y-126438094D01*
X117992914Y-126438094D02*
X117897676Y-126390475D01*
X117897676Y-126390475D02*
X117802438Y-126295237D01*
X117802438Y-126295237D02*
X117754819Y-126152380D01*
X117754819Y-126152380D02*
X117754819Y-126057142D01*
X117754819Y-126057142D02*
X117802438Y-125914285D01*
X117802438Y-125914285D02*
X117850057Y-125866666D01*
X118754819Y-124914285D02*
X118754819Y-125485713D01*
X118754819Y-125199999D02*
X117754819Y-125199999D01*
X117754819Y-125199999D02*
X117897676Y-125295237D01*
X117897676Y-125295237D02*
X117992914Y-125390475D01*
X117992914Y-125390475D02*
X118040533Y-125485713D01*
D13*
%TO.C,J2*%
X142650000Y-106750001D02*
X142650000Y-106250002D01*
X144696404Y-106750001D02*
X142650000Y-106750001D01*
X142650000Y-98149998D02*
X142650000Y-97649999D01*
X142650000Y-97649999D02*
X144696404Y-97649999D01*
%TO.C,TP2*%
X151850000Y-134000000D02*
G75*
G02*
X146450000Y-134000000I-2700000J0D01*
G01*
X146450000Y-134000000D02*
G75*
G02*
X151850000Y-134000000I2700000J0D01*
G01*
%TO.C,TP1*%
X141850000Y-134000000D02*
G75*
G02*
X136450000Y-134000000I-2700000J0D01*
G01*
X136450000Y-134000000D02*
G75*
G02*
X141850000Y-134000000I2700000J0D01*
G01*
%TO.C,H1*%
D14*
X112600000Y-82800000D02*
X133000000Y-82800000D01*
X133000000Y-91200000D01*
X112600000Y-91200000D01*
X112600000Y-82800000D01*
D13*
%TO.C,J1*%
X146800000Y-127180000D02*
X146800000Y-127750000D01*
X146800000Y-124640000D02*
X146800000Y-125560000D01*
X146800000Y-122450000D02*
X146800000Y-123020000D01*
X141500000Y-127750000D02*
X146800000Y-127750000D01*
X141500000Y-127180000D02*
X141500000Y-127750000D01*
X141500000Y-124640000D02*
X141500000Y-125560000D01*
X141500000Y-122450000D02*
X146800000Y-122450000D01*
X141500000Y-122450000D02*
X141500000Y-123020000D01*
X140110000Y-123020000D02*
X141500000Y-123020000D01*
%TO.C,J3*%
X146650000Y-119280000D02*
X146650000Y-119850000D01*
X146650000Y-116740000D02*
X146650000Y-117660000D01*
X146650000Y-114550000D02*
X146650000Y-115120000D01*
X141350000Y-119850000D02*
X146650000Y-119850000D01*
X141350000Y-119280000D02*
X141350000Y-119850000D01*
X141350000Y-116740000D02*
X141350000Y-117660000D01*
X141350000Y-114550000D02*
X146650000Y-114550000D01*
X141350000Y-114550000D02*
X141350000Y-115120000D01*
X139960000Y-115120000D02*
X141350000Y-115120000D01*
%TO.C,TP3*%
X129800000Y-133900000D02*
G75*
G02*
X124400000Y-133900000I-2700000J0D01*
G01*
X124400000Y-133900000D02*
G75*
G02*
X129800000Y-133900000I2700000J0D01*
G01*
%TO.C,U1*%
X120640000Y-125700000D02*
X120640000Y-127650000D01*
X120640000Y-125700000D02*
X120640000Y-123750000D01*
X125760000Y-125700000D02*
X125760000Y-127650000D01*
X125760000Y-125700000D02*
X125760000Y-123750000D01*
X120735000Y-128400000D02*
X120405000Y-128640000D01*
X120405000Y-128160000D01*
X120735000Y-128400000D01*
G36*
X120735000Y-128400000D02*
G01*
X120405000Y-128640000D01*
X120405000Y-128160000D01*
X120735000Y-128400000D01*
G37*
%TO.C,R2*%
X123046359Y-119620000D02*
X123353641Y-119620000D01*
X123046359Y-120380000D02*
X123353641Y-120380000D01*
%TO.C,R1*%
X121746359Y-120720000D02*
X122053641Y-120720000D01*
X121746359Y-121480000D02*
X122053641Y-121480000D01*
%TO.C,R3*%
X124446359Y-118420000D02*
X124753641Y-118420000D01*
X124446359Y-119180000D02*
X124753641Y-119180000D01*
%TO.C,C1*%
X119340000Y-125592164D02*
X119340000Y-125807836D01*
X120060000Y-125592164D02*
X120060000Y-125807836D01*
%TD*%
M02*
