%TF.GenerationSoftware,KiCad,Pcbnew,9.0.6*%
%TF.CreationDate,2026-01-13T13:16:06-05:00*%
%TF.ProjectId,ephys-test-module-molex-504070-32,65706879-732d-4746-9573-742d6d6f6475,E*%
%TF.SameCoordinates,PX66ff300PY82a7440*%
%TF.FileFunction,Copper,L2,Bot*%
%TF.FilePolarity,Positive*%
%FSLAX46Y46*%
G04 Gerber Fmt 4.6, Leading zero omitted, Abs format (unit mm)*
G04 Created by KiCad (PCBNEW 9.0.6) date 2026-01-13 13:16:06*
%MOMM*%
%LPD*%
G01*
G04 APERTURE LIST*
%TA.AperFunction,ComponentPad*%
%ADD10C,4.800000*%
%TD*%
%TA.AperFunction,SMDPad,CuDef*%
%ADD11R,0.800000X0.300000*%
%TD*%
%TA.AperFunction,SMDPad,CuDef*%
%ADD12R,2.273000X0.410000*%
%TD*%
%TA.AperFunction,ViaPad*%
%ADD13C,0.500000*%
%TD*%
%TA.AperFunction,Conductor*%
%ADD14C,0.400000*%
%TD*%
%TA.AperFunction,Conductor*%
%ADD15C,0.200000*%
%TD*%
G04 APERTURE END LIST*
D10*
%TO.P,TP1,1,1*%
%TO.N,/Headstage Interface/NTC_{A}*%
X31150000Y3000000D03*
%TD*%
%TO.P,TP2,1,1*%
%TO.N,/Headstage Interface/NTC_{B}*%
X41150000Y3000000D03*
%TD*%
%TO.P,TP3,1,1*%
%TO.N,GND*%
X19100000Y3100000D03*
%TD*%
D11*
%TO.P,RN4,1,R1.1*%
%TO.N,/Headstage Interface/E8-*%
X41750000Y35900000D03*
%TO.P,RN4,2,R2.1*%
%TO.N,/Headstage Interface/E9-*%
X41750000Y36400000D03*
%TO.P,RN4,3,R3.1*%
%TO.N,/Headstage Interface/E10-*%
X41750000Y36900000D03*
%TO.P,RN4,4,R4.1*%
%TO.N,/Headstage Interface/E11-*%
X41750000Y37400000D03*
%TO.P,RN4,5,R5.1*%
%TO.N,/Headstage Interface/E12-*%
X41750000Y37900000D03*
%TO.P,RN4,6,R6.1*%
%TO.N,/Headstage Interface/E13-*%
X41750000Y38400000D03*
%TO.P,RN4,7,R7.1*%
%TO.N,/Headstage Interface/E14-*%
X41750000Y38900000D03*
%TO.P,RN4,8,R8.1*%
%TO.N,/Headstage Interface/E15-*%
X41750000Y39400000D03*
%TO.P,RN4,9,R8.2*%
%TO.N,/Headstage Interface/B9.E_{0}*%
X43550000Y39400000D03*
%TO.P,RN4,10,R7.2*%
%TO.N,/Headstage Interface/B9.E_{1}*%
X43550000Y38900000D03*
%TO.P,RN4,11,R6.2*%
%TO.N,/Headstage Interface/B9.E_{2}*%
X43550000Y38400000D03*
%TO.P,RN4,12,R5.2*%
%TO.N,/Headstage Interface/B9.E_{3}*%
X43550000Y37900000D03*
%TO.P,RN4,13,R4.2*%
%TO.N,/Headstage Interface/B9.E_{4}*%
X43550000Y37400000D03*
%TO.P,RN4,14,R3.2*%
%TO.N,/Headstage Interface/B9.E_{5}*%
X43550000Y36900000D03*
%TO.P,RN4,15,R2.2*%
%TO.N,/Headstage Interface/B9.E_{6}*%
X43550000Y36400000D03*
%TO.P,RN4,16,R1.2*%
%TO.N,/Headstage Interface/B9.E_{7}*%
X43550000Y35900000D03*
%TD*%
D12*
%TO.P,J4,1,Pin_1*%
%TO.N,GND*%
X17863500Y52600000D03*
%TO.P,J4,2,Pin_2*%
X12136500Y52600000D03*
%TO.P,J4,3,Pin_3*%
X17863500Y51800000D03*
%TO.P,J4,4,Pin_4*%
X12136500Y51800000D03*
%TO.P,J4,5,Pin_5*%
%TO.N,/Headstage Interface/B4.E_{0}*%
X17863500Y51000000D03*
%TO.P,J4,6,Pin_6*%
%TO.N,/Headstage Interface/B0.E_{0}*%
X12136500Y51000000D03*
%TO.P,J4,7,Pin_7*%
%TO.N,/Headstage Interface/B4.E_{1}*%
X17863500Y50200000D03*
%TO.P,J4,8,Pin_8*%
%TO.N,/Headstage Interface/B0.E_{1}*%
X12136500Y50200000D03*
%TO.P,J4,9,Pin_9*%
%TO.N,/Headstage Interface/B4.E_{2}*%
X17863500Y49400000D03*
%TO.P,J4,10,Pin_10*%
%TO.N,/Headstage Interface/B0.E_{2}*%
X12136500Y49400000D03*
%TO.P,J4,11,Pin_11*%
%TO.N,/Headstage Interface/B4.E_{3}*%
X17863500Y48600000D03*
%TO.P,J4,12,Pin_12*%
%TO.N,/Headstage Interface/B0.E_{3}*%
X12136500Y48600000D03*
%TO.P,J4,13,Pin_13*%
%TO.N,/Headstage Interface/B4.E_{4}*%
X17863500Y47800000D03*
%TO.P,J4,14,Pin_14*%
%TO.N,/Headstage Interface/B0.E_{4}*%
X12136500Y47800000D03*
%TO.P,J4,15,Pin_15*%
%TO.N,/Headstage Interface/B4.E_{5}*%
X17863500Y47000000D03*
%TO.P,J4,16,Pin_16*%
%TO.N,/Headstage Interface/B0.E_{5}*%
X12136500Y47000000D03*
%TO.P,J4,17,Pin_17*%
%TO.N,/Headstage Interface/B4.E_{6}*%
X17863500Y46200000D03*
%TO.P,J4,18,Pin_18*%
%TO.N,/Headstage Interface/B0.E_{6}*%
X12136500Y46200000D03*
%TO.P,J4,19,Pin_19*%
%TO.N,/Headstage Interface/B4.E_{7}*%
X17863500Y45400000D03*
%TO.P,J4,20,Pin_20*%
%TO.N,/Headstage Interface/B0.E_{7}*%
X12136500Y45400000D03*
%TO.P,J4,21,Pin_21*%
%TO.N,GND*%
X17863500Y44600000D03*
%TO.P,J4,22,Pin_22*%
X12136500Y44600000D03*
%TO.P,J4,23,Pin_23*%
%TO.N,/Headstage Interface/B5.E_{0}*%
X17863500Y43800000D03*
%TO.P,J4,24,Pin_24*%
%TO.N,/Headstage Interface/B1.E_{0}*%
X12136500Y43800000D03*
%TO.P,J4,25,Pin_25*%
%TO.N,/Headstage Interface/B5.E_{1}*%
X17863500Y43000000D03*
%TO.P,J4,26,Pin_26*%
%TO.N,/Headstage Interface/B1.E_{1}*%
X12136500Y43000000D03*
%TO.P,J4,27,Pin_27*%
%TO.N,/Headstage Interface/B5.E_{2}*%
X17863500Y42200000D03*
%TO.P,J4,28,Pin_28*%
%TO.N,/Headstage Interface/B1.E_{2}*%
X12136500Y42200000D03*
%TO.P,J4,29,Pin_29*%
%TO.N,/Headstage Interface/B5.E_{3}*%
X17863500Y41400000D03*
%TO.P,J4,30,Pin_30*%
%TO.N,/Headstage Interface/B1.E_{3}*%
X12136500Y41400000D03*
%TO.P,J4,31,Pin_31*%
%TO.N,/Headstage Interface/B5.E_{4}*%
X17863500Y40600000D03*
%TO.P,J4,32,Pin_32*%
%TO.N,/Headstage Interface/B1.E_{4}*%
X12136500Y40600000D03*
%TO.P,J4,33,Pin_33*%
%TO.N,/Headstage Interface/B5.E_{5}*%
X17863500Y39800000D03*
%TO.P,J4,34,Pin_34*%
%TO.N,/Headstage Interface/B1.E_{5}*%
X12136500Y39800000D03*
%TO.P,J4,35,Pin_35*%
%TO.N,/Headstage Interface/B5.E_{6}*%
X17863500Y39000000D03*
%TO.P,J4,36,Pin_36*%
%TO.N,/Headstage Interface/B1.E_{6}*%
X12136500Y39000000D03*
%TO.P,J4,37,Pin_37*%
%TO.N,/Headstage Interface/B5.E_{7}*%
X17863500Y38200000D03*
%TO.P,J4,38,Pin_38*%
%TO.N,/Headstage Interface/B1.E_{7}*%
X12136500Y38200000D03*
%TO.P,J4,39,Pin_39*%
%TO.N,GND*%
X17863500Y37400000D03*
%TO.P,J4,40,Pin_40*%
X12136500Y37400000D03*
%TO.P,J4,41,Pin_41*%
%TO.N,/Headstage Interface/B6.E_{0}*%
X17863500Y36600000D03*
%TO.P,J4,42,Pin_42*%
%TO.N,/Headstage Interface/B2.E_{0}*%
X12136500Y36600000D03*
%TO.P,J4,43,Pin_43*%
%TO.N,/Headstage Interface/B6.E_{1}*%
X17863500Y35800000D03*
%TO.P,J4,44,Pin_44*%
%TO.N,/Headstage Interface/B2.E_{1}*%
X12136500Y35800000D03*
%TO.P,J4,45,Pin_45*%
%TO.N,/Headstage Interface/B6.E_{2}*%
X17863500Y35000000D03*
%TO.P,J4,46,Pin_46*%
%TO.N,/Headstage Interface/B2.E_{2}*%
X12136500Y35000000D03*
%TO.P,J4,47,Pin_47*%
%TO.N,/Headstage Interface/B6.E_{3}*%
X17863500Y34200000D03*
%TO.P,J4,48,Pin_48*%
%TO.N,/Headstage Interface/B2.E_{3}*%
X12136500Y34200000D03*
%TO.P,J4,49,Pin_49*%
%TO.N,/Headstage Interface/B6.E_{4}*%
X17863500Y33400000D03*
%TO.P,J4,50,Pin_50*%
%TO.N,/Headstage Interface/B2.E_{4}*%
X12136500Y33400000D03*
%TO.P,J4,51,Pin_51*%
%TO.N,/Headstage Interface/B6.E_{5}*%
X17863500Y32600000D03*
%TO.P,J4,52,Pin_52*%
%TO.N,/Headstage Interface/B2.E_{5}*%
X12136500Y32600000D03*
%TO.P,J4,53,Pin_53*%
%TO.N,/Headstage Interface/B6.E_{6}*%
X17863500Y31800000D03*
%TO.P,J4,54,Pin_54*%
%TO.N,/Headstage Interface/B2.E_{6}*%
X12136500Y31800000D03*
%TO.P,J4,55,Pin_55*%
%TO.N,/Headstage Interface/B6.E_{7}*%
X17863500Y31000000D03*
%TO.P,J4,56,Pin_56*%
%TO.N,/Headstage Interface/B2.E_{7}*%
X12136500Y31000000D03*
%TO.P,J4,57,Pin_57*%
%TO.N,GND*%
X17863500Y30200000D03*
%TO.P,J4,58,Pin_58*%
X12136500Y30200000D03*
%TO.P,J4,59,Pin_59*%
%TO.N,/Headstage Interface/B7.E_{0}*%
X17863500Y29400000D03*
%TO.P,J4,60,Pin_60*%
%TO.N,/Headstage Interface/B3.E_{0}*%
X12136500Y29400000D03*
%TO.P,J4,61,Pin_61*%
%TO.N,/Headstage Interface/B7.E_{1}*%
X17863500Y28600000D03*
%TO.P,J4,62,Pin_62*%
%TO.N,/Headstage Interface/B3.E_{1}*%
X12136500Y28600000D03*
%TO.P,J4,63,Pin_63*%
%TO.N,/Headstage Interface/B7.E_{2}*%
X17863500Y27800000D03*
%TO.P,J4,64,Pin_64*%
%TO.N,/Headstage Interface/B3.E_{2}*%
X12136500Y27800000D03*
%TO.P,J4,65,Pin_65*%
%TO.N,/Headstage Interface/B7.E_{3}*%
X17863500Y27000000D03*
%TO.P,J4,66,Pin_66*%
%TO.N,/Headstage Interface/B3.E_{3}*%
X12136500Y27000000D03*
%TO.P,J4,67,Pin_67*%
%TO.N,/Headstage Interface/B7.E_{4}*%
X17863500Y26200000D03*
%TO.P,J4,68,Pin_68*%
%TO.N,/Headstage Interface/B3.E_{4}*%
X12136500Y26200000D03*
%TO.P,J4,69,Pin_69*%
%TO.N,/Headstage Interface/B7.E_{5}*%
X17863500Y25400000D03*
%TO.P,J4,70,Pin_70*%
%TO.N,/Headstage Interface/B3.E_{5}*%
X12136500Y25400000D03*
%TO.P,J4,71,Pin_71*%
%TO.N,/Headstage Interface/B7.E_{6}*%
X17863500Y24600000D03*
%TO.P,J4,72,Pin_72*%
%TO.N,/Headstage Interface/B3.E_{6}*%
X12136500Y24600000D03*
%TO.P,J4,73,Pin_73*%
%TO.N,/Headstage Interface/B7.E_{7}*%
X17863500Y23800000D03*
%TO.P,J4,74,Pin_74*%
%TO.N,/Headstage Interface/B3.E_{7}*%
X12136500Y23800000D03*
%TO.P,J4,75,Pin_75*%
%TO.N,GND*%
X17863500Y23000000D03*
%TO.P,J4,76,Pin_76*%
X12136500Y23000000D03*
%TO.P,J4,77,Pin_77*%
%TO.N,/Test Signal Interface/SCL*%
X17863500Y22200000D03*
%TO.P,J4,78,Pin_78*%
%TO.N,/Test Signal Interface/WP*%
X12136500Y22200000D03*
%TO.P,J4,79,Pin_79*%
%TO.N,/Test Signal Interface/SDA*%
X17863500Y21400000D03*
%TO.P,J4,80,Pin_80*%
%TO.N,VCC*%
X12136500Y21400000D03*
%TD*%
D11*
%TO.P,RN1,1,R1.1*%
%TO.N,/Headstage Interface/B6.E_{7}*%
X28850000Y31200000D03*
%TO.P,RN1,2,R2.1*%
%TO.N,/Headstage Interface/B6.E_{6}*%
X28850000Y31700000D03*
%TO.P,RN1,3,R3.1*%
%TO.N,/Headstage Interface/B6.E_{5}*%
X28850000Y32200000D03*
%TO.P,RN1,4,R4.1*%
%TO.N,/Headstage Interface/B6.E_{4}*%
X28850000Y32700000D03*
%TO.P,RN1,5,R5.1*%
%TO.N,/Headstage Interface/B6.E_{3}*%
X28850000Y33200000D03*
%TO.P,RN1,6,R6.1*%
%TO.N,/Headstage Interface/B6.E_{2}*%
X28850000Y33700000D03*
%TO.P,RN1,7,R7.1*%
%TO.N,/Headstage Interface/B6.E_{1}*%
X28850000Y34200000D03*
%TO.P,RN1,8,R8.1*%
%TO.N,/Headstage Interface/B6.E_{0}*%
X28850000Y34700000D03*
%TO.P,RN1,9,R8.2*%
%TO.N,/Headstage Interface/E7+*%
X30650000Y34700000D03*
%TO.P,RN1,10,R7.2*%
%TO.N,/Headstage Interface/E6+*%
X30650000Y34200000D03*
%TO.P,RN1,11,R6.2*%
%TO.N,/Headstage Interface/E5+*%
X30650000Y33700000D03*
%TO.P,RN1,12,R5.2*%
%TO.N,/Headstage Interface/E4+*%
X30650000Y33200000D03*
%TO.P,RN1,13,R4.2*%
%TO.N,/Headstage Interface/E3+*%
X30650000Y32700000D03*
%TO.P,RN1,14,R3.2*%
%TO.N,/Headstage Interface/E2+*%
X30650000Y32200000D03*
%TO.P,RN1,15,R2.2*%
%TO.N,/Headstage Interface/E1+*%
X30650000Y31700000D03*
%TO.P,RN1,16,R1.2*%
%TO.N,/Headstage Interface/E0+*%
X30650000Y31200000D03*
%TD*%
%TO.P,RN2,1,R1.1*%
%TO.N,/Headstage Interface/B5.E_{7}*%
X28850000Y35700000D03*
%TO.P,RN2,2,R2.1*%
%TO.N,/Headstage Interface/B5.E_{6}*%
X28850000Y36200000D03*
%TO.P,RN2,3,R3.1*%
%TO.N,/Headstage Interface/B5.E_{5}*%
X28850000Y36700000D03*
%TO.P,RN2,4,R4.1*%
%TO.N,/Headstage Interface/B5.E_{4}*%
X28850000Y37200000D03*
%TO.P,RN2,5,R5.1*%
%TO.N,/Headstage Interface/B5.E_{3}*%
X28850000Y37700000D03*
%TO.P,RN2,6,R6.1*%
%TO.N,/Headstage Interface/B5.E_{2}*%
X28850000Y38200000D03*
%TO.P,RN2,7,R7.1*%
%TO.N,/Headstage Interface/B5.E_{1}*%
X28850000Y38700000D03*
%TO.P,RN2,8,R8.1*%
%TO.N,/Headstage Interface/B5.E_{0}*%
X28850000Y39200000D03*
%TO.P,RN2,9,R8.2*%
%TO.N,/Headstage Interface/E15+*%
X30650000Y39200000D03*
%TO.P,RN2,10,R7.2*%
%TO.N,/Headstage Interface/E14+*%
X30650000Y38700000D03*
%TO.P,RN2,11,R6.2*%
%TO.N,/Headstage Interface/E13+*%
X30650000Y38200000D03*
%TO.P,RN2,12,R5.2*%
%TO.N,/Headstage Interface/E12+*%
X30650000Y37700000D03*
%TO.P,RN2,13,R4.2*%
%TO.N,/Headstage Interface/E11+*%
X30650000Y37200000D03*
%TO.P,RN2,14,R3.2*%
%TO.N,/Headstage Interface/E10+*%
X30650000Y36700000D03*
%TO.P,RN2,15,R2.2*%
%TO.N,/Headstage Interface/E9+*%
X30650000Y36200000D03*
%TO.P,RN2,16,R1.2*%
%TO.N,/Headstage Interface/E8+*%
X30650000Y35700000D03*
%TD*%
%TO.P,RN3,1,R1.1*%
%TO.N,/Headstage Interface/E0-*%
X41750000Y31400000D03*
%TO.P,RN3,2,R2.1*%
%TO.N,/Headstage Interface/E1-*%
X41750000Y31900000D03*
%TO.P,RN3,3,R3.1*%
%TO.N,/Headstage Interface/E2-*%
X41750000Y32400000D03*
%TO.P,RN3,4,R4.1*%
%TO.N,/Headstage Interface/E3-*%
X41750000Y32900000D03*
%TO.P,RN3,5,R5.1*%
%TO.N,/Headstage Interface/E4-*%
X41750000Y33400000D03*
%TO.P,RN3,6,R6.1*%
%TO.N,/Headstage Interface/E5-*%
X41750000Y33900000D03*
%TO.P,RN3,7,R7.1*%
%TO.N,/Headstage Interface/E6-*%
X41750000Y34400000D03*
%TO.P,RN3,8,R8.1*%
%TO.N,/Headstage Interface/E7-*%
X41750000Y34900000D03*
%TO.P,RN3,9,R8.2*%
%TO.N,/Headstage Interface/B10.E_{0}*%
X43550000Y34900000D03*
%TO.P,RN3,10,R7.2*%
%TO.N,/Headstage Interface/B10.E_{1}*%
X43550000Y34400000D03*
%TO.P,RN3,11,R6.2*%
%TO.N,/Headstage Interface/B10.E_{2}*%
X43550000Y33900000D03*
%TO.P,RN3,12,R5.2*%
%TO.N,/Headstage Interface/B10.E_{3}*%
X43550000Y33400000D03*
%TO.P,RN3,13,R4.2*%
%TO.N,/Headstage Interface/B10.E_{4}*%
X43550000Y32900000D03*
%TO.P,RN3,14,R3.2*%
%TO.N,/Headstage Interface/B10.E_{5}*%
X43550000Y32400000D03*
%TO.P,RN3,15,R2.2*%
%TO.N,/Headstage Interface/B10.E_{6}*%
X43550000Y31900000D03*
%TO.P,RN3,16,R1.2*%
%TO.N,/Headstage Interface/B10.E_{7}*%
X43550000Y31400000D03*
%TD*%
D12*
%TO.P,J5,1,Pin_1*%
%TO.N,GND*%
X87863500Y52600000D03*
%TO.P,J5,2,Pin_2*%
X82136500Y52600000D03*
%TO.P,J5,3,Pin_3*%
X87863500Y51800000D03*
%TO.P,J5,4,Pin_4*%
X82136500Y51800000D03*
%TO.P,J5,5,Pin_5*%
%TO.N,/Headstage Interface/B12.E_{0}*%
X87863500Y51000000D03*
%TO.P,J5,6,Pin_6*%
%TO.N,/Headstage Interface/B8.E_{0}*%
X82136500Y51000000D03*
%TO.P,J5,7,Pin_7*%
%TO.N,/Headstage Interface/B12.E_{1}*%
X87863500Y50200000D03*
%TO.P,J5,8,Pin_8*%
%TO.N,/Headstage Interface/B8.E_{1}*%
X82136500Y50200000D03*
%TO.P,J5,9,Pin_9*%
%TO.N,/Headstage Interface/B12.E_{2}*%
X87863500Y49400000D03*
%TO.P,J5,10,Pin_10*%
%TO.N,/Headstage Interface/B8.E_{2}*%
X82136500Y49400000D03*
%TO.P,J5,11,Pin_11*%
%TO.N,/Headstage Interface/B12.E_{3}*%
X87863500Y48600000D03*
%TO.P,J5,12,Pin_12*%
%TO.N,/Headstage Interface/B8.E_{3}*%
X82136500Y48600000D03*
%TO.P,J5,13,Pin_13*%
%TO.N,/Headstage Interface/B12.E_{4}*%
X87863500Y47800000D03*
%TO.P,J5,14,Pin_14*%
%TO.N,/Headstage Interface/B8.E_{4}*%
X82136500Y47800000D03*
%TO.P,J5,15,Pin_15*%
%TO.N,/Headstage Interface/B12.E_{5}*%
X87863500Y47000000D03*
%TO.P,J5,16,Pin_16*%
%TO.N,/Headstage Interface/B8.E_{5}*%
X82136500Y47000000D03*
%TO.P,J5,17,Pin_17*%
%TO.N,/Headstage Interface/B12.E_{6}*%
X87863500Y46200000D03*
%TO.P,J5,18,Pin_18*%
%TO.N,/Headstage Interface/B8.E_{6}*%
X82136500Y46200000D03*
%TO.P,J5,19,Pin_19*%
%TO.N,/Headstage Interface/B12.E_{7}*%
X87863500Y45400000D03*
%TO.P,J5,20,Pin_20*%
%TO.N,/Headstage Interface/B8.E_{7}*%
X82136500Y45400000D03*
%TO.P,J5,21,Pin_21*%
%TO.N,GND*%
X87863500Y44600000D03*
%TO.P,J5,22,Pin_22*%
X82136500Y44600000D03*
%TO.P,J5,23,Pin_23*%
%TO.N,/Headstage Interface/B13.E_{0}*%
X87863500Y43800000D03*
%TO.P,J5,24,Pin_24*%
%TO.N,/Headstage Interface/B9.E_{0}*%
X82136500Y43800000D03*
%TO.P,J5,25,Pin_25*%
%TO.N,/Headstage Interface/B13.E_{1}*%
X87863500Y43000000D03*
%TO.P,J5,26,Pin_26*%
%TO.N,/Headstage Interface/B9.E_{1}*%
X82136500Y43000000D03*
%TO.P,J5,27,Pin_27*%
%TO.N,/Headstage Interface/B13.E_{2}*%
X87863500Y42200000D03*
%TO.P,J5,28,Pin_28*%
%TO.N,/Headstage Interface/B9.E_{2}*%
X82136500Y42200000D03*
%TO.P,J5,29,Pin_29*%
%TO.N,/Headstage Interface/B13.E_{3}*%
X87863500Y41400000D03*
%TO.P,J5,30,Pin_30*%
%TO.N,/Headstage Interface/B9.E_{3}*%
X82136500Y41400000D03*
%TO.P,J5,31,Pin_31*%
%TO.N,/Headstage Interface/B13.E_{4}*%
X87863500Y40600000D03*
%TO.P,J5,32,Pin_32*%
%TO.N,/Headstage Interface/B9.E_{4}*%
X82136500Y40600000D03*
%TO.P,J5,33,Pin_33*%
%TO.N,/Headstage Interface/B13.E_{5}*%
X87863500Y39800000D03*
%TO.P,J5,34,Pin_34*%
%TO.N,/Headstage Interface/B9.E_{5}*%
X82136500Y39800000D03*
%TO.P,J5,35,Pin_35*%
%TO.N,/Headstage Interface/B13.E_{6}*%
X87863500Y39000000D03*
%TO.P,J5,36,Pin_36*%
%TO.N,/Headstage Interface/B9.E_{6}*%
X82136500Y39000000D03*
%TO.P,J5,37,Pin_37*%
%TO.N,/Headstage Interface/B13.E_{7}*%
X87863500Y38200000D03*
%TO.P,J5,38,Pin_38*%
%TO.N,/Headstage Interface/B9.E_{7}*%
X82136500Y38200000D03*
%TO.P,J5,39,Pin_39*%
%TO.N,GND*%
X87863500Y37400000D03*
%TO.P,J5,40,Pin_40*%
X82136500Y37400000D03*
%TO.P,J5,41,Pin_41*%
%TO.N,/Headstage Interface/B14.E_{0}*%
X87863500Y36600000D03*
%TO.P,J5,42,Pin_42*%
%TO.N,/Headstage Interface/B10.E_{0}*%
X82136500Y36600000D03*
%TO.P,J5,43,Pin_43*%
%TO.N,/Headstage Interface/B14.E_{1}*%
X87863500Y35800000D03*
%TO.P,J5,44,Pin_44*%
%TO.N,/Headstage Interface/B10.E_{1}*%
X82136500Y35800000D03*
%TO.P,J5,45,Pin_45*%
%TO.N,/Headstage Interface/B14.E_{2}*%
X87863500Y35000000D03*
%TO.P,J5,46,Pin_46*%
%TO.N,/Headstage Interface/B10.E_{2}*%
X82136500Y35000000D03*
%TO.P,J5,47,Pin_47*%
%TO.N,/Headstage Interface/B14.E_{3}*%
X87863500Y34200000D03*
%TO.P,J5,48,Pin_48*%
%TO.N,/Headstage Interface/B10.E_{3}*%
X82136500Y34200000D03*
%TO.P,J5,49,Pin_49*%
%TO.N,/Headstage Interface/B14.E_{4}*%
X87863500Y33400000D03*
%TO.P,J5,50,Pin_50*%
%TO.N,/Headstage Interface/B10.E_{4}*%
X82136500Y33400000D03*
%TO.P,J5,51,Pin_51*%
%TO.N,/Headstage Interface/B14.E_{5}*%
X87863500Y32600000D03*
%TO.P,J5,52,Pin_52*%
%TO.N,/Headstage Interface/B10.E_{5}*%
X82136500Y32600000D03*
%TO.P,J5,53,Pin_53*%
%TO.N,/Headstage Interface/B14.E_{6}*%
X87863500Y31800000D03*
%TO.P,J5,54,Pin_54*%
%TO.N,/Headstage Interface/B10.E_{6}*%
X82136500Y31800000D03*
%TO.P,J5,55,Pin_55*%
%TO.N,/Headstage Interface/B14.E_{7}*%
X87863500Y31000000D03*
%TO.P,J5,56,Pin_56*%
%TO.N,/Headstage Interface/B10.E_{7}*%
X82136500Y31000000D03*
%TO.P,J5,57,Pin_57*%
%TO.N,GND*%
X87863500Y30200000D03*
%TO.P,J5,58,Pin_58*%
X82136500Y30200000D03*
%TO.P,J5,59,Pin_59*%
%TO.N,/Headstage Interface/B15.E_{0}*%
X87863500Y29400000D03*
%TO.P,J5,60,Pin_60*%
%TO.N,/Headstage Interface/B11.E_{0}*%
X82136500Y29400000D03*
%TO.P,J5,61,Pin_61*%
%TO.N,/Headstage Interface/B15.E_{1}*%
X87863500Y28600000D03*
%TO.P,J5,62,Pin_62*%
%TO.N,/Headstage Interface/B11.E_{1}*%
X82136500Y28600000D03*
%TO.P,J5,63,Pin_63*%
%TO.N,/Headstage Interface/B15.E_{2}*%
X87863500Y27800000D03*
%TO.P,J5,64,Pin_64*%
%TO.N,/Headstage Interface/B11.E_{2}*%
X82136500Y27800000D03*
%TO.P,J5,65,Pin_65*%
%TO.N,/Headstage Interface/B15.E_{3}*%
X87863500Y27000000D03*
%TO.P,J5,66,Pin_66*%
%TO.N,/Headstage Interface/B11.E_{3}*%
X82136500Y27000000D03*
%TO.P,J5,67,Pin_67*%
%TO.N,/Headstage Interface/B15.E_{4}*%
X87863500Y26200000D03*
%TO.P,J5,68,Pin_68*%
%TO.N,/Headstage Interface/B11.E_{4}*%
X82136500Y26200000D03*
%TO.P,J5,69,Pin_69*%
%TO.N,/Headstage Interface/B15.E_{5}*%
X87863500Y25400000D03*
%TO.P,J5,70,Pin_70*%
%TO.N,/Headstage Interface/B11.E_{5}*%
X82136500Y25400000D03*
%TO.P,J5,71,Pin_71*%
%TO.N,/Headstage Interface/B15.E_{6}*%
X87863500Y24600000D03*
%TO.P,J5,72,Pin_72*%
%TO.N,/Headstage Interface/B11.E_{6}*%
X82136500Y24600000D03*
%TO.P,J5,73,Pin_73*%
%TO.N,/Headstage Interface/B15.E_{7}*%
X87863500Y23800000D03*
%TO.P,J5,74,Pin_74*%
%TO.N,/Headstage Interface/B11.E_{7}*%
X82136500Y23800000D03*
%TO.P,J5,75,Pin_75*%
%TO.N,GND*%
X87863500Y23000000D03*
%TO.P,J5,76,Pin_76*%
X82136500Y23000000D03*
%TO.P,J5,77,Pin_77*%
%TO.N,unconnected-(J5-Pin_77-Pad77)*%
X87863500Y22200000D03*
%TO.P,J5,78,Pin_78*%
%TO.N,unconnected-(J5-Pin_78-Pad78)*%
X82136500Y22200000D03*
%TO.P,J5,79,Pin_79*%
%TO.N,unconnected-(J5-Pin_79-Pad79)*%
X87863500Y21400000D03*
%TO.P,J5,80,Pin_80*%
%TO.N,unconnected-(J5-Pin_80-Pad80)*%
X82136500Y21400000D03*
%TD*%
D13*
%TO.N,GND*%
X35650000Y39000000D03*
X56800000Y26300000D03*
X100500000Y4100000D03*
X15240915Y45832255D03*
X37500000Y25300000D03*
X27700000Y40325000D03*
X64600000Y40200000D03*
X2400000Y56200000D03*
X67981000Y22538000D03*
X20900000Y37400000D03*
X53700000Y4400000D03*
X41150000Y35400000D03*
X29250000Y29900000D03*
X19200000Y12200000D03*
X3500000Y18500000D03*
X33750000Y39600000D03*
X27800000Y24600000D03*
X2000000Y34200000D03*
X35600000Y18675000D03*
X45700000Y29200000D03*
X79500000Y44500000D03*
X27000000Y56200000D03*
X42650000Y22700000D03*
X65525000Y52250000D03*
X73725000Y37325000D03*
X32400000Y65400000D03*
X38350000Y39600000D03*
X3700000Y3700000D03*
X56800000Y13800000D03*
X22900000Y15800000D03*
X7400000Y27200000D03*
X36750000Y43300000D03*
X79200000Y37400000D03*
X86600000Y3900000D03*
X85000000Y49000000D03*
X6100000Y66200000D03*
X97000000Y36200000D03*
X68800000Y44550000D03*
X71700000Y4400000D03*
X101800000Y30400000D03*
X101200000Y13700000D03*
X20800000Y44600000D03*
X84900000Y21800000D03*
X77500000Y54200000D03*
X27505000Y12893000D03*
X67300000Y30200000D03*
X79500000Y30200000D03*
X18550000Y37375000D03*
X15200000Y11300000D03*
X23100000Y35250000D03*
X51800000Y51700000D03*
X3000000Y43200000D03*
X37650000Y29600000D03*
X70500000Y35700000D03*
X33750000Y30500000D03*
X37430000Y15800000D03*
X99200000Y61700000D03*
X36050000Y7700000D03*
X27850000Y19800000D03*
X54300000Y65300000D03*
X31250000Y35200000D03*
X52600000Y40600000D03*
X21125000Y51925000D03*
X15000000Y26400000D03*
X79904000Y22827000D03*
X37100000Y52600000D03*
X77400000Y13600000D03*
X101500000Y46800000D03*
X21000000Y30000000D03*
X21400000Y22250000D03*
X35400000Y25800000D03*
X89300000Y66200000D03*
X74200000Y65500000D03*
X35700000Y32000000D03*
X47000000Y20000000D03*
X24300000Y4000000D03*
%TO.N,VCC*%
X12800000Y16000000D03*
X15450000Y18650000D03*
X11700000Y12800000D03*
X11700000Y13300000D03*
X14200000Y17400000D03*
%TO.N,/Headstage Interface/REF*%
X36650000Y38300000D03*
X33500000Y22400000D03*
X33500000Y19800000D03*
X36650000Y32000000D03*
%TO.N,/Test Signal Interface/SDA*%
X17863500Y20463500D03*
X17100000Y16100000D03*
X17100000Y17500000D03*
%TO.N,/Test Signal Interface/SCL*%
X19700000Y21600000D03*
%TO.N,/Test Signal Interface/WP*%
X10100000Y20900000D03*
%TO.N,/Headstage Interface/E0-*%
X39850000Y31400000D03*
%TO.N,/Headstage Interface/E13+*%
X31950000Y38200000D03*
%TO.N,/Headstage Interface/E14+*%
X32550000Y38700000D03*
%TO.N,/Headstage Interface/E2+*%
X32550000Y32200000D03*
%TO.N,/Headstage Interface/E5+*%
X31950000Y33700000D03*
%TO.N,/Headstage Interface/E14-*%
X39850000Y38900000D03*
%TO.N,/Headstage Interface/E3+*%
X31950000Y32700000D03*
%TO.N,/Headstage Interface/E6+*%
X32550000Y34200000D03*
%TO.N,/Headstage Interface/E7-*%
X40450000Y34900000D03*
%TO.N,/Headstage Interface/E15+*%
X31950000Y39200000D03*
%TO.N,/Headstage Interface/E9+*%
X31950000Y36200000D03*
%TO.N,/Headstage Interface/E15-*%
X40450000Y39400000D03*
%TO.N,/Headstage Interface/E11+*%
X31950000Y37200000D03*
%TO.N,/Headstage Interface/E1+*%
X31950000Y31700000D03*
%TO.N,/Headstage Interface/NTC_{B}*%
X38650000Y9300000D03*
X38450000Y29300000D03*
X38630000Y14400000D03*
%TO.N,/Headstage Interface/E9-*%
X40450000Y36400000D03*
%TO.N,/Headstage Interface/E0+*%
X32550000Y31200000D03*
%TO.N,/Headstage Interface/E10+*%
X32550000Y36700000D03*
%TO.N,/Headstage Interface/E6-*%
X39850000Y34400000D03*
%TO.N,/Headstage Interface/E12+*%
X32550000Y37700000D03*
%TO.N,/Headstage Interface/E10-*%
X39850000Y36900000D03*
%TO.N,/Headstage Interface/E11-*%
X40450000Y37400000D03*
%TO.N,/Headstage Interface/E3-*%
X40450000Y32900000D03*
%TO.N,/Headstage Interface/E4+*%
X32550000Y33200000D03*
%TO.N,/Headstage Interface/E8+*%
X32550000Y35700000D03*
%TO.N,/Headstage Interface/E13-*%
X40450000Y38400000D03*
%TO.N,/Headstage Interface/E7+*%
X31950000Y34700000D03*
%TO.N,/Headstage Interface/E1-*%
X40450000Y31900000D03*
%TO.N,/Headstage Interface/E12-*%
X39850000Y37900000D03*
%TO.N,/Headstage Interface/E8-*%
X39850000Y35900000D03*
%TO.N,/Headstage Interface/E5-*%
X40450000Y33900000D03*
%TO.N,/Headstage Interface/NTC_{A}*%
X33630000Y14500000D03*
X36500000Y29500000D03*
X33650000Y9300000D03*
%TO.N,/Headstage Interface/E4-*%
X39850000Y33400000D03*
%TO.N,/Headstage Interface/E2-*%
X39850000Y32400000D03*
%TD*%
D14*
%TO.N,VCC*%
X11700000Y12800000D02*
X11700000Y14900000D01*
X15450000Y18650000D02*
X15450000Y19450000D01*
X13500000Y21400000D02*
X12136500Y21400000D01*
X15450000Y19450000D02*
X13500000Y21400000D01*
X11700000Y14900000D02*
X12800000Y16000000D01*
X12800000Y16000000D02*
X14200000Y17400000D01*
X14200000Y17400000D02*
X15450000Y18650000D01*
D15*
%TO.N,/Headstage Interface/B5.E_{0}*%
X27700002Y39200000D02*
X28850000Y39200000D01*
X23100002Y43800000D02*
X17863500Y43800000D01*
X27700002Y39200000D02*
X23100002Y43800000D01*
%TO.N,/Headstage Interface/B5.E_{2}*%
X26487176Y38200000D02*
X28850000Y38200000D01*
X22487176Y42200000D02*
X17863500Y42200000D01*
X26487176Y38200000D02*
X22487176Y42200000D01*
%TO.N,/Headstage Interface/B5.E_{5}*%
X24687176Y36700000D02*
X28850000Y36700000D01*
X24687176Y36700000D02*
X21587176Y39800000D01*
X21587176Y39800000D02*
X17863500Y39800000D01*
%TO.N,/Headstage Interface/B6.E_{2}*%
X21399998Y33700000D02*
X20099998Y35000000D01*
X20099998Y35000000D02*
X17863500Y35000000D01*
X21399998Y33700000D02*
X28850000Y33700000D01*
%TO.N,/Headstage Interface/B6.E_{5}*%
X19499996Y32600000D02*
X17863500Y32600000D01*
X19899996Y32200000D02*
X28850000Y32200000D01*
X19899996Y32200000D02*
X19499996Y32600000D01*
%TO.N,/Headstage Interface/B5.E_{7}*%
X21387180Y38200000D02*
X17863500Y38200000D01*
X23887180Y35700000D02*
X21387180Y38200000D01*
X23887180Y35700000D02*
X28850000Y35700000D01*
%TO.N,/Headstage Interface/B6.E_{7}*%
X19600000Y31200000D02*
X28850000Y31200000D01*
X19400000Y31000000D02*
X17863500Y31000000D01*
X19600000Y31200000D02*
X19400000Y31000000D01*
%TO.N,/Headstage Interface/B6.E_{0}*%
X22600000Y34700000D02*
X20700000Y36600000D01*
X22600000Y34700000D02*
X28850000Y34700000D01*
X20700000Y36600000D02*
X17863500Y36600000D01*
%TO.N,/Headstage Interface/B5.E_{1}*%
X22800004Y43000000D02*
X17863500Y43000000D01*
X27100004Y38700000D02*
X28850000Y38700000D01*
X27100004Y38700000D02*
X22800004Y43000000D01*
D14*
%TO.N,/Headstage Interface/REF*%
X34900000Y30250000D02*
X36650000Y32000000D01*
X33500000Y26700000D02*
X34900000Y28100000D01*
X33500000Y22400000D02*
X33500000Y26700000D01*
X34900000Y28100000D02*
X34900000Y30250000D01*
X33500000Y22400000D02*
X33500000Y19800000D01*
X36650000Y38300000D02*
X36650000Y32000000D01*
D15*
%TO.N,/Headstage Interface/B6.E_{6}*%
X19599996Y31700000D02*
X28850000Y31700000D01*
X19499996Y31800000D02*
X17863500Y31800000D01*
X19599996Y31700000D02*
X19499996Y31800000D01*
%TO.N,/Headstage Interface/B6.E_{1}*%
X22000000Y34200000D02*
X28850000Y34200000D01*
X22000000Y34200000D02*
X20400000Y35800000D01*
X20400000Y35800000D02*
X17863500Y35800000D01*
%TO.N,/Headstage Interface/B5.E_{6}*%
X21487178Y39000000D02*
X17863500Y39000000D01*
X24287178Y36200000D02*
X28850000Y36200000D01*
X24287178Y36200000D02*
X21487178Y39000000D01*
%TO.N,/Headstage Interface/B6.E_{4}*%
X19499996Y33400000D02*
X17863500Y33400000D01*
X20199996Y32700000D02*
X19499996Y33400000D01*
X20199996Y32700000D02*
X28850000Y32700000D01*
%TO.N,/Headstage Interface/B5.E_{4}*%
X25287178Y37200000D02*
X28850000Y37200000D01*
X21887178Y40600000D02*
X17863500Y40600000D01*
X25287178Y37200000D02*
X21887178Y40600000D01*
%TO.N,/Headstage Interface/B5.E_{3}*%
X25887178Y37700000D02*
X22187178Y41400000D01*
X25887178Y37700000D02*
X28850000Y37700000D01*
X22187178Y41400000D02*
X17863500Y41400000D01*
%TO.N,/Headstage Interface/B6.E_{3}*%
X20799994Y33200000D02*
X28850000Y33200000D01*
X19799994Y34200000D02*
X17863500Y34200000D01*
X20799994Y33200000D02*
X19799994Y34200000D01*
%TO.N,/Test Signal Interface/SDA*%
X17863500Y20463500D02*
X17863500Y21400000D01*
X17100000Y16100000D02*
X17100000Y17500000D01*
%TO.N,/Headstage Interface/B10.E_{4}*%
X73250000Y32900000D02*
X73750000Y33400000D01*
X73750000Y33400000D02*
X82136500Y33400000D01*
X43550000Y32900000D02*
X73250000Y32900000D01*
%TO.N,/Test Signal Interface/SCL*%
X17863500Y22200000D02*
X19100000Y22200000D01*
X19100000Y22200000D02*
X19700000Y21600000D01*
%TO.N,/Headstage Interface/B9.E_{1}*%
X43550000Y38900000D02*
X65438152Y38900000D01*
X65438152Y38900000D02*
X69538152Y43000000D01*
X69538152Y43000000D02*
X82136500Y43000000D01*
%TO.N,/Headstage Interface/B9.E_{0}*%
X43550000Y39400000D02*
X64750002Y39400000D01*
X69150002Y43800000D02*
X82136500Y43800000D01*
X64750002Y39400000D02*
X69150002Y43800000D01*
%TO.N,/Headstage Interface/B9.E_{5}*%
X71025000Y39800000D02*
X82136500Y39800000D01*
X68125000Y36900000D02*
X71025000Y39800000D01*
X43550000Y36900000D02*
X68125000Y36900000D01*
%TO.N,/Headstage Interface/B10.E_{3}*%
X43550000Y33400000D02*
X72800000Y33400000D01*
X73600000Y34200000D02*
X82136500Y34200000D01*
X72800000Y33400000D02*
X73600000Y34200000D01*
%TO.N,/Headstage Interface/B10.E_{1}*%
X71575000Y34400000D02*
X72975000Y35800000D01*
X43550000Y34400000D02*
X71575000Y34400000D01*
X72975000Y35800000D02*
X82136500Y35800000D01*
%TO.N,/Headstage Interface/B10.E_{2}*%
X72250000Y33900000D02*
X73350000Y35000000D01*
X43550000Y33900000D02*
X72250000Y33900000D01*
X73350000Y35000000D02*
X82136500Y35000000D01*
%TO.N,/Headstage Interface/B10.E_{7}*%
X43550000Y31400000D02*
X73500000Y31400000D01*
X73500000Y31400000D02*
X73900000Y31000000D01*
X82086500Y30950000D02*
X82136500Y31000000D01*
X73900000Y31000000D02*
X82136500Y31000000D01*
%TO.N,/Headstage Interface/B9.E_{3}*%
X70175000Y41400000D02*
X82136500Y41400000D01*
X66675000Y37900000D02*
X70175000Y41400000D01*
X43550000Y37900000D02*
X66675000Y37900000D01*
%TO.N,/Headstage Interface/B9.E_{4}*%
X43550000Y37400000D02*
X67400000Y37400000D01*
X67400000Y37400000D02*
X70600000Y40600000D01*
X70600000Y40600000D02*
X82136500Y40600000D01*
%TO.N,/Headstage Interface/B9.E_{6}*%
X43550000Y36400000D02*
X68825000Y36400000D01*
X71425000Y39000000D02*
X82136500Y39000000D01*
X68825000Y36400000D02*
X71425000Y39000000D01*
%TO.N,/Headstage Interface/B9.E_{7}*%
X71725000Y38200000D02*
X82136500Y38200000D01*
X43550000Y35900000D02*
X69425000Y35900000D01*
X69425000Y35900000D02*
X71725000Y38200000D01*
%TO.N,/Headstage Interface/B9.E_{2}*%
X69875000Y42200000D02*
X82136500Y42200000D01*
X43550000Y38400000D02*
X66075000Y38400000D01*
X66075000Y38400000D02*
X69875000Y42200000D01*
%TO.N,/Headstage Interface/B10.E_{6}*%
X74100000Y31800000D02*
X82136500Y31800000D01*
X74000000Y31900000D02*
X74100000Y31800000D01*
X43550000Y31900000D02*
X74000000Y31900000D01*
%TO.N,/Headstage Interface/B10.E_{0}*%
X70975000Y34900000D02*
X72675000Y36600000D01*
X72675000Y36600000D02*
X82136500Y36600000D01*
X43550000Y34900000D02*
X70975000Y34900000D01*
%TO.N,/Headstage Interface/B10.E_{5}*%
X73875000Y32600000D02*
X82136500Y32600000D01*
X73675000Y32400000D02*
X73875000Y32600000D01*
X43550000Y32400000D02*
X73675000Y32400000D01*
%TO.N,/Test Signal Interface/WP*%
X10100000Y21700000D02*
X10100000Y20900000D01*
X10600000Y22200000D02*
X12136500Y22200000D01*
X10600000Y22200000D02*
X10100000Y21700000D01*
%TO.N,/Headstage Interface/E0-*%
X41750000Y31400000D02*
X39850000Y31400000D01*
%TO.N,/Headstage Interface/E13+*%
X30650000Y38200000D02*
X31950000Y38200000D01*
%TO.N,/Headstage Interface/E14+*%
X30650000Y38700000D02*
X32550000Y38700000D01*
%TO.N,/Headstage Interface/E2+*%
X30650000Y32200000D02*
X32550000Y32200000D01*
%TO.N,/Headstage Interface/E5+*%
X30650000Y33700000D02*
X31950000Y33700000D01*
%TO.N,/Headstage Interface/E14-*%
X41750000Y38900000D02*
X39850000Y38900000D01*
%TO.N,/Headstage Interface/E3+*%
X30650000Y32700000D02*
X31950000Y32700000D01*
%TO.N,/Headstage Interface/E6+*%
X30650000Y34200000D02*
X32550000Y34200000D01*
%TO.N,/Headstage Interface/E7-*%
X41750000Y34900000D02*
X40450000Y34900000D01*
%TO.N,/Headstage Interface/E15+*%
X30650000Y39200000D02*
X31950000Y39200000D01*
%TO.N,/Headstage Interface/E9+*%
X30650000Y36200000D02*
X31950000Y36200000D01*
%TO.N,/Headstage Interface/E15-*%
X41750000Y39400000D02*
X40450000Y39400000D01*
%TO.N,/Headstage Interface/E11+*%
X30650000Y37200000D02*
X31950000Y37200000D01*
%TO.N,/Headstage Interface/E1+*%
X30650000Y31700000D02*
X31950000Y31700000D01*
D14*
%TO.N,/Headstage Interface/NTC_{B}*%
X38450000Y28900000D02*
X38450000Y29300000D01*
X38650000Y5500000D02*
X38650000Y28700000D01*
X38650000Y5500000D02*
X41150000Y3000000D01*
X38650000Y28700000D02*
X38450000Y28900000D01*
D15*
%TO.N,/Headstage Interface/E9-*%
X41750000Y36400000D02*
X40450000Y36400000D01*
%TO.N,/Headstage Interface/E0+*%
X30650000Y31200000D02*
X32550000Y31200000D01*
%TO.N,/Headstage Interface/E10+*%
X30650000Y36700000D02*
X32550000Y36700000D01*
%TO.N,/Headstage Interface/E6-*%
X41750000Y34400000D02*
X39850000Y34400000D01*
%TO.N,/Headstage Interface/E12+*%
X30650000Y37700000D02*
X32550000Y37700000D01*
%TO.N,/Headstage Interface/E10-*%
X41750000Y36900000D02*
X39850000Y36900000D01*
%TO.N,/Headstage Interface/E11-*%
X41750000Y37400000D02*
X40450000Y37400000D01*
%TO.N,/Headstage Interface/E3-*%
X41750000Y32900000D02*
X40450000Y32900000D01*
%TO.N,/Headstage Interface/E4+*%
X30650000Y33200000D02*
X32550000Y33200000D01*
%TO.N,/Headstage Interface/E8+*%
X30650000Y35700000D02*
X32550000Y35700000D01*
%TO.N,/Headstage Interface/E13-*%
X41750000Y38400000D02*
X40450000Y38400000D01*
%TO.N,/Headstage Interface/E7+*%
X30650000Y34700000D02*
X31950000Y34700000D01*
%TO.N,/Headstage Interface/E1-*%
X41750000Y31900000D02*
X40450000Y31900000D01*
%TO.N,/Headstage Interface/E12-*%
X41750000Y37900000D02*
X39850000Y37900000D01*
%TO.N,/Headstage Interface/E8-*%
X41750000Y35900000D02*
X39850000Y35900000D01*
%TO.N,/Headstage Interface/E5-*%
X41750000Y33900000D02*
X40450000Y33900000D01*
D14*
%TO.N,/Headstage Interface/NTC_{A}*%
X33650000Y14480000D02*
X33630000Y14500000D01*
X33650000Y11900000D02*
X33650000Y9300000D01*
X33650000Y11900000D02*
X33650000Y14480000D01*
X36500000Y29500000D02*
X36500000Y17370000D01*
X33650000Y9300000D02*
X33650000Y5500000D01*
X36500000Y17370000D02*
X33630000Y14500000D01*
X31150000Y3000000D02*
X33650000Y5500000D01*
D15*
%TO.N,/Headstage Interface/E4-*%
X41750000Y33400000D02*
X39850000Y33400000D01*
%TO.N,/Headstage Interface/E2-*%
X41750000Y32400000D02*
X39850000Y32400000D01*
%TD*%
%TA.AperFunction,Conductor*%
%TO.N,GND*%
G36*
X103880943Y68499364D02*
G01*
X104176204Y68481463D01*
X104185084Y68480382D01*
X104473822Y68427344D01*
X104482505Y68425199D01*
X104762730Y68337660D01*
X104771082Y68334485D01*
X105038684Y68213731D01*
X105046594Y68209567D01*
X105199024Y68117157D01*
X105297626Y68057379D01*
X105304990Y68052281D01*
X105535800Y67870878D01*
X105542494Y67864927D01*
X105749189Y67657475D01*
X105749688Y67656975D01*
X105755615Y67650259D01*
X105936173Y67418790D01*
X105941244Y67411408D01*
X106092517Y67159818D01*
X106096659Y67151876D01*
X106216420Y66883868D01*
X106219573Y66875485D01*
X106306082Y66594960D01*
X106308199Y66586257D01*
X106360183Y66297328D01*
X106361232Y66288433D01*
X106378054Y65993123D01*
X106378174Y65988920D01*
X106378174Y65988415D01*
X106377943Y65924982D01*
X106378179Y65924087D01*
X106378180Y65918420D01*
X106378180Y3002237D01*
X106378045Y2997769D01*
X106360226Y2703190D01*
X106359149Y2694319D01*
X106306355Y2406232D01*
X106304216Y2397556D01*
X106217087Y2117951D01*
X106213919Y2109595D01*
X106093712Y1842508D01*
X106089559Y1834596D01*
X105938044Y1583960D01*
X105932968Y1576606D01*
X105752343Y1346056D01*
X105746417Y1339367D01*
X105539320Y1132272D01*
X105532631Y1126346D01*
X105302081Y945723D01*
X105294727Y940647D01*
X105044086Y789131D01*
X105036173Y784978D01*
X104769093Y664777D01*
X104760738Y661609D01*
X104481129Y574481D01*
X104472453Y572342D01*
X104184365Y519549D01*
X104175493Y518472D01*
X103880585Y500636D01*
X103876119Y500501D01*
X103843986Y500501D01*
X103812791Y500501D01*
X103812787Y500501D01*
X103808247Y500500D01*
X103808246Y500501D01*
X103808246Y500500D01*
X42277493Y500500D01*
X42225167Y522174D01*
X42203493Y574500D01*
X42225167Y626826D01*
X42245383Y641171D01*
X42409893Y720395D01*
X42657206Y875792D01*
X42885565Y1057902D01*
X43092098Y1264435D01*
X43274208Y1492794D01*
X43429605Y1740107D01*
X43556335Y2003263D01*
X43556335Y2003266D01*
X43556338Y2003270D01*
X43652798Y2278942D01*
X43652803Y2278955D01*
X43717798Y2563714D01*
X43750500Y2853959D01*
X43750500Y3146041D01*
X43717798Y3436286D01*
X43652803Y3721045D01*
X43608161Y3848626D01*
X43556338Y3996731D01*
X43429605Y4259892D01*
X43429605Y4259893D01*
X43274208Y4507206D01*
X43092098Y4735565D01*
X42885565Y4942098D01*
X42657206Y5124208D01*
X42409893Y5279605D01*
X42356155Y5305484D01*
X42146730Y5406339D01*
X41871058Y5502799D01*
X41871040Y5502805D01*
X41586289Y5567798D01*
X41461895Y5581814D01*
X41296041Y5600500D01*
X41003959Y5600500D01*
X40858836Y5584149D01*
X40713710Y5567798D01*
X40428959Y5502805D01*
X40428941Y5502799D01*
X40153269Y5406339D01*
X39890108Y5279606D01*
X39661681Y5136076D01*
X39605844Y5126589D01*
X39569985Y5146408D01*
X39072174Y5644219D01*
X39050500Y5696545D01*
X39050500Y9072860D01*
X39060414Y9109860D01*
X39069799Y9126114D01*
X39100499Y9240689D01*
X39100500Y9240689D01*
X39100500Y9359311D01*
X39100499Y9359312D01*
X39069800Y9473883D01*
X39069796Y9473892D01*
X39060414Y9490143D01*
X39050500Y9527142D01*
X39050500Y14218990D01*
X39053022Y14238143D01*
X39062957Y14275220D01*
X39080499Y14340689D01*
X39080500Y14340689D01*
X39080500Y14459311D01*
X39080499Y14459312D01*
X39053022Y14561859D01*
X39050500Y14581012D01*
X39050500Y18995129D01*
X81719500Y18995129D01*
X81719500Y18874871D01*
X81724681Y18848822D01*
X81742959Y18756931D01*
X81742961Y18756924D01*
X81788981Y18645821D01*
X81788982Y18645820D01*
X81855794Y18545829D01*
X81940829Y18460794D01*
X82040820Y18393982D01*
X82151924Y18347961D01*
X82269871Y18324500D01*
X82269872Y18324500D01*
X82390128Y18324500D01*
X82390129Y18324500D01*
X82508076Y18347961D01*
X82619180Y18393982D01*
X82719171Y18460794D01*
X82804206Y18545829D01*
X82871018Y18645820D01*
X82917039Y18756924D01*
X82940500Y18874871D01*
X82940500Y18995129D01*
X82917039Y19113076D01*
X82871018Y19224180D01*
X82804206Y19324171D01*
X82719171Y19409206D01*
X82719167Y19409209D01*
X82619179Y19476019D01*
X82508076Y19522039D01*
X82508069Y19522041D01*
X82419215Y19539715D01*
X82390129Y19545500D01*
X82269871Y19545500D01*
X82246538Y19540859D01*
X82151930Y19522041D01*
X82151923Y19522039D01*
X82040820Y19476019D01*
X81940832Y19409209D01*
X81855791Y19324168D01*
X81788981Y19224180D01*
X81742961Y19113077D01*
X81742959Y19113070D01*
X81719500Y18995129D01*
X39050500Y18995129D01*
X39050500Y22750208D01*
X80700001Y22750208D01*
X80702908Y22725132D01*
X80702910Y22725126D01*
X80748213Y22622522D01*
X80798780Y22571955D01*
X80820454Y22519629D01*
X80811733Y22490872D01*
X80813922Y22489965D01*
X80811133Y22483233D01*
X80799500Y22424747D01*
X80799500Y21975254D01*
X80811133Y21916768D01*
X80859497Y21844389D01*
X80857430Y21843009D01*
X80875245Y21800000D01*
X80857430Y21756992D01*
X80859497Y21755611D01*
X80811133Y21683233D01*
X80803377Y21644243D01*
X80799500Y21624748D01*
X80799500Y21175252D01*
X80807255Y21136264D01*
X80811133Y21116768D01*
X80839786Y21073888D01*
X80855448Y21050448D01*
X80899560Y21020973D01*
X80921767Y21006134D01*
X80921768Y21006134D01*
X80921769Y21006133D01*
X80980252Y20994500D01*
X80980254Y20994500D01*
X83292746Y20994500D01*
X83292748Y20994500D01*
X83351231Y21006133D01*
X83417552Y21050448D01*
X83461867Y21116769D01*
X83473500Y21175252D01*
X83473500Y21624748D01*
X83461867Y21683231D01*
X83417552Y21749552D01*
X83417551Y21749553D01*
X83413503Y21755611D01*
X83415569Y21756992D01*
X83397755Y21800000D01*
X83415569Y21843009D01*
X83413503Y21844389D01*
X83435846Y21877826D01*
X83461867Y21916769D01*
X83473500Y21975252D01*
X83473500Y22424748D01*
X83461867Y22483231D01*
X83461866Y22483233D01*
X83461866Y22483234D01*
X83459077Y22489968D01*
X83462457Y22491369D01*
X83453971Y22534080D01*
X83474221Y22571956D01*
X83524785Y22622520D01*
X83570089Y22725125D01*
X83573000Y22750208D01*
X86427001Y22750208D01*
X86429908Y22725132D01*
X86429910Y22725126D01*
X86475213Y22622522D01*
X86525780Y22571955D01*
X86547454Y22519629D01*
X86538733Y22490872D01*
X86540922Y22489965D01*
X86538133Y22483233D01*
X86526500Y22424747D01*
X86526500Y21975254D01*
X86538133Y21916768D01*
X86586497Y21844389D01*
X86584430Y21843009D01*
X86602245Y21800000D01*
X86584430Y21756992D01*
X86586497Y21755611D01*
X86538133Y21683233D01*
X86530377Y21644243D01*
X86526500Y21624748D01*
X86526500Y21175252D01*
X86534255Y21136264D01*
X86538133Y21116768D01*
X86566786Y21073888D01*
X86582448Y21050448D01*
X86626560Y21020973D01*
X86648767Y21006134D01*
X86648768Y21006134D01*
X86648769Y21006133D01*
X86707252Y20994500D01*
X86707254Y20994500D01*
X89019746Y20994500D01*
X89019748Y20994500D01*
X89078231Y21006133D01*
X89144552Y21050448D01*
X89188867Y21116769D01*
X89200500Y21175252D01*
X89200500Y21624748D01*
X89188867Y21683231D01*
X89144552Y21749552D01*
X89144551Y21749553D01*
X89140503Y21755611D01*
X89142569Y21756992D01*
X89124755Y21800000D01*
X89142569Y21843009D01*
X89140503Y21844389D01*
X89162846Y21877826D01*
X89188867Y21916769D01*
X89200500Y21975252D01*
X89200500Y22424748D01*
X89188867Y22483231D01*
X89188866Y22483233D01*
X89188866Y22483234D01*
X89186077Y22489968D01*
X89189457Y22491369D01*
X89180971Y22534080D01*
X89201221Y22571956D01*
X89251785Y22622520D01*
X89297089Y22725125D01*
X89300000Y22750211D01*
X89300000Y22900000D01*
X86427001Y22900000D01*
X86427001Y22750208D01*
X83573000Y22750208D01*
X83573000Y22750211D01*
X83573000Y22900000D01*
X80700001Y22900000D01*
X80700001Y22750208D01*
X39050500Y22750208D01*
X39050500Y23249790D01*
X80700000Y23249790D01*
X80700000Y23100000D01*
X83572999Y23100000D01*
X83572999Y23249790D01*
X86427000Y23249790D01*
X86427000Y23100000D01*
X89299999Y23100000D01*
X89299999Y23249793D01*
X89297091Y23274869D01*
X89297089Y23274875D01*
X89251786Y23377479D01*
X89201219Y23428046D01*
X89179545Y23480372D01*
X89188275Y23509126D01*
X89186078Y23510036D01*
X89188866Y23516768D01*
X89188865Y23516768D01*
X89188867Y23516769D01*
X89200500Y23575252D01*
X89200500Y24024748D01*
X89188867Y24083231D01*
X89144552Y24149552D01*
X89144551Y24149553D01*
X89140503Y24155611D01*
X89142569Y24156992D01*
X89124755Y24200000D01*
X89142569Y24243009D01*
X89140503Y24244389D01*
X89188866Y24316768D01*
X89188865Y24316768D01*
X89188867Y24316769D01*
X89200500Y24375252D01*
X89200500Y24824748D01*
X89188867Y24883231D01*
X89144552Y24949552D01*
X89144551Y24949553D01*
X89140503Y24955611D01*
X89142569Y24956992D01*
X89124755Y25000000D01*
X89142569Y25043009D01*
X89140503Y25044389D01*
X89188866Y25116768D01*
X89188865Y25116768D01*
X89188867Y25116769D01*
X89200500Y25175252D01*
X89200500Y25624748D01*
X89188867Y25683231D01*
X89144552Y25749552D01*
X89144551Y25749553D01*
X89140503Y25755611D01*
X89142569Y25756992D01*
X89124755Y25800000D01*
X89142569Y25843009D01*
X89140503Y25844389D01*
X89188866Y25916768D01*
X89188865Y25916768D01*
X89188867Y25916769D01*
X89200500Y25975252D01*
X89200500Y26424748D01*
X89188867Y26483231D01*
X89144552Y26549552D01*
X89144551Y26549553D01*
X89140503Y26555611D01*
X89142569Y26556992D01*
X89124755Y26600000D01*
X89142569Y26643009D01*
X89140503Y26644389D01*
X89188866Y26716768D01*
X89188865Y26716768D01*
X89188867Y26716769D01*
X89200500Y26775252D01*
X89200500Y27224748D01*
X89188867Y27283231D01*
X89144552Y27349552D01*
X89144551Y27349553D01*
X89140503Y27355611D01*
X89142569Y27356992D01*
X89124755Y27400000D01*
X89142569Y27443009D01*
X89140503Y27444389D01*
X89188866Y27516768D01*
X89188865Y27516768D01*
X89188867Y27516769D01*
X89200500Y27575252D01*
X89200500Y28024748D01*
X89188867Y28083231D01*
X89144552Y28149552D01*
X89144551Y28149553D01*
X89140503Y28155611D01*
X89142569Y28156992D01*
X89124755Y28200000D01*
X89142569Y28243009D01*
X89140503Y28244389D01*
X89175354Y28296545D01*
X89188867Y28316769D01*
X89200500Y28375252D01*
X89200500Y28824748D01*
X89188867Y28883231D01*
X89144552Y28949552D01*
X89144551Y28949553D01*
X89140503Y28955611D01*
X89142569Y28956992D01*
X89124755Y29000000D01*
X89142569Y29043009D01*
X89140503Y29044389D01*
X89184252Y29109862D01*
X89188867Y29116769D01*
X89200500Y29175252D01*
X89200500Y29624748D01*
X89188867Y29683231D01*
X89188866Y29683233D01*
X89188866Y29683234D01*
X89186077Y29689968D01*
X89189457Y29691369D01*
X89180971Y29734080D01*
X89201221Y29771956D01*
X89251785Y29822520D01*
X89297089Y29925125D01*
X89300000Y29950211D01*
X89300000Y30100000D01*
X86427001Y30100000D01*
X86427001Y29950208D01*
X86429908Y29925132D01*
X86429910Y29925126D01*
X86475213Y29822522D01*
X86525780Y29771955D01*
X86547454Y29719629D01*
X86538733Y29690872D01*
X86540922Y29689965D01*
X86538133Y29683233D01*
X86526500Y29624747D01*
X86526500Y29175254D01*
X86538133Y29116768D01*
X86586497Y29044389D01*
X86584430Y29043009D01*
X86602245Y29000000D01*
X86584430Y28956992D01*
X86586497Y28955611D01*
X86582448Y28949553D01*
X86582448Y28949552D01*
X86575739Y28939511D01*
X86538133Y28883233D01*
X86526500Y28824747D01*
X86526500Y28375254D01*
X86538133Y28316768D01*
X86586497Y28244389D01*
X86584430Y28243009D01*
X86602245Y28200000D01*
X86584430Y28156992D01*
X86586497Y28155611D01*
X86538133Y28083233D01*
X86526500Y28024747D01*
X86526500Y27575254D01*
X86538133Y27516768D01*
X86586497Y27444389D01*
X86584430Y27443009D01*
X86602245Y27400000D01*
X86584430Y27356992D01*
X86586497Y27355611D01*
X86538133Y27283233D01*
X86526500Y27224747D01*
X86526500Y26775254D01*
X86538133Y26716768D01*
X86586497Y26644389D01*
X86584430Y26643009D01*
X86602245Y26600000D01*
X86584430Y26556992D01*
X86586497Y26555611D01*
X86538133Y26483233D01*
X86526500Y26424747D01*
X86526500Y25975254D01*
X86538133Y25916768D01*
X86586497Y25844389D01*
X86584430Y25843009D01*
X86602245Y25800000D01*
X86584430Y25756992D01*
X86586497Y25755611D01*
X86538133Y25683233D01*
X86526500Y25624747D01*
X86526500Y25175254D01*
X86538133Y25116768D01*
X86586497Y25044389D01*
X86584430Y25043009D01*
X86602245Y25000000D01*
X86584430Y24956992D01*
X86586497Y24955611D01*
X86538133Y24883233D01*
X86526500Y24824747D01*
X86526500Y24375254D01*
X86538133Y24316768D01*
X86586497Y24244389D01*
X86584430Y24243009D01*
X86602245Y24200000D01*
X86584430Y24156992D01*
X86586497Y24155611D01*
X86538133Y24083233D01*
X86526500Y24024747D01*
X86526500Y23575254D01*
X86538133Y23516767D01*
X86540923Y23510032D01*
X86537543Y23508633D01*
X86546026Y23465908D01*
X86525779Y23428046D01*
X86475214Y23377481D01*
X86429910Y23274876D01*
X86427000Y23249790D01*
X83572999Y23249790D01*
X83572999Y23249793D01*
X83570091Y23274869D01*
X83570089Y23274875D01*
X83524786Y23377479D01*
X83474219Y23428046D01*
X83452545Y23480372D01*
X83461275Y23509126D01*
X83459078Y23510036D01*
X83461866Y23516768D01*
X83461865Y23516768D01*
X83461867Y23516769D01*
X83473500Y23575252D01*
X83473500Y24024748D01*
X83461867Y24083231D01*
X83417552Y24149552D01*
X83417551Y24149553D01*
X83413503Y24155611D01*
X83415569Y24156992D01*
X83397755Y24200000D01*
X83415569Y24243009D01*
X83413503Y24244389D01*
X83461866Y24316768D01*
X83461865Y24316768D01*
X83461867Y24316769D01*
X83473500Y24375252D01*
X83473500Y24824748D01*
X83461867Y24883231D01*
X83417552Y24949552D01*
X83417551Y24949553D01*
X83413503Y24955611D01*
X83415569Y24956992D01*
X83397755Y25000000D01*
X83415569Y25043009D01*
X83413503Y25044389D01*
X83461866Y25116768D01*
X83461865Y25116768D01*
X83461867Y25116769D01*
X83473500Y25175252D01*
X83473500Y25624748D01*
X83461867Y25683231D01*
X83417552Y25749552D01*
X83417551Y25749553D01*
X83413503Y25755611D01*
X83415569Y25756992D01*
X83397755Y25800000D01*
X83415569Y25843009D01*
X83413503Y25844389D01*
X83461866Y25916768D01*
X83461865Y25916768D01*
X83461867Y25916769D01*
X83473500Y25975252D01*
X83473500Y26424748D01*
X83461867Y26483231D01*
X83417552Y26549552D01*
X83417551Y26549553D01*
X83413503Y26555611D01*
X83415569Y26556992D01*
X83397755Y26600000D01*
X83415569Y26643009D01*
X83413503Y26644389D01*
X83461866Y26716768D01*
X83461865Y26716768D01*
X83461867Y26716769D01*
X83473500Y26775252D01*
X83473500Y27224748D01*
X83461867Y27283231D01*
X83417552Y27349552D01*
X83417551Y27349553D01*
X83413503Y27355611D01*
X83415569Y27356992D01*
X83397755Y27400000D01*
X83415569Y27443009D01*
X83413503Y27444389D01*
X83461866Y27516768D01*
X83461865Y27516768D01*
X83461867Y27516769D01*
X83473500Y27575252D01*
X83473500Y28024748D01*
X83461867Y28083231D01*
X83417552Y28149552D01*
X83417551Y28149553D01*
X83413503Y28155611D01*
X83415569Y28156992D01*
X83397755Y28200000D01*
X83415569Y28243009D01*
X83413503Y28244389D01*
X83448354Y28296545D01*
X83461867Y28316769D01*
X83473500Y28375252D01*
X83473500Y28824748D01*
X83461867Y28883231D01*
X83417552Y28949552D01*
X83417551Y28949553D01*
X83413503Y28955611D01*
X83415569Y28956992D01*
X83397755Y29000000D01*
X83415569Y29043009D01*
X83413503Y29044389D01*
X83457252Y29109862D01*
X83461867Y29116769D01*
X83473500Y29175252D01*
X83473500Y29624748D01*
X83461867Y29683231D01*
X83461866Y29683233D01*
X83461866Y29683234D01*
X83459077Y29689968D01*
X83462457Y29691369D01*
X83453971Y29734080D01*
X83474221Y29771956D01*
X83524785Y29822520D01*
X83570089Y29925125D01*
X83573000Y29950211D01*
X83573000Y30100000D01*
X80700001Y30100000D01*
X80700001Y29950208D01*
X80702908Y29925132D01*
X80702910Y29925126D01*
X80748213Y29822522D01*
X80798780Y29771955D01*
X80820454Y29719629D01*
X80811733Y29690872D01*
X80813922Y29689965D01*
X80811133Y29683233D01*
X80799500Y29624747D01*
X80799500Y29175254D01*
X80811133Y29116768D01*
X80859497Y29044389D01*
X80857430Y29043009D01*
X80875245Y29000000D01*
X80857430Y28956992D01*
X80859497Y28955611D01*
X80855448Y28949553D01*
X80855448Y28949552D01*
X80848739Y28939511D01*
X80811133Y28883233D01*
X80799500Y28824747D01*
X80799500Y28375254D01*
X80811133Y28316768D01*
X80859497Y28244389D01*
X80857430Y28243009D01*
X80875245Y28200000D01*
X80857430Y28156992D01*
X80859497Y28155611D01*
X80811133Y28083233D01*
X80799500Y28024747D01*
X80799500Y27575254D01*
X80811133Y27516768D01*
X80859497Y27444389D01*
X80857430Y27443009D01*
X80875245Y27400000D01*
X80857430Y27356992D01*
X80859497Y27355611D01*
X80811133Y27283233D01*
X80799500Y27224747D01*
X80799500Y26775254D01*
X80811133Y26716768D01*
X80859497Y26644389D01*
X80857430Y26643009D01*
X80875245Y26600000D01*
X80857430Y26556992D01*
X80859497Y26555611D01*
X80811133Y26483233D01*
X80799500Y26424747D01*
X80799500Y25975254D01*
X80811133Y25916768D01*
X80859497Y25844389D01*
X80857430Y25843009D01*
X80875245Y25800000D01*
X80857430Y25756992D01*
X80859497Y25755611D01*
X80811133Y25683233D01*
X80799500Y25624747D01*
X80799500Y25175254D01*
X80811133Y25116768D01*
X80859497Y25044389D01*
X80857430Y25043009D01*
X80875245Y25000000D01*
X80857430Y24956992D01*
X80859497Y24955611D01*
X80811133Y24883233D01*
X80799500Y24824747D01*
X80799500Y24375254D01*
X80811133Y24316768D01*
X80859497Y24244389D01*
X80857430Y24243009D01*
X80875245Y24200000D01*
X80857430Y24156992D01*
X80859497Y24155611D01*
X80811133Y24083233D01*
X80799500Y24024747D01*
X80799500Y23575254D01*
X80811133Y23516767D01*
X80813923Y23510032D01*
X80810543Y23508633D01*
X80819026Y23465908D01*
X80798779Y23428046D01*
X80748214Y23377481D01*
X80702910Y23274876D01*
X80700000Y23249790D01*
X39050500Y23249790D01*
X39050500Y28641302D01*
X39050501Y28641315D01*
X39050501Y28752729D01*
X39050500Y28752730D01*
X39023208Y28854584D01*
X39023206Y28854589D01*
X38978441Y28932123D01*
X38974176Y28939511D01*
X38970480Y28945913D01*
X38895913Y29020480D01*
X38895911Y29020481D01*
X38889410Y29026982D01*
X38880841Y29035552D01*
X38859169Y29087878D01*
X38868188Y29121529D01*
X38867942Y29121631D01*
X38868717Y29123504D01*
X38869086Y29124880D01*
X38869799Y29126114D01*
X38900499Y29240689D01*
X38900500Y29240689D01*
X38900500Y29359311D01*
X38900499Y29359312D01*
X38869800Y29473883D01*
X38869798Y29473888D01*
X38810491Y29576610D01*
X38810490Y29576611D01*
X38810489Y29576613D01*
X38726613Y29660489D01*
X38726610Y29660491D01*
X38726609Y29660492D01*
X38623887Y29719799D01*
X38623882Y29719801D01*
X38509311Y29750500D01*
X38509309Y29750500D01*
X38390691Y29750500D01*
X38390689Y29750500D01*
X38276117Y29719801D01*
X38276112Y29719799D01*
X38173390Y29660492D01*
X38089508Y29576610D01*
X38030201Y29473888D01*
X38030199Y29473883D01*
X37999500Y29359312D01*
X37999500Y29240689D01*
X38030199Y29126118D01*
X38030200Y29126117D01*
X38030201Y29126114D01*
X38039585Y29109860D01*
X38049500Y29072860D01*
X38049500Y28952727D01*
X38049500Y28847273D01*
X38055536Y28824747D01*
X38076793Y28745412D01*
X38076795Y28745408D01*
X38129518Y28654089D01*
X38227826Y28555782D01*
X38249500Y28503456D01*
X38249500Y14661783D01*
X38239586Y14624783D01*
X38210201Y14573888D01*
X38210199Y14573883D01*
X38179500Y14459312D01*
X38179500Y14340689D01*
X38210199Y14226118D01*
X38210202Y14226110D01*
X38239585Y14175220D01*
X38249500Y14138219D01*
X38249500Y9527142D01*
X38239586Y9490143D01*
X38230203Y9473892D01*
X38230199Y9473883D01*
X38199500Y9359312D01*
X38199500Y9240689D01*
X38230199Y9126118D01*
X38230200Y9126116D01*
X38230201Y9126114D01*
X38239585Y9109860D01*
X38249500Y9072860D01*
X38249500Y5552727D01*
X38249500Y5447273D01*
X38260468Y5406339D01*
X38276793Y5345412D01*
X38276795Y5345408D01*
X38329517Y5254091D01*
X38329518Y5254090D01*
X38329520Y5254087D01*
X38681637Y4901970D01*
X39003592Y4580015D01*
X39025266Y4527689D01*
X39013924Y4488319D01*
X38870394Y4259892D01*
X38743661Y3996731D01*
X38647201Y3721059D01*
X38647195Y3721041D01*
X38582202Y3436290D01*
X38563515Y3270432D01*
X38549500Y3146041D01*
X38549500Y2853959D01*
X38558716Y2772166D01*
X38582202Y2563711D01*
X38647195Y2278960D01*
X38647201Y2278942D01*
X38743661Y2003270D01*
X38832259Y1819297D01*
X38870395Y1740107D01*
X39025792Y1492794D01*
X39207902Y1264435D01*
X39414435Y1057902D01*
X39642794Y875792D01*
X39890107Y720395D01*
X40054615Y641172D01*
X40092354Y598940D01*
X40089179Y542392D01*
X40046947Y504653D01*
X40022507Y500500D01*
X32277493Y500500D01*
X32225167Y522174D01*
X32203493Y574500D01*
X32225167Y626826D01*
X32245383Y641171D01*
X32409893Y720395D01*
X32657206Y875792D01*
X32885565Y1057902D01*
X33092098Y1264435D01*
X33274208Y1492794D01*
X33429605Y1740107D01*
X33556335Y2003263D01*
X33556335Y2003266D01*
X33556338Y2003270D01*
X33652798Y2278942D01*
X33652803Y2278955D01*
X33717798Y2563714D01*
X33750500Y2853959D01*
X33750500Y3146041D01*
X33717798Y3436286D01*
X33652803Y3721045D01*
X33608161Y3848626D01*
X33556338Y3996731D01*
X33429605Y4259892D01*
X33429605Y4259893D01*
X33300397Y4465527D01*
X33286075Y4488320D01*
X33276588Y4544157D01*
X33296405Y4580014D01*
X33970480Y5254087D01*
X34023207Y5345412D01*
X34050500Y5447273D01*
X34050500Y5552727D01*
X34050500Y9072860D01*
X34060414Y9109860D01*
X34069799Y9126114D01*
X34100499Y9240689D01*
X34100500Y9240689D01*
X34100500Y9359311D01*
X34100499Y9359312D01*
X34069800Y9473883D01*
X34069796Y9473892D01*
X34060414Y9490143D01*
X34050500Y9527142D01*
X34050500Y14318988D01*
X34053020Y14338134D01*
X34054655Y14344238D01*
X34073807Y14377416D01*
X36820480Y17124087D01*
X36873207Y17215412D01*
X36900500Y17317273D01*
X36900500Y17422727D01*
X36900500Y29272860D01*
X36910414Y29309860D01*
X36919799Y29326114D01*
X36950499Y29440689D01*
X36950500Y29440689D01*
X36950500Y29559311D01*
X36950499Y29559312D01*
X36919800Y29673883D01*
X36919798Y29673888D01*
X36860491Y29776610D01*
X36860490Y29776611D01*
X36860489Y29776613D01*
X36776613Y29860489D01*
X36776610Y29860491D01*
X36776609Y29860492D01*
X36673887Y29919799D01*
X36673882Y29919801D01*
X36559311Y29950500D01*
X36559309Y29950500D01*
X36440691Y29950500D01*
X36440689Y29950500D01*
X36326117Y29919801D01*
X36326112Y29919799D01*
X36223390Y29860492D01*
X36139508Y29776610D01*
X36080201Y29673888D01*
X36080199Y29673883D01*
X36049500Y29559312D01*
X36049500Y29440689D01*
X36080199Y29326118D01*
X36080200Y29326116D01*
X36080201Y29326114D01*
X36089585Y29309860D01*
X36099500Y29272860D01*
X36099500Y17566546D01*
X36077826Y17514220D01*
X33507415Y14943810D01*
X33474245Y14924658D01*
X33456113Y14919799D01*
X33456112Y14919799D01*
X33353390Y14860492D01*
X33269508Y14776610D01*
X33210201Y14673888D01*
X33210199Y14673883D01*
X33179500Y14559312D01*
X33179500Y14440689D01*
X33210199Y14326118D01*
X33210202Y14326110D01*
X33239585Y14275220D01*
X33249500Y14238219D01*
X33249500Y9527142D01*
X33239586Y9490143D01*
X33230203Y9473892D01*
X33230199Y9473883D01*
X33199500Y9359312D01*
X33199500Y9240689D01*
X33230199Y9126118D01*
X33230200Y9126116D01*
X33230201Y9126114D01*
X33239585Y9109860D01*
X33249500Y9072860D01*
X33249500Y5696546D01*
X33227826Y5644220D01*
X32730013Y5146408D01*
X32677687Y5124734D01*
X32638319Y5136076D01*
X32409893Y5279605D01*
X32356155Y5305484D01*
X32146730Y5406339D01*
X31871058Y5502799D01*
X31871040Y5502805D01*
X31586289Y5567798D01*
X31461895Y5581814D01*
X31296041Y5600500D01*
X31003959Y5600500D01*
X30858836Y5584149D01*
X30713710Y5567798D01*
X30428959Y5502805D01*
X30428941Y5502799D01*
X30153269Y5406339D01*
X29890108Y5279606D01*
X29642793Y5124208D01*
X29414431Y4942095D01*
X29207905Y4735569D01*
X29025792Y4507207D01*
X28870394Y4259892D01*
X28743661Y3996731D01*
X28647201Y3721059D01*
X28647195Y3721041D01*
X28582202Y3436290D01*
X28563515Y3270432D01*
X28549500Y3146041D01*
X28549500Y2853959D01*
X28558716Y2772166D01*
X28582202Y2563711D01*
X28647195Y2278960D01*
X28647201Y2278942D01*
X28743661Y2003270D01*
X28832259Y1819297D01*
X28870395Y1740107D01*
X29025792Y1492794D01*
X29207902Y1264435D01*
X29414435Y1057902D01*
X29642794Y875792D01*
X29890107Y720395D01*
X30054615Y641172D01*
X30092354Y598940D01*
X30089179Y542392D01*
X30046947Y504653D01*
X30022507Y500500D01*
X20249163Y500500D01*
X20196837Y522174D01*
X20175163Y574500D01*
X20196837Y626826D01*
X20217055Y641172D01*
X20408097Y733174D01*
X20664874Y894517D01*
X20901969Y1083594D01*
X20938477Y1120101D01*
X20019238Y2039340D01*
X20160660Y2180762D01*
X21079899Y1261523D01*
X21116406Y1298031D01*
X21305483Y1535126D01*
X21466826Y1791903D01*
X21598406Y2065131D01*
X21698562Y2351359D01*
X21698567Y2351375D01*
X21766045Y2647017D01*
X21766045Y2647018D01*
X21800000Y2948375D01*
X21800000Y3251626D01*
X21766045Y3552983D01*
X21766045Y3552984D01*
X21698567Y3848626D01*
X21698562Y3848642D01*
X21598406Y4134870D01*
X21466826Y4408098D01*
X21305483Y4664875D01*
X21116406Y4901970D01*
X21079899Y4938477D01*
X20160660Y4019239D01*
X20019238Y4160661D01*
X20938477Y5079899D01*
X20901969Y5116407D01*
X20664874Y5305484D01*
X20408097Y5466827D01*
X20134869Y5598407D01*
X19848641Y5698563D01*
X19848625Y5698568D01*
X19552983Y5766046D01*
X19251625Y5800000D01*
X18948375Y5800000D01*
X18647017Y5766046D01*
X18647016Y5766046D01*
X18351374Y5698568D01*
X18351358Y5698563D01*
X18065130Y5598407D01*
X17791902Y5466827D01*
X17535125Y5305484D01*
X17298030Y5116407D01*
X17261523Y5079899D01*
X18180761Y4160661D01*
X18039339Y4019239D01*
X17120101Y4938477D01*
X17083593Y4901970D01*
X16894516Y4664875D01*
X16733173Y4408098D01*
X16601593Y4134870D01*
X16501437Y3848642D01*
X16501432Y3848626D01*
X16433954Y3552984D01*
X16433954Y3552983D01*
X16400000Y3251626D01*
X16400000Y2948375D01*
X16433954Y2647018D01*
X16433954Y2647017D01*
X16501432Y2351375D01*
X16501437Y2351359D01*
X16601593Y2065131D01*
X16733173Y1791903D01*
X16894516Y1535126D01*
X17083593Y1298031D01*
X17120101Y1261523D01*
X18039339Y2180762D01*
X18180761Y2039340D01*
X17261523Y1120101D01*
X17298030Y1083594D01*
X17535125Y894517D01*
X17791902Y733174D01*
X17982945Y641172D01*
X18020684Y598940D01*
X18017509Y542392D01*
X17975277Y504653D01*
X17950837Y500500D01*
X3002236Y500500D01*
X2997768Y500635D01*
X2997751Y500636D01*
X2988852Y501175D01*
X2703188Y518454D01*
X2694317Y519531D01*
X2406228Y572325D01*
X2397552Y574464D01*
X2397497Y574481D01*
X2117946Y661593D01*
X2109590Y664761D01*
X1842502Y784968D01*
X1834590Y789121D01*
X1583953Y940637D01*
X1576599Y945713D01*
X1346048Y1126337D01*
X1339359Y1132263D01*
X1132262Y1339360D01*
X1126336Y1346049D01*
X945712Y1576600D01*
X940636Y1583954D01*
X789120Y1834591D01*
X784967Y1842503D01*
X712615Y2003263D01*
X664757Y2109599D01*
X661595Y2117938D01*
X574460Y2397565D01*
X572327Y2406216D01*
X519528Y2694327D01*
X518454Y2703179D01*
X500635Y2997769D01*
X500500Y3002237D01*
X500500Y18995129D01*
X11719500Y18995129D01*
X11719500Y18874871D01*
X11724681Y18848822D01*
X11742959Y18756931D01*
X11742961Y18756924D01*
X11788981Y18645821D01*
X11788982Y18645820D01*
X11855794Y18545829D01*
X11940829Y18460794D01*
X12040820Y18393982D01*
X12151924Y18347961D01*
X12269871Y18324500D01*
X12269872Y18324500D01*
X12390128Y18324500D01*
X12390129Y18324500D01*
X12508076Y18347961D01*
X12619180Y18393982D01*
X12719171Y18460794D01*
X12804206Y18545829D01*
X12871018Y18645820D01*
X12917039Y18756924D01*
X12940500Y18874871D01*
X12940500Y18995129D01*
X12917039Y19113076D01*
X12871018Y19224180D01*
X12804206Y19324171D01*
X12719171Y19409206D01*
X12719167Y19409209D01*
X12619179Y19476019D01*
X12508076Y19522039D01*
X12508069Y19522041D01*
X12419215Y19539715D01*
X12390129Y19545500D01*
X12269871Y19545500D01*
X12246538Y19540859D01*
X12151930Y19522041D01*
X12151923Y19522039D01*
X12040820Y19476019D01*
X11940832Y19409209D01*
X11855791Y19324168D01*
X11788981Y19224180D01*
X11742961Y19113077D01*
X11742959Y19113070D01*
X11719500Y18995129D01*
X500500Y18995129D01*
X500500Y20959312D01*
X9649500Y20959312D01*
X9649500Y20840689D01*
X9680199Y20726118D01*
X9680201Y20726113D01*
X9739508Y20623391D01*
X9739509Y20623390D01*
X9739511Y20623387D01*
X9823387Y20539511D01*
X9926114Y20480201D01*
X9926115Y20480201D01*
X9926117Y20480200D01*
X9983402Y20464851D01*
X10040688Y20449501D01*
X10040689Y20449500D01*
X10040691Y20449500D01*
X10159311Y20449500D01*
X10159311Y20449501D01*
X10273886Y20480201D01*
X10376613Y20539511D01*
X10460489Y20623387D01*
X10519799Y20726114D01*
X10550499Y20840689D01*
X10550500Y20840689D01*
X10550500Y20959311D01*
X10550499Y20959312D01*
X10546503Y20974224D01*
X10519799Y21073886D01*
X10476143Y21149500D01*
X10460491Y21176610D01*
X10460490Y21176611D01*
X10460489Y21176613D01*
X10422173Y21214929D01*
X10400500Y21267254D01*
X10400500Y21544877D01*
X10422174Y21597203D01*
X10702797Y21877826D01*
X10755123Y21899500D01*
X10783119Y21899500D01*
X10835445Y21877826D01*
X10844647Y21866613D01*
X10859497Y21844389D01*
X10857430Y21843009D01*
X10875245Y21800000D01*
X10857430Y21756992D01*
X10859497Y21755611D01*
X10811133Y21683233D01*
X10803377Y21644243D01*
X10799500Y21624748D01*
X10799500Y21175252D01*
X10807255Y21136264D01*
X10811133Y21116768D01*
X10839786Y21073888D01*
X10855448Y21050448D01*
X10899560Y21020973D01*
X10921767Y21006134D01*
X10921768Y21006134D01*
X10921769Y21006133D01*
X10980252Y20994500D01*
X10980254Y20994500D01*
X13292750Y20994500D01*
X13296363Y20994856D01*
X13296476Y20993702D01*
X13348150Y20983440D01*
X13359383Y20974224D01*
X15027826Y19305781D01*
X15049500Y19253455D01*
X15049500Y18877142D01*
X15043867Y18848822D01*
X15042011Y18844342D01*
X15030201Y18823886D01*
X15024088Y18801076D01*
X15022231Y18796591D01*
X15017072Y18791433D01*
X15006190Y18772585D01*
X14077415Y17843810D01*
X14044245Y17824658D01*
X14026113Y17819799D01*
X14026112Y17819799D01*
X13923390Y17760492D01*
X13839508Y17676610D01*
X13780201Y17573888D01*
X13780201Y17573887D01*
X13775342Y17555755D01*
X13756190Y17522585D01*
X12677415Y16443810D01*
X12644245Y16424658D01*
X12626113Y16419799D01*
X12626112Y16419799D01*
X12523390Y16360492D01*
X12439508Y16276610D01*
X12380201Y16173888D01*
X12380201Y16173887D01*
X12375342Y16155755D01*
X12356190Y16122585D01*
X11379517Y15145910D01*
X11326792Y15054588D01*
X11326793Y15054587D01*
X11299500Y14952727D01*
X11299500Y13527142D01*
X11289586Y13490143D01*
X11280203Y13473892D01*
X11280199Y13473883D01*
X11249500Y13359312D01*
X11249500Y13240689D01*
X11280199Y13126118D01*
X11280200Y13126116D01*
X11280201Y13126114D01*
X11289585Y13109860D01*
X11299500Y13072860D01*
X11299500Y13027142D01*
X11289586Y12990143D01*
X11280203Y12973892D01*
X11280199Y12973883D01*
X11249500Y12859312D01*
X11249500Y12740689D01*
X11280199Y12626118D01*
X11280201Y12626113D01*
X11339508Y12523391D01*
X11339509Y12523390D01*
X11339511Y12523387D01*
X11423387Y12439511D01*
X11526114Y12380201D01*
X11526115Y12380201D01*
X11526117Y12380200D01*
X11583402Y12364851D01*
X11640688Y12349501D01*
X11640689Y12349500D01*
X11640691Y12349500D01*
X11759311Y12349500D01*
X11759311Y12349501D01*
X11873886Y12380201D01*
X11976613Y12439511D01*
X12060489Y12523387D01*
X12119799Y12626114D01*
X12150499Y12740689D01*
X12150500Y12740689D01*
X12150500Y12859311D01*
X12150499Y12859312D01*
X12119800Y12973883D01*
X12119796Y12973892D01*
X12110414Y12990143D01*
X12100500Y13027142D01*
X12100500Y13072860D01*
X12110414Y13109860D01*
X12119799Y13126114D01*
X12150499Y13240689D01*
X12150500Y13240689D01*
X12150500Y13359311D01*
X12150499Y13359312D01*
X12119800Y13473883D01*
X12119796Y13473892D01*
X12110414Y13490143D01*
X12100500Y13527142D01*
X12100500Y14703456D01*
X12122173Y14755781D01*
X12922585Y15556194D01*
X12955756Y15575344D01*
X12973886Y15580201D01*
X13076613Y15639511D01*
X13160489Y15723387D01*
X13219799Y15826114D01*
X13224656Y15844244D01*
X13243806Y15877415D01*
X14322585Y16956194D01*
X14355756Y16975344D01*
X14373886Y16980201D01*
X14476613Y17039511D01*
X14560489Y17123387D01*
X14619799Y17226114D01*
X14624656Y17244244D01*
X14643806Y17277415D01*
X14925703Y17559312D01*
X16649500Y17559312D01*
X16649500Y17440689D01*
X16680199Y17326118D01*
X16680201Y17326113D01*
X16739508Y17223391D01*
X16739509Y17223390D01*
X16739511Y17223387D01*
X16777826Y17185072D01*
X16799500Y17132747D01*
X16799500Y16467254D01*
X16777827Y16414929D01*
X16739508Y16376610D01*
X16680201Y16273888D01*
X16680199Y16273883D01*
X16649500Y16159312D01*
X16649500Y16040689D01*
X16680199Y15926118D01*
X16680201Y15926113D01*
X16739508Y15823391D01*
X16739509Y15823390D01*
X16739511Y15823387D01*
X16823387Y15739511D01*
X16926114Y15680201D01*
X16926115Y15680201D01*
X16926117Y15680200D01*
X16983402Y15664851D01*
X17040688Y15649501D01*
X17040689Y15649500D01*
X17040691Y15649500D01*
X17159311Y15649500D01*
X17159311Y15649501D01*
X17273886Y15680201D01*
X17376613Y15739511D01*
X17460489Y15823387D01*
X17519799Y15926114D01*
X17550499Y16040689D01*
X17550500Y16040689D01*
X17550500Y16159311D01*
X17550499Y16159312D01*
X17546593Y16173888D01*
X17519799Y16273886D01*
X17518225Y16276613D01*
X17460491Y16376610D01*
X17460490Y16376611D01*
X17460489Y16376613D01*
X17422173Y16414929D01*
X17400500Y16467254D01*
X17400500Y17132747D01*
X17422173Y17185072D01*
X17460489Y17223387D01*
X17519799Y17326114D01*
X17550499Y17440689D01*
X17550500Y17440689D01*
X17550500Y17559311D01*
X17550499Y17559312D01*
X17546593Y17573888D01*
X17519799Y17673886D01*
X17518225Y17676613D01*
X17460491Y17776610D01*
X17460490Y17776611D01*
X17460489Y17776613D01*
X17376613Y17860489D01*
X17376610Y17860491D01*
X17376609Y17860492D01*
X17273887Y17919799D01*
X17273882Y17919801D01*
X17159311Y17950500D01*
X17159309Y17950500D01*
X17040691Y17950500D01*
X17040689Y17950500D01*
X16926117Y17919801D01*
X16926112Y17919799D01*
X16823390Y17860492D01*
X16739508Y17776610D01*
X16680201Y17673888D01*
X16680199Y17673883D01*
X16649500Y17559312D01*
X14925703Y17559312D01*
X15572585Y18206194D01*
X15605756Y18225344D01*
X15623886Y18230201D01*
X15726613Y18289511D01*
X15810489Y18373387D01*
X15869799Y18476114D01*
X15900499Y18590689D01*
X15900500Y18590689D01*
X15900500Y18709311D01*
X15900499Y18709312D01*
X15887741Y18756924D01*
X15883545Y18772585D01*
X15869800Y18823883D01*
X15869796Y18823892D01*
X15860414Y18840143D01*
X15850500Y18877142D01*
X15850500Y19502729D01*
X15850499Y19502730D01*
X15823208Y19604583D01*
X15823207Y19604587D01*
X15770480Y19695913D01*
X15695913Y19770480D01*
X13745913Y21720480D01*
X13745910Y21720482D01*
X13745909Y21720483D01*
X13654592Y21773205D01*
X13654588Y21773207D01*
X13599509Y21787965D01*
X13552727Y21800500D01*
X13552726Y21800500D01*
X13522623Y21800500D01*
X13470297Y21822174D01*
X13448623Y21874500D01*
X13459365Y21909913D01*
X13459077Y21910032D01*
X13460292Y21912968D01*
X13461096Y21915615D01*
X13461160Y21915712D01*
X13461867Y21916769D01*
X13473500Y21975252D01*
X13473500Y22424748D01*
X13461867Y22483231D01*
X13461866Y22483233D01*
X13461866Y22483234D01*
X13459077Y22489968D01*
X13462457Y22491369D01*
X13453971Y22534080D01*
X13474221Y22571956D01*
X13524785Y22622520D01*
X13570089Y22725125D01*
X13573000Y22750208D01*
X16427001Y22750208D01*
X16429908Y22725132D01*
X16429910Y22725126D01*
X16475213Y22622522D01*
X16525780Y22571955D01*
X16547454Y22519629D01*
X16538733Y22490872D01*
X16540922Y22489965D01*
X16538133Y22483233D01*
X16526500Y22424747D01*
X16526500Y21975254D01*
X16538133Y21916768D01*
X16586497Y21844389D01*
X16584430Y21843009D01*
X16602245Y21800000D01*
X16584430Y21756992D01*
X16586497Y21755611D01*
X16538133Y21683233D01*
X16530377Y21644243D01*
X16526500Y21624748D01*
X16526500Y21175252D01*
X16534255Y21136264D01*
X16538133Y21116768D01*
X16566786Y21073888D01*
X16582448Y21050448D01*
X16626560Y21020973D01*
X16648767Y21006134D01*
X16648768Y21006134D01*
X16648769Y21006133D01*
X16707252Y20994500D01*
X17489000Y20994500D01*
X17541326Y20972826D01*
X17563000Y20920500D01*
X17563000Y20830754D01*
X17541327Y20778429D01*
X17503008Y20740110D01*
X17443701Y20637388D01*
X17443699Y20637383D01*
X17413000Y20522812D01*
X17413000Y20404189D01*
X17443699Y20289618D01*
X17443701Y20289613D01*
X17503008Y20186891D01*
X17503009Y20186890D01*
X17503011Y20186887D01*
X17586887Y20103011D01*
X17689614Y20043701D01*
X17689615Y20043701D01*
X17689617Y20043700D01*
X17746902Y20028351D01*
X17804188Y20013001D01*
X17804189Y20013000D01*
X17804191Y20013000D01*
X17922811Y20013000D01*
X17922811Y20013001D01*
X18037386Y20043701D01*
X18140113Y20103011D01*
X18223989Y20186887D01*
X18283299Y20289614D01*
X18313999Y20404189D01*
X18314000Y20404189D01*
X18314000Y20522811D01*
X18313999Y20522812D01*
X18283300Y20637383D01*
X18283298Y20637388D01*
X18223991Y20740110D01*
X18223990Y20740111D01*
X18223989Y20740113D01*
X18185673Y20778429D01*
X18164000Y20830754D01*
X18164000Y20920500D01*
X18185674Y20972826D01*
X18238000Y20994500D01*
X19019746Y20994500D01*
X19019748Y20994500D01*
X19078231Y21006133D01*
X19144552Y21050448D01*
X19188867Y21116769D01*
X19200500Y21175252D01*
X19200500Y21287989D01*
X19222174Y21340315D01*
X19274500Y21361989D01*
X19326826Y21340315D01*
X19338588Y21324986D01*
X19339508Y21323391D01*
X19339511Y21323387D01*
X19423387Y21239511D01*
X19526114Y21180201D01*
X19526115Y21180201D01*
X19526117Y21180200D01*
X19583402Y21164851D01*
X19640688Y21149501D01*
X19640689Y21149500D01*
X19640691Y21149500D01*
X19759311Y21149500D01*
X19759311Y21149501D01*
X19873886Y21180201D01*
X19976613Y21239511D01*
X20060489Y21323387D01*
X20119799Y21426114D01*
X20150499Y21540689D01*
X20150500Y21540689D01*
X20150500Y21659311D01*
X20150499Y21659312D01*
X20144089Y21683233D01*
X20124326Y21756992D01*
X20119800Y21773883D01*
X20119798Y21773888D01*
X20060491Y21876610D01*
X20060490Y21876611D01*
X20060489Y21876613D01*
X19976613Y21960489D01*
X19976610Y21960491D01*
X19976609Y21960492D01*
X19873887Y22019799D01*
X19873882Y22019801D01*
X19759311Y22050500D01*
X19759309Y22050500D01*
X19705123Y22050500D01*
X19652797Y22072174D01*
X19316468Y22408503D01*
X19284511Y22440460D01*
X19251863Y22459309D01*
X19251858Y22459312D01*
X33049500Y22459312D01*
X33049500Y22340689D01*
X33080199Y22226118D01*
X33080200Y22226116D01*
X33080201Y22226114D01*
X33089585Y22209860D01*
X33099500Y22172860D01*
X33099500Y20027142D01*
X33089586Y19990143D01*
X33080203Y19973892D01*
X33080199Y19973883D01*
X33049500Y19859312D01*
X33049500Y19740689D01*
X33080199Y19626118D01*
X33080201Y19626113D01*
X33139508Y19523391D01*
X33139509Y19523390D01*
X33139511Y19523387D01*
X33223387Y19439511D01*
X33326114Y19380201D01*
X33326115Y19380201D01*
X33326117Y19380200D01*
X33383402Y19364851D01*
X33440688Y19349501D01*
X33440689Y19349500D01*
X33440691Y19349500D01*
X33559311Y19349500D01*
X33559311Y19349501D01*
X33673886Y19380201D01*
X33776613Y19439511D01*
X33860489Y19523387D01*
X33919799Y19626114D01*
X33950499Y19740689D01*
X33950500Y19740689D01*
X33950500Y19859311D01*
X33950499Y19859312D01*
X33919800Y19973883D01*
X33919796Y19973892D01*
X33910414Y19990143D01*
X33900500Y20027142D01*
X33900500Y22172860D01*
X33910414Y22209860D01*
X33919799Y22226114D01*
X33950499Y22340689D01*
X33950500Y22340689D01*
X33950500Y22459311D01*
X33950499Y22459312D01*
X33944089Y22483233D01*
X33920319Y22571945D01*
X33919800Y22573883D01*
X33919796Y22573892D01*
X33910414Y22590143D01*
X33900500Y22627142D01*
X33900500Y26503456D01*
X33922173Y26555781D01*
X35220480Y27854087D01*
X35273207Y27945412D01*
X35300500Y28047273D01*
X35300500Y28152727D01*
X35300500Y30053457D01*
X35322173Y30105782D01*
X36772583Y31556193D01*
X36805758Y31575344D01*
X36823882Y31580200D01*
X36823883Y31580200D01*
X36823883Y31580201D01*
X36823886Y31580201D01*
X36926613Y31639511D01*
X37010489Y31723387D01*
X37069799Y31826114D01*
X37100499Y31940689D01*
X37100500Y31940689D01*
X37100500Y32059311D01*
X37100499Y32059312D01*
X37094089Y32083233D01*
X37078495Y32141433D01*
X37069800Y32173883D01*
X37069796Y32173892D01*
X37060414Y32190143D01*
X37050500Y32227142D01*
X37050500Y34459312D01*
X39399500Y34459312D01*
X39399500Y34340689D01*
X39430199Y34226118D01*
X39430201Y34226113D01*
X39489508Y34123391D01*
X39489509Y34123390D01*
X39489511Y34123387D01*
X39573387Y34039511D01*
X39573389Y34039510D01*
X39573390Y34039509D01*
X39603415Y34022174D01*
X39676114Y33980201D01*
X39676115Y33980201D01*
X39676117Y33980200D01*
X39708666Y33971478D01*
X39753599Y33936999D01*
X39760991Y33880847D01*
X39726512Y33835914D01*
X39708666Y33828522D01*
X39676117Y33819801D01*
X39676112Y33819799D01*
X39573390Y33760492D01*
X39489508Y33676610D01*
X39430201Y33573888D01*
X39430199Y33573883D01*
X39399500Y33459312D01*
X39399500Y33340689D01*
X39430199Y33226118D01*
X39430201Y33226113D01*
X39489508Y33123391D01*
X39489509Y33123390D01*
X39489511Y33123387D01*
X39573387Y33039511D01*
X39573389Y33039510D01*
X39573390Y33039509D01*
X39640955Y33000500D01*
X39676114Y32980201D01*
X39676115Y32980201D01*
X39676117Y32980200D01*
X39708666Y32971478D01*
X39753599Y32936999D01*
X39760991Y32880847D01*
X39726512Y32835914D01*
X39708666Y32828522D01*
X39676117Y32819801D01*
X39676112Y32819799D01*
X39573390Y32760492D01*
X39489508Y32676610D01*
X39430201Y32573888D01*
X39430199Y32573883D01*
X39399500Y32459312D01*
X39399500Y32340689D01*
X39430199Y32226118D01*
X39430201Y32226113D01*
X39489508Y32123391D01*
X39489509Y32123390D01*
X39489511Y32123387D01*
X39573387Y32039511D01*
X39573389Y32039510D01*
X39573390Y32039509D01*
X39676112Y31980202D01*
X39676114Y31980201D01*
X39676115Y31980201D01*
X39676117Y31980200D01*
X39708666Y31971478D01*
X39753599Y31936999D01*
X39760991Y31880847D01*
X39726512Y31835914D01*
X39708666Y31828522D01*
X39676117Y31819801D01*
X39676112Y31819799D01*
X39573390Y31760492D01*
X39489508Y31676610D01*
X39430201Y31573888D01*
X39430199Y31573883D01*
X39399500Y31459312D01*
X39399500Y31340689D01*
X39430199Y31226118D01*
X39430201Y31226113D01*
X39489508Y31123391D01*
X39489509Y31123390D01*
X39489511Y31123387D01*
X39573387Y31039511D01*
X39573389Y31039510D01*
X39573390Y31039509D01*
X39676112Y30980202D01*
X39676114Y30980201D01*
X39676115Y30980201D01*
X39676117Y30980200D01*
X39707582Y30971769D01*
X39790688Y30949501D01*
X39790689Y30949500D01*
X39790691Y30949500D01*
X39909311Y30949500D01*
X39909311Y30949501D01*
X40023886Y30980201D01*
X40126613Y31039511D01*
X40164929Y31077827D01*
X40217254Y31099500D01*
X41191902Y31099500D01*
X41233015Y31087028D01*
X41271767Y31061134D01*
X41271768Y31061134D01*
X41271769Y31061133D01*
X41330252Y31049500D01*
X41330254Y31049500D01*
X42169746Y31049500D01*
X42169748Y31049500D01*
X42228231Y31061133D01*
X42294552Y31105448D01*
X42338867Y31171769D01*
X42350500Y31230252D01*
X42350500Y31569748D01*
X42338867Y31628231D01*
X42338866Y31628232D01*
X42337445Y31635379D01*
X42341628Y31636212D01*
X42341527Y31663809D01*
X42337445Y31664621D01*
X42339830Y31676610D01*
X42350500Y31730252D01*
X42350500Y32069748D01*
X42338867Y32128231D01*
X42338866Y32128232D01*
X42337445Y32135379D01*
X42341628Y32136212D01*
X42341527Y32163809D01*
X42337445Y32164621D01*
X42338867Y32171769D01*
X42350500Y32230252D01*
X42350500Y32569748D01*
X42338867Y32628231D01*
X42338866Y32628232D01*
X42337445Y32635379D01*
X42341628Y32636212D01*
X42341527Y32663809D01*
X42337445Y32664621D01*
X42339830Y32676610D01*
X42350500Y32730252D01*
X42350500Y33069748D01*
X42338867Y33128231D01*
X42338866Y33128232D01*
X42337445Y33135379D01*
X42341628Y33136212D01*
X42341527Y33163809D01*
X42337445Y33164621D01*
X42347563Y33215489D01*
X42350500Y33230252D01*
X42350500Y33569748D01*
X42338867Y33628231D01*
X42338866Y33628232D01*
X42337445Y33635379D01*
X42341628Y33636212D01*
X42341527Y33663809D01*
X42337445Y33664621D01*
X42339830Y33676610D01*
X42350500Y33730252D01*
X42350500Y34069748D01*
X42338867Y34128231D01*
X42338866Y34128232D01*
X42337445Y34135379D01*
X42341628Y34136212D01*
X42341527Y34163809D01*
X42337445Y34164621D01*
X42348893Y34222174D01*
X42350500Y34230252D01*
X42350500Y34569748D01*
X42338867Y34628231D01*
X42338866Y34628232D01*
X42337445Y34635379D01*
X42341628Y34636212D01*
X42341527Y34663809D01*
X42337445Y34664621D01*
X42339830Y34676610D01*
X42350500Y34730252D01*
X42350500Y35069748D01*
X42949500Y35069748D01*
X42949500Y34730252D01*
X42960170Y34676610D01*
X42962555Y34664621D01*
X42958448Y34663805D01*
X42958448Y34636196D01*
X42962555Y34635379D01*
X42961133Y34628232D01*
X42961133Y34628231D01*
X42949500Y34569748D01*
X42949500Y34230252D01*
X42951107Y34222174D01*
X42962555Y34164621D01*
X42958448Y34163805D01*
X42958448Y34136196D01*
X42962555Y34135379D01*
X42961133Y34128232D01*
X42961133Y34128231D01*
X42949500Y34069748D01*
X42949500Y33730252D01*
X42960170Y33676610D01*
X42962555Y33664621D01*
X42958448Y33663805D01*
X42958448Y33636196D01*
X42962555Y33635379D01*
X42961133Y33628232D01*
X42961133Y33628231D01*
X42949500Y33569748D01*
X42949500Y33230252D01*
X42952437Y33215489D01*
X42962555Y33164621D01*
X42958448Y33163805D01*
X42958448Y33136196D01*
X42962555Y33135379D01*
X42961133Y33128232D01*
X42961133Y33128231D01*
X42949500Y33069748D01*
X42949500Y32730252D01*
X42960170Y32676610D01*
X42962555Y32664621D01*
X42958448Y32663805D01*
X42958448Y32636196D01*
X42962555Y32635379D01*
X42961133Y32628232D01*
X42961133Y32628231D01*
X42949500Y32569748D01*
X42949500Y32230252D01*
X42961133Y32171769D01*
X42962555Y32164621D01*
X42958448Y32163805D01*
X42958448Y32136196D01*
X42962555Y32135379D01*
X42961133Y32128232D01*
X42961133Y32128231D01*
X42949500Y32069748D01*
X42949500Y31730252D01*
X42960170Y31676610D01*
X42962555Y31664621D01*
X42958448Y31663805D01*
X42958448Y31636196D01*
X42962555Y31635379D01*
X42961133Y31628232D01*
X42961133Y31628231D01*
X42949500Y31569748D01*
X42949500Y31230252D01*
X42950595Y31224748D01*
X42961133Y31171768D01*
X42981899Y31140691D01*
X43005448Y31105448D01*
X43014350Y31099500D01*
X43071767Y31061134D01*
X43071768Y31061134D01*
X43071769Y31061133D01*
X43130252Y31049500D01*
X43130254Y31049500D01*
X43969746Y31049500D01*
X43969748Y31049500D01*
X44028231Y31061133D01*
X44066985Y31087028D01*
X44108098Y31099500D01*
X73344877Y31099500D01*
X73397203Y31077826D01*
X73659540Y30815489D01*
X73715489Y30759540D01*
X73784011Y30719979D01*
X73784012Y30719979D01*
X73784014Y30719978D01*
X73795994Y30716768D01*
X73860435Y30699501D01*
X73860436Y30699500D01*
X73860438Y30699500D01*
X80691583Y30699500D01*
X80743909Y30677826D01*
X80765583Y30625500D01*
X80748931Y30585299D01*
X80752088Y30583136D01*
X80748214Y30577482D01*
X80702910Y30474876D01*
X80700000Y30449790D01*
X80700000Y30300000D01*
X83572999Y30300000D01*
X83572999Y30449790D01*
X86427000Y30449790D01*
X86427000Y30300000D01*
X89299999Y30300000D01*
X89299999Y30449793D01*
X89297091Y30474869D01*
X89297089Y30474875D01*
X89251786Y30577479D01*
X89201219Y30628046D01*
X89179545Y30680372D01*
X89188275Y30709126D01*
X89186078Y30710036D01*
X89188866Y30716768D01*
X89188865Y30716768D01*
X89188867Y30716769D01*
X89200500Y30775252D01*
X89200500Y31224748D01*
X89188867Y31283231D01*
X89144552Y31349552D01*
X89144551Y31349553D01*
X89140503Y31355611D01*
X89142569Y31356992D01*
X89124755Y31400000D01*
X89142569Y31443009D01*
X89140503Y31444389D01*
X89150473Y31459309D01*
X89188867Y31516769D01*
X89200500Y31575252D01*
X89200500Y32024748D01*
X89188867Y32083231D01*
X89176636Y32101535D01*
X89162035Y32123387D01*
X89144552Y32149552D01*
X89144551Y32149553D01*
X89140503Y32155611D01*
X89142569Y32156992D01*
X89124755Y32200000D01*
X89142569Y32243009D01*
X89140503Y32244389D01*
X89150473Y32259309D01*
X89188867Y32316769D01*
X89200500Y32375252D01*
X89200500Y32824748D01*
X89188867Y32883231D01*
X89176636Y32901535D01*
X89162035Y32923387D01*
X89144552Y32949552D01*
X89144551Y32949553D01*
X89140503Y32955611D01*
X89142569Y32956992D01*
X89124755Y33000000D01*
X89142569Y33043009D01*
X89140503Y33044389D01*
X89161676Y33076075D01*
X89188867Y33116769D01*
X89200500Y33175252D01*
X89200500Y33624748D01*
X89188867Y33683231D01*
X89176636Y33701535D01*
X89156529Y33731627D01*
X89144552Y33749552D01*
X89144551Y33749553D01*
X89140503Y33755611D01*
X89142569Y33756992D01*
X89124755Y33800000D01*
X89142569Y33843009D01*
X89140503Y33844389D01*
X89144587Y33850500D01*
X89188867Y33916769D01*
X89200500Y33975252D01*
X89200500Y34424748D01*
X89188867Y34483231D01*
X89176636Y34501535D01*
X89140503Y34555611D01*
X89142569Y34556992D01*
X89124755Y34600000D01*
X89142569Y34643009D01*
X89140503Y34644389D01*
X89144587Y34650500D01*
X89188867Y34716769D01*
X89200500Y34775252D01*
X89200500Y35224748D01*
X89188867Y35283231D01*
X89176636Y35301535D01*
X89156529Y35331627D01*
X89144552Y35349552D01*
X89144551Y35349553D01*
X89140503Y35355611D01*
X89142569Y35356992D01*
X89124755Y35400000D01*
X89142569Y35443009D01*
X89140503Y35444389D01*
X89150628Y35459541D01*
X89188867Y35516769D01*
X89200500Y35575252D01*
X89200500Y36024748D01*
X89188867Y36083231D01*
X89176636Y36101535D01*
X89153476Y36136196D01*
X89144552Y36149552D01*
X89144551Y36149553D01*
X89140503Y36155611D01*
X89142569Y36156992D01*
X89124755Y36200000D01*
X89142569Y36243009D01*
X89140503Y36244389D01*
X89150473Y36259309D01*
X89188867Y36316769D01*
X89200500Y36375252D01*
X89200500Y36824748D01*
X89188867Y36883231D01*
X89188866Y36883233D01*
X89188866Y36883234D01*
X89186077Y36889968D01*
X89189457Y36891369D01*
X89180971Y36934080D01*
X89201221Y36971956D01*
X89251785Y37022520D01*
X89297089Y37125125D01*
X89300000Y37150211D01*
X89300000Y37300000D01*
X86427001Y37300000D01*
X86427001Y37150208D01*
X86429908Y37125132D01*
X86429910Y37125126D01*
X86475213Y37022522D01*
X86525780Y36971955D01*
X86547454Y36919629D01*
X86538733Y36890872D01*
X86540922Y36889965D01*
X86538133Y36883233D01*
X86535451Y36869748D01*
X86526500Y36824748D01*
X86526500Y36375252D01*
X86533375Y36340691D01*
X86538133Y36316768D01*
X86586497Y36244389D01*
X86584430Y36243009D01*
X86602245Y36200000D01*
X86584430Y36156992D01*
X86586497Y36155611D01*
X86538133Y36083233D01*
X86535451Y36069748D01*
X86526500Y36024748D01*
X86526500Y35575252D01*
X86533609Y35539511D01*
X86538133Y35516768D01*
X86586497Y35444389D01*
X86584430Y35443009D01*
X86602245Y35400000D01*
X86584430Y35356992D01*
X86586497Y35355611D01*
X86582448Y35349553D01*
X86582448Y35349552D01*
X86575739Y35339511D01*
X86538133Y35283233D01*
X86538133Y35283231D01*
X86529309Y35238867D01*
X86526500Y35224747D01*
X86526500Y34775254D01*
X86538133Y34716768D01*
X86549672Y34699500D01*
X86582413Y34650500D01*
X86586497Y34644389D01*
X86584430Y34643009D01*
X86602245Y34600000D01*
X86584430Y34556992D01*
X86586497Y34555611D01*
X86538133Y34483233D01*
X86531523Y34450000D01*
X86526500Y34424748D01*
X86526500Y33975252D01*
X86534109Y33936999D01*
X86538133Y33916768D01*
X86549672Y33899500D01*
X86582413Y33850500D01*
X86586497Y33844389D01*
X86584430Y33843009D01*
X86602245Y33800000D01*
X86584430Y33756992D01*
X86586497Y33755611D01*
X86582448Y33749553D01*
X86582448Y33749552D01*
X86574528Y33737701D01*
X86538133Y33683233D01*
X86531622Y33650500D01*
X86526595Y33625223D01*
X86526500Y33624747D01*
X86526500Y33175254D01*
X86538133Y33116768D01*
X86586497Y33044389D01*
X86584430Y33043009D01*
X86602245Y33000000D01*
X86584430Y32956992D01*
X86586497Y32955611D01*
X86582448Y32949553D01*
X86582448Y32949552D01*
X86574528Y32937701D01*
X86538133Y32883233D01*
X86535451Y32869748D01*
X86526500Y32824748D01*
X86526500Y32375252D01*
X86527595Y32369748D01*
X86538133Y32316768D01*
X86586497Y32244389D01*
X86584430Y32243009D01*
X86602245Y32200000D01*
X86584430Y32156992D01*
X86586497Y32155611D01*
X86538133Y32083233D01*
X86530377Y32044243D01*
X86526500Y32024748D01*
X86526500Y31575252D01*
X86534255Y31536264D01*
X86538133Y31516768D01*
X86586497Y31444389D01*
X86584430Y31443009D01*
X86602245Y31400000D01*
X86584430Y31356992D01*
X86586497Y31355611D01*
X86538133Y31283233D01*
X86526500Y31224747D01*
X86526500Y30775254D01*
X86538133Y30716767D01*
X86540923Y30710032D01*
X86537543Y30708633D01*
X86546026Y30665908D01*
X86525779Y30628046D01*
X86475214Y30577481D01*
X86429910Y30474876D01*
X86427000Y30449790D01*
X83572999Y30449790D01*
X83572999Y30449793D01*
X83570091Y30474869D01*
X83570089Y30474875D01*
X83524786Y30577479D01*
X83474219Y30628046D01*
X83452545Y30680372D01*
X83461275Y30709126D01*
X83459078Y30710036D01*
X83461866Y30716768D01*
X83461865Y30716768D01*
X83461867Y30716769D01*
X83473500Y30775252D01*
X83473500Y31224748D01*
X83461867Y31283231D01*
X83417552Y31349552D01*
X83417551Y31349553D01*
X83413503Y31355611D01*
X83415569Y31356992D01*
X83397755Y31400000D01*
X83415569Y31443009D01*
X83413503Y31444389D01*
X83423473Y31459309D01*
X83461867Y31516769D01*
X83473500Y31575252D01*
X83473500Y32024748D01*
X83461867Y32083231D01*
X83449636Y32101535D01*
X83435035Y32123387D01*
X83417552Y32149552D01*
X83417551Y32149553D01*
X83413503Y32155611D01*
X83415569Y32156992D01*
X83397755Y32200000D01*
X83415569Y32243009D01*
X83413503Y32244389D01*
X83423473Y32259309D01*
X83461867Y32316769D01*
X83473500Y32375252D01*
X83473500Y32824748D01*
X83461867Y32883231D01*
X83449636Y32901535D01*
X83435035Y32923387D01*
X83417552Y32949552D01*
X83417551Y32949553D01*
X83413503Y32955611D01*
X83415569Y32956992D01*
X83397755Y33000000D01*
X83415569Y33043009D01*
X83413503Y33044389D01*
X83434676Y33076075D01*
X83461867Y33116769D01*
X83473500Y33175252D01*
X83473500Y33624748D01*
X83461867Y33683231D01*
X83449636Y33701535D01*
X83429529Y33731627D01*
X83417552Y33749552D01*
X83417551Y33749553D01*
X83413503Y33755611D01*
X83415569Y33756992D01*
X83397755Y33800000D01*
X83415569Y33843009D01*
X83413503Y33844389D01*
X83417587Y33850500D01*
X83461867Y33916769D01*
X83473500Y33975252D01*
X83473500Y34424748D01*
X83461867Y34483231D01*
X83449636Y34501535D01*
X83413503Y34555611D01*
X83415569Y34556992D01*
X83397755Y34600000D01*
X83415569Y34643009D01*
X83413503Y34644389D01*
X83417587Y34650500D01*
X83461867Y34716769D01*
X83473500Y34775252D01*
X83473500Y35224748D01*
X83461867Y35283231D01*
X83449636Y35301535D01*
X83429529Y35331627D01*
X83417552Y35349552D01*
X83417551Y35349553D01*
X83413503Y35355611D01*
X83415569Y35356992D01*
X83397755Y35400000D01*
X83415569Y35443009D01*
X83413503Y35444389D01*
X83423628Y35459541D01*
X83461867Y35516769D01*
X83473500Y35575252D01*
X83473500Y36024748D01*
X83461867Y36083231D01*
X83449636Y36101535D01*
X83426476Y36136196D01*
X83417552Y36149552D01*
X83417551Y36149553D01*
X83413503Y36155611D01*
X83415569Y36156992D01*
X83397755Y36200000D01*
X83415569Y36243009D01*
X83413503Y36244389D01*
X83423473Y36259309D01*
X83461867Y36316769D01*
X83473500Y36375252D01*
X83473500Y36824748D01*
X83461867Y36883231D01*
X83461866Y36883233D01*
X83461866Y36883234D01*
X83459077Y36889968D01*
X83462457Y36891369D01*
X83453971Y36934080D01*
X83474221Y36971956D01*
X83524785Y37022520D01*
X83570089Y37125125D01*
X83573000Y37150211D01*
X83573000Y37300000D01*
X80700001Y37300000D01*
X80700001Y37150208D01*
X80702908Y37125132D01*
X80702910Y37125126D01*
X80748214Y37022519D01*
X80752088Y37016864D01*
X80748931Y37014702D01*
X80765583Y36974500D01*
X80743909Y36922174D01*
X80691583Y36900500D01*
X72635436Y36900500D01*
X72559014Y36880023D01*
X72559009Y36880021D01*
X72513692Y36853856D01*
X72490488Y36840460D01*
X70872203Y35222174D01*
X70819877Y35200500D01*
X44108098Y35200500D01*
X44066985Y35212972D01*
X44028232Y35238867D01*
X44028233Y35238867D01*
X43998989Y35244684D01*
X43969748Y35250500D01*
X43130252Y35250500D01*
X43101010Y35244684D01*
X43071767Y35238867D01*
X43005449Y35194553D01*
X43005447Y35194551D01*
X42961133Y35128233D01*
X42953377Y35089243D01*
X42949500Y35069748D01*
X42350500Y35069748D01*
X42338867Y35128231D01*
X42294552Y35194552D01*
X42253215Y35222173D01*
X42228232Y35238867D01*
X42228233Y35238867D01*
X42198989Y35244684D01*
X42169748Y35250500D01*
X41330252Y35250500D01*
X41301010Y35244684D01*
X41271767Y35238867D01*
X41233015Y35212972D01*
X41191902Y35200500D01*
X40817254Y35200500D01*
X40764929Y35222173D01*
X40746642Y35240460D01*
X40726613Y35260489D01*
X40726610Y35260491D01*
X40726609Y35260492D01*
X40623887Y35319799D01*
X40623882Y35319801D01*
X40509311Y35350500D01*
X40509309Y35350500D01*
X40390691Y35350500D01*
X40390689Y35350500D01*
X40276117Y35319801D01*
X40276112Y35319799D01*
X40173390Y35260492D01*
X40089508Y35176610D01*
X40030201Y35073888D01*
X40030199Y35073883D01*
X39999500Y34959312D01*
X39999500Y34922773D01*
X39977826Y34870447D01*
X39925500Y34848773D01*
X39914171Y34850262D01*
X39914120Y34849867D01*
X39909311Y34850500D01*
X39909309Y34850500D01*
X39790691Y34850500D01*
X39790689Y34850500D01*
X39676117Y34819801D01*
X39676112Y34819799D01*
X39573390Y34760492D01*
X39489508Y34676610D01*
X39430201Y34573888D01*
X39430199Y34573883D01*
X39399500Y34459312D01*
X37050500Y34459312D01*
X37050500Y38072860D01*
X37060414Y38109860D01*
X37069799Y38126114D01*
X37100499Y38240689D01*
X37100500Y38240689D01*
X37100500Y38359311D01*
X37100499Y38359312D01*
X37069800Y38473883D01*
X37069798Y38473888D01*
X37010491Y38576610D01*
X37010490Y38576611D01*
X37010489Y38576613D01*
X36926613Y38660489D01*
X36926610Y38660491D01*
X36926609Y38660492D01*
X36823887Y38719799D01*
X36823882Y38719801D01*
X36709311Y38750500D01*
X36709309Y38750500D01*
X36590691Y38750500D01*
X36590689Y38750500D01*
X36476117Y38719801D01*
X36476112Y38719799D01*
X36373390Y38660492D01*
X36289508Y38576610D01*
X36230201Y38473888D01*
X36230199Y38473883D01*
X36199500Y38359312D01*
X36199500Y38240689D01*
X36230199Y38126118D01*
X36230200Y38126116D01*
X36230201Y38126114D01*
X36239585Y38109860D01*
X36249500Y38072860D01*
X36249500Y32227142D01*
X36243867Y32198823D01*
X36242010Y32194340D01*
X36230201Y32173886D01*
X36224088Y32151073D01*
X36222232Y32146592D01*
X36217072Y32141433D01*
X36206191Y32122585D01*
X34579517Y30495910D01*
X34526792Y30404588D01*
X34526793Y30404587D01*
X34499500Y30302727D01*
X34499500Y28296545D01*
X34477826Y28244219D01*
X33179517Y26945910D01*
X33126792Y26854588D01*
X33126793Y26854587D01*
X33099500Y26752727D01*
X33099500Y22627142D01*
X33089586Y22590143D01*
X33080203Y22573892D01*
X33080199Y22573883D01*
X33049500Y22459312D01*
X19251858Y22459312D01*
X19231858Y22470859D01*
X19197381Y22515792D01*
X19204774Y22571945D01*
X19216535Y22587271D01*
X19251786Y22622522D01*
X19297089Y22725125D01*
X19300000Y22750211D01*
X19300000Y22900000D01*
X16427001Y22900000D01*
X16427001Y22750208D01*
X13573000Y22750208D01*
X13573000Y22750211D01*
X13573000Y22900000D01*
X10700001Y22900000D01*
X10700001Y22750208D01*
X10702908Y22725132D01*
X10702910Y22725126D01*
X10748214Y22622519D01*
X10752088Y22616864D01*
X10748931Y22614702D01*
X10765583Y22574500D01*
X10743909Y22522174D01*
X10691583Y22500500D01*
X10639562Y22500500D01*
X10560438Y22500500D01*
X10484012Y22480022D01*
X10484011Y22480022D01*
X10484009Y22480021D01*
X10484007Y22480020D01*
X10415492Y22440463D01*
X9915489Y21940460D01*
X9859540Y21884512D01*
X9819979Y21815991D01*
X9819977Y21815986D01*
X9799500Y21739565D01*
X9799500Y21267254D01*
X9777827Y21214929D01*
X9739508Y21176610D01*
X9680201Y21073888D01*
X9680199Y21073883D01*
X9649500Y20959312D01*
X500500Y20959312D01*
X500500Y23249790D01*
X10700000Y23249790D01*
X10700000Y23100000D01*
X13572999Y23100000D01*
X13572999Y23249790D01*
X16427000Y23249790D01*
X16427000Y23100000D01*
X19299999Y23100000D01*
X19299999Y23249793D01*
X19297091Y23274869D01*
X19297089Y23274875D01*
X19251786Y23377479D01*
X19201219Y23428046D01*
X19179545Y23480372D01*
X19188275Y23509126D01*
X19186078Y23510036D01*
X19188866Y23516768D01*
X19188865Y23516768D01*
X19188867Y23516769D01*
X19200500Y23575252D01*
X19200500Y24024748D01*
X19188867Y24083231D01*
X19144552Y24149552D01*
X19144551Y24149553D01*
X19140503Y24155611D01*
X19142569Y24156992D01*
X19124755Y24200000D01*
X19142569Y24243009D01*
X19140503Y24244389D01*
X19188866Y24316768D01*
X19188865Y24316768D01*
X19188867Y24316769D01*
X19200500Y24375252D01*
X19200500Y24824748D01*
X19188867Y24883231D01*
X19144552Y24949552D01*
X19144551Y24949553D01*
X19140503Y24955611D01*
X19142569Y24956992D01*
X19124755Y25000000D01*
X19142569Y25043009D01*
X19140503Y25044389D01*
X19188866Y25116768D01*
X19188865Y25116768D01*
X19188867Y25116769D01*
X19200500Y25175252D01*
X19200500Y25624748D01*
X19188867Y25683231D01*
X19144552Y25749552D01*
X19144551Y25749553D01*
X19140503Y25755611D01*
X19142569Y25756992D01*
X19124755Y25800000D01*
X19142569Y25843009D01*
X19140503Y25844389D01*
X19188866Y25916768D01*
X19188865Y25916768D01*
X19188867Y25916769D01*
X19200500Y25975252D01*
X19200500Y26424748D01*
X19188867Y26483231D01*
X19144552Y26549552D01*
X19144551Y26549553D01*
X19140503Y26555611D01*
X19142569Y26556992D01*
X19124755Y26600000D01*
X19142569Y26643009D01*
X19140503Y26644389D01*
X19188866Y26716768D01*
X19188865Y26716768D01*
X19188867Y26716769D01*
X19200500Y26775252D01*
X19200500Y27224748D01*
X19188867Y27283231D01*
X19144552Y27349552D01*
X19144551Y27349553D01*
X19140503Y27355611D01*
X19142569Y27356992D01*
X19124755Y27400000D01*
X19142569Y27443009D01*
X19140503Y27444389D01*
X19188866Y27516768D01*
X19188865Y27516768D01*
X19188867Y27516769D01*
X19200500Y27575252D01*
X19200500Y28024748D01*
X19188867Y28083231D01*
X19144552Y28149552D01*
X19144551Y28149553D01*
X19140503Y28155611D01*
X19142569Y28156992D01*
X19124755Y28200000D01*
X19142569Y28243009D01*
X19140503Y28244389D01*
X19175354Y28296545D01*
X19188867Y28316769D01*
X19200500Y28375252D01*
X19200500Y28824748D01*
X19188867Y28883231D01*
X19144552Y28949552D01*
X19144551Y28949553D01*
X19140503Y28955611D01*
X19142569Y28956992D01*
X19124755Y29000000D01*
X19142569Y29043009D01*
X19140503Y29044389D01*
X19184252Y29109862D01*
X19188867Y29116769D01*
X19200500Y29175252D01*
X19200500Y29624748D01*
X19188867Y29683231D01*
X19188866Y29683233D01*
X19188866Y29683234D01*
X19186077Y29689968D01*
X19189457Y29691369D01*
X19180971Y29734080D01*
X19201221Y29771956D01*
X19251785Y29822520D01*
X19297089Y29925125D01*
X19300000Y29950211D01*
X19300000Y30100000D01*
X16427001Y30100000D01*
X16427001Y29950208D01*
X16429908Y29925132D01*
X16429910Y29925126D01*
X16475213Y29822522D01*
X16525780Y29771955D01*
X16547454Y29719629D01*
X16538733Y29690872D01*
X16540922Y29689965D01*
X16538133Y29683233D01*
X16526500Y29624747D01*
X16526500Y29175254D01*
X16538133Y29116768D01*
X16586497Y29044389D01*
X16584430Y29043009D01*
X16602245Y29000000D01*
X16584430Y28956992D01*
X16586497Y28955611D01*
X16582448Y28949553D01*
X16582448Y28949552D01*
X16575739Y28939511D01*
X16538133Y28883233D01*
X16526500Y28824747D01*
X16526500Y28375254D01*
X16538133Y28316768D01*
X16586497Y28244389D01*
X16584430Y28243009D01*
X16602245Y28200000D01*
X16584430Y28156992D01*
X16586497Y28155611D01*
X16538133Y28083233D01*
X16526500Y28024747D01*
X16526500Y27575254D01*
X16538133Y27516768D01*
X16586497Y27444389D01*
X16584430Y27443009D01*
X16602245Y27400000D01*
X16584430Y27356992D01*
X16586497Y27355611D01*
X16538133Y27283233D01*
X16526500Y27224747D01*
X16526500Y26775254D01*
X16538133Y26716768D01*
X16586497Y26644389D01*
X16584430Y26643009D01*
X16602245Y26600000D01*
X16584430Y26556992D01*
X16586497Y26555611D01*
X16538133Y26483233D01*
X16526500Y26424747D01*
X16526500Y25975254D01*
X16538133Y25916768D01*
X16586497Y25844389D01*
X16584430Y25843009D01*
X16602245Y25800000D01*
X16584430Y25756992D01*
X16586497Y25755611D01*
X16538133Y25683233D01*
X16526500Y25624747D01*
X16526500Y25175254D01*
X16538133Y25116768D01*
X16586497Y25044389D01*
X16584430Y25043009D01*
X16602245Y25000000D01*
X16584430Y24956992D01*
X16586497Y24955611D01*
X16538133Y24883233D01*
X16526500Y24824747D01*
X16526500Y24375254D01*
X16538133Y24316768D01*
X16586497Y24244389D01*
X16584430Y24243009D01*
X16602245Y24200000D01*
X16584430Y24156992D01*
X16586497Y24155611D01*
X16538133Y24083233D01*
X16526500Y24024747D01*
X16526500Y23575254D01*
X16538133Y23516767D01*
X16540923Y23510032D01*
X16537543Y23508633D01*
X16546026Y23465908D01*
X16525779Y23428046D01*
X16475214Y23377481D01*
X16429910Y23274876D01*
X16427000Y23249790D01*
X13572999Y23249790D01*
X13572999Y23249793D01*
X13570091Y23274869D01*
X13570089Y23274875D01*
X13524786Y23377479D01*
X13474219Y23428046D01*
X13452545Y23480372D01*
X13461275Y23509126D01*
X13459078Y23510036D01*
X13461866Y23516768D01*
X13461865Y23516768D01*
X13461867Y23516769D01*
X13473500Y23575252D01*
X13473500Y24024748D01*
X13461867Y24083231D01*
X13417552Y24149552D01*
X13417551Y24149553D01*
X13413503Y24155611D01*
X13415569Y24156992D01*
X13397755Y24200000D01*
X13415569Y24243009D01*
X13413503Y24244389D01*
X13461866Y24316768D01*
X13461865Y24316768D01*
X13461867Y24316769D01*
X13473500Y24375252D01*
X13473500Y24824748D01*
X13461867Y24883231D01*
X13417552Y24949552D01*
X13417551Y24949553D01*
X13413503Y24955611D01*
X13415569Y24956992D01*
X13397755Y25000000D01*
X13415569Y25043009D01*
X13413503Y25044389D01*
X13461866Y25116768D01*
X13461865Y25116768D01*
X13461867Y25116769D01*
X13473500Y25175252D01*
X13473500Y25624748D01*
X13461867Y25683231D01*
X13417552Y25749552D01*
X13417551Y25749553D01*
X13413503Y25755611D01*
X13415569Y25756992D01*
X13397755Y25800000D01*
X13415569Y25843009D01*
X13413503Y25844389D01*
X13461866Y25916768D01*
X13461865Y25916768D01*
X13461867Y25916769D01*
X13473500Y25975252D01*
X13473500Y26424748D01*
X13461867Y26483231D01*
X13417552Y26549552D01*
X13417551Y26549553D01*
X13413503Y26555611D01*
X13415569Y26556992D01*
X13397755Y26600000D01*
X13415569Y26643009D01*
X13413503Y26644389D01*
X13461866Y26716768D01*
X13461865Y26716768D01*
X13461867Y26716769D01*
X13473500Y26775252D01*
X13473500Y27224748D01*
X13461867Y27283231D01*
X13417552Y27349552D01*
X13417551Y27349553D01*
X13413503Y27355611D01*
X13415569Y27356992D01*
X13397755Y27400000D01*
X13415569Y27443009D01*
X13413503Y27444389D01*
X13461866Y27516768D01*
X13461865Y27516768D01*
X13461867Y27516769D01*
X13473500Y27575252D01*
X13473500Y28024748D01*
X13461867Y28083231D01*
X13417552Y28149552D01*
X13417551Y28149553D01*
X13413503Y28155611D01*
X13415569Y28156992D01*
X13397755Y28200000D01*
X13415569Y28243009D01*
X13413503Y28244389D01*
X13448354Y28296545D01*
X13461867Y28316769D01*
X13473500Y28375252D01*
X13473500Y28824748D01*
X13461867Y28883231D01*
X13417552Y28949552D01*
X13417551Y28949553D01*
X13413503Y28955611D01*
X13415569Y28956992D01*
X13397755Y29000000D01*
X13415569Y29043009D01*
X13413503Y29044389D01*
X13457252Y29109862D01*
X13461867Y29116769D01*
X13473500Y29175252D01*
X13473500Y29624748D01*
X13461867Y29683231D01*
X13461866Y29683233D01*
X13461866Y29683234D01*
X13459077Y29689968D01*
X13462457Y29691369D01*
X13453971Y29734080D01*
X13474221Y29771956D01*
X13524785Y29822520D01*
X13570089Y29925125D01*
X13573000Y29950211D01*
X13573000Y30100000D01*
X10700001Y30100000D01*
X10700001Y29950208D01*
X10702908Y29925132D01*
X10702910Y29925126D01*
X10748213Y29822522D01*
X10798780Y29771955D01*
X10820454Y29719629D01*
X10811733Y29690872D01*
X10813922Y29689965D01*
X10811133Y29683233D01*
X10799500Y29624747D01*
X10799500Y29175254D01*
X10811133Y29116768D01*
X10859497Y29044389D01*
X10857430Y29043009D01*
X10875245Y29000000D01*
X10857430Y28956992D01*
X10859497Y28955611D01*
X10855448Y28949553D01*
X10855448Y28949552D01*
X10848739Y28939511D01*
X10811133Y28883233D01*
X10799500Y28824747D01*
X10799500Y28375254D01*
X10811133Y28316768D01*
X10859497Y28244389D01*
X10857430Y28243009D01*
X10875245Y28200000D01*
X10857430Y28156992D01*
X10859497Y28155611D01*
X10811133Y28083233D01*
X10799500Y28024747D01*
X10799500Y27575254D01*
X10811133Y27516768D01*
X10859497Y27444389D01*
X10857430Y27443009D01*
X10875245Y27400000D01*
X10857430Y27356992D01*
X10859497Y27355611D01*
X10811133Y27283233D01*
X10799500Y27224747D01*
X10799500Y26775254D01*
X10811133Y26716768D01*
X10859497Y26644389D01*
X10857430Y26643009D01*
X10875245Y26600000D01*
X10857430Y26556992D01*
X10859497Y26555611D01*
X10811133Y26483233D01*
X10799500Y26424747D01*
X10799500Y25975254D01*
X10811133Y25916768D01*
X10859497Y25844389D01*
X10857430Y25843009D01*
X10875245Y25800000D01*
X10857430Y25756992D01*
X10859497Y25755611D01*
X10811133Y25683233D01*
X10799500Y25624747D01*
X10799500Y25175254D01*
X10811133Y25116768D01*
X10859497Y25044389D01*
X10857430Y25043009D01*
X10875245Y25000000D01*
X10857430Y24956992D01*
X10859497Y24955611D01*
X10811133Y24883233D01*
X10799500Y24824747D01*
X10799500Y24375254D01*
X10811133Y24316768D01*
X10859497Y24244389D01*
X10857430Y24243009D01*
X10875245Y24200000D01*
X10857430Y24156992D01*
X10859497Y24155611D01*
X10811133Y24083233D01*
X10799500Y24024747D01*
X10799500Y23575254D01*
X10811133Y23516767D01*
X10813923Y23510032D01*
X10810543Y23508633D01*
X10819026Y23465908D01*
X10798779Y23428046D01*
X10748214Y23377481D01*
X10702910Y23274876D01*
X10700000Y23249790D01*
X500500Y23249790D01*
X500500Y30449790D01*
X10700000Y30449790D01*
X10700000Y30300000D01*
X13572999Y30300000D01*
X13572999Y30449790D01*
X16427000Y30449790D01*
X16427000Y30300000D01*
X19299999Y30300000D01*
X19299999Y30449793D01*
X19297091Y30474869D01*
X19297089Y30474875D01*
X19251785Y30577482D01*
X19247912Y30583136D01*
X19251068Y30585299D01*
X19234417Y30625500D01*
X19256091Y30677826D01*
X19308417Y30699500D01*
X19439564Y30699500D01*
X19439564Y30699501D01*
X19515989Y30719979D01*
X19584511Y30759540D01*
X19640460Y30815489D01*
X19702797Y30877826D01*
X19755123Y30899500D01*
X28291902Y30899500D01*
X28333015Y30887028D01*
X28371767Y30861134D01*
X28371768Y30861134D01*
X28371769Y30861133D01*
X28430252Y30849500D01*
X28430254Y30849500D01*
X29269746Y30849500D01*
X29269748Y30849500D01*
X29328231Y30861133D01*
X29394552Y30905448D01*
X29438867Y30971769D01*
X29450500Y31030252D01*
X29450500Y31369748D01*
X29438867Y31428231D01*
X29438866Y31428232D01*
X29437445Y31435379D01*
X29441628Y31436212D01*
X29441527Y31463809D01*
X29437445Y31464621D01*
X29439830Y31476610D01*
X29450500Y31530252D01*
X29450500Y31869748D01*
X29438867Y31928231D01*
X29438866Y31928232D01*
X29437445Y31935379D01*
X29441628Y31936212D01*
X29441527Y31963809D01*
X29437445Y31964621D01*
X29438867Y31971769D01*
X29450500Y32030252D01*
X29450500Y32369748D01*
X29438867Y32428231D01*
X29438866Y32428232D01*
X29437445Y32435379D01*
X29441628Y32436212D01*
X29441527Y32463809D01*
X29437445Y32464621D01*
X29439830Y32476610D01*
X29450500Y32530252D01*
X29450500Y32869748D01*
X29438867Y32928231D01*
X29438866Y32928232D01*
X29437445Y32935379D01*
X29441628Y32936212D01*
X29441527Y32963809D01*
X29437445Y32964621D01*
X29439410Y32974500D01*
X29450500Y33030252D01*
X29450500Y33369748D01*
X29438867Y33428231D01*
X29438866Y33428232D01*
X29437445Y33435379D01*
X29441628Y33436212D01*
X29441527Y33463809D01*
X29437445Y33464621D01*
X29439830Y33476610D01*
X29450500Y33530252D01*
X29450500Y33869748D01*
X29438867Y33928231D01*
X29438866Y33928232D01*
X29437445Y33935379D01*
X29441628Y33936212D01*
X29441527Y33963809D01*
X29437445Y33964621D01*
X29438867Y33971769D01*
X29450500Y34030252D01*
X29450500Y34369748D01*
X29438867Y34428231D01*
X29438866Y34428232D01*
X29437445Y34435379D01*
X29441628Y34436212D01*
X29441527Y34463809D01*
X29437445Y34464621D01*
X29439830Y34476610D01*
X29450500Y34530252D01*
X29450500Y34869748D01*
X30049500Y34869748D01*
X30049500Y34530252D01*
X30060170Y34476610D01*
X30062555Y34464621D01*
X30058448Y34463805D01*
X30058448Y34436196D01*
X30062555Y34435379D01*
X30061133Y34428232D01*
X30061133Y34428231D01*
X30049500Y34369748D01*
X30049500Y34030252D01*
X30061133Y33971769D01*
X30062555Y33964621D01*
X30058448Y33963805D01*
X30058448Y33936196D01*
X30062555Y33935379D01*
X30061133Y33928232D01*
X30061133Y33928231D01*
X30049500Y33869748D01*
X30049500Y33530252D01*
X30060170Y33476610D01*
X30062555Y33464621D01*
X30058448Y33463805D01*
X30058448Y33436196D01*
X30062555Y33435379D01*
X30061133Y33428232D01*
X30061133Y33428231D01*
X30049500Y33369748D01*
X30049500Y33030252D01*
X30060590Y32974500D01*
X30062555Y32964621D01*
X30058448Y32963805D01*
X30058448Y32936196D01*
X30062555Y32935379D01*
X30061133Y32928232D01*
X30061133Y32928231D01*
X30049500Y32869748D01*
X30049500Y32530252D01*
X30060170Y32476610D01*
X30062555Y32464621D01*
X30058448Y32463805D01*
X30058448Y32436196D01*
X30062555Y32435379D01*
X30061133Y32428232D01*
X30061133Y32428231D01*
X30049500Y32369748D01*
X30049500Y32030252D01*
X30061133Y31971769D01*
X30062555Y31964621D01*
X30058448Y31963805D01*
X30058448Y31936196D01*
X30062555Y31935379D01*
X30061133Y31928232D01*
X30061133Y31928231D01*
X30049500Y31869748D01*
X30049500Y31530252D01*
X30060170Y31476610D01*
X30062555Y31464621D01*
X30058448Y31463805D01*
X30058448Y31436196D01*
X30062555Y31435379D01*
X30061133Y31428232D01*
X30061133Y31428231D01*
X30049500Y31369748D01*
X30049500Y31030252D01*
X30057255Y30991264D01*
X30061133Y30971768D01*
X30076012Y30949501D01*
X30105448Y30905448D01*
X30114350Y30899500D01*
X30171767Y30861134D01*
X30171768Y30861134D01*
X30171769Y30861133D01*
X30230252Y30849500D01*
X30230254Y30849500D01*
X31069746Y30849500D01*
X31069748Y30849500D01*
X31128231Y30861133D01*
X31166985Y30887028D01*
X31208098Y30899500D01*
X32182746Y30899500D01*
X32235071Y30877827D01*
X32273387Y30839511D01*
X32376114Y30780201D01*
X32376115Y30780201D01*
X32376117Y30780200D01*
X32433402Y30764851D01*
X32490688Y30749501D01*
X32490689Y30749500D01*
X32490691Y30749500D01*
X32609311Y30749500D01*
X32609311Y30749501D01*
X32723886Y30780201D01*
X32826613Y30839511D01*
X32910489Y30923387D01*
X32969799Y31026114D01*
X33000499Y31140689D01*
X33000500Y31140689D01*
X33000500Y31259311D01*
X33000499Y31259312D01*
X32994089Y31283233D01*
X32969799Y31373886D01*
X32930157Y31442548D01*
X32910491Y31476610D01*
X32910490Y31476611D01*
X32910489Y31476613D01*
X32826613Y31560489D01*
X32826610Y31560491D01*
X32826609Y31560492D01*
X32723887Y31619799D01*
X32723882Y31619801D01*
X32691333Y31628522D01*
X32646400Y31663000D01*
X32639008Y31719153D01*
X32673486Y31764086D01*
X32691333Y31771478D01*
X32723882Y31780200D01*
X32723881Y31780200D01*
X32723886Y31780201D01*
X32826613Y31839511D01*
X32910489Y31923387D01*
X32969799Y32026114D01*
X33000499Y32140689D01*
X33000500Y32140689D01*
X33000500Y32259311D01*
X33000499Y32259312D01*
X32990406Y32296978D01*
X32969799Y32373886D01*
X32917884Y32463805D01*
X32910491Y32476610D01*
X32910490Y32476611D01*
X32910489Y32476613D01*
X32826613Y32560489D01*
X32826610Y32560491D01*
X32826609Y32560492D01*
X32723887Y32619799D01*
X32723882Y32619801D01*
X32691333Y32628522D01*
X32646400Y32663000D01*
X32639008Y32719153D01*
X32673486Y32764086D01*
X32691333Y32771478D01*
X32723882Y32780200D01*
X32723881Y32780200D01*
X32723886Y32780201D01*
X32826613Y32839511D01*
X32910489Y32923387D01*
X32969799Y33026114D01*
X33000499Y33140689D01*
X33000500Y33140689D01*
X33000500Y33259311D01*
X33000499Y33259312D01*
X32969800Y33373883D01*
X32969798Y33373888D01*
X32910491Y33476610D01*
X32910490Y33476611D01*
X32910489Y33476613D01*
X32826613Y33560489D01*
X32826610Y33560491D01*
X32826609Y33560492D01*
X32723887Y33619799D01*
X32723882Y33619801D01*
X32691333Y33628522D01*
X32646400Y33663000D01*
X32639008Y33719153D01*
X32673486Y33764086D01*
X32691333Y33771478D01*
X32723882Y33780200D01*
X32723881Y33780200D01*
X32723886Y33780201D01*
X32826613Y33839511D01*
X32910489Y33923387D01*
X32969799Y34026114D01*
X33000499Y34140689D01*
X33000500Y34140689D01*
X33000500Y34259311D01*
X33000499Y34259312D01*
X32996429Y34274500D01*
X32969799Y34373886D01*
X32917884Y34463805D01*
X32910491Y34476610D01*
X32910490Y34476611D01*
X32910489Y34476613D01*
X32826613Y34560489D01*
X32826610Y34560491D01*
X32826609Y34560492D01*
X32723887Y34619799D01*
X32723882Y34619801D01*
X32609311Y34650500D01*
X32609309Y34650500D01*
X32490691Y34650500D01*
X32490689Y34650500D01*
X32485880Y34649867D01*
X32485552Y34652354D01*
X32437477Y34658701D01*
X32403014Y34703647D01*
X32400500Y34722773D01*
X32400500Y34759311D01*
X32400499Y34759312D01*
X32396429Y34774500D01*
X32370908Y34869748D01*
X32369800Y34873883D01*
X32369798Y34873888D01*
X32310491Y34976610D01*
X32310490Y34976611D01*
X32310489Y34976613D01*
X32226613Y35060489D01*
X32226610Y35060491D01*
X32226609Y35060492D01*
X32123887Y35119799D01*
X32123882Y35119801D01*
X32009311Y35150500D01*
X32009309Y35150500D01*
X31890691Y35150500D01*
X31890689Y35150500D01*
X31776117Y35119801D01*
X31776112Y35119799D01*
X31673390Y35060492D01*
X31635071Y35022173D01*
X31582746Y35000500D01*
X31208098Y35000500D01*
X31166985Y35012972D01*
X31128232Y35038867D01*
X31128233Y35038867D01*
X31098989Y35044684D01*
X31069748Y35050500D01*
X30230252Y35050500D01*
X30201010Y35044684D01*
X30171767Y35038867D01*
X30105449Y34994553D01*
X30105447Y34994551D01*
X30061133Y34928233D01*
X30061133Y34928231D01*
X30049500Y34869748D01*
X29450500Y34869748D01*
X29438867Y34928231D01*
X29394552Y34994552D01*
X29353215Y35022173D01*
X29328232Y35038867D01*
X29328233Y35038867D01*
X29298989Y35044684D01*
X29269748Y35050500D01*
X28430252Y35050500D01*
X28401010Y35044684D01*
X28371767Y35038867D01*
X28333015Y35012972D01*
X28291902Y35000500D01*
X22755123Y35000500D01*
X22702797Y35022174D01*
X20884512Y36840459D01*
X20884511Y36840460D01*
X20861308Y36853856D01*
X20851729Y36859387D01*
X20815990Y36880021D01*
X20815985Y36880023D01*
X20739564Y36900500D01*
X20739562Y36900500D01*
X19308417Y36900500D01*
X19256091Y36922174D01*
X19234417Y36974500D01*
X19251068Y37014702D01*
X19247912Y37016864D01*
X19251785Y37022519D01*
X19297089Y37125125D01*
X19300000Y37150211D01*
X19300000Y37300000D01*
X16427001Y37300000D01*
X16427001Y37150208D01*
X16429908Y37125132D01*
X16429910Y37125126D01*
X16475213Y37022522D01*
X16525780Y36971955D01*
X16547454Y36919629D01*
X16538733Y36890872D01*
X16540922Y36889965D01*
X16538133Y36883233D01*
X16535451Y36869748D01*
X16526500Y36824748D01*
X16526500Y36375252D01*
X16533375Y36340691D01*
X16538133Y36316768D01*
X16586497Y36244389D01*
X16584430Y36243009D01*
X16602245Y36200000D01*
X16584430Y36156992D01*
X16586497Y36155611D01*
X16538133Y36083233D01*
X16535451Y36069748D01*
X16526500Y36024748D01*
X16526500Y35575252D01*
X16533609Y35539511D01*
X16538133Y35516768D01*
X16586497Y35444389D01*
X16584430Y35443009D01*
X16602245Y35400000D01*
X16584430Y35356992D01*
X16586497Y35355611D01*
X16582448Y35349553D01*
X16582448Y35349552D01*
X16575739Y35339511D01*
X16538133Y35283233D01*
X16538133Y35283231D01*
X16529309Y35238867D01*
X16526500Y35224747D01*
X16526500Y34775254D01*
X16538133Y34716768D01*
X16549672Y34699500D01*
X16582413Y34650500D01*
X16586497Y34644389D01*
X16584430Y34643009D01*
X16602245Y34600000D01*
X16584430Y34556992D01*
X16586497Y34555611D01*
X16538133Y34483233D01*
X16531523Y34450000D01*
X16526500Y34424748D01*
X16526500Y33975252D01*
X16534109Y33936999D01*
X16538133Y33916768D01*
X16549672Y33899500D01*
X16582413Y33850500D01*
X16586497Y33844389D01*
X16584430Y33843009D01*
X16602245Y33800000D01*
X16584430Y33756992D01*
X16586497Y33755611D01*
X16582448Y33749553D01*
X16582448Y33749552D01*
X16574528Y33737701D01*
X16538133Y33683233D01*
X16531622Y33650500D01*
X16526595Y33625223D01*
X16526500Y33624747D01*
X16526500Y33175254D01*
X16538133Y33116768D01*
X16586497Y33044389D01*
X16584430Y33043009D01*
X16602245Y33000000D01*
X16584430Y32956992D01*
X16586497Y32955611D01*
X16582448Y32949553D01*
X16582448Y32949552D01*
X16574528Y32937701D01*
X16538133Y32883233D01*
X16535451Y32869748D01*
X16526500Y32824748D01*
X16526500Y32375252D01*
X16527595Y32369748D01*
X16538133Y32316768D01*
X16586497Y32244389D01*
X16584430Y32243009D01*
X16602245Y32200000D01*
X16584430Y32156992D01*
X16586497Y32155611D01*
X16538133Y32083233D01*
X16530377Y32044243D01*
X16526500Y32024748D01*
X16526500Y31575252D01*
X16534255Y31536264D01*
X16538133Y31516768D01*
X16586497Y31444389D01*
X16584430Y31443009D01*
X16602245Y31400000D01*
X16584430Y31356992D01*
X16586497Y31355611D01*
X16538133Y31283233D01*
X16526500Y31224747D01*
X16526500Y30775254D01*
X16538133Y30716767D01*
X16540923Y30710032D01*
X16537543Y30708633D01*
X16546026Y30665908D01*
X16525779Y30628046D01*
X16475214Y30577481D01*
X16429910Y30474876D01*
X16427000Y30449790D01*
X13572999Y30449790D01*
X13572999Y30449793D01*
X13570091Y30474869D01*
X13570089Y30474875D01*
X13524786Y30577479D01*
X13474219Y30628046D01*
X13452545Y30680372D01*
X13461275Y30709126D01*
X13459078Y30710036D01*
X13461866Y30716768D01*
X13461865Y30716768D01*
X13461867Y30716769D01*
X13473500Y30775252D01*
X13473500Y31224748D01*
X13461867Y31283231D01*
X13417552Y31349552D01*
X13417551Y31349553D01*
X13413503Y31355611D01*
X13415569Y31356992D01*
X13397755Y31400000D01*
X13415569Y31443009D01*
X13413503Y31444389D01*
X13423473Y31459309D01*
X13461867Y31516769D01*
X13473500Y31575252D01*
X13473500Y32024748D01*
X13461867Y32083231D01*
X13449636Y32101535D01*
X13435035Y32123387D01*
X13417552Y32149552D01*
X13417551Y32149553D01*
X13413503Y32155611D01*
X13415569Y32156992D01*
X13397755Y32200000D01*
X13415569Y32243009D01*
X13413503Y32244389D01*
X13423473Y32259309D01*
X13461867Y32316769D01*
X13473500Y32375252D01*
X13473500Y32824748D01*
X13461867Y32883231D01*
X13449636Y32901535D01*
X13435035Y32923387D01*
X13417552Y32949552D01*
X13417551Y32949553D01*
X13413503Y32955611D01*
X13415569Y32956992D01*
X13397755Y33000000D01*
X13415569Y33043009D01*
X13413503Y33044389D01*
X13434676Y33076075D01*
X13461867Y33116769D01*
X13473500Y33175252D01*
X13473500Y33624748D01*
X13461867Y33683231D01*
X13449636Y33701535D01*
X13429529Y33731627D01*
X13417552Y33749552D01*
X13417551Y33749553D01*
X13413503Y33755611D01*
X13415569Y33756992D01*
X13397755Y33800000D01*
X13415569Y33843009D01*
X13413503Y33844389D01*
X13417587Y33850500D01*
X13461867Y33916769D01*
X13473500Y33975252D01*
X13473500Y34424748D01*
X13461867Y34483231D01*
X13449636Y34501535D01*
X13413503Y34555611D01*
X13415569Y34556992D01*
X13397755Y34600000D01*
X13415569Y34643009D01*
X13413503Y34644389D01*
X13417587Y34650500D01*
X13461867Y34716769D01*
X13473500Y34775252D01*
X13473500Y35224748D01*
X13461867Y35283231D01*
X13449636Y35301535D01*
X13429529Y35331627D01*
X13417552Y35349552D01*
X13417551Y35349553D01*
X13413503Y35355611D01*
X13415569Y35356992D01*
X13397755Y35400000D01*
X13415569Y35443009D01*
X13413503Y35444389D01*
X13423628Y35459541D01*
X13461867Y35516769D01*
X13473500Y35575252D01*
X13473500Y36024748D01*
X13461867Y36083231D01*
X13449636Y36101535D01*
X13426476Y36136196D01*
X13417552Y36149552D01*
X13417551Y36149553D01*
X13413503Y36155611D01*
X13415569Y36156992D01*
X13397755Y36200000D01*
X13415569Y36243009D01*
X13413503Y36244389D01*
X13423473Y36259309D01*
X13461867Y36316769D01*
X13473500Y36375252D01*
X13473500Y36824748D01*
X13461867Y36883231D01*
X13461866Y36883233D01*
X13461866Y36883234D01*
X13459077Y36889968D01*
X13462457Y36891369D01*
X13453971Y36934080D01*
X13474221Y36971956D01*
X13524785Y37022520D01*
X13570089Y37125125D01*
X13573000Y37150211D01*
X13573000Y37300000D01*
X10700001Y37300000D01*
X10700001Y37150208D01*
X10702908Y37125132D01*
X10702910Y37125126D01*
X10748213Y37022522D01*
X10798780Y36971955D01*
X10820454Y36919629D01*
X10811733Y36890872D01*
X10813922Y36889965D01*
X10811133Y36883233D01*
X10808451Y36869748D01*
X10799500Y36824748D01*
X10799500Y36375252D01*
X10806375Y36340691D01*
X10811133Y36316768D01*
X10859497Y36244389D01*
X10857430Y36243009D01*
X10875245Y36200000D01*
X10857430Y36156992D01*
X10859497Y36155611D01*
X10811133Y36083233D01*
X10808451Y36069748D01*
X10799500Y36024748D01*
X10799500Y35575252D01*
X10806609Y35539511D01*
X10811133Y35516768D01*
X10859497Y35444389D01*
X10857430Y35443009D01*
X10875245Y35400000D01*
X10857430Y35356992D01*
X10859497Y35355611D01*
X10855448Y35349553D01*
X10855448Y35349552D01*
X10848739Y35339511D01*
X10811133Y35283233D01*
X10811133Y35283231D01*
X10802309Y35238867D01*
X10799500Y35224747D01*
X10799500Y34775254D01*
X10811133Y34716768D01*
X10822672Y34699500D01*
X10855413Y34650500D01*
X10859497Y34644389D01*
X10857430Y34643009D01*
X10875245Y34600000D01*
X10857430Y34556992D01*
X10859497Y34555611D01*
X10811133Y34483233D01*
X10804523Y34450000D01*
X10799500Y34424748D01*
X10799500Y33975252D01*
X10807109Y33936999D01*
X10811133Y33916768D01*
X10822672Y33899500D01*
X10855413Y33850500D01*
X10859497Y33844389D01*
X10857430Y33843009D01*
X10875245Y33800000D01*
X10857430Y33756992D01*
X10859497Y33755611D01*
X10855448Y33749553D01*
X10855448Y33749552D01*
X10847528Y33737701D01*
X10811133Y33683233D01*
X10804622Y33650500D01*
X10799595Y33625223D01*
X10799500Y33624747D01*
X10799500Y33175254D01*
X10811133Y33116768D01*
X10859497Y33044389D01*
X10857430Y33043009D01*
X10875245Y33000000D01*
X10857430Y32956992D01*
X10859497Y32955611D01*
X10855448Y32949553D01*
X10855448Y32949552D01*
X10847528Y32937701D01*
X10811133Y32883233D01*
X10808451Y32869748D01*
X10799500Y32824748D01*
X10799500Y32375252D01*
X10800595Y32369748D01*
X10811133Y32316768D01*
X10859497Y32244389D01*
X10857430Y32243009D01*
X10875245Y32200000D01*
X10857430Y32156992D01*
X10859497Y32155611D01*
X10811133Y32083233D01*
X10803377Y32044243D01*
X10799500Y32024748D01*
X10799500Y31575252D01*
X10807255Y31536264D01*
X10811133Y31516768D01*
X10859497Y31444389D01*
X10857430Y31443009D01*
X10875245Y31400000D01*
X10857430Y31356992D01*
X10859497Y31355611D01*
X10811133Y31283233D01*
X10799500Y31224747D01*
X10799500Y30775254D01*
X10811133Y30716767D01*
X10813923Y30710032D01*
X10810543Y30708633D01*
X10819026Y30665908D01*
X10798779Y30628046D01*
X10748214Y30577481D01*
X10702910Y30474876D01*
X10700000Y30449790D01*
X500500Y30449790D01*
X500500Y37649790D01*
X10700000Y37649790D01*
X10700000Y37500000D01*
X13572999Y37500000D01*
X13572999Y37649790D01*
X16427000Y37649790D01*
X16427000Y37500000D01*
X19299999Y37500000D01*
X19299999Y37649793D01*
X19297091Y37674869D01*
X19297089Y37674875D01*
X19251785Y37777482D01*
X19247912Y37783136D01*
X19251068Y37785299D01*
X19234417Y37825500D01*
X19256091Y37877826D01*
X19308417Y37899500D01*
X21232057Y37899500D01*
X21284383Y37877826D01*
X23646720Y35515489D01*
X23702669Y35459540D01*
X23771191Y35419979D01*
X23771192Y35419979D01*
X23771194Y35419978D01*
X23809404Y35409740D01*
X23847615Y35399501D01*
X23847616Y35399500D01*
X23847618Y35399500D01*
X28291902Y35399500D01*
X28333015Y35387028D01*
X28371767Y35361134D01*
X28371768Y35361134D01*
X28371769Y35361133D01*
X28430252Y35349500D01*
X28430254Y35349500D01*
X29269746Y35349500D01*
X29269748Y35349500D01*
X29328231Y35361133D01*
X29394552Y35405448D01*
X29438867Y35471769D01*
X29450500Y35530252D01*
X29450500Y35869748D01*
X29438867Y35928231D01*
X29438866Y35928232D01*
X29437445Y35935379D01*
X29441628Y35936212D01*
X29441527Y35963809D01*
X29437445Y35964621D01*
X29439830Y35976610D01*
X29450500Y36030252D01*
X29450500Y36369748D01*
X29438867Y36428231D01*
X29438866Y36428232D01*
X29437445Y36435379D01*
X29441628Y36436212D01*
X29441527Y36463809D01*
X29437445Y36464621D01*
X29438867Y36471769D01*
X29450500Y36530252D01*
X29450500Y36869748D01*
X29438867Y36928231D01*
X29438866Y36928232D01*
X29437445Y36935379D01*
X29441628Y36936212D01*
X29441527Y36963809D01*
X29437445Y36964621D01*
X29439830Y36976610D01*
X29450500Y37030252D01*
X29450500Y37369748D01*
X29438867Y37428231D01*
X29438866Y37428232D01*
X29437445Y37435379D01*
X29441628Y37436212D01*
X29441527Y37463809D01*
X29437445Y37464621D01*
X29438867Y37471769D01*
X29450500Y37530252D01*
X29450500Y37869748D01*
X29438867Y37928231D01*
X29438866Y37928232D01*
X29437445Y37935379D01*
X29441628Y37936212D01*
X29441527Y37963809D01*
X29437445Y37964621D01*
X29439830Y37976610D01*
X29450500Y38030252D01*
X29450500Y38369748D01*
X29438867Y38428231D01*
X29438866Y38428232D01*
X29437445Y38435379D01*
X29441628Y38436212D01*
X29441527Y38463809D01*
X29437445Y38464621D01*
X29438867Y38471769D01*
X29450500Y38530252D01*
X29450500Y38869748D01*
X29438867Y38928231D01*
X29438866Y38928232D01*
X29437445Y38935379D01*
X29441628Y38936212D01*
X29441527Y38963809D01*
X29437445Y38964621D01*
X29439830Y38976610D01*
X29450500Y39030252D01*
X29450500Y39369748D01*
X30049500Y39369748D01*
X30049500Y39030252D01*
X30060170Y38976610D01*
X30062555Y38964621D01*
X30058448Y38963805D01*
X30058448Y38936196D01*
X30062555Y38935379D01*
X30061133Y38928232D01*
X30061133Y38928231D01*
X30049500Y38869748D01*
X30049500Y38530252D01*
X30061133Y38471769D01*
X30062555Y38464621D01*
X30058448Y38463805D01*
X30058448Y38436196D01*
X30062555Y38435379D01*
X30061133Y38428232D01*
X30061133Y38428231D01*
X30049500Y38369748D01*
X30049500Y38030252D01*
X30060170Y37976610D01*
X30062555Y37964621D01*
X30058448Y37963805D01*
X30058448Y37936196D01*
X30062555Y37935379D01*
X30061133Y37928232D01*
X30061133Y37928231D01*
X30049500Y37869748D01*
X30049500Y37530252D01*
X30061133Y37471769D01*
X30062555Y37464621D01*
X30058448Y37463805D01*
X30058448Y37436196D01*
X30062555Y37435379D01*
X30061133Y37428232D01*
X30061133Y37428231D01*
X30049500Y37369748D01*
X30049500Y37030252D01*
X30060170Y36976610D01*
X30062555Y36964621D01*
X30058448Y36963805D01*
X30058448Y36936196D01*
X30062555Y36935379D01*
X30061133Y36928232D01*
X30061133Y36928231D01*
X30049500Y36869748D01*
X30049500Y36530252D01*
X30061133Y36471769D01*
X30062555Y36464621D01*
X30058448Y36463805D01*
X30058448Y36436196D01*
X30062555Y36435379D01*
X30061133Y36428232D01*
X30061133Y36428231D01*
X30049500Y36369748D01*
X30049500Y36030252D01*
X30060170Y35976610D01*
X30062555Y35964621D01*
X30058448Y35963805D01*
X30058448Y35936196D01*
X30062555Y35935379D01*
X30061133Y35928232D01*
X30061133Y35928231D01*
X30049500Y35869748D01*
X30049500Y35530252D01*
X30052182Y35516769D01*
X30061133Y35471768D01*
X30069304Y35459540D01*
X30105448Y35405448D01*
X30133015Y35387028D01*
X30171767Y35361134D01*
X30171768Y35361134D01*
X30171769Y35361133D01*
X30230252Y35349500D01*
X30230254Y35349500D01*
X31069746Y35349500D01*
X31069748Y35349500D01*
X31128231Y35361133D01*
X31166985Y35387028D01*
X31208098Y35399500D01*
X32182746Y35399500D01*
X32235071Y35377827D01*
X32273387Y35339511D01*
X32273389Y35339510D01*
X32273390Y35339509D01*
X32340955Y35300500D01*
X32376114Y35280201D01*
X32376115Y35280201D01*
X32376117Y35280200D01*
X32433402Y35264851D01*
X32490688Y35249501D01*
X32490689Y35249500D01*
X32490691Y35249500D01*
X32609311Y35249500D01*
X32609311Y35249501D01*
X32723886Y35280201D01*
X32826613Y35339511D01*
X32910489Y35423387D01*
X32969799Y35526114D01*
X33000499Y35640689D01*
X33000500Y35640689D01*
X33000500Y35759311D01*
X33000499Y35759312D01*
X32969800Y35873883D01*
X32969798Y35873888D01*
X32910491Y35976610D01*
X32910490Y35976611D01*
X32910489Y35976613D01*
X32826613Y36060489D01*
X32826610Y36060491D01*
X32826609Y36060492D01*
X32723887Y36119799D01*
X32723882Y36119801D01*
X32691333Y36128522D01*
X32646400Y36163000D01*
X32639008Y36219153D01*
X32673486Y36264086D01*
X32691333Y36271478D01*
X32723882Y36280200D01*
X32723881Y36280200D01*
X32723886Y36280201D01*
X32826613Y36339511D01*
X32910489Y36423387D01*
X32969799Y36526114D01*
X33000499Y36640689D01*
X33000500Y36640689D01*
X33000500Y36759311D01*
X33000499Y36759312D01*
X32996429Y36774500D01*
X32969799Y36873886D01*
X32964404Y36883231D01*
X32910491Y36976610D01*
X32910490Y36976611D01*
X32910489Y36976613D01*
X32826613Y37060489D01*
X32826610Y37060491D01*
X32826609Y37060492D01*
X32723887Y37119799D01*
X32723882Y37119801D01*
X32691333Y37128522D01*
X32646400Y37163000D01*
X32639008Y37219153D01*
X32673486Y37264086D01*
X32691333Y37271478D01*
X32723882Y37280200D01*
X32723881Y37280200D01*
X32723886Y37280201D01*
X32826613Y37339511D01*
X32910489Y37423387D01*
X32969799Y37526114D01*
X33000499Y37640689D01*
X33000500Y37640689D01*
X33000500Y37759311D01*
X33000499Y37759312D01*
X32996429Y37774500D01*
X32969799Y37873886D01*
X32948928Y37910036D01*
X32910491Y37976610D01*
X32910490Y37976611D01*
X32910489Y37976613D01*
X32826613Y38060489D01*
X32826610Y38060491D01*
X32826609Y38060492D01*
X32723887Y38119799D01*
X32723882Y38119801D01*
X32691333Y38128522D01*
X32646400Y38163000D01*
X32639008Y38219153D01*
X32673486Y38264086D01*
X32691333Y38271478D01*
X32723882Y38280200D01*
X32723881Y38280200D01*
X32723886Y38280201D01*
X32826613Y38339511D01*
X32910489Y38423387D01*
X32969799Y38526114D01*
X33000499Y38640689D01*
X33000500Y38640689D01*
X33000500Y38759311D01*
X33000499Y38759312D01*
X32996429Y38774500D01*
X32969799Y38873886D01*
X32925854Y38950000D01*
X32920478Y38959312D01*
X39399500Y38959312D01*
X39399500Y38840689D01*
X39430199Y38726118D01*
X39430201Y38726113D01*
X39489508Y38623391D01*
X39489509Y38623390D01*
X39489511Y38623387D01*
X39573387Y38539511D01*
X39573389Y38539510D01*
X39573390Y38539509D01*
X39640955Y38500500D01*
X39676114Y38480201D01*
X39676115Y38480201D01*
X39676117Y38480200D01*
X39708666Y38471478D01*
X39753599Y38436999D01*
X39760991Y38380847D01*
X39726512Y38335914D01*
X39708666Y38328522D01*
X39676117Y38319801D01*
X39676112Y38319799D01*
X39573390Y38260492D01*
X39489508Y38176610D01*
X39430201Y38073888D01*
X39430199Y38073883D01*
X39399500Y37959312D01*
X39399500Y37840689D01*
X39430199Y37726118D01*
X39430201Y37726113D01*
X39489508Y37623391D01*
X39489509Y37623390D01*
X39489511Y37623387D01*
X39573387Y37539511D01*
X39573389Y37539510D01*
X39573390Y37539509D01*
X39603415Y37522174D01*
X39676114Y37480201D01*
X39676115Y37480201D01*
X39676117Y37480200D01*
X39708666Y37471478D01*
X39753599Y37436999D01*
X39760991Y37380847D01*
X39726512Y37335914D01*
X39708666Y37328522D01*
X39676117Y37319801D01*
X39676112Y37319799D01*
X39573390Y37260492D01*
X39489508Y37176610D01*
X39430201Y37073888D01*
X39430199Y37073883D01*
X39399500Y36959312D01*
X39399500Y36840689D01*
X39430199Y36726118D01*
X39430201Y36726113D01*
X39489508Y36623391D01*
X39489509Y36623390D01*
X39489511Y36623387D01*
X39573387Y36539511D01*
X39573389Y36539510D01*
X39573390Y36539509D01*
X39614994Y36515489D01*
X39676114Y36480201D01*
X39676115Y36480201D01*
X39676117Y36480200D01*
X39708666Y36471478D01*
X39753599Y36436999D01*
X39760991Y36380847D01*
X39726512Y36335914D01*
X39708666Y36328522D01*
X39676117Y36319801D01*
X39676112Y36319799D01*
X39573390Y36260492D01*
X39489508Y36176610D01*
X39430201Y36073888D01*
X39430199Y36073883D01*
X39399500Y35959312D01*
X39399500Y35840689D01*
X39430199Y35726118D01*
X39430201Y35726113D01*
X39489508Y35623391D01*
X39489509Y35623390D01*
X39489511Y35623387D01*
X39573387Y35539511D01*
X39573389Y35539510D01*
X39573390Y35539509D01*
X39614994Y35515489D01*
X39676114Y35480201D01*
X39676115Y35480201D01*
X39676117Y35480200D01*
X39707582Y35471769D01*
X39790688Y35449501D01*
X39790689Y35449500D01*
X39790691Y35449500D01*
X39909311Y35449500D01*
X39909311Y35449501D01*
X40023886Y35480201D01*
X40126613Y35539511D01*
X40164929Y35577827D01*
X40217254Y35599500D01*
X41191902Y35599500D01*
X41233015Y35587028D01*
X41271767Y35561134D01*
X41271768Y35561134D01*
X41271769Y35561133D01*
X41330252Y35549500D01*
X41330254Y35549500D01*
X42169746Y35549500D01*
X42169748Y35549500D01*
X42228231Y35561133D01*
X42294552Y35605448D01*
X42338867Y35671769D01*
X42350500Y35730252D01*
X42350500Y36069748D01*
X42338867Y36128231D01*
X42338866Y36128232D01*
X42337445Y36135379D01*
X42341628Y36136212D01*
X42341527Y36163809D01*
X42337445Y36164621D01*
X42339830Y36176610D01*
X42350500Y36230252D01*
X42350500Y36569748D01*
X42338867Y36628231D01*
X42338866Y36628232D01*
X42337445Y36635379D01*
X42341628Y36636212D01*
X42341527Y36663809D01*
X42337445Y36664621D01*
X42348893Y36722174D01*
X42350500Y36730252D01*
X42350500Y37069748D01*
X42338867Y37128231D01*
X42338866Y37128232D01*
X42337445Y37135379D01*
X42341628Y37136212D01*
X42341527Y37163809D01*
X42337445Y37164621D01*
X42339830Y37176610D01*
X42350500Y37230252D01*
X42350500Y37569748D01*
X42338867Y37628231D01*
X42338866Y37628232D01*
X42337445Y37635379D01*
X42341628Y37636212D01*
X42341527Y37663809D01*
X42337445Y37664621D01*
X42338867Y37671769D01*
X42350500Y37730252D01*
X42350500Y38069748D01*
X42338867Y38128231D01*
X42338866Y38128232D01*
X42337445Y38135379D01*
X42341628Y38136212D01*
X42341527Y38163809D01*
X42337445Y38164621D01*
X42339830Y38176610D01*
X42350500Y38230252D01*
X42350500Y38569748D01*
X42338867Y38628231D01*
X42338866Y38628232D01*
X42337445Y38635379D01*
X42341628Y38636212D01*
X42341527Y38663809D01*
X42337445Y38664621D01*
X42347818Y38716769D01*
X42350500Y38730252D01*
X42350500Y39069748D01*
X42338867Y39128231D01*
X42338866Y39128232D01*
X42337445Y39135379D01*
X42341628Y39136212D01*
X42341527Y39163809D01*
X42337445Y39164621D01*
X42339830Y39176610D01*
X42350500Y39230252D01*
X42350500Y39569748D01*
X42949500Y39569748D01*
X42949500Y39230252D01*
X42960170Y39176610D01*
X42962555Y39164621D01*
X42958448Y39163805D01*
X42958448Y39136196D01*
X42962555Y39135379D01*
X42961133Y39128232D01*
X42961133Y39128231D01*
X42949500Y39069748D01*
X42949500Y38730252D01*
X42952182Y38716769D01*
X42962555Y38664621D01*
X42958448Y38663805D01*
X42958448Y38636196D01*
X42962555Y38635379D01*
X42961133Y38628232D01*
X42961133Y38628231D01*
X42949500Y38569748D01*
X42949500Y38230252D01*
X42960170Y38176610D01*
X42962555Y38164621D01*
X42958448Y38163805D01*
X42958448Y38136196D01*
X42962555Y38135379D01*
X42961133Y38128232D01*
X42961133Y38128231D01*
X42949500Y38069748D01*
X42949500Y37730252D01*
X42961133Y37671769D01*
X42962555Y37664621D01*
X42958448Y37663805D01*
X42958448Y37636196D01*
X42962555Y37635379D01*
X42961133Y37628232D01*
X42961133Y37628231D01*
X42949500Y37569748D01*
X42949500Y37230252D01*
X42960170Y37176610D01*
X42962555Y37164621D01*
X42958448Y37163805D01*
X42958448Y37136196D01*
X42962555Y37135379D01*
X42961133Y37128232D01*
X42961133Y37128231D01*
X42949500Y37069748D01*
X42949500Y36730252D01*
X42951107Y36722174D01*
X42962555Y36664621D01*
X42958448Y36663805D01*
X42958448Y36636196D01*
X42962555Y36635379D01*
X42961133Y36628232D01*
X42961133Y36628231D01*
X42949500Y36569748D01*
X42949500Y36230252D01*
X42960170Y36176610D01*
X42962555Y36164621D01*
X42958448Y36163805D01*
X42958448Y36136196D01*
X42962555Y36135379D01*
X42961133Y36128232D01*
X42961133Y36128231D01*
X42949500Y36069748D01*
X42949500Y35730252D01*
X42952437Y35715489D01*
X42961133Y35671768D01*
X42969304Y35659540D01*
X43005448Y35605448D01*
X43014350Y35599500D01*
X43071767Y35561134D01*
X43071768Y35561134D01*
X43071769Y35561133D01*
X43130252Y35549500D01*
X43130254Y35549500D01*
X43969746Y35549500D01*
X43969748Y35549500D01*
X44028231Y35561133D01*
X44066985Y35587028D01*
X44108098Y35599500D01*
X69464564Y35599500D01*
X69464564Y35599501D01*
X69540989Y35619979D01*
X69609511Y35659540D01*
X69665460Y35715489D01*
X71827797Y37877826D01*
X71880123Y37899500D01*
X80691583Y37899500D01*
X80743909Y37877826D01*
X80765583Y37825500D01*
X80748931Y37785299D01*
X80752088Y37783136D01*
X80748214Y37777482D01*
X80702910Y37674876D01*
X80700000Y37649790D01*
X80700000Y37500000D01*
X83572999Y37500000D01*
X83572999Y37649790D01*
X86427000Y37649790D01*
X86427000Y37500000D01*
X89299999Y37500000D01*
X89299999Y37649793D01*
X89297091Y37674869D01*
X89297089Y37674875D01*
X89251786Y37777479D01*
X89201219Y37828046D01*
X89179545Y37880372D01*
X89188275Y37909126D01*
X89186078Y37910036D01*
X89188866Y37916768D01*
X89188865Y37916768D01*
X89188867Y37916769D01*
X89200500Y37975252D01*
X89200500Y38424748D01*
X89188867Y38483231D01*
X89176636Y38501535D01*
X89155353Y38533387D01*
X89144552Y38549552D01*
X89144551Y38549553D01*
X89140503Y38555611D01*
X89142569Y38556992D01*
X89124755Y38600000D01*
X89142569Y38643009D01*
X89140503Y38644389D01*
X89153480Y38663809D01*
X89188867Y38716769D01*
X89200500Y38775252D01*
X89200500Y39224748D01*
X89188867Y39283231D01*
X89176636Y39301535D01*
X89150473Y39340691D01*
X89144552Y39349552D01*
X89144551Y39349553D01*
X89140503Y39355611D01*
X89142569Y39356992D01*
X89124755Y39400000D01*
X89142569Y39443009D01*
X89140503Y39444389D01*
X89150473Y39459309D01*
X89188867Y39516769D01*
X89200500Y39575252D01*
X89200500Y40024748D01*
X89188867Y40083231D01*
X89176636Y40101535D01*
X89140503Y40155611D01*
X89142569Y40156992D01*
X89124755Y40200000D01*
X89142569Y40243009D01*
X89140503Y40244389D01*
X89162846Y40277826D01*
X89188867Y40316769D01*
X89200500Y40375252D01*
X89200500Y40824748D01*
X89188867Y40883231D01*
X89176636Y40901535D01*
X89140503Y40955611D01*
X89142569Y40956992D01*
X89124755Y41000000D01*
X89142569Y41043009D01*
X89140503Y41044389D01*
X89162846Y41077826D01*
X89188867Y41116769D01*
X89200500Y41175252D01*
X89200500Y41624748D01*
X89188867Y41683231D01*
X89176636Y41701535D01*
X89140503Y41755611D01*
X89142569Y41756992D01*
X89124755Y41800000D01*
X89142569Y41843009D01*
X89140503Y41844389D01*
X89162846Y41877826D01*
X89188867Y41916769D01*
X89200500Y41975252D01*
X89200500Y42424748D01*
X89188867Y42483231D01*
X89176636Y42501535D01*
X89140503Y42555611D01*
X89142569Y42556992D01*
X89124755Y42600000D01*
X89142569Y42643009D01*
X89140503Y42644389D01*
X89162846Y42677826D01*
X89188867Y42716769D01*
X89200500Y42775252D01*
X89200500Y43224748D01*
X89188867Y43283231D01*
X89176636Y43301535D01*
X89140503Y43355611D01*
X89142569Y43356992D01*
X89124755Y43400000D01*
X89142569Y43443009D01*
X89140503Y43444389D01*
X89162846Y43477826D01*
X89188867Y43516769D01*
X89200500Y43575252D01*
X89200500Y44024748D01*
X89188867Y44083231D01*
X89188866Y44083233D01*
X89188866Y44083234D01*
X89186077Y44089968D01*
X89189457Y44091369D01*
X89180971Y44134080D01*
X89201221Y44171956D01*
X89251785Y44222520D01*
X89297089Y44325125D01*
X89300000Y44350211D01*
X89300000Y44500000D01*
X86427001Y44500000D01*
X86427001Y44350208D01*
X86429908Y44325132D01*
X86429910Y44325126D01*
X86475213Y44222522D01*
X86525780Y44171955D01*
X86547454Y44119629D01*
X86538733Y44090872D01*
X86540922Y44089965D01*
X86538133Y44083233D01*
X86526500Y44024747D01*
X86526500Y43575254D01*
X86538133Y43516768D01*
X86586497Y43444389D01*
X86584430Y43443009D01*
X86602245Y43400000D01*
X86584430Y43356992D01*
X86586497Y43355611D01*
X86538133Y43283233D01*
X86526500Y43224747D01*
X86526500Y42775254D01*
X86538133Y42716768D01*
X86586497Y42644389D01*
X86584430Y42643009D01*
X86602245Y42600000D01*
X86584430Y42556992D01*
X86586497Y42555611D01*
X86538133Y42483233D01*
X86526500Y42424747D01*
X86526500Y41975254D01*
X86538133Y41916768D01*
X86586497Y41844389D01*
X86584430Y41843009D01*
X86602245Y41800000D01*
X86584430Y41756992D01*
X86586497Y41755611D01*
X86538133Y41683233D01*
X86526500Y41624747D01*
X86526500Y41175254D01*
X86538133Y41116768D01*
X86586497Y41044389D01*
X86584430Y41043009D01*
X86602245Y41000000D01*
X86584430Y40956992D01*
X86586497Y40955611D01*
X86538133Y40883233D01*
X86526500Y40824747D01*
X86526500Y40375254D01*
X86538133Y40316768D01*
X86586497Y40244389D01*
X86584430Y40243009D01*
X86602245Y40200000D01*
X86584430Y40156992D01*
X86586497Y40155611D01*
X86538133Y40083233D01*
X86538133Y40083231D01*
X86526500Y40024748D01*
X86526500Y39575252D01*
X86533737Y39538867D01*
X86538133Y39516768D01*
X86586497Y39444389D01*
X86584430Y39443009D01*
X86602245Y39400000D01*
X86584430Y39356992D01*
X86586497Y39355611D01*
X86582448Y39349553D01*
X86582448Y39349552D01*
X86576527Y39340691D01*
X86538133Y39283233D01*
X86530377Y39244243D01*
X86526500Y39224748D01*
X86526500Y38775252D01*
X86534255Y38736264D01*
X86538133Y38716768D01*
X86586497Y38644389D01*
X86584430Y38643009D01*
X86602245Y38600000D01*
X86584430Y38556992D01*
X86586497Y38555611D01*
X86538133Y38483233D01*
X86526500Y38424747D01*
X86526500Y37975254D01*
X86538133Y37916767D01*
X86540923Y37910032D01*
X86537543Y37908633D01*
X86546026Y37865908D01*
X86525779Y37828046D01*
X86475214Y37777481D01*
X86429910Y37674876D01*
X86427000Y37649790D01*
X83572999Y37649790D01*
X83572999Y37649793D01*
X83570091Y37674869D01*
X83570089Y37674875D01*
X83524786Y37777479D01*
X83474219Y37828046D01*
X83452545Y37880372D01*
X83461275Y37909126D01*
X83459078Y37910036D01*
X83461866Y37916768D01*
X83461865Y37916768D01*
X83461867Y37916769D01*
X83473500Y37975252D01*
X83473500Y38424748D01*
X83461867Y38483231D01*
X83449636Y38501535D01*
X83428353Y38533387D01*
X83417552Y38549552D01*
X83417551Y38549553D01*
X83413503Y38555611D01*
X83415569Y38556992D01*
X83397755Y38600000D01*
X83415569Y38643009D01*
X83413503Y38644389D01*
X83426480Y38663809D01*
X83461867Y38716769D01*
X83473500Y38775252D01*
X83473500Y39224748D01*
X83461867Y39283231D01*
X83449636Y39301535D01*
X83423473Y39340691D01*
X83417552Y39349552D01*
X83417551Y39349553D01*
X83413503Y39355611D01*
X83415569Y39356992D01*
X83397755Y39400000D01*
X83415569Y39443009D01*
X83413503Y39444389D01*
X83423473Y39459309D01*
X83461867Y39516769D01*
X83473500Y39575252D01*
X83473500Y40024748D01*
X83461867Y40083231D01*
X83449636Y40101535D01*
X83413503Y40155611D01*
X83415569Y40156992D01*
X83397755Y40200000D01*
X83415569Y40243009D01*
X83413503Y40244389D01*
X83435846Y40277826D01*
X83461867Y40316769D01*
X83473500Y40375252D01*
X83473500Y40824748D01*
X83461867Y40883231D01*
X83449636Y40901535D01*
X83413503Y40955611D01*
X83415569Y40956992D01*
X83397755Y41000000D01*
X83415569Y41043009D01*
X83413503Y41044389D01*
X83435846Y41077826D01*
X83461867Y41116769D01*
X83473500Y41175252D01*
X83473500Y41624748D01*
X83461867Y41683231D01*
X83449636Y41701535D01*
X83413503Y41755611D01*
X83415569Y41756992D01*
X83397755Y41800000D01*
X83415569Y41843009D01*
X83413503Y41844389D01*
X83435846Y41877826D01*
X83461867Y41916769D01*
X83473500Y41975252D01*
X83473500Y42424748D01*
X83461867Y42483231D01*
X83449636Y42501535D01*
X83413503Y42555611D01*
X83415569Y42556992D01*
X83397755Y42600000D01*
X83415569Y42643009D01*
X83413503Y42644389D01*
X83435846Y42677826D01*
X83461867Y42716769D01*
X83473500Y42775252D01*
X83473500Y43224748D01*
X83461867Y43283231D01*
X83449636Y43301535D01*
X83413503Y43355611D01*
X83415569Y43356992D01*
X83397755Y43400000D01*
X83415569Y43443009D01*
X83413503Y43444389D01*
X83435846Y43477826D01*
X83461867Y43516769D01*
X83473500Y43575252D01*
X83473500Y44024748D01*
X83461867Y44083231D01*
X83461866Y44083233D01*
X83461866Y44083234D01*
X83459077Y44089968D01*
X83462457Y44091369D01*
X83453971Y44134080D01*
X83474221Y44171956D01*
X83524785Y44222520D01*
X83570089Y44325125D01*
X83573000Y44350211D01*
X83573000Y44500000D01*
X80700001Y44500000D01*
X80700001Y44350208D01*
X80702908Y44325132D01*
X80702910Y44325126D01*
X80748214Y44222519D01*
X80752088Y44216864D01*
X80748931Y44214702D01*
X80765583Y44174500D01*
X80743909Y44122174D01*
X80691583Y44100500D01*
X69189564Y44100500D01*
X69110440Y44100500D01*
X69034014Y44080022D01*
X69034013Y44080022D01*
X69034011Y44080021D01*
X69034009Y44080020D01*
X68965494Y44040463D01*
X64647205Y39722174D01*
X64594879Y39700500D01*
X44108098Y39700500D01*
X44066985Y39712972D01*
X44028232Y39738867D01*
X44028233Y39738867D01*
X43998989Y39744684D01*
X43969748Y39750500D01*
X43130252Y39750500D01*
X43101010Y39744684D01*
X43071767Y39738867D01*
X43005449Y39694553D01*
X43005447Y39694551D01*
X42961133Y39628233D01*
X42953377Y39589243D01*
X42949500Y39569748D01*
X42350500Y39569748D01*
X42338867Y39628231D01*
X42294552Y39694552D01*
X42253215Y39722173D01*
X42228232Y39738867D01*
X42228233Y39738867D01*
X42198989Y39744684D01*
X42169748Y39750500D01*
X41330252Y39750500D01*
X41301010Y39744684D01*
X41271767Y39738867D01*
X41233015Y39712972D01*
X41191902Y39700500D01*
X40817254Y39700500D01*
X40764929Y39722173D01*
X40748235Y39738867D01*
X40726613Y39760489D01*
X40726610Y39760491D01*
X40726609Y39760492D01*
X40623887Y39819799D01*
X40623882Y39819801D01*
X40509311Y39850500D01*
X40509309Y39850500D01*
X40390691Y39850500D01*
X40390689Y39850500D01*
X40276117Y39819801D01*
X40276112Y39819799D01*
X40173390Y39760492D01*
X40089508Y39676610D01*
X40030201Y39573888D01*
X40030199Y39573883D01*
X39999500Y39459312D01*
X39999500Y39422773D01*
X39977826Y39370447D01*
X39925500Y39348773D01*
X39914171Y39350262D01*
X39914120Y39349867D01*
X39909311Y39350500D01*
X39909309Y39350500D01*
X39790691Y39350500D01*
X39790689Y39350500D01*
X39676117Y39319801D01*
X39676112Y39319799D01*
X39573390Y39260492D01*
X39489508Y39176610D01*
X39430201Y39073888D01*
X39430199Y39073883D01*
X39399500Y38959312D01*
X32920478Y38959312D01*
X32910491Y38976610D01*
X32910490Y38976611D01*
X32910489Y38976613D01*
X32826613Y39060489D01*
X32826610Y39060491D01*
X32826609Y39060492D01*
X32723887Y39119799D01*
X32723882Y39119801D01*
X32609311Y39150500D01*
X32609309Y39150500D01*
X32490691Y39150500D01*
X32490689Y39150500D01*
X32485880Y39149867D01*
X32485552Y39152354D01*
X32437477Y39158701D01*
X32403014Y39203647D01*
X32400500Y39222773D01*
X32400500Y39259311D01*
X32400499Y39259312D01*
X32396429Y39274500D01*
X32370908Y39369748D01*
X32369800Y39373883D01*
X32369798Y39373888D01*
X32310491Y39476610D01*
X32310490Y39476611D01*
X32310489Y39476613D01*
X32226613Y39560489D01*
X32226610Y39560491D01*
X32226609Y39560492D01*
X32123887Y39619799D01*
X32123882Y39619801D01*
X32009311Y39650500D01*
X32009309Y39650500D01*
X31890691Y39650500D01*
X31890689Y39650500D01*
X31776117Y39619801D01*
X31776112Y39619799D01*
X31673390Y39560492D01*
X31635071Y39522173D01*
X31582746Y39500500D01*
X31208098Y39500500D01*
X31166985Y39512972D01*
X31128232Y39538867D01*
X31128233Y39538867D01*
X31098989Y39544684D01*
X31069748Y39550500D01*
X30230252Y39550500D01*
X30201010Y39544684D01*
X30171767Y39538867D01*
X30105449Y39494553D01*
X30105447Y39494551D01*
X30061133Y39428233D01*
X30054298Y39393867D01*
X30049500Y39369748D01*
X29450500Y39369748D01*
X29438867Y39428231D01*
X29436707Y39431463D01*
X29418099Y39459312D01*
X29394552Y39494552D01*
X29361304Y39516768D01*
X29328232Y39538867D01*
X29328233Y39538867D01*
X29298989Y39544684D01*
X29269748Y39550500D01*
X28430252Y39550500D01*
X28401010Y39544684D01*
X28371767Y39538867D01*
X28333015Y39512972D01*
X28291902Y39500500D01*
X27855125Y39500500D01*
X27802799Y39522174D01*
X23284513Y44040460D01*
X23215992Y44080021D01*
X23215987Y44080023D01*
X23139566Y44100500D01*
X23139564Y44100500D01*
X19308417Y44100500D01*
X19256091Y44122174D01*
X19234417Y44174500D01*
X19251068Y44214702D01*
X19247912Y44216864D01*
X19251785Y44222519D01*
X19297089Y44325125D01*
X19300000Y44350211D01*
X19300000Y44500000D01*
X16427001Y44500000D01*
X16427001Y44350208D01*
X16429908Y44325132D01*
X16429910Y44325126D01*
X16475213Y44222522D01*
X16525780Y44171955D01*
X16547454Y44119629D01*
X16538733Y44090872D01*
X16540922Y44089965D01*
X16538133Y44083233D01*
X16526500Y44024747D01*
X16526500Y43575254D01*
X16538133Y43516768D01*
X16586497Y43444389D01*
X16584430Y43443009D01*
X16602245Y43400000D01*
X16584430Y43356992D01*
X16586497Y43355611D01*
X16538133Y43283233D01*
X16526500Y43224747D01*
X16526500Y42775254D01*
X16538133Y42716768D01*
X16586497Y42644389D01*
X16584430Y42643009D01*
X16602245Y42600000D01*
X16584430Y42556992D01*
X16586497Y42555611D01*
X16538133Y42483233D01*
X16526500Y42424747D01*
X16526500Y41975254D01*
X16538133Y41916768D01*
X16586497Y41844389D01*
X16584430Y41843009D01*
X16602245Y41800000D01*
X16584430Y41756992D01*
X16586497Y41755611D01*
X16538133Y41683233D01*
X16526500Y41624747D01*
X16526500Y41175254D01*
X16538133Y41116768D01*
X16586497Y41044389D01*
X16584430Y41043009D01*
X16602245Y41000000D01*
X16584430Y40956992D01*
X16586497Y40955611D01*
X16538133Y40883233D01*
X16526500Y40824747D01*
X16526500Y40375254D01*
X16538133Y40316768D01*
X16586497Y40244389D01*
X16584430Y40243009D01*
X16602245Y40200000D01*
X16584430Y40156992D01*
X16586497Y40155611D01*
X16538133Y40083233D01*
X16538133Y40083231D01*
X16526500Y40024748D01*
X16526500Y39575252D01*
X16533737Y39538867D01*
X16538133Y39516768D01*
X16586497Y39444389D01*
X16584430Y39443009D01*
X16602245Y39400000D01*
X16584430Y39356992D01*
X16586497Y39355611D01*
X16582448Y39349553D01*
X16582448Y39349552D01*
X16576527Y39340691D01*
X16538133Y39283233D01*
X16530377Y39244243D01*
X16526500Y39224748D01*
X16526500Y38775252D01*
X16534255Y38736264D01*
X16538133Y38716768D01*
X16586497Y38644389D01*
X16584430Y38643009D01*
X16602245Y38600000D01*
X16584430Y38556992D01*
X16586497Y38555611D01*
X16538133Y38483233D01*
X16526500Y38424747D01*
X16526500Y37975254D01*
X16538133Y37916767D01*
X16540923Y37910032D01*
X16537543Y37908633D01*
X16546026Y37865908D01*
X16525779Y37828046D01*
X16475214Y37777481D01*
X16429910Y37674876D01*
X16427000Y37649790D01*
X13572999Y37649790D01*
X13572999Y37649793D01*
X13570091Y37674869D01*
X13570089Y37674875D01*
X13524786Y37777479D01*
X13474219Y37828046D01*
X13452545Y37880372D01*
X13461275Y37909126D01*
X13459078Y37910036D01*
X13461866Y37916768D01*
X13461865Y37916768D01*
X13461867Y37916769D01*
X13473500Y37975252D01*
X13473500Y38424748D01*
X13461867Y38483231D01*
X13449636Y38501535D01*
X13428353Y38533387D01*
X13417552Y38549552D01*
X13417551Y38549553D01*
X13413503Y38555611D01*
X13415569Y38556992D01*
X13397755Y38600000D01*
X13415569Y38643009D01*
X13413503Y38644389D01*
X13426480Y38663809D01*
X13461867Y38716769D01*
X13473500Y38775252D01*
X13473500Y39224748D01*
X13461867Y39283231D01*
X13449636Y39301535D01*
X13423473Y39340691D01*
X13417552Y39349552D01*
X13417551Y39349553D01*
X13413503Y39355611D01*
X13415569Y39356992D01*
X13397755Y39400000D01*
X13415569Y39443009D01*
X13413503Y39444389D01*
X13423473Y39459309D01*
X13461867Y39516769D01*
X13473500Y39575252D01*
X13473500Y40024748D01*
X13461867Y40083231D01*
X13449636Y40101535D01*
X13413503Y40155611D01*
X13415569Y40156992D01*
X13397755Y40200000D01*
X13415569Y40243009D01*
X13413503Y40244389D01*
X13435846Y40277826D01*
X13461867Y40316769D01*
X13473500Y40375252D01*
X13473500Y40824748D01*
X13461867Y40883231D01*
X13449636Y40901535D01*
X13413503Y40955611D01*
X13415569Y40956992D01*
X13397755Y41000000D01*
X13415569Y41043009D01*
X13413503Y41044389D01*
X13435846Y41077826D01*
X13461867Y41116769D01*
X13473500Y41175252D01*
X13473500Y41624748D01*
X13461867Y41683231D01*
X13449636Y41701535D01*
X13413503Y41755611D01*
X13415569Y41756992D01*
X13397755Y41800000D01*
X13415569Y41843009D01*
X13413503Y41844389D01*
X13435846Y41877826D01*
X13461867Y41916769D01*
X13473500Y41975252D01*
X13473500Y42424748D01*
X13461867Y42483231D01*
X13449636Y42501535D01*
X13413503Y42555611D01*
X13415569Y42556992D01*
X13397755Y42600000D01*
X13415569Y42643009D01*
X13413503Y42644389D01*
X13435846Y42677826D01*
X13461867Y42716769D01*
X13473500Y42775252D01*
X13473500Y43224748D01*
X13461867Y43283231D01*
X13449636Y43301535D01*
X13413503Y43355611D01*
X13415569Y43356992D01*
X13397755Y43400000D01*
X13415569Y43443009D01*
X13413503Y43444389D01*
X13435846Y43477826D01*
X13461867Y43516769D01*
X13473500Y43575252D01*
X13473500Y44024748D01*
X13461867Y44083231D01*
X13461866Y44083233D01*
X13461866Y44083234D01*
X13459077Y44089968D01*
X13462457Y44091369D01*
X13453971Y44134080D01*
X13474221Y44171956D01*
X13524785Y44222520D01*
X13570089Y44325125D01*
X13573000Y44350211D01*
X13573000Y44500000D01*
X10700001Y44500000D01*
X10700001Y44350208D01*
X10702908Y44325132D01*
X10702910Y44325126D01*
X10748213Y44222522D01*
X10798780Y44171955D01*
X10820454Y44119629D01*
X10811733Y44090872D01*
X10813922Y44089965D01*
X10811133Y44083233D01*
X10799500Y44024747D01*
X10799500Y43575254D01*
X10811133Y43516768D01*
X10859497Y43444389D01*
X10857430Y43443009D01*
X10875245Y43400000D01*
X10857430Y43356992D01*
X10859497Y43355611D01*
X10811133Y43283233D01*
X10799500Y43224747D01*
X10799500Y42775254D01*
X10811133Y42716768D01*
X10859497Y42644389D01*
X10857430Y42643009D01*
X10875245Y42600000D01*
X10857430Y42556992D01*
X10859497Y42555611D01*
X10811133Y42483233D01*
X10799500Y42424747D01*
X10799500Y41975254D01*
X10811133Y41916768D01*
X10859497Y41844389D01*
X10857430Y41843009D01*
X10875245Y41800000D01*
X10857430Y41756992D01*
X10859497Y41755611D01*
X10811133Y41683233D01*
X10799500Y41624747D01*
X10799500Y41175254D01*
X10811133Y41116768D01*
X10859497Y41044389D01*
X10857430Y41043009D01*
X10875245Y41000000D01*
X10857430Y40956992D01*
X10859497Y40955611D01*
X10811133Y40883233D01*
X10799500Y40824747D01*
X10799500Y40375254D01*
X10811133Y40316768D01*
X10859497Y40244389D01*
X10857430Y40243009D01*
X10875245Y40200000D01*
X10857430Y40156992D01*
X10859497Y40155611D01*
X10811133Y40083233D01*
X10811133Y40083231D01*
X10799500Y40024748D01*
X10799500Y39575252D01*
X10806737Y39538867D01*
X10811133Y39516768D01*
X10859497Y39444389D01*
X10857430Y39443009D01*
X10875245Y39400000D01*
X10857430Y39356992D01*
X10859497Y39355611D01*
X10855448Y39349553D01*
X10855448Y39349552D01*
X10849527Y39340691D01*
X10811133Y39283233D01*
X10803377Y39244243D01*
X10799500Y39224748D01*
X10799500Y38775252D01*
X10807255Y38736264D01*
X10811133Y38716768D01*
X10859497Y38644389D01*
X10857430Y38643009D01*
X10875245Y38600000D01*
X10857430Y38556992D01*
X10859497Y38555611D01*
X10811133Y38483233D01*
X10799500Y38424747D01*
X10799500Y37975254D01*
X10811133Y37916767D01*
X10813923Y37910032D01*
X10810543Y37908633D01*
X10819026Y37865908D01*
X10798779Y37828046D01*
X10748214Y37777481D01*
X10702910Y37674876D01*
X10700000Y37649790D01*
X500500Y37649790D01*
X500500Y44849790D01*
X10700000Y44849790D01*
X10700000Y44700000D01*
X13572999Y44700000D01*
X13572999Y44849790D01*
X16427000Y44849790D01*
X16427000Y44700000D01*
X19299999Y44700000D01*
X19299999Y44849790D01*
X80700000Y44849790D01*
X80700000Y44700000D01*
X83572999Y44700000D01*
X83572999Y44849790D01*
X86427000Y44849790D01*
X86427000Y44700000D01*
X89299999Y44700000D01*
X89299999Y44849793D01*
X89297091Y44874869D01*
X89297089Y44874875D01*
X89251786Y44977479D01*
X89201219Y45028046D01*
X89179545Y45080372D01*
X89188275Y45109126D01*
X89186078Y45110036D01*
X89188866Y45116768D01*
X89188865Y45116768D01*
X89188867Y45116769D01*
X89200500Y45175252D01*
X89200500Y45624748D01*
X89188867Y45683231D01*
X89144552Y45749552D01*
X89144551Y45749553D01*
X89140503Y45755611D01*
X89142569Y45756992D01*
X89124755Y45800000D01*
X89142569Y45843009D01*
X89140503Y45844389D01*
X89188866Y45916768D01*
X89188865Y45916768D01*
X89188867Y45916769D01*
X89200500Y45975252D01*
X89200500Y46424748D01*
X89188867Y46483231D01*
X89144552Y46549552D01*
X89144551Y46549553D01*
X89140503Y46555611D01*
X89142569Y46556992D01*
X89124755Y46600000D01*
X89142569Y46643009D01*
X89140503Y46644389D01*
X89188866Y46716768D01*
X89188865Y46716768D01*
X89188867Y46716769D01*
X89200500Y46775252D01*
X89200500Y47224748D01*
X89188867Y47283231D01*
X89144552Y47349552D01*
X89144551Y47349553D01*
X89140503Y47355611D01*
X89142569Y47356992D01*
X89124755Y47400000D01*
X89142569Y47443009D01*
X89140503Y47444389D01*
X89188866Y47516768D01*
X89188865Y47516768D01*
X89188867Y47516769D01*
X89200500Y47575252D01*
X89200500Y48024748D01*
X89188867Y48083231D01*
X89144552Y48149552D01*
X89144551Y48149553D01*
X89140503Y48155611D01*
X89142569Y48156992D01*
X89124755Y48200000D01*
X89142569Y48243009D01*
X89140503Y48244389D01*
X89188866Y48316768D01*
X89188865Y48316768D01*
X89188867Y48316769D01*
X89200500Y48375252D01*
X89200500Y48824748D01*
X89188867Y48883231D01*
X89144552Y48949552D01*
X89144551Y48949553D01*
X89140503Y48955611D01*
X89142569Y48956992D01*
X89124755Y49000000D01*
X89142569Y49043009D01*
X89140503Y49044389D01*
X89188866Y49116768D01*
X89188865Y49116768D01*
X89188867Y49116769D01*
X89200500Y49175252D01*
X89200500Y49624748D01*
X89188867Y49683231D01*
X89144552Y49749552D01*
X89144551Y49749553D01*
X89140503Y49755611D01*
X89142569Y49756992D01*
X89124755Y49800000D01*
X89142569Y49843009D01*
X89140503Y49844389D01*
X89188866Y49916768D01*
X89188865Y49916768D01*
X89188867Y49916769D01*
X89200500Y49975252D01*
X89200500Y50424748D01*
X89188867Y50483231D01*
X89144552Y50549552D01*
X89144551Y50549553D01*
X89140503Y50555611D01*
X89142569Y50556992D01*
X89124755Y50600000D01*
X89142569Y50643009D01*
X89140503Y50644389D01*
X89188866Y50716768D01*
X89188865Y50716768D01*
X89188867Y50716769D01*
X89200500Y50775252D01*
X89200500Y51224748D01*
X89188867Y51283231D01*
X89188866Y51283233D01*
X89188866Y51283234D01*
X89186077Y51289968D01*
X89189457Y51291369D01*
X89180971Y51334080D01*
X89201221Y51371956D01*
X89251785Y51422520D01*
X89297089Y51525125D01*
X89300000Y51550211D01*
X89300000Y51700000D01*
X86427001Y51700000D01*
X86427001Y51550208D01*
X86429908Y51525132D01*
X86429910Y51525126D01*
X86475213Y51422522D01*
X86525780Y51371955D01*
X86547454Y51319629D01*
X86538733Y51290872D01*
X86540922Y51289965D01*
X86538133Y51283233D01*
X86526500Y51224747D01*
X86526500Y50775254D01*
X86538133Y50716768D01*
X86586497Y50644389D01*
X86584430Y50643009D01*
X86602245Y50600000D01*
X86584430Y50556992D01*
X86586497Y50555611D01*
X86538133Y50483233D01*
X86526500Y50424747D01*
X86526500Y49975254D01*
X86538133Y49916768D01*
X86586497Y49844389D01*
X86584430Y49843009D01*
X86602245Y49800000D01*
X86584430Y49756992D01*
X86586497Y49755611D01*
X86538133Y49683233D01*
X86526500Y49624747D01*
X86526500Y49175254D01*
X86538133Y49116768D01*
X86586497Y49044389D01*
X86584430Y49043009D01*
X86602245Y49000000D01*
X86584430Y48956992D01*
X86586497Y48955611D01*
X86538133Y48883233D01*
X86526500Y48824747D01*
X86526500Y48375254D01*
X86538133Y48316768D01*
X86586497Y48244389D01*
X86584430Y48243009D01*
X86602245Y48200000D01*
X86584430Y48156992D01*
X86586497Y48155611D01*
X86538133Y48083233D01*
X86526500Y48024747D01*
X86526500Y47575254D01*
X86538133Y47516768D01*
X86586497Y47444389D01*
X86584430Y47443009D01*
X86602245Y47400000D01*
X86584430Y47356992D01*
X86586497Y47355611D01*
X86538133Y47283233D01*
X86526500Y47224747D01*
X86526500Y46775254D01*
X86538133Y46716768D01*
X86586497Y46644389D01*
X86584430Y46643009D01*
X86602245Y46600000D01*
X86584430Y46556992D01*
X86586497Y46555611D01*
X86538133Y46483233D01*
X86526500Y46424747D01*
X86526500Y45975254D01*
X86538133Y45916768D01*
X86586497Y45844389D01*
X86584430Y45843009D01*
X86602245Y45800000D01*
X86584430Y45756992D01*
X86586497Y45755611D01*
X86538133Y45683233D01*
X86526500Y45624747D01*
X86526500Y45175254D01*
X86538133Y45116767D01*
X86540923Y45110032D01*
X86537543Y45108633D01*
X86546026Y45065908D01*
X86525779Y45028046D01*
X86475214Y44977481D01*
X86429910Y44874876D01*
X86427000Y44849790D01*
X83572999Y44849790D01*
X83572999Y44849793D01*
X83570091Y44874869D01*
X83570089Y44874875D01*
X83524786Y44977479D01*
X83474219Y45028046D01*
X83452545Y45080372D01*
X83461275Y45109126D01*
X83459078Y45110036D01*
X83461866Y45116768D01*
X83461865Y45116768D01*
X83461867Y45116769D01*
X83473500Y45175252D01*
X83473500Y45624748D01*
X83461867Y45683231D01*
X83417552Y45749552D01*
X83417551Y45749553D01*
X83413503Y45755611D01*
X83415569Y45756992D01*
X83397755Y45800000D01*
X83415569Y45843009D01*
X83413503Y45844389D01*
X83461866Y45916768D01*
X83461865Y45916768D01*
X83461867Y45916769D01*
X83473500Y45975252D01*
X83473500Y46424748D01*
X83461867Y46483231D01*
X83417552Y46549552D01*
X83417551Y46549553D01*
X83413503Y46555611D01*
X83415569Y46556992D01*
X83397755Y46600000D01*
X83415569Y46643009D01*
X83413503Y46644389D01*
X83461866Y46716768D01*
X83461865Y46716768D01*
X83461867Y46716769D01*
X83473500Y46775252D01*
X83473500Y47224748D01*
X83461867Y47283231D01*
X83417552Y47349552D01*
X83417551Y47349553D01*
X83413503Y47355611D01*
X83415569Y47356992D01*
X83397755Y47400000D01*
X83415569Y47443009D01*
X83413503Y47444389D01*
X83461866Y47516768D01*
X83461865Y47516768D01*
X83461867Y47516769D01*
X83473500Y47575252D01*
X83473500Y48024748D01*
X83461867Y48083231D01*
X83417552Y48149552D01*
X83417551Y48149553D01*
X83413503Y48155611D01*
X83415569Y48156992D01*
X83397755Y48200000D01*
X83415569Y48243009D01*
X83413503Y48244389D01*
X83461866Y48316768D01*
X83461865Y48316768D01*
X83461867Y48316769D01*
X83473500Y48375252D01*
X83473500Y48824748D01*
X83461867Y48883231D01*
X83417552Y48949552D01*
X83417551Y48949553D01*
X83413503Y48955611D01*
X83415569Y48956992D01*
X83397755Y49000000D01*
X83415569Y49043009D01*
X83413503Y49044389D01*
X83461866Y49116768D01*
X83461865Y49116768D01*
X83461867Y49116769D01*
X83473500Y49175252D01*
X83473500Y49624748D01*
X83461867Y49683231D01*
X83417552Y49749552D01*
X83417551Y49749553D01*
X83413503Y49755611D01*
X83415569Y49756992D01*
X83397755Y49800000D01*
X83415569Y49843009D01*
X83413503Y49844389D01*
X83461866Y49916768D01*
X83461865Y49916768D01*
X83461867Y49916769D01*
X83473500Y49975252D01*
X83473500Y50424748D01*
X83461867Y50483231D01*
X83417552Y50549552D01*
X83417551Y50549553D01*
X83413503Y50555611D01*
X83415569Y50556992D01*
X83397755Y50600000D01*
X83415569Y50643009D01*
X83413503Y50644389D01*
X83461866Y50716768D01*
X83461865Y50716768D01*
X83461867Y50716769D01*
X83473500Y50775252D01*
X83473500Y51224748D01*
X83461867Y51283231D01*
X83461866Y51283233D01*
X83461866Y51283234D01*
X83459077Y51289968D01*
X83462457Y51291369D01*
X83453971Y51334080D01*
X83474221Y51371956D01*
X83524785Y51422520D01*
X83570089Y51525125D01*
X83573000Y51550211D01*
X83573000Y51700000D01*
X80700001Y51700000D01*
X80700001Y51550208D01*
X80702908Y51525132D01*
X80702910Y51525126D01*
X80748213Y51422522D01*
X80798780Y51371955D01*
X80820454Y51319629D01*
X80811733Y51290872D01*
X80813922Y51289965D01*
X80811133Y51283233D01*
X80799500Y51224747D01*
X80799500Y50775254D01*
X80811133Y50716768D01*
X80859497Y50644389D01*
X80857430Y50643009D01*
X80875245Y50600000D01*
X80857430Y50556992D01*
X80859497Y50555611D01*
X80811133Y50483233D01*
X80799500Y50424747D01*
X80799500Y49975254D01*
X80811133Y49916768D01*
X80859497Y49844389D01*
X80857430Y49843009D01*
X80875245Y49800000D01*
X80857430Y49756992D01*
X80859497Y49755611D01*
X80811133Y49683233D01*
X80799500Y49624747D01*
X80799500Y49175254D01*
X80811133Y49116768D01*
X80859497Y49044389D01*
X80857430Y49043009D01*
X80875245Y49000000D01*
X80857430Y48956992D01*
X80859497Y48955611D01*
X80811133Y48883233D01*
X80799500Y48824747D01*
X80799500Y48375254D01*
X80811133Y48316768D01*
X80859497Y48244389D01*
X80857430Y48243009D01*
X80875245Y48200000D01*
X80857430Y48156992D01*
X80859497Y48155611D01*
X80811133Y48083233D01*
X80799500Y48024747D01*
X80799500Y47575254D01*
X80811133Y47516768D01*
X80859497Y47444389D01*
X80857430Y47443009D01*
X80875245Y47400000D01*
X80857430Y47356992D01*
X80859497Y47355611D01*
X80811133Y47283233D01*
X80799500Y47224747D01*
X80799500Y46775254D01*
X80811133Y46716768D01*
X80859497Y46644389D01*
X80857430Y46643009D01*
X80875245Y46600000D01*
X80857430Y46556992D01*
X80859497Y46555611D01*
X80811133Y46483233D01*
X80799500Y46424747D01*
X80799500Y45975254D01*
X80811133Y45916768D01*
X80859497Y45844389D01*
X80857430Y45843009D01*
X80875245Y45800000D01*
X80857430Y45756992D01*
X80859497Y45755611D01*
X80811133Y45683233D01*
X80799500Y45624747D01*
X80799500Y45175254D01*
X80811133Y45116767D01*
X80813923Y45110032D01*
X80810543Y45108633D01*
X80819026Y45065908D01*
X80798779Y45028046D01*
X80748214Y44977481D01*
X80702910Y44874876D01*
X80700000Y44849790D01*
X19299999Y44849790D01*
X19299999Y44849793D01*
X19297091Y44874869D01*
X19297089Y44874875D01*
X19251786Y44977479D01*
X19201219Y45028046D01*
X19179545Y45080372D01*
X19188275Y45109126D01*
X19186078Y45110036D01*
X19188866Y45116768D01*
X19188865Y45116768D01*
X19188867Y45116769D01*
X19200500Y45175252D01*
X19200500Y45624748D01*
X19188867Y45683231D01*
X19144552Y45749552D01*
X19144551Y45749553D01*
X19140503Y45755611D01*
X19142569Y45756992D01*
X19124755Y45800000D01*
X19142569Y45843009D01*
X19140503Y45844389D01*
X19188866Y45916768D01*
X19188865Y45916768D01*
X19188867Y45916769D01*
X19200500Y45975252D01*
X19200500Y46424748D01*
X19188867Y46483231D01*
X19144552Y46549552D01*
X19144551Y46549553D01*
X19140503Y46555611D01*
X19142569Y46556992D01*
X19124755Y46600000D01*
X19142569Y46643009D01*
X19140503Y46644389D01*
X19188866Y46716768D01*
X19188865Y46716768D01*
X19188867Y46716769D01*
X19200500Y46775252D01*
X19200500Y47224748D01*
X19188867Y47283231D01*
X19144552Y47349552D01*
X19144551Y47349553D01*
X19140503Y47355611D01*
X19142569Y47356992D01*
X19124755Y47400000D01*
X19142569Y47443009D01*
X19140503Y47444389D01*
X19188866Y47516768D01*
X19188865Y47516768D01*
X19188867Y47516769D01*
X19200500Y47575252D01*
X19200500Y48024748D01*
X19188867Y48083231D01*
X19144552Y48149552D01*
X19144551Y48149553D01*
X19140503Y48155611D01*
X19142569Y48156992D01*
X19124755Y48200000D01*
X19142569Y48243009D01*
X19140503Y48244389D01*
X19188866Y48316768D01*
X19188865Y48316768D01*
X19188867Y48316769D01*
X19200500Y48375252D01*
X19200500Y48824748D01*
X19188867Y48883231D01*
X19144552Y48949552D01*
X19144551Y48949553D01*
X19140503Y48955611D01*
X19142569Y48956992D01*
X19124755Y49000000D01*
X19142569Y49043009D01*
X19140503Y49044389D01*
X19188866Y49116768D01*
X19188865Y49116768D01*
X19188867Y49116769D01*
X19200500Y49175252D01*
X19200500Y49624748D01*
X19188867Y49683231D01*
X19144552Y49749552D01*
X19144551Y49749553D01*
X19140503Y49755611D01*
X19142569Y49756992D01*
X19124755Y49800000D01*
X19142569Y49843009D01*
X19140503Y49844389D01*
X19188866Y49916768D01*
X19188865Y49916768D01*
X19188867Y49916769D01*
X19200500Y49975252D01*
X19200500Y50424748D01*
X19188867Y50483231D01*
X19144552Y50549552D01*
X19144551Y50549553D01*
X19140503Y50555611D01*
X19142569Y50556992D01*
X19124755Y50600000D01*
X19142569Y50643009D01*
X19140503Y50644389D01*
X19188866Y50716768D01*
X19188865Y50716768D01*
X19188867Y50716769D01*
X19200500Y50775252D01*
X19200500Y51224748D01*
X19188867Y51283231D01*
X19188866Y51283233D01*
X19188866Y51283234D01*
X19186077Y51289968D01*
X19189457Y51291369D01*
X19180971Y51334080D01*
X19201221Y51371956D01*
X19251785Y51422520D01*
X19297089Y51525125D01*
X19300000Y51550211D01*
X19300000Y51700000D01*
X16427001Y51700000D01*
X16427001Y51550208D01*
X16429908Y51525132D01*
X16429910Y51525126D01*
X16475213Y51422522D01*
X16525780Y51371955D01*
X16547454Y51319629D01*
X16538733Y51290872D01*
X16540922Y51289965D01*
X16538133Y51283233D01*
X16526500Y51224747D01*
X16526500Y50775254D01*
X16538133Y50716768D01*
X16586497Y50644389D01*
X16584430Y50643009D01*
X16602245Y50600000D01*
X16584430Y50556992D01*
X16586497Y50555611D01*
X16538133Y50483233D01*
X16526500Y50424747D01*
X16526500Y49975254D01*
X16538133Y49916768D01*
X16586497Y49844389D01*
X16584430Y49843009D01*
X16602245Y49800000D01*
X16584430Y49756992D01*
X16586497Y49755611D01*
X16538133Y49683233D01*
X16526500Y49624747D01*
X16526500Y49175254D01*
X16538133Y49116768D01*
X16586497Y49044389D01*
X16584430Y49043009D01*
X16602245Y49000000D01*
X16584430Y48956992D01*
X16586497Y48955611D01*
X16538133Y48883233D01*
X16526500Y48824747D01*
X16526500Y48375254D01*
X16538133Y48316768D01*
X16586497Y48244389D01*
X16584430Y48243009D01*
X16602245Y48200000D01*
X16584430Y48156992D01*
X16586497Y48155611D01*
X16538133Y48083233D01*
X16526500Y48024747D01*
X16526500Y47575254D01*
X16538133Y47516768D01*
X16586497Y47444389D01*
X16584430Y47443009D01*
X16602245Y47400000D01*
X16584430Y47356992D01*
X16586497Y47355611D01*
X16538133Y47283233D01*
X16526500Y47224747D01*
X16526500Y46775254D01*
X16538133Y46716768D01*
X16586497Y46644389D01*
X16584430Y46643009D01*
X16602245Y46600000D01*
X16584430Y46556992D01*
X16586497Y46555611D01*
X16538133Y46483233D01*
X16526500Y46424747D01*
X16526500Y45975254D01*
X16538133Y45916768D01*
X16586497Y45844389D01*
X16584430Y45843009D01*
X16602245Y45800000D01*
X16584430Y45756992D01*
X16586497Y45755611D01*
X16538133Y45683233D01*
X16526500Y45624747D01*
X16526500Y45175254D01*
X16538133Y45116767D01*
X16540923Y45110032D01*
X16537543Y45108633D01*
X16546026Y45065908D01*
X16525779Y45028046D01*
X16475214Y44977481D01*
X16429910Y44874876D01*
X16427000Y44849790D01*
X13572999Y44849790D01*
X13572999Y44849793D01*
X13570091Y44874869D01*
X13570089Y44874875D01*
X13524786Y44977479D01*
X13474219Y45028046D01*
X13452545Y45080372D01*
X13461275Y45109126D01*
X13459078Y45110036D01*
X13461866Y45116768D01*
X13461865Y45116768D01*
X13461867Y45116769D01*
X13473500Y45175252D01*
X13473500Y45624748D01*
X13461867Y45683231D01*
X13417552Y45749552D01*
X13417551Y45749553D01*
X13413503Y45755611D01*
X13415569Y45756992D01*
X13397755Y45800000D01*
X13415569Y45843009D01*
X13413503Y45844389D01*
X13461866Y45916768D01*
X13461865Y45916768D01*
X13461867Y45916769D01*
X13473500Y45975252D01*
X13473500Y46424748D01*
X13461867Y46483231D01*
X13417552Y46549552D01*
X13417551Y46549553D01*
X13413503Y46555611D01*
X13415569Y46556992D01*
X13397755Y46600000D01*
X13415569Y46643009D01*
X13413503Y46644389D01*
X13461866Y46716768D01*
X13461865Y46716768D01*
X13461867Y46716769D01*
X13473500Y46775252D01*
X13473500Y47224748D01*
X13461867Y47283231D01*
X13417552Y47349552D01*
X13417551Y47349553D01*
X13413503Y47355611D01*
X13415569Y47356992D01*
X13397755Y47400000D01*
X13415569Y47443009D01*
X13413503Y47444389D01*
X13461866Y47516768D01*
X13461865Y47516768D01*
X13461867Y47516769D01*
X13473500Y47575252D01*
X13473500Y48024748D01*
X13461867Y48083231D01*
X13417552Y48149552D01*
X13417551Y48149553D01*
X13413503Y48155611D01*
X13415569Y48156992D01*
X13397755Y48200000D01*
X13415569Y48243009D01*
X13413503Y48244389D01*
X13461866Y48316768D01*
X13461865Y48316768D01*
X13461867Y48316769D01*
X13473500Y48375252D01*
X13473500Y48824748D01*
X13461867Y48883231D01*
X13417552Y48949552D01*
X13417551Y48949553D01*
X13413503Y48955611D01*
X13415569Y48956992D01*
X13397755Y49000000D01*
X13415569Y49043009D01*
X13413503Y49044389D01*
X13461866Y49116768D01*
X13461865Y49116768D01*
X13461867Y49116769D01*
X13473500Y49175252D01*
X13473500Y49624748D01*
X13461867Y49683231D01*
X13417552Y49749552D01*
X13417551Y49749553D01*
X13413503Y49755611D01*
X13415569Y49756992D01*
X13397755Y49800000D01*
X13415569Y49843009D01*
X13413503Y49844389D01*
X13461866Y49916768D01*
X13461865Y49916768D01*
X13461867Y49916769D01*
X13473500Y49975252D01*
X13473500Y50424748D01*
X13461867Y50483231D01*
X13417552Y50549552D01*
X13417551Y50549553D01*
X13413503Y50555611D01*
X13415569Y50556992D01*
X13397755Y50600000D01*
X13415569Y50643009D01*
X13413503Y50644389D01*
X13461866Y50716768D01*
X13461865Y50716768D01*
X13461867Y50716769D01*
X13473500Y50775252D01*
X13473500Y51224748D01*
X13461867Y51283231D01*
X13461866Y51283233D01*
X13461866Y51283234D01*
X13459077Y51289968D01*
X13462457Y51291369D01*
X13453971Y51334080D01*
X13474221Y51371956D01*
X13524785Y51422520D01*
X13570089Y51525125D01*
X13573000Y51550211D01*
X13573000Y51700000D01*
X10700001Y51700000D01*
X10700001Y51550208D01*
X10702908Y51525132D01*
X10702910Y51525126D01*
X10748213Y51422522D01*
X10798780Y51371955D01*
X10820454Y51319629D01*
X10811733Y51290872D01*
X10813922Y51289965D01*
X10811133Y51283233D01*
X10799500Y51224747D01*
X10799500Y50775254D01*
X10811133Y50716768D01*
X10859497Y50644389D01*
X10857430Y50643009D01*
X10875245Y50600000D01*
X10857430Y50556992D01*
X10859497Y50555611D01*
X10811133Y50483233D01*
X10799500Y50424747D01*
X10799500Y49975254D01*
X10811133Y49916768D01*
X10859497Y49844389D01*
X10857430Y49843009D01*
X10875245Y49800000D01*
X10857430Y49756992D01*
X10859497Y49755611D01*
X10811133Y49683233D01*
X10799500Y49624747D01*
X10799500Y49175254D01*
X10811133Y49116768D01*
X10859497Y49044389D01*
X10857430Y49043009D01*
X10875245Y49000000D01*
X10857430Y48956992D01*
X10859497Y48955611D01*
X10811133Y48883233D01*
X10799500Y48824747D01*
X10799500Y48375254D01*
X10811133Y48316768D01*
X10859497Y48244389D01*
X10857430Y48243009D01*
X10875245Y48200000D01*
X10857430Y48156992D01*
X10859497Y48155611D01*
X10811133Y48083233D01*
X10799500Y48024747D01*
X10799500Y47575254D01*
X10811133Y47516768D01*
X10859497Y47444389D01*
X10857430Y47443009D01*
X10875245Y47400000D01*
X10857430Y47356992D01*
X10859497Y47355611D01*
X10811133Y47283233D01*
X10799500Y47224747D01*
X10799500Y46775254D01*
X10811133Y46716768D01*
X10859497Y46644389D01*
X10857430Y46643009D01*
X10875245Y46600000D01*
X10857430Y46556992D01*
X10859497Y46555611D01*
X10811133Y46483233D01*
X10799500Y46424747D01*
X10799500Y45975254D01*
X10811133Y45916768D01*
X10859497Y45844389D01*
X10857430Y45843009D01*
X10875245Y45800000D01*
X10857430Y45756992D01*
X10859497Y45755611D01*
X10811133Y45683233D01*
X10799500Y45624747D01*
X10799500Y45175254D01*
X10811133Y45116767D01*
X10813923Y45110032D01*
X10810543Y45108633D01*
X10819026Y45065908D01*
X10798779Y45028046D01*
X10748214Y44977481D01*
X10702910Y44874876D01*
X10700000Y44849790D01*
X500500Y44849790D01*
X500500Y52049790D01*
X10700000Y52049790D01*
X10700000Y51900000D01*
X12036500Y51900000D01*
X12236500Y51900000D01*
X13572999Y51900000D01*
X13572999Y52049790D01*
X16427000Y52049790D01*
X16427000Y51900000D01*
X17763500Y51900000D01*
X17963500Y51900000D01*
X19299999Y51900000D01*
X19299999Y52049790D01*
X80700000Y52049790D01*
X80700000Y51900000D01*
X82036500Y51900000D01*
X82236500Y51900000D01*
X83572999Y51900000D01*
X83572999Y52049790D01*
X86427000Y52049790D01*
X86427000Y51900000D01*
X87763500Y51900000D01*
X87963500Y51900000D01*
X89299999Y51900000D01*
X89299999Y52049793D01*
X89297091Y52074869D01*
X89297089Y52074874D01*
X89255039Y52170110D01*
X89253731Y52226732D01*
X89255039Y52229890D01*
X89297089Y52325125D01*
X89300000Y52350211D01*
X89300000Y52500000D01*
X87963500Y52500000D01*
X87963500Y51900000D01*
X87763500Y51900000D01*
X87763500Y52500000D01*
X86427001Y52500000D01*
X86427001Y52350208D01*
X86429908Y52325132D01*
X86429910Y52325126D01*
X86471960Y52229891D01*
X86473268Y52173269D01*
X86471960Y52170111D01*
X86429910Y52074877D01*
X86427000Y52049790D01*
X83572999Y52049790D01*
X83572999Y52049793D01*
X83570091Y52074869D01*
X83570089Y52074874D01*
X83528039Y52170110D01*
X83526731Y52226732D01*
X83528039Y52229890D01*
X83570089Y52325125D01*
X83573000Y52350211D01*
X83573000Y52500000D01*
X82236500Y52500000D01*
X82236500Y51900000D01*
X82036500Y51900000D01*
X82036500Y52500000D01*
X80700001Y52500000D01*
X80700001Y52350208D01*
X80702908Y52325132D01*
X80702910Y52325126D01*
X80744960Y52229891D01*
X80746268Y52173269D01*
X80744960Y52170111D01*
X80702910Y52074877D01*
X80700000Y52049790D01*
X19299999Y52049790D01*
X19299999Y52049793D01*
X19297091Y52074869D01*
X19297089Y52074874D01*
X19255039Y52170110D01*
X19253731Y52226732D01*
X19255039Y52229890D01*
X19297089Y52325125D01*
X19300000Y52350211D01*
X19300000Y52500000D01*
X17963500Y52500000D01*
X17963500Y51900000D01*
X17763500Y51900000D01*
X17763500Y52500000D01*
X16427001Y52500000D01*
X16427001Y52350208D01*
X16429908Y52325132D01*
X16429910Y52325126D01*
X16471960Y52229891D01*
X16473268Y52173269D01*
X16471960Y52170111D01*
X16429910Y52074877D01*
X16427000Y52049790D01*
X13572999Y52049790D01*
X13572999Y52049793D01*
X13570091Y52074869D01*
X13570089Y52074874D01*
X13528039Y52170110D01*
X13526731Y52226732D01*
X13528039Y52229890D01*
X13570089Y52325125D01*
X13573000Y52350211D01*
X13573000Y52500000D01*
X12236500Y52500000D01*
X12236500Y51900000D01*
X12036500Y51900000D01*
X12036500Y52500000D01*
X10700001Y52500000D01*
X10700001Y52350208D01*
X10702908Y52325132D01*
X10702910Y52325126D01*
X10744960Y52229891D01*
X10746268Y52173269D01*
X10744960Y52170111D01*
X10702910Y52074877D01*
X10700000Y52049790D01*
X500500Y52049790D01*
X500500Y52849790D01*
X10700000Y52849790D01*
X10700000Y52700000D01*
X12036500Y52700000D01*
X12236500Y52700000D01*
X13572999Y52700000D01*
X13572999Y52849790D01*
X16427000Y52849790D01*
X16427000Y52700000D01*
X17763500Y52700000D01*
X17963500Y52700000D01*
X19299999Y52700000D01*
X19299999Y52849790D01*
X80700000Y52849790D01*
X80700000Y52700000D01*
X82036500Y52700000D01*
X82236500Y52700000D01*
X83572999Y52700000D01*
X83572999Y52849790D01*
X86427000Y52849790D01*
X86427000Y52700000D01*
X87763500Y52700000D01*
X87963500Y52700000D01*
X89299999Y52700000D01*
X89299999Y52849793D01*
X89297091Y52874869D01*
X89297089Y52874875D01*
X89251786Y52977479D01*
X89172478Y53056787D01*
X89069875Y53102090D01*
X89069876Y53102090D01*
X89044789Y53105000D01*
X87963500Y53105000D01*
X87963500Y52700000D01*
X87763500Y52700000D01*
X87763500Y53105000D01*
X86682207Y53105000D01*
X86657131Y53102092D01*
X86657125Y53102090D01*
X86554521Y53056787D01*
X86475213Y52977479D01*
X86429910Y52874876D01*
X86427000Y52849790D01*
X83572999Y52849790D01*
X83572999Y52849793D01*
X83570091Y52874869D01*
X83570089Y52874875D01*
X83524786Y52977479D01*
X83445478Y53056787D01*
X83342875Y53102090D01*
X83342876Y53102090D01*
X83317789Y53105000D01*
X82236500Y53105000D01*
X82236500Y52700000D01*
X82036500Y52700000D01*
X82036500Y53105000D01*
X80955207Y53105000D01*
X80930131Y53102092D01*
X80930125Y53102090D01*
X80827521Y53056787D01*
X80748213Y52977479D01*
X80702910Y52874876D01*
X80700000Y52849790D01*
X19299999Y52849790D01*
X19299999Y52849793D01*
X19297091Y52874869D01*
X19297089Y52874875D01*
X19251786Y52977479D01*
X19172478Y53056787D01*
X19069875Y53102090D01*
X19069876Y53102090D01*
X19044789Y53105000D01*
X17963500Y53105000D01*
X17963500Y52700000D01*
X17763500Y52700000D01*
X17763500Y53105000D01*
X16682207Y53105000D01*
X16657131Y53102092D01*
X16657125Y53102090D01*
X16554521Y53056787D01*
X16475213Y52977479D01*
X16429910Y52874876D01*
X16427000Y52849790D01*
X13572999Y52849790D01*
X13572999Y52849793D01*
X13570091Y52874869D01*
X13570089Y52874875D01*
X13524786Y52977479D01*
X13445478Y53056787D01*
X13342875Y53102090D01*
X13342876Y53102090D01*
X13317789Y53105000D01*
X12236500Y53105000D01*
X12236500Y52700000D01*
X12036500Y52700000D01*
X12036500Y53105000D01*
X10955207Y53105000D01*
X10930131Y53102092D01*
X10930125Y53102090D01*
X10827521Y53056787D01*
X10748213Y52977479D01*
X10702910Y52874876D01*
X10700000Y52849790D01*
X500500Y52849790D01*
X500500Y55125129D01*
X11719500Y55125129D01*
X11719500Y55004872D01*
X11742959Y54886931D01*
X11742961Y54886924D01*
X11788981Y54775821D01*
X11788982Y54775820D01*
X11855794Y54675829D01*
X11940829Y54590794D01*
X12040820Y54523982D01*
X12151924Y54477961D01*
X12269871Y54454500D01*
X12269872Y54454500D01*
X12390128Y54454500D01*
X12390129Y54454500D01*
X12508076Y54477961D01*
X12619180Y54523982D01*
X12719171Y54590794D01*
X12804206Y54675829D01*
X12871018Y54775820D01*
X12917039Y54886924D01*
X12940500Y55004871D01*
X12940500Y55125129D01*
X81719500Y55125129D01*
X81719500Y55004872D01*
X81742959Y54886931D01*
X81742961Y54886924D01*
X81788981Y54775821D01*
X81788982Y54775820D01*
X81855794Y54675829D01*
X81940829Y54590794D01*
X82040820Y54523982D01*
X82151924Y54477961D01*
X82269871Y54454500D01*
X82269872Y54454500D01*
X82390128Y54454500D01*
X82390129Y54454500D01*
X82508076Y54477961D01*
X82619180Y54523982D01*
X82719171Y54590794D01*
X82804206Y54675829D01*
X82871018Y54775820D01*
X82917039Y54886924D01*
X82940500Y55004871D01*
X82940500Y55125129D01*
X82917039Y55243076D01*
X82871018Y55354180D01*
X82804206Y55454171D01*
X82719171Y55539206D01*
X82619180Y55606018D01*
X82619181Y55606018D01*
X82619179Y55606019D01*
X82508076Y55652039D01*
X82508069Y55652041D01*
X82419215Y55669715D01*
X82390129Y55675500D01*
X82269871Y55675500D01*
X82246538Y55670859D01*
X82151930Y55652041D01*
X82151923Y55652039D01*
X82040820Y55606019D01*
X81940832Y55539209D01*
X81855791Y55454168D01*
X81788981Y55354180D01*
X81742961Y55243077D01*
X81742959Y55243070D01*
X81719500Y55125129D01*
X12940500Y55125129D01*
X12917039Y55243076D01*
X12871018Y55354180D01*
X12804206Y55454171D01*
X12719171Y55539206D01*
X12619180Y55606018D01*
X12619181Y55606018D01*
X12619179Y55606019D01*
X12508076Y55652039D01*
X12508069Y55652041D01*
X12419215Y55669715D01*
X12390129Y55675500D01*
X12269871Y55675500D01*
X12246538Y55670859D01*
X12151930Y55652041D01*
X12151923Y55652039D01*
X12040820Y55606019D01*
X11940832Y55539209D01*
X11855791Y55454168D01*
X11788981Y55354180D01*
X11742961Y55243077D01*
X11742959Y55243070D01*
X11719500Y55125129D01*
X500500Y55125129D01*
X500500Y65997764D01*
X500635Y66002232D01*
X510902Y66171969D01*
X518454Y66296824D01*
X519528Y66305672D01*
X572328Y66593789D01*
X574458Y66602432D01*
X661597Y66882069D01*
X664754Y66890396D01*
X784971Y67157507D01*
X789115Y67165401D01*
X940636Y67416048D01*
X945712Y67423401D01*
X998000Y67490142D01*
X1126343Y67653961D01*
X1132254Y67660633D01*
X1339367Y67867746D01*
X1346039Y67873657D01*
X1576599Y68054289D01*
X1583953Y68059364D01*
X1834599Y68210885D01*
X1842493Y68215029D01*
X2109604Y68335246D01*
X2117931Y68338403D01*
X2397568Y68425542D01*
X2406211Y68427672D01*
X2694328Y68480472D01*
X2703176Y68481546D01*
X2997768Y68499366D01*
X3002236Y68499500D01*
X3065892Y68499500D01*
X103812808Y68499500D01*
X103876465Y68499500D01*
X103880943Y68499364D01*
G37*
%TD.AperFunction*%
%TD*%
M02*
