M48
; DRILL file {KiCad 9.0.3} date 2026-01-11T20:48:11+0800
; FORMAT={-:-/ absolute / inch / decimal}
; #@! TF.CreationDate,2026-01-11T20:48:11+08:00
; #@! TF.GenerationSoftware,Kicad,Pcbnew,9.0.3
; #@! TF.FileFunction,Plated,1,2,PTH
FMAT,2
INCH
; #@! TA.AperFunction,Plated,PTH,ViaDrill
T1C0.0118
; #@! TA.AperFunction,Plated,PTH,ComponentDrill
T2C0.1102
%
G90
G05
T1
X4.3307Y-4.0472
X4.3465Y-3.1811
X4.3701Y-3.6929
X4.3898Y-4.6654
X4.3976Y-5.248
X4.4921Y-2.7874
X4.5433Y-4.3228
X4.6496Y-4.5709
X4.7126Y-4.8701
X4.7126Y-4.8898
X4.7559Y-4.7638
X4.811Y-4.7087
X4.8425Y-4.3543
X4.8504Y-4.9488
X4.852Y-3.5893
X4.8602Y-4.6594
X4.9252Y-4.7047
X4.9252Y-4.7598
X4.9553Y-4.5881
X4.9823Y-3.9222
X5.0079Y-4.9134
X5.0276Y-4.5433
X5.0709Y-3.6378
X5.0748Y-3.9213
X5.0787Y-4.2126
X5.0837Y-3.3494
X5.0945Y-4.5177
X5.1535Y-4.7717
X5.1614Y-4.0059
X5.2087Y-5.2362
X5.315Y-3.1811
X5.3348Y-4.8861
X5.3425Y-3.8061
X5.3465Y-4.4252
X5.3484Y-4.6142
X5.4035Y-4.2165
X5.4823Y-4.0079
X5.5098Y-3.8504
X5.5098Y-3.8898
X5.5098Y-3.9291
X5.5098Y-3.9685
X5.5098Y-4.0276
X5.5098Y-4.0669
X5.5098Y-4.1063
X5.5098Y-4.1457
X5.5276Y-2.8189
X5.5335Y-3.8701
X5.5335Y-3.9094
X5.5335Y-3.9488
X5.5335Y-3.9882
X5.5335Y-4.0472
X5.5335Y-4.0866
X5.5335Y-4.126
X5.5335Y-4.1654
X5.5709Y-4.5118
X5.5709Y-4.6142
X5.576Y-4.8228
X5.5768Y-5.0276
X5.5807Y-3.8346
X5.5807Y-4.1929
X5.6457Y-4.378
X5.6535Y-4.6585
X5.6555Y-3.8583
X5.6575Y-4.1339
X5.6713Y-5.0906
X5.689Y-4.2323
X5.6949Y-3.8858
X5.6949Y-4.1339
X5.6988Y-3.689
X5.7126Y-3.3228
X5.7256Y-4.7717
X5.7283Y-4.3976
X5.7343Y-4.2283
X5.7618Y-3.8346
X5.7657Y-4.2402
X5.7728Y-4.8268
X5.7736Y-5.0276
X5.8209Y-3.8622
X5.8209Y-3.9016
X5.8209Y-3.9409
X5.8209Y-3.9803
X5.8209Y-4.0394
X5.8209Y-4.0787
X5.8209Y-4.1181
X5.8209Y-4.1575
X5.8445Y-3.8425
X5.8445Y-3.8819
X5.8445Y-3.9213
X5.8445Y-3.9606
X5.8445Y-4.0197
X5.8445Y-4.0591
X5.8445Y-4.0984
X5.8445Y-4.1378
X5.872Y-4.0
X5.9311Y-4.5
X6.0512Y-4.2441
X6.1024Y-4.6063
X6.2913Y-3.3583
X6.3228Y-3.7953
X6.3661Y-5.2205
X6.3898Y-2.8228
X6.4882Y-4.3583
X6.4882Y-4.8504
X6.7953Y-3.811
X6.8317Y-3.3366
X6.9016Y-4.2047
X6.9284Y-4.5064
X6.9606Y-3.6398
X7.0276Y-3.9882
X7.0748Y-5.2205
X7.1545Y-3.9242
X7.1732Y-2.815
X7.2992Y-4.8583
X7.3031Y-3.2598
X7.3701Y-3.9213
X7.3819Y-3.6417
X7.3819Y-4.2047
X7.3978Y-4.495
X7.5945Y-4.5354
X7.5984Y-3.4646
X7.6614Y-5.2402
X7.7677Y-2.7874
X8.0709Y-3.9685
X8.1575Y-2.9646
X8.2087Y-5.2323
X8.2362Y-4.8543
X8.248Y-3.5512
X8.2598Y-4.1969
T2
X5.0039Y-5.2717
X5.4783Y-5.2756
X5.872Y-5.2756
M30
