%TF.GenerationSoftware,KiCad,Pcbnew,9.0.6*%
%TF.CreationDate,2026-01-21T13:52:31-05:00*%
%TF.ProjectId,molex-504070-fpc,6d6f6c65-782d-4353-9034-3037302d6670,A*%
%TF.SameCoordinates,PX7489fc0PY646c020*%
%TF.FileFunction,Other,User*%
%FSLAX46Y46*%
G04 Gerber Fmt 4.6, Leading zero omitted, Abs format (unit mm)*
G04 Created by KiCad (PCBNEW 9.0.6) date 2026-01-21 13:52:31*
%MOMM*%
%LPD*%
G01*
G04 APERTURE LIST*
%ADD10C,0.050000*%
G04 APERTURE END LIST*
D10*
X42364147Y-225751D02*
X42352242Y-261465D01*
X42352242Y-261465D02*
X42340338Y-273370D01*
X42340338Y-273370D02*
X42316528Y-285274D01*
X42316528Y-285274D02*
X42280814Y-285274D01*
X42280814Y-285274D02*
X42257004Y-273370D01*
X42257004Y-273370D02*
X42245100Y-261465D01*
X42245100Y-261465D02*
X42233195Y-237655D01*
X42233195Y-237655D02*
X42233195Y-142417D01*
X42233195Y-142417D02*
X42483195Y-142417D01*
X42483195Y-142417D02*
X42483195Y-225751D01*
X42483195Y-225751D02*
X42471290Y-249560D01*
X42471290Y-249560D02*
X42459385Y-261465D01*
X42459385Y-261465D02*
X42435576Y-273370D01*
X42435576Y-273370D02*
X42411766Y-273370D01*
X42411766Y-273370D02*
X42387957Y-261465D01*
X42387957Y-261465D02*
X42376052Y-249560D01*
X42376052Y-249560D02*
X42364147Y-225751D01*
X42364147Y-225751D02*
X42364147Y-142417D01*
X42233195Y-428132D02*
X42245100Y-404322D01*
X42245100Y-404322D02*
X42257004Y-392417D01*
X42257004Y-392417D02*
X42280814Y-380513D01*
X42280814Y-380513D02*
X42352242Y-380513D01*
X42352242Y-380513D02*
X42376052Y-392417D01*
X42376052Y-392417D02*
X42387957Y-404322D01*
X42387957Y-404322D02*
X42399861Y-428132D01*
X42399861Y-428132D02*
X42399861Y-463846D01*
X42399861Y-463846D02*
X42387957Y-487655D01*
X42387957Y-487655D02*
X42376052Y-499560D01*
X42376052Y-499560D02*
X42352242Y-511465D01*
X42352242Y-511465D02*
X42280814Y-511465D01*
X42280814Y-511465D02*
X42257004Y-499560D01*
X42257004Y-499560D02*
X42245100Y-487655D01*
X42245100Y-487655D02*
X42233195Y-463846D01*
X42233195Y-463846D02*
X42233195Y-428132D01*
X42399861Y-582893D02*
X42399861Y-678131D01*
X42483195Y-618607D02*
X42268909Y-618607D01*
X42268909Y-618607D02*
X42245100Y-630512D01*
X42245100Y-630512D02*
X42233195Y-654322D01*
X42233195Y-654322D02*
X42233195Y-678131D01*
X42399861Y-725750D02*
X42399861Y-820988D01*
X42483195Y-761464D02*
X42268909Y-761464D01*
X42268909Y-761464D02*
X42245100Y-773369D01*
X42245100Y-773369D02*
X42233195Y-797179D01*
X42233195Y-797179D02*
X42233195Y-820988D01*
X42233195Y-940036D02*
X42245100Y-916226D01*
X42245100Y-916226D02*
X42257004Y-904321D01*
X42257004Y-904321D02*
X42280814Y-892417D01*
X42280814Y-892417D02*
X42352242Y-892417D01*
X42352242Y-892417D02*
X42376052Y-904321D01*
X42376052Y-904321D02*
X42387957Y-916226D01*
X42387957Y-916226D02*
X42399861Y-940036D01*
X42399861Y-940036D02*
X42399861Y-975750D01*
X42399861Y-975750D02*
X42387957Y-999559D01*
X42387957Y-999559D02*
X42376052Y-1011464D01*
X42376052Y-1011464D02*
X42352242Y-1023369D01*
X42352242Y-1023369D02*
X42280814Y-1023369D01*
X42280814Y-1023369D02*
X42257004Y-1011464D01*
X42257004Y-1011464D02*
X42245100Y-999559D01*
X42245100Y-999559D02*
X42233195Y-975750D01*
X42233195Y-975750D02*
X42233195Y-940036D01*
X42233195Y-1130511D02*
X42399861Y-1130511D01*
X42376052Y-1130511D02*
X42387957Y-1142416D01*
X42387957Y-1142416D02*
X42399861Y-1166226D01*
X42399861Y-1166226D02*
X42399861Y-1201940D01*
X42399861Y-1201940D02*
X42387957Y-1225749D01*
X42387957Y-1225749D02*
X42364147Y-1237654D01*
X42364147Y-1237654D02*
X42233195Y-1237654D01*
X42364147Y-1237654D02*
X42387957Y-1249559D01*
X42387957Y-1249559D02*
X42399861Y-1273368D01*
X42399861Y-1273368D02*
X42399861Y-1309083D01*
X42399861Y-1309083D02*
X42387957Y-1332892D01*
X42387957Y-1332892D02*
X42364147Y-1344797D01*
X42364147Y-1344797D02*
X42233195Y-1344797D01*
X42245100Y-1642416D02*
X42233195Y-1678130D01*
X42233195Y-1678130D02*
X42233195Y-1737654D01*
X42233195Y-1737654D02*
X42245100Y-1761463D01*
X42245100Y-1761463D02*
X42257004Y-1773368D01*
X42257004Y-1773368D02*
X42280814Y-1785273D01*
X42280814Y-1785273D02*
X42304623Y-1785273D01*
X42304623Y-1785273D02*
X42328433Y-1773368D01*
X42328433Y-1773368D02*
X42340338Y-1761463D01*
X42340338Y-1761463D02*
X42352242Y-1737654D01*
X42352242Y-1737654D02*
X42364147Y-1690035D01*
X42364147Y-1690035D02*
X42376052Y-1666225D01*
X42376052Y-1666225D02*
X42387957Y-1654320D01*
X42387957Y-1654320D02*
X42411766Y-1642416D01*
X42411766Y-1642416D02*
X42435576Y-1642416D01*
X42435576Y-1642416D02*
X42459385Y-1654320D01*
X42459385Y-1654320D02*
X42471290Y-1666225D01*
X42471290Y-1666225D02*
X42483195Y-1690035D01*
X42483195Y-1690035D02*
X42483195Y-1749558D01*
X42483195Y-1749558D02*
X42471290Y-1785273D01*
X42399861Y-1856701D02*
X42399861Y-1951939D01*
X42483195Y-1892415D02*
X42268909Y-1892415D01*
X42268909Y-1892415D02*
X42245100Y-1904320D01*
X42245100Y-1904320D02*
X42233195Y-1928130D01*
X42233195Y-1928130D02*
X42233195Y-1951939D01*
X42233195Y-2035272D02*
X42399861Y-2035272D01*
X42483195Y-2035272D02*
X42471290Y-2023368D01*
X42471290Y-2023368D02*
X42459385Y-2035272D01*
X42459385Y-2035272D02*
X42471290Y-2047177D01*
X42471290Y-2047177D02*
X42483195Y-2035272D01*
X42483195Y-2035272D02*
X42459385Y-2035272D01*
X42399861Y-2118606D02*
X42399861Y-2213844D01*
X42233195Y-2154320D02*
X42447480Y-2154320D01*
X42447480Y-2154320D02*
X42471290Y-2166225D01*
X42471290Y-2166225D02*
X42483195Y-2190035D01*
X42483195Y-2190035D02*
X42483195Y-2213844D01*
X42399861Y-2261463D02*
X42399861Y-2356701D01*
X42233195Y-2297177D02*
X42447480Y-2297177D01*
X42447480Y-2297177D02*
X42471290Y-2309082D01*
X42471290Y-2309082D02*
X42483195Y-2332892D01*
X42483195Y-2332892D02*
X42483195Y-2356701D01*
X42245100Y-2535272D02*
X42233195Y-2511463D01*
X42233195Y-2511463D02*
X42233195Y-2463844D01*
X42233195Y-2463844D02*
X42245100Y-2440034D01*
X42245100Y-2440034D02*
X42268909Y-2428130D01*
X42268909Y-2428130D02*
X42364147Y-2428130D01*
X42364147Y-2428130D02*
X42387957Y-2440034D01*
X42387957Y-2440034D02*
X42399861Y-2463844D01*
X42399861Y-2463844D02*
X42399861Y-2511463D01*
X42399861Y-2511463D02*
X42387957Y-2535272D01*
X42387957Y-2535272D02*
X42364147Y-2547177D01*
X42364147Y-2547177D02*
X42340338Y-2547177D01*
X42340338Y-2547177D02*
X42316528Y-2428130D01*
X42399861Y-2654320D02*
X42233195Y-2654320D01*
X42376052Y-2654320D02*
X42387957Y-2666225D01*
X42387957Y-2666225D02*
X42399861Y-2690035D01*
X42399861Y-2690035D02*
X42399861Y-2725749D01*
X42399861Y-2725749D02*
X42387957Y-2749558D01*
X42387957Y-2749558D02*
X42364147Y-2761463D01*
X42364147Y-2761463D02*
X42233195Y-2761463D01*
X42245100Y-2975748D02*
X42233195Y-2951939D01*
X42233195Y-2951939D02*
X42233195Y-2904320D01*
X42233195Y-2904320D02*
X42245100Y-2880510D01*
X42245100Y-2880510D02*
X42268909Y-2868606D01*
X42268909Y-2868606D02*
X42364147Y-2868606D01*
X42364147Y-2868606D02*
X42387957Y-2880510D01*
X42387957Y-2880510D02*
X42399861Y-2904320D01*
X42399861Y-2904320D02*
X42399861Y-2951939D01*
X42399861Y-2951939D02*
X42387957Y-2975748D01*
X42387957Y-2975748D02*
X42364147Y-2987653D01*
X42364147Y-2987653D02*
X42340338Y-2987653D01*
X42340338Y-2987653D02*
X42316528Y-2868606D01*
X42233195Y-3094796D02*
X42399861Y-3094796D01*
X42352242Y-3094796D02*
X42376052Y-3106701D01*
X42376052Y-3106701D02*
X42387957Y-3118606D01*
X42387957Y-3118606D02*
X42399861Y-3142415D01*
X42399861Y-3142415D02*
X42399861Y-3166225D01*
X2635852Y8825752D02*
X2647757Y8861466D01*
X2647757Y8861466D02*
X2659661Y8873371D01*
X2659661Y8873371D02*
X2683471Y8885275D01*
X2683471Y8885275D02*
X2719185Y8885275D01*
X2719185Y8885275D02*
X2742995Y8873371D01*
X2742995Y8873371D02*
X2754900Y8861466D01*
X2754900Y8861466D02*
X2766804Y8837656D01*
X2766804Y8837656D02*
X2766804Y8742418D01*
X2766804Y8742418D02*
X2516804Y8742418D01*
X2516804Y8742418D02*
X2516804Y8825752D01*
X2516804Y8825752D02*
X2528709Y8849561D01*
X2528709Y8849561D02*
X2540614Y8861466D01*
X2540614Y8861466D02*
X2564423Y8873371D01*
X2564423Y8873371D02*
X2588233Y8873371D01*
X2588233Y8873371D02*
X2612042Y8861466D01*
X2612042Y8861466D02*
X2623947Y8849561D01*
X2623947Y8849561D02*
X2635852Y8825752D01*
X2635852Y8825752D02*
X2635852Y8742418D01*
X2766804Y9028133D02*
X2754900Y9004323D01*
X2754900Y9004323D02*
X2742995Y8992418D01*
X2742995Y8992418D02*
X2719185Y8980514D01*
X2719185Y8980514D02*
X2647757Y8980514D01*
X2647757Y8980514D02*
X2623947Y8992418D01*
X2623947Y8992418D02*
X2612042Y9004323D01*
X2612042Y9004323D02*
X2600138Y9028133D01*
X2600138Y9028133D02*
X2600138Y9063847D01*
X2600138Y9063847D02*
X2612042Y9087656D01*
X2612042Y9087656D02*
X2623947Y9099561D01*
X2623947Y9099561D02*
X2647757Y9111466D01*
X2647757Y9111466D02*
X2719185Y9111466D01*
X2719185Y9111466D02*
X2742995Y9099561D01*
X2742995Y9099561D02*
X2754900Y9087656D01*
X2754900Y9087656D02*
X2766804Y9063847D01*
X2766804Y9063847D02*
X2766804Y9028133D01*
X2600138Y9182894D02*
X2600138Y9278132D01*
X2516804Y9218608D02*
X2731090Y9218608D01*
X2731090Y9218608D02*
X2754900Y9230513D01*
X2754900Y9230513D02*
X2766804Y9254323D01*
X2766804Y9254323D02*
X2766804Y9278132D01*
X2600138Y9325751D02*
X2600138Y9420989D01*
X2516804Y9361465D02*
X2731090Y9361465D01*
X2731090Y9361465D02*
X2754900Y9373370D01*
X2754900Y9373370D02*
X2766804Y9397180D01*
X2766804Y9397180D02*
X2766804Y9420989D01*
X2766804Y9540037D02*
X2754900Y9516227D01*
X2754900Y9516227D02*
X2742995Y9504322D01*
X2742995Y9504322D02*
X2719185Y9492418D01*
X2719185Y9492418D02*
X2647757Y9492418D01*
X2647757Y9492418D02*
X2623947Y9504322D01*
X2623947Y9504322D02*
X2612042Y9516227D01*
X2612042Y9516227D02*
X2600138Y9540037D01*
X2600138Y9540037D02*
X2600138Y9575751D01*
X2600138Y9575751D02*
X2612042Y9599560D01*
X2612042Y9599560D02*
X2623947Y9611465D01*
X2623947Y9611465D02*
X2647757Y9623370D01*
X2647757Y9623370D02*
X2719185Y9623370D01*
X2719185Y9623370D02*
X2742995Y9611465D01*
X2742995Y9611465D02*
X2754900Y9599560D01*
X2754900Y9599560D02*
X2766804Y9575751D01*
X2766804Y9575751D02*
X2766804Y9540037D01*
X2766804Y9730512D02*
X2600138Y9730512D01*
X2623947Y9730512D02*
X2612042Y9742417D01*
X2612042Y9742417D02*
X2600138Y9766227D01*
X2600138Y9766227D02*
X2600138Y9801941D01*
X2600138Y9801941D02*
X2612042Y9825750D01*
X2612042Y9825750D02*
X2635852Y9837655D01*
X2635852Y9837655D02*
X2766804Y9837655D01*
X2635852Y9837655D02*
X2612042Y9849560D01*
X2612042Y9849560D02*
X2600138Y9873369D01*
X2600138Y9873369D02*
X2600138Y9909084D01*
X2600138Y9909084D02*
X2612042Y9932893D01*
X2612042Y9932893D02*
X2635852Y9944798D01*
X2635852Y9944798D02*
X2766804Y9944798D01*
X2754900Y10242417D02*
X2766804Y10278131D01*
X2766804Y10278131D02*
X2766804Y10337655D01*
X2766804Y10337655D02*
X2754900Y10361464D01*
X2754900Y10361464D02*
X2742995Y10373369D01*
X2742995Y10373369D02*
X2719185Y10385274D01*
X2719185Y10385274D02*
X2695376Y10385274D01*
X2695376Y10385274D02*
X2671566Y10373369D01*
X2671566Y10373369D02*
X2659661Y10361464D01*
X2659661Y10361464D02*
X2647757Y10337655D01*
X2647757Y10337655D02*
X2635852Y10290036D01*
X2635852Y10290036D02*
X2623947Y10266226D01*
X2623947Y10266226D02*
X2612042Y10254321D01*
X2612042Y10254321D02*
X2588233Y10242417D01*
X2588233Y10242417D02*
X2564423Y10242417D01*
X2564423Y10242417D02*
X2540614Y10254321D01*
X2540614Y10254321D02*
X2528709Y10266226D01*
X2528709Y10266226D02*
X2516804Y10290036D01*
X2516804Y10290036D02*
X2516804Y10349559D01*
X2516804Y10349559D02*
X2528709Y10385274D01*
X2600138Y10456702D02*
X2600138Y10551940D01*
X2516804Y10492416D02*
X2731090Y10492416D01*
X2731090Y10492416D02*
X2754900Y10504321D01*
X2754900Y10504321D02*
X2766804Y10528131D01*
X2766804Y10528131D02*
X2766804Y10551940D01*
X2766804Y10635273D02*
X2600138Y10635273D01*
X2516804Y10635273D02*
X2528709Y10623369D01*
X2528709Y10623369D02*
X2540614Y10635273D01*
X2540614Y10635273D02*
X2528709Y10647178D01*
X2528709Y10647178D02*
X2516804Y10635273D01*
X2516804Y10635273D02*
X2540614Y10635273D01*
X2600138Y10718607D02*
X2600138Y10813845D01*
X2766804Y10754321D02*
X2552519Y10754321D01*
X2552519Y10754321D02*
X2528709Y10766226D01*
X2528709Y10766226D02*
X2516804Y10790036D01*
X2516804Y10790036D02*
X2516804Y10813845D01*
X2600138Y10861464D02*
X2600138Y10956702D01*
X2766804Y10897178D02*
X2552519Y10897178D01*
X2552519Y10897178D02*
X2528709Y10909083D01*
X2528709Y10909083D02*
X2516804Y10932893D01*
X2516804Y10932893D02*
X2516804Y10956702D01*
X2754900Y11135273D02*
X2766804Y11111464D01*
X2766804Y11111464D02*
X2766804Y11063845D01*
X2766804Y11063845D02*
X2754900Y11040035D01*
X2754900Y11040035D02*
X2731090Y11028131D01*
X2731090Y11028131D02*
X2635852Y11028131D01*
X2635852Y11028131D02*
X2612042Y11040035D01*
X2612042Y11040035D02*
X2600138Y11063845D01*
X2600138Y11063845D02*
X2600138Y11111464D01*
X2600138Y11111464D02*
X2612042Y11135273D01*
X2612042Y11135273D02*
X2635852Y11147178D01*
X2635852Y11147178D02*
X2659661Y11147178D01*
X2659661Y11147178D02*
X2683471Y11028131D01*
X2600138Y11254321D02*
X2766804Y11254321D01*
X2623947Y11254321D02*
X2612042Y11266226D01*
X2612042Y11266226D02*
X2600138Y11290036D01*
X2600138Y11290036D02*
X2600138Y11325750D01*
X2600138Y11325750D02*
X2612042Y11349559D01*
X2612042Y11349559D02*
X2635852Y11361464D01*
X2635852Y11361464D02*
X2766804Y11361464D01*
X2754900Y11575749D02*
X2766804Y11551940D01*
X2766804Y11551940D02*
X2766804Y11504321D01*
X2766804Y11504321D02*
X2754900Y11480511D01*
X2754900Y11480511D02*
X2731090Y11468607D01*
X2731090Y11468607D02*
X2635852Y11468607D01*
X2635852Y11468607D02*
X2612042Y11480511D01*
X2612042Y11480511D02*
X2600138Y11504321D01*
X2600138Y11504321D02*
X2600138Y11551940D01*
X2600138Y11551940D02*
X2612042Y11575749D01*
X2612042Y11575749D02*
X2635852Y11587654D01*
X2635852Y11587654D02*
X2659661Y11587654D01*
X2659661Y11587654D02*
X2683471Y11468607D01*
X2766804Y11694797D02*
X2600138Y11694797D01*
X2647757Y11694797D02*
X2623947Y11706702D01*
X2623947Y11706702D02*
X2612042Y11718607D01*
X2612042Y11718607D02*
X2600138Y11742416D01*
X2600138Y11742416D02*
X2600138Y11766226D01*
%TO.C,J2*%
X42200000Y8300000D02*
X42200000Y300000D01*
X42200000Y8300000D02*
X44850000Y8300000D01*
X42500000Y-50000D02*
X42660000Y190000D01*
X42550000Y160000D02*
X42660000Y190000D01*
X42660000Y190000D02*
X42670000Y80000D01*
X42670000Y80000D02*
X42550000Y160000D01*
X44850000Y300000D02*
X42200000Y300000D01*
X45000000Y8150000D02*
X45000000Y450000D01*
X44850000Y8300000D02*
G75*
G02*
X45000000Y8150000I0J-150000D01*
G01*
X45000000Y450000D02*
G75*
G02*
X44850000Y300000I-150000J0D01*
G01*
%TO.C,J1*%
X0Y450000D02*
X0Y8150000D01*
X150000Y8300000D02*
X2800000Y8300000D01*
X2330000Y8520000D02*
X2450000Y8440000D01*
X2340000Y8410000D02*
X2330000Y8520000D01*
X2450000Y8440000D02*
X2340000Y8410000D01*
X2500000Y8650000D02*
X2340000Y8410000D01*
X2800000Y300000D02*
X150000Y300000D01*
X2800000Y300000D02*
X2800000Y8300000D01*
X0Y8150000D02*
G75*
G02*
X150000Y8300000I150000J0D01*
G01*
X150000Y300000D02*
G75*
G02*
X0Y450000I0J150000D01*
G01*
%TD*%
M02*
