%TF.GenerationSoftware,KiCad,Pcbnew,9.0.6*%
%TF.CreationDate,2026-01-21T13:52:31-05:00*%
%TF.ProjectId,molex-504070-fpc,6d6f6c65-782d-4353-9034-3037302d6670,A*%
%TF.SameCoordinates,PX7489fc0PY646c020*%
%TF.FileFunction,Profile,NP*%
%FSLAX46Y46*%
G04 Gerber Fmt 4.6, Leading zero omitted, Abs format (unit mm)*
G04 Created by KiCad (PCBNEW 9.0.6) date 2026-01-21 13:52:31*
%MOMM*%
%LPD*%
G01*
G04 APERTURE LIST*
%TA.AperFunction,Profile*%
%ADD10C,0.050000*%
%TD*%
G04 APERTURE END LIST*
D10*
X3800000Y8600000D02*
X2800000Y8300000D01*
X3800000Y8600000D02*
X41200000Y8600000D01*
X43200000Y300000D02*
X42200000Y300000D01*
X42200000Y300000D02*
X41200000Y0D01*
X41200000Y0D02*
X3800000Y0D01*
X42200000Y8300000D02*
X43200000Y8300000D01*
X41200000Y8600000D02*
X42200000Y8300000D01*
X2800000Y300000D02*
X1800000Y300000D01*
X2800000Y300000D02*
X3800000Y0D01*
X2800000Y8300000D02*
X1800000Y8300000D01*
%TO.C,J2*%
X43200000Y8300000D02*
X44850000Y8300000D01*
X44850000Y300000D02*
X43200000Y300000D01*
X45000000Y8150000D02*
X45000000Y450000D01*
X44850000Y8300000D02*
G75*
G02*
X45000000Y8150000I0J-150000D01*
G01*
X45000000Y450000D02*
G75*
G02*
X44850000Y300000I-150000J0D01*
G01*
%TO.C,J1*%
X0Y450000D02*
X0Y8150000D01*
X150000Y8300000D02*
X1800000Y8300000D01*
X1800000Y300000D02*
X150000Y300000D01*
X0Y8150000D02*
G75*
G02*
X150000Y8300000I150000J0D01*
G01*
X150000Y300000D02*
G75*
G02*
X0Y450000I0J150000D01*
G01*
%TD*%
M02*
