%TF.GenerationSoftware,KiCad,Pcbnew,9.0.6*%
%TF.CreationDate,2026-01-21T13:52:31-05:00*%
%TF.ProjectId,molex-504070-fpc,6d6f6c65-782d-4353-9034-3037302d6670,A*%
%TF.SameCoordinates,PX7489fc0PY646c020*%
%TF.FileFunction,Other,User*%
%FSLAX46Y46*%
G04 Gerber Fmt 4.6, Leading zero omitted, Abs format (unit mm)*
G04 Created by KiCad (PCBNEW 9.0.6) date 2026-01-21 13:52:31*
%MOMM*%
%LPD*%
G01*
G04 APERTURE LIST*
%ADD10C,0.050000*%
G04 APERTURE END LIST*
D10*
X43107004Y-35274D02*
X43095100Y-23370D01*
X43095100Y-23370D02*
X43083195Y12345D01*
X43083195Y12345D02*
X43083195Y36154D01*
X43083195Y36154D02*
X43095100Y71868D01*
X43095100Y71868D02*
X43118909Y95678D01*
X43118909Y95678D02*
X43142719Y107583D01*
X43142719Y107583D02*
X43190338Y119487D01*
X43190338Y119487D02*
X43226052Y119487D01*
X43226052Y119487D02*
X43273671Y107583D01*
X43273671Y107583D02*
X43297480Y95678D01*
X43297480Y95678D02*
X43321290Y71868D01*
X43321290Y71868D02*
X43333195Y36154D01*
X43333195Y36154D02*
X43333195Y12345D01*
X43333195Y12345D02*
X43321290Y-23370D01*
X43321290Y-23370D02*
X43309385Y-35274D01*
X43083195Y-178132D02*
X43095100Y-154322D01*
X43095100Y-154322D02*
X43107004Y-142417D01*
X43107004Y-142417D02*
X43130814Y-130513D01*
X43130814Y-130513D02*
X43202242Y-130513D01*
X43202242Y-130513D02*
X43226052Y-142417D01*
X43226052Y-142417D02*
X43237957Y-154322D01*
X43237957Y-154322D02*
X43249861Y-178132D01*
X43249861Y-178132D02*
X43249861Y-213846D01*
X43249861Y-213846D02*
X43237957Y-237655D01*
X43237957Y-237655D02*
X43226052Y-249560D01*
X43226052Y-249560D02*
X43202242Y-261465D01*
X43202242Y-261465D02*
X43130814Y-261465D01*
X43130814Y-261465D02*
X43107004Y-249560D01*
X43107004Y-249560D02*
X43095100Y-237655D01*
X43095100Y-237655D02*
X43083195Y-213846D01*
X43083195Y-213846D02*
X43083195Y-178132D01*
X43249861Y-344798D02*
X43083195Y-404322D01*
X43083195Y-404322D02*
X43249861Y-463845D01*
X43095100Y-654321D02*
X43083195Y-630512D01*
X43083195Y-630512D02*
X43083195Y-582893D01*
X43083195Y-582893D02*
X43095100Y-559083D01*
X43095100Y-559083D02*
X43118909Y-547179D01*
X43118909Y-547179D02*
X43214147Y-547179D01*
X43214147Y-547179D02*
X43237957Y-559083D01*
X43237957Y-559083D02*
X43249861Y-582893D01*
X43249861Y-582893D02*
X43249861Y-630512D01*
X43249861Y-630512D02*
X43237957Y-654321D01*
X43237957Y-654321D02*
X43214147Y-666226D01*
X43214147Y-666226D02*
X43190338Y-666226D01*
X43190338Y-666226D02*
X43166528Y-547179D01*
X43083195Y-773369D02*
X43249861Y-773369D01*
X43202242Y-773369D02*
X43226052Y-785274D01*
X43226052Y-785274D02*
X43237957Y-797179D01*
X43237957Y-797179D02*
X43249861Y-820988D01*
X43249861Y-820988D02*
X43249861Y-844798D01*
X43083195Y-963846D02*
X43095100Y-940036D01*
X43095100Y-940036D02*
X43118909Y-928131D01*
X43118909Y-928131D02*
X43333195Y-928131D01*
X43083195Y-1166226D02*
X43214147Y-1166226D01*
X43214147Y-1166226D02*
X43237957Y-1154321D01*
X43237957Y-1154321D02*
X43249861Y-1130512D01*
X43249861Y-1130512D02*
X43249861Y-1082893D01*
X43249861Y-1082893D02*
X43237957Y-1059083D01*
X43095100Y-1166226D02*
X43083195Y-1142417D01*
X43083195Y-1142417D02*
X43083195Y-1082893D01*
X43083195Y-1082893D02*
X43095100Y-1059083D01*
X43095100Y-1059083D02*
X43118909Y-1047179D01*
X43118909Y-1047179D02*
X43142719Y-1047179D01*
X43142719Y-1047179D02*
X43166528Y-1059083D01*
X43166528Y-1059083D02*
X43178433Y-1082893D01*
X43178433Y-1082893D02*
X43178433Y-1142417D01*
X43178433Y-1142417D02*
X43190338Y-1166226D01*
X43249861Y-1261464D02*
X43083195Y-1320988D01*
X43249861Y-1380511D02*
X43083195Y-1320988D01*
X43083195Y-1320988D02*
X43023671Y-1297178D01*
X43023671Y-1297178D02*
X43011766Y-1285273D01*
X43011766Y-1285273D02*
X42999861Y-1261464D01*
X43214147Y-1666225D02*
X43214147Y-1749559D01*
X43083195Y-1785273D02*
X43083195Y-1666225D01*
X43083195Y-1666225D02*
X43333195Y-1666225D01*
X43333195Y-1666225D02*
X43333195Y-1785273D01*
X43249861Y-1892415D02*
X43083195Y-1892415D01*
X43226052Y-1892415D02*
X43237957Y-1904320D01*
X43237957Y-1904320D02*
X43249861Y-1928130D01*
X43249861Y-1928130D02*
X43249861Y-1963844D01*
X43249861Y-1963844D02*
X43237957Y-1987653D01*
X43237957Y-1987653D02*
X43214147Y-1999558D01*
X43214147Y-1999558D02*
X43083195Y-1999558D01*
X43083195Y-2225748D02*
X43333195Y-2225748D01*
X43095100Y-2225748D02*
X43083195Y-2201939D01*
X43083195Y-2201939D02*
X43083195Y-2154320D01*
X43083195Y-2154320D02*
X43095100Y-2130510D01*
X43095100Y-2130510D02*
X43107004Y-2118605D01*
X43107004Y-2118605D02*
X43130814Y-2106701D01*
X43130814Y-2106701D02*
X43202242Y-2106701D01*
X43202242Y-2106701D02*
X43226052Y-2118605D01*
X43226052Y-2118605D02*
X43237957Y-2130510D01*
X43237957Y-2130510D02*
X43249861Y-2154320D01*
X43249861Y-2154320D02*
X43249861Y-2201939D01*
X43249861Y-2201939D02*
X43237957Y-2225748D01*
X43147004Y10664726D02*
X43135100Y10676630D01*
X43135100Y10676630D02*
X43123195Y10712345D01*
X43123195Y10712345D02*
X43123195Y10736154D01*
X43123195Y10736154D02*
X43135100Y10771868D01*
X43135100Y10771868D02*
X43158909Y10795678D01*
X43158909Y10795678D02*
X43182719Y10807583D01*
X43182719Y10807583D02*
X43230338Y10819487D01*
X43230338Y10819487D02*
X43266052Y10819487D01*
X43266052Y10819487D02*
X43313671Y10807583D01*
X43313671Y10807583D02*
X43337480Y10795678D01*
X43337480Y10795678D02*
X43361290Y10771868D01*
X43361290Y10771868D02*
X43373195Y10736154D01*
X43373195Y10736154D02*
X43373195Y10712345D01*
X43373195Y10712345D02*
X43361290Y10676630D01*
X43361290Y10676630D02*
X43349385Y10664726D01*
X43123195Y10521868D02*
X43135100Y10545678D01*
X43135100Y10545678D02*
X43147004Y10557583D01*
X43147004Y10557583D02*
X43170814Y10569487D01*
X43170814Y10569487D02*
X43242242Y10569487D01*
X43242242Y10569487D02*
X43266052Y10557583D01*
X43266052Y10557583D02*
X43277957Y10545678D01*
X43277957Y10545678D02*
X43289861Y10521868D01*
X43289861Y10521868D02*
X43289861Y10486154D01*
X43289861Y10486154D02*
X43277957Y10462345D01*
X43277957Y10462345D02*
X43266052Y10450440D01*
X43266052Y10450440D02*
X43242242Y10438535D01*
X43242242Y10438535D02*
X43170814Y10438535D01*
X43170814Y10438535D02*
X43147004Y10450440D01*
X43147004Y10450440D02*
X43135100Y10462345D01*
X43135100Y10462345D02*
X43123195Y10486154D01*
X43123195Y10486154D02*
X43123195Y10521868D01*
X43289861Y10355202D02*
X43123195Y10295678D01*
X43123195Y10295678D02*
X43289861Y10236155D01*
X43135100Y10045679D02*
X43123195Y10069488D01*
X43123195Y10069488D02*
X43123195Y10117107D01*
X43123195Y10117107D02*
X43135100Y10140917D01*
X43135100Y10140917D02*
X43158909Y10152821D01*
X43158909Y10152821D02*
X43254147Y10152821D01*
X43254147Y10152821D02*
X43277957Y10140917D01*
X43277957Y10140917D02*
X43289861Y10117107D01*
X43289861Y10117107D02*
X43289861Y10069488D01*
X43289861Y10069488D02*
X43277957Y10045679D01*
X43277957Y10045679D02*
X43254147Y10033774D01*
X43254147Y10033774D02*
X43230338Y10033774D01*
X43230338Y10033774D02*
X43206528Y10152821D01*
X43123195Y9926631D02*
X43289861Y9926631D01*
X43242242Y9926631D02*
X43266052Y9914726D01*
X43266052Y9914726D02*
X43277957Y9902821D01*
X43277957Y9902821D02*
X43289861Y9879012D01*
X43289861Y9879012D02*
X43289861Y9855202D01*
X43123195Y9736154D02*
X43135100Y9759964D01*
X43135100Y9759964D02*
X43158909Y9771869D01*
X43158909Y9771869D02*
X43373195Y9771869D01*
X43123195Y9533774D02*
X43254147Y9533774D01*
X43254147Y9533774D02*
X43277957Y9545679D01*
X43277957Y9545679D02*
X43289861Y9569488D01*
X43289861Y9569488D02*
X43289861Y9617107D01*
X43289861Y9617107D02*
X43277957Y9640917D01*
X43135100Y9533774D02*
X43123195Y9557583D01*
X43123195Y9557583D02*
X43123195Y9617107D01*
X43123195Y9617107D02*
X43135100Y9640917D01*
X43135100Y9640917D02*
X43158909Y9652821D01*
X43158909Y9652821D02*
X43182719Y9652821D01*
X43182719Y9652821D02*
X43206528Y9640917D01*
X43206528Y9640917D02*
X43218433Y9617107D01*
X43218433Y9617107D02*
X43218433Y9557583D01*
X43218433Y9557583D02*
X43230338Y9533774D01*
X43289861Y9438536D02*
X43123195Y9379012D01*
X43289861Y9319489D02*
X43123195Y9379012D01*
X43123195Y9379012D02*
X43063671Y9402822D01*
X43063671Y9402822D02*
X43051766Y9414727D01*
X43051766Y9414727D02*
X43039861Y9438536D01*
X43254147Y9033775D02*
X43254147Y8950441D01*
X43123195Y8914727D02*
X43123195Y9033775D01*
X43123195Y9033775D02*
X43373195Y9033775D01*
X43373195Y9033775D02*
X43373195Y8914727D01*
X43289861Y8807585D02*
X43123195Y8807585D01*
X43266052Y8807585D02*
X43277957Y8795680D01*
X43277957Y8795680D02*
X43289861Y8771870D01*
X43289861Y8771870D02*
X43289861Y8736156D01*
X43289861Y8736156D02*
X43277957Y8712347D01*
X43277957Y8712347D02*
X43254147Y8700442D01*
X43254147Y8700442D02*
X43123195Y8700442D01*
X43123195Y8474252D02*
X43373195Y8474252D01*
X43135100Y8474252D02*
X43123195Y8498061D01*
X43123195Y8498061D02*
X43123195Y8545680D01*
X43123195Y8545680D02*
X43135100Y8569490D01*
X43135100Y8569490D02*
X43147004Y8581395D01*
X43147004Y8581395D02*
X43170814Y8593299D01*
X43170814Y8593299D02*
X43242242Y8593299D01*
X43242242Y8593299D02*
X43266052Y8581395D01*
X43266052Y8581395D02*
X43277957Y8569490D01*
X43277957Y8569490D02*
X43289861Y8545680D01*
X43289861Y8545680D02*
X43289861Y8498061D01*
X43289861Y8498061D02*
X43277957Y8474252D01*
X1892995Y8635275D02*
X1904900Y8623371D01*
X1904900Y8623371D02*
X1916804Y8587656D01*
X1916804Y8587656D02*
X1916804Y8563847D01*
X1916804Y8563847D02*
X1904900Y8528133D01*
X1904900Y8528133D02*
X1881090Y8504323D01*
X1881090Y8504323D02*
X1857280Y8492418D01*
X1857280Y8492418D02*
X1809661Y8480514D01*
X1809661Y8480514D02*
X1773947Y8480514D01*
X1773947Y8480514D02*
X1726328Y8492418D01*
X1726328Y8492418D02*
X1702519Y8504323D01*
X1702519Y8504323D02*
X1678709Y8528133D01*
X1678709Y8528133D02*
X1666804Y8563847D01*
X1666804Y8563847D02*
X1666804Y8587656D01*
X1666804Y8587656D02*
X1678709Y8623371D01*
X1678709Y8623371D02*
X1690614Y8635275D01*
X1916804Y8778133D02*
X1904900Y8754323D01*
X1904900Y8754323D02*
X1892995Y8742418D01*
X1892995Y8742418D02*
X1869185Y8730514D01*
X1869185Y8730514D02*
X1797757Y8730514D01*
X1797757Y8730514D02*
X1773947Y8742418D01*
X1773947Y8742418D02*
X1762042Y8754323D01*
X1762042Y8754323D02*
X1750138Y8778133D01*
X1750138Y8778133D02*
X1750138Y8813847D01*
X1750138Y8813847D02*
X1762042Y8837656D01*
X1762042Y8837656D02*
X1773947Y8849561D01*
X1773947Y8849561D02*
X1797757Y8861466D01*
X1797757Y8861466D02*
X1869185Y8861466D01*
X1869185Y8861466D02*
X1892995Y8849561D01*
X1892995Y8849561D02*
X1904900Y8837656D01*
X1904900Y8837656D02*
X1916804Y8813847D01*
X1916804Y8813847D02*
X1916804Y8778133D01*
X1750138Y8944799D02*
X1916804Y9004323D01*
X1916804Y9004323D02*
X1750138Y9063846D01*
X1904900Y9254322D02*
X1916804Y9230513D01*
X1916804Y9230513D02*
X1916804Y9182894D01*
X1916804Y9182894D02*
X1904900Y9159084D01*
X1904900Y9159084D02*
X1881090Y9147180D01*
X1881090Y9147180D02*
X1785852Y9147180D01*
X1785852Y9147180D02*
X1762042Y9159084D01*
X1762042Y9159084D02*
X1750138Y9182894D01*
X1750138Y9182894D02*
X1750138Y9230513D01*
X1750138Y9230513D02*
X1762042Y9254322D01*
X1762042Y9254322D02*
X1785852Y9266227D01*
X1785852Y9266227D02*
X1809661Y9266227D01*
X1809661Y9266227D02*
X1833471Y9147180D01*
X1916804Y9373370D02*
X1750138Y9373370D01*
X1797757Y9373370D02*
X1773947Y9385275D01*
X1773947Y9385275D02*
X1762042Y9397180D01*
X1762042Y9397180D02*
X1750138Y9420989D01*
X1750138Y9420989D02*
X1750138Y9444799D01*
X1916804Y9563847D02*
X1904900Y9540037D01*
X1904900Y9540037D02*
X1881090Y9528132D01*
X1881090Y9528132D02*
X1666804Y9528132D01*
X1916804Y9766227D02*
X1785852Y9766227D01*
X1785852Y9766227D02*
X1762042Y9754322D01*
X1762042Y9754322D02*
X1750138Y9730513D01*
X1750138Y9730513D02*
X1750138Y9682894D01*
X1750138Y9682894D02*
X1762042Y9659084D01*
X1904900Y9766227D02*
X1916804Y9742418D01*
X1916804Y9742418D02*
X1916804Y9682894D01*
X1916804Y9682894D02*
X1904900Y9659084D01*
X1904900Y9659084D02*
X1881090Y9647180D01*
X1881090Y9647180D02*
X1857280Y9647180D01*
X1857280Y9647180D02*
X1833471Y9659084D01*
X1833471Y9659084D02*
X1821566Y9682894D01*
X1821566Y9682894D02*
X1821566Y9742418D01*
X1821566Y9742418D02*
X1809661Y9766227D01*
X1750138Y9861465D02*
X1916804Y9920989D01*
X1750138Y9980512D02*
X1916804Y9920989D01*
X1916804Y9920989D02*
X1976328Y9897179D01*
X1976328Y9897179D02*
X1988233Y9885274D01*
X1988233Y9885274D02*
X2000138Y9861465D01*
X1785852Y10266226D02*
X1785852Y10349560D01*
X1916804Y10385274D02*
X1916804Y10266226D01*
X1916804Y10266226D02*
X1666804Y10266226D01*
X1666804Y10266226D02*
X1666804Y10385274D01*
X1750138Y10492416D02*
X1916804Y10492416D01*
X1773947Y10492416D02*
X1762042Y10504321D01*
X1762042Y10504321D02*
X1750138Y10528131D01*
X1750138Y10528131D02*
X1750138Y10563845D01*
X1750138Y10563845D02*
X1762042Y10587654D01*
X1762042Y10587654D02*
X1785852Y10599559D01*
X1785852Y10599559D02*
X1916804Y10599559D01*
X1916804Y10825749D02*
X1666804Y10825749D01*
X1904900Y10825749D02*
X1916804Y10801940D01*
X1916804Y10801940D02*
X1916804Y10754321D01*
X1916804Y10754321D02*
X1904900Y10730511D01*
X1904900Y10730511D02*
X1892995Y10718606D01*
X1892995Y10718606D02*
X1869185Y10706702D01*
X1869185Y10706702D02*
X1797757Y10706702D01*
X1797757Y10706702D02*
X1773947Y10718606D01*
X1773947Y10718606D02*
X1762042Y10730511D01*
X1762042Y10730511D02*
X1750138Y10754321D01*
X1750138Y10754321D02*
X1750138Y10801940D01*
X1750138Y10801940D02*
X1762042Y10825749D01*
X1852995Y-2064725D02*
X1864900Y-2076629D01*
X1864900Y-2076629D02*
X1876804Y-2112344D01*
X1876804Y-2112344D02*
X1876804Y-2136153D01*
X1876804Y-2136153D02*
X1864900Y-2171867D01*
X1864900Y-2171867D02*
X1841090Y-2195677D01*
X1841090Y-2195677D02*
X1817280Y-2207582D01*
X1817280Y-2207582D02*
X1769661Y-2219486D01*
X1769661Y-2219486D02*
X1733947Y-2219486D01*
X1733947Y-2219486D02*
X1686328Y-2207582D01*
X1686328Y-2207582D02*
X1662519Y-2195677D01*
X1662519Y-2195677D02*
X1638709Y-2171867D01*
X1638709Y-2171867D02*
X1626804Y-2136153D01*
X1626804Y-2136153D02*
X1626804Y-2112344D01*
X1626804Y-2112344D02*
X1638709Y-2076629D01*
X1638709Y-2076629D02*
X1650614Y-2064725D01*
X1876804Y-1921867D02*
X1864900Y-1945677D01*
X1864900Y-1945677D02*
X1852995Y-1957582D01*
X1852995Y-1957582D02*
X1829185Y-1969486D01*
X1829185Y-1969486D02*
X1757757Y-1969486D01*
X1757757Y-1969486D02*
X1733947Y-1957582D01*
X1733947Y-1957582D02*
X1722042Y-1945677D01*
X1722042Y-1945677D02*
X1710138Y-1921867D01*
X1710138Y-1921867D02*
X1710138Y-1886153D01*
X1710138Y-1886153D02*
X1722042Y-1862344D01*
X1722042Y-1862344D02*
X1733947Y-1850439D01*
X1733947Y-1850439D02*
X1757757Y-1838534D01*
X1757757Y-1838534D02*
X1829185Y-1838534D01*
X1829185Y-1838534D02*
X1852995Y-1850439D01*
X1852995Y-1850439D02*
X1864900Y-1862344D01*
X1864900Y-1862344D02*
X1876804Y-1886153D01*
X1876804Y-1886153D02*
X1876804Y-1921867D01*
X1710138Y-1755201D02*
X1876804Y-1695677D01*
X1876804Y-1695677D02*
X1710138Y-1636154D01*
X1864900Y-1445678D02*
X1876804Y-1469487D01*
X1876804Y-1469487D02*
X1876804Y-1517106D01*
X1876804Y-1517106D02*
X1864900Y-1540916D01*
X1864900Y-1540916D02*
X1841090Y-1552820D01*
X1841090Y-1552820D02*
X1745852Y-1552820D01*
X1745852Y-1552820D02*
X1722042Y-1540916D01*
X1722042Y-1540916D02*
X1710138Y-1517106D01*
X1710138Y-1517106D02*
X1710138Y-1469487D01*
X1710138Y-1469487D02*
X1722042Y-1445678D01*
X1722042Y-1445678D02*
X1745852Y-1433773D01*
X1745852Y-1433773D02*
X1769661Y-1433773D01*
X1769661Y-1433773D02*
X1793471Y-1552820D01*
X1876804Y-1326630D02*
X1710138Y-1326630D01*
X1757757Y-1326630D02*
X1733947Y-1314725D01*
X1733947Y-1314725D02*
X1722042Y-1302820D01*
X1722042Y-1302820D02*
X1710138Y-1279011D01*
X1710138Y-1279011D02*
X1710138Y-1255201D01*
X1876804Y-1136153D02*
X1864900Y-1159963D01*
X1864900Y-1159963D02*
X1841090Y-1171868D01*
X1841090Y-1171868D02*
X1626804Y-1171868D01*
X1876804Y-933773D02*
X1745852Y-933773D01*
X1745852Y-933773D02*
X1722042Y-945678D01*
X1722042Y-945678D02*
X1710138Y-969487D01*
X1710138Y-969487D02*
X1710138Y-1017106D01*
X1710138Y-1017106D02*
X1722042Y-1040916D01*
X1864900Y-933773D02*
X1876804Y-957582D01*
X1876804Y-957582D02*
X1876804Y-1017106D01*
X1876804Y-1017106D02*
X1864900Y-1040916D01*
X1864900Y-1040916D02*
X1841090Y-1052820D01*
X1841090Y-1052820D02*
X1817280Y-1052820D01*
X1817280Y-1052820D02*
X1793471Y-1040916D01*
X1793471Y-1040916D02*
X1781566Y-1017106D01*
X1781566Y-1017106D02*
X1781566Y-957582D01*
X1781566Y-957582D02*
X1769661Y-933773D01*
X1710138Y-838535D02*
X1876804Y-779011D01*
X1710138Y-719488D02*
X1876804Y-779011D01*
X1876804Y-779011D02*
X1936328Y-802821D01*
X1936328Y-802821D02*
X1948233Y-814726D01*
X1948233Y-814726D02*
X1960138Y-838535D01*
X1745852Y-433774D02*
X1745852Y-350440D01*
X1876804Y-314726D02*
X1876804Y-433774D01*
X1876804Y-433774D02*
X1626804Y-433774D01*
X1626804Y-433774D02*
X1626804Y-314726D01*
X1710138Y-207584D02*
X1876804Y-207584D01*
X1733947Y-207584D02*
X1722042Y-195679D01*
X1722042Y-195679D02*
X1710138Y-171869D01*
X1710138Y-171869D02*
X1710138Y-136155D01*
X1710138Y-136155D02*
X1722042Y-112346D01*
X1722042Y-112346D02*
X1745852Y-100441D01*
X1745852Y-100441D02*
X1876804Y-100441D01*
X1876804Y125749D02*
X1626804Y125749D01*
X1864900Y125749D02*
X1876804Y101940D01*
X1876804Y101940D02*
X1876804Y54321D01*
X1876804Y54321D02*
X1864900Y30511D01*
X1864900Y30511D02*
X1852995Y18606D01*
X1852995Y18606D02*
X1829185Y6702D01*
X1829185Y6702D02*
X1757757Y6702D01*
X1757757Y6702D02*
X1733947Y18606D01*
X1733947Y18606D02*
X1722042Y30511D01*
X1722042Y30511D02*
X1710138Y54321D01*
X1710138Y54321D02*
X1710138Y101940D01*
X1710138Y101940D02*
X1722042Y125749D01*
%TO.C,J2*%
X43200000Y8300000D02*
X43200000Y7750000D01*
X43200000Y7550000D02*
X43200000Y7000000D01*
X43200000Y6800000D02*
X43200000Y6250000D01*
X43200000Y6050000D02*
X43200000Y5500000D01*
X43200000Y5300000D02*
X43200000Y4750000D01*
X43200000Y4550000D02*
X43200000Y4000000D01*
X43200000Y3800000D02*
X43200000Y3250000D01*
X43200000Y3050000D02*
X43200000Y2500000D01*
X43200000Y2300000D02*
X43200000Y1750000D01*
X43200000Y1550000D02*
X43200000Y1000000D01*
X43200000Y800000D02*
X43200000Y300000D01*
%TO.C,J1*%
X1800000Y300000D02*
X1800000Y850000D01*
X1800000Y1050000D02*
X1800000Y1600000D01*
X1800000Y1800000D02*
X1800000Y2350000D01*
X1800000Y2550000D02*
X1800000Y3100000D01*
X1800000Y3300000D02*
X1800000Y3850000D01*
X1800000Y4050000D02*
X1800000Y4600000D01*
X1800000Y4800000D02*
X1800000Y5350000D01*
X1800000Y5550000D02*
X1800000Y6100000D01*
X1800000Y6300000D02*
X1800000Y6850000D01*
X1800000Y7050000D02*
X1800000Y7600000D01*
X1800000Y7800000D02*
X1800000Y8300000D01*
%TD*%
M02*
