%TF.GenerationSoftware,KiCad,Pcbnew,9.0.6*%
%TF.CreationDate,2026-01-21T13:52:31-05:00*%
%TF.ProjectId,molex-504070-fpc,6d6f6c65-782d-4353-9034-3037302d6670,A*%
%TF.SameCoordinates,PX7489fc0PY646c020*%
%TF.FileFunction,Copper,L1,Top*%
%TF.FilePolarity,Positive*%
%FSLAX46Y46*%
G04 Gerber Fmt 4.6, Leading zero omitted, Abs format (unit mm)*
G04 Created by KiCad (PCBNEW 9.0.6) date 2026-01-21 13:52:31*
%MOMM*%
%LPD*%
G01*
G04 APERTURE LIST*
G04 Aperture macros list*
%AMFreePoly0*
4,1,13,0.065000,1.600000,0.110000,1.555000,0.110000,1.075000,0.050000,1.015000,0.050000,0.410000,0.075000,0.385000,0.075000,-0.075000,-0.075000,-0.075000,-0.075000,1.540000,-0.015000,1.600000,-0.015000,1.725000,0.065000,1.725000,0.065000,1.600000,0.065000,1.600000,$1*%
%AMFreePoly1*
4,1,13,0.040000,1.015000,0.085000,0.970000,0.085000,0.400000,0.050000,0.365000,0.050000,-0.100000,-0.050000,-0.100000,-0.050000,0.365000,-0.085000,0.400000,-0.085000,0.970000,-0.040000,1.015000,-0.040000,1.700000,0.040000,1.700000,0.040000,1.015000,0.040000,1.015000,$1*%
%AMFreePoly2*
4,1,17,0.040000,1.575000,0.085000,1.530000,0.085000,1.050000,0.040000,1.005000,0.040000,0.370000,0.050000,0.360000,0.050000,-0.100000,-0.050000,-0.100000,-0.050000,0.360000,-0.040000,0.370000,-0.040000,1.005000,-0.085000,1.050000,-0.085000,1.530000,-0.040000,1.575000,-0.040000,1.700000,0.040000,1.700000,0.040000,1.575000,0.040000,1.575000,$1*%
%AMFreePoly3*
4,1,13,0.015000,1.600000,0.075000,1.540000,0.075000,-0.075000,-0.075000,-0.075000,-0.075000,0.385000,-0.050000,0.410000,-0.050000,1.015000,-0.110000,1.075000,-0.110000,1.555000,-0.065000,1.600000,-0.065000,1.725000,0.015000,1.725000,0.015000,1.600000,0.015000,1.600000,$1*%
G04 Aperture macros list end*
%TA.AperFunction,SMDPad,CuDef*%
%ADD10FreePoly0,270.000000*%
%TD*%
%TA.AperFunction,SMDPad,CuDef*%
%ADD11FreePoly1,270.000000*%
%TD*%
%TA.AperFunction,SMDPad,CuDef*%
%ADD12FreePoly2,270.000000*%
%TD*%
%TA.AperFunction,SMDPad,CuDef*%
%ADD13FreePoly3,270.000000*%
%TD*%
%TA.AperFunction,SMDPad,CuDef*%
%ADD14FreePoly0,90.000000*%
%TD*%
%TA.AperFunction,SMDPad,CuDef*%
%ADD15FreePoly1,90.000000*%
%TD*%
%TA.AperFunction,SMDPad,CuDef*%
%ADD16FreePoly2,90.000000*%
%TD*%
%TA.AperFunction,SMDPad,CuDef*%
%ADD17FreePoly3,90.000000*%
%TD*%
%TA.AperFunction,ViaPad*%
%ADD18C,0.300000*%
%TD*%
%TA.AperFunction,Conductor*%
%ADD19C,0.100000*%
%TD*%
G04 APERTURE END LIST*
D10*
%TO.P,J2,1,Pin_1*%
%TO.N,/NTC_{B}*%
X43275000Y8125000D03*
D11*
%TO.P,J2,2,Pin_2*%
%TO.N,GND*%
X43300000Y7900000D03*
D12*
%TO.P,J2,3,Pin_3*%
%TO.N,/NTC_{A}*%
X43300000Y7700000D03*
D11*
%TO.P,J2,4,Pin_4*%
%TO.N,GND*%
X43300000Y7500000D03*
D12*
%TO.P,J2,5,Pin_5*%
%TO.N,/REF*%
X43300000Y7300000D03*
D11*
%TO.P,J2,6,Pin_6*%
%TO.N,/E0+*%
X43300000Y7100000D03*
D12*
%TO.P,J2,7,Pin_7*%
%TO.N,/E0-*%
X43300000Y6900000D03*
D11*
%TO.P,J2,8,Pin_8*%
%TO.N,/E1+*%
X43300000Y6700000D03*
D12*
%TO.P,J2,9,Pin_9*%
%TO.N,/E1-*%
X43300000Y6500000D03*
D11*
%TO.P,J2,10,Pin_10*%
%TO.N,/E2+*%
X43300000Y6300000D03*
D12*
%TO.P,J2,11,Pin_11*%
%TO.N,/E2-*%
X43300000Y6100000D03*
D11*
%TO.P,J2,12,Pin_12*%
%TO.N,/E3+*%
X43300000Y5900000D03*
D12*
%TO.P,J2,13,Pin_13*%
%TO.N,/E3-*%
X43300000Y5700000D03*
D11*
%TO.P,J2,14,Pin_14*%
%TO.N,/E4+*%
X43300000Y5500000D03*
D12*
%TO.P,J2,15,Pin_15*%
%TO.N,/E4-*%
X43300000Y5300000D03*
D11*
%TO.P,J2,16,Pin_16*%
%TO.N,/E5+*%
X43300000Y5100000D03*
D12*
%TO.P,J2,17,Pin_17*%
%TO.N,/E5-*%
X43300000Y4900000D03*
D11*
%TO.P,J2,18,Pin_18*%
%TO.N,/E6+*%
X43300000Y4700000D03*
D12*
%TO.P,J2,19,Pin_19*%
%TO.N,/E6-*%
X43300000Y4500000D03*
D11*
%TO.P,J2,20,Pin_20*%
%TO.N,/E7+*%
X43300000Y4300000D03*
D12*
%TO.P,J2,21,Pin_21*%
%TO.N,/E7-*%
X43300000Y4100000D03*
D11*
%TO.P,J2,22,Pin_22*%
%TO.N,/E8+*%
X43300000Y3900000D03*
D12*
%TO.P,J2,23,Pin_23*%
%TO.N,/E8-*%
X43300000Y3700000D03*
D11*
%TO.P,J2,24,Pin_24*%
%TO.N,/E9+*%
X43300000Y3500000D03*
D12*
%TO.P,J2,25,Pin_25*%
%TO.N,/E9-*%
X43300000Y3300000D03*
D11*
%TO.P,J2,26,Pin_26*%
%TO.N,/E10+*%
X43300000Y3100000D03*
D12*
%TO.P,J2,27,Pin_27*%
%TO.N,/E10-*%
X43300000Y2900000D03*
D11*
%TO.P,J2,28,Pin_28*%
%TO.N,/E11+*%
X43300000Y2700000D03*
D12*
%TO.P,J2,29,Pin_29*%
%TO.N,/E11-*%
X43300000Y2500000D03*
D11*
%TO.P,J2,30,Pin_30*%
%TO.N,/E12+*%
X43300000Y2300000D03*
D12*
%TO.P,J2,31,Pin_31*%
%TO.N,/E12-*%
X43300000Y2100000D03*
D11*
%TO.P,J2,32,Pin_32*%
%TO.N,/E13+*%
X43300000Y1900000D03*
D12*
%TO.P,J2,33,Pin_33*%
%TO.N,/E13-*%
X43300000Y1700000D03*
D11*
%TO.P,J2,34,Pin_34*%
%TO.N,/E14+*%
X43300000Y1500000D03*
D12*
%TO.P,J2,35,Pin_35*%
%TO.N,/E14-*%
X43300000Y1300000D03*
D11*
%TO.P,J2,36,Pin_36*%
%TO.N,/E15+*%
X43300000Y1100000D03*
D12*
%TO.P,J2,37,Pin_37*%
%TO.N,/E15-*%
X43300000Y900000D03*
D11*
%TO.P,J2,38,Pin_38*%
%TO.N,GND*%
X43300000Y700000D03*
D13*
%TO.P,J2,39,Pin_39*%
%TO.N,unconnected-(J2-Pin_39-Pad39)*%
X43275000Y475000D03*
%TD*%
D14*
%TO.P,J1,1,Pin_1*%
%TO.N,unconnected-(J1-Pin_1-Pad1)*%
X1725000Y475000D03*
D15*
%TO.P,J1,2,Pin_2*%
%TO.N,GND*%
X1700000Y700000D03*
D16*
%TO.P,J1,3,Pin_3*%
%TO.N,/E15-*%
X1700000Y900000D03*
D15*
%TO.P,J1,4,Pin_4*%
%TO.N,/E15+*%
X1700000Y1100000D03*
D16*
%TO.P,J1,5,Pin_5*%
%TO.N,/E14-*%
X1700000Y1300000D03*
D15*
%TO.P,J1,6,Pin_6*%
%TO.N,/E14+*%
X1700000Y1500000D03*
D16*
%TO.P,J1,7,Pin_7*%
%TO.N,/E13-*%
X1700000Y1700000D03*
D15*
%TO.P,J1,8,Pin_8*%
%TO.N,/E13+*%
X1700000Y1900000D03*
D16*
%TO.P,J1,9,Pin_9*%
%TO.N,/E12-*%
X1700000Y2100000D03*
D15*
%TO.P,J1,10,Pin_10*%
%TO.N,/E12+*%
X1700000Y2300000D03*
D16*
%TO.P,J1,11,Pin_11*%
%TO.N,/E11-*%
X1700000Y2500000D03*
D15*
%TO.P,J1,12,Pin_12*%
%TO.N,/E11+*%
X1700000Y2700000D03*
D16*
%TO.P,J1,13,Pin_13*%
%TO.N,/E10-*%
X1700000Y2900000D03*
D15*
%TO.P,J1,14,Pin_14*%
%TO.N,/E10+*%
X1700000Y3100000D03*
D16*
%TO.P,J1,15,Pin_15*%
%TO.N,/E9-*%
X1700000Y3300000D03*
D15*
%TO.P,J1,16,Pin_16*%
%TO.N,/E9+*%
X1700000Y3500000D03*
D16*
%TO.P,J1,17,Pin_17*%
%TO.N,/E8-*%
X1700000Y3700000D03*
D15*
%TO.P,J1,18,Pin_18*%
%TO.N,/E8+*%
X1700000Y3900000D03*
D16*
%TO.P,J1,19,Pin_19*%
%TO.N,/E7-*%
X1700000Y4100000D03*
D15*
%TO.P,J1,20,Pin_20*%
%TO.N,/E7+*%
X1700000Y4300000D03*
D16*
%TO.P,J1,21,Pin_21*%
%TO.N,/E6-*%
X1700000Y4500000D03*
D15*
%TO.P,J1,22,Pin_22*%
%TO.N,/E6+*%
X1700000Y4700000D03*
D16*
%TO.P,J1,23,Pin_23*%
%TO.N,/E5-*%
X1700000Y4900000D03*
D15*
%TO.P,J1,24,Pin_24*%
%TO.N,/E5+*%
X1700000Y5100000D03*
D16*
%TO.P,J1,25,Pin_25*%
%TO.N,/E4-*%
X1700000Y5300000D03*
D15*
%TO.P,J1,26,Pin_26*%
%TO.N,/E4+*%
X1700000Y5500000D03*
D16*
%TO.P,J1,27,Pin_27*%
%TO.N,/E3-*%
X1700000Y5700000D03*
D15*
%TO.P,J1,28,Pin_28*%
%TO.N,/E3+*%
X1700000Y5900000D03*
D16*
%TO.P,J1,29,Pin_29*%
%TO.N,/E2-*%
X1700000Y6100000D03*
D15*
%TO.P,J1,30,Pin_30*%
%TO.N,/E2+*%
X1700000Y6300000D03*
D16*
%TO.P,J1,31,Pin_31*%
%TO.N,/E1-*%
X1700000Y6500000D03*
D15*
%TO.P,J1,32,Pin_32*%
%TO.N,/E1+*%
X1700000Y6700000D03*
D16*
%TO.P,J1,33,Pin_33*%
%TO.N,/E0-*%
X1700000Y6900000D03*
D15*
%TO.P,J1,34,Pin_34*%
%TO.N,/E0+*%
X1700000Y7100000D03*
D16*
%TO.P,J1,35,Pin_35*%
%TO.N,/REF*%
X1700000Y7300000D03*
D15*
%TO.P,J1,36,Pin_36*%
%TO.N,GND*%
X1700000Y7500000D03*
D16*
%TO.P,J1,37,Pin_37*%
%TO.N,/NTC_{A}*%
X1700000Y7700000D03*
D15*
%TO.P,J1,38,Pin_38*%
%TO.N,GND*%
X1700000Y7900000D03*
D17*
%TO.P,J1,39,Pin_39*%
%TO.N,/NTC_{B}*%
X1725000Y8125000D03*
%TD*%
D18*
%TO.N,GND*%
X14077778Y506936D03*
X4000000Y8000000D03*
X4800000Y7600000D03*
X41000000Y8000000D03*
X19166667Y506936D03*
X29344444Y506936D03*
X39522222Y506936D03*
X21080000Y8240000D03*
X3900000Y506936D03*
X5850000Y8210000D03*
X8988889Y506936D03*
X34433333Y506936D03*
X24255556Y506936D03*
X39180000Y8230000D03*
X40200000Y7600000D03*
%TD*%
D19*
%TO.N,/E5-*%
X43300000Y4900000D02*
X1700000Y4900000D01*
%TO.N,/E8+*%
X43300000Y3900000D02*
X1700000Y3900000D01*
%TO.N,/E6+*%
X43300000Y4700000D02*
X1700000Y4700000D01*
%TO.N,/E10+*%
X43300000Y3100000D02*
X1700000Y3100000D01*
%TO.N,/E12+*%
X43300000Y2300000D02*
X1700000Y2300000D01*
%TO.N,/E9-*%
X43300000Y3300000D02*
X1700000Y3300000D01*
X1705270Y3289460D02*
X1715810Y3300000D01*
%TO.N,/E13+*%
X43300000Y1900000D02*
X1700000Y1900000D01*
%TO.N,/REF*%
X1700000Y7300000D02*
X1800000Y7300000D01*
X43300000Y7300000D02*
X1700000Y7300000D01*
%TO.N,/E6-*%
X43300000Y4500000D02*
X1700000Y4500000D01*
%TO.N,/E8-*%
X43300000Y3700000D02*
X1700000Y3700000D01*
%TO.N,/E3-*%
X43300000Y5700000D02*
X1700000Y5700000D01*
%TO.N,/E5+*%
X43300000Y5100000D02*
X1700000Y5100000D01*
%TO.N,/E2-*%
X43300000Y6100000D02*
X1700000Y6100000D01*
%TO.N,/E11+*%
X43300000Y2700000D02*
X1700000Y2700000D01*
%TO.N,/E1-*%
X43300000Y6500000D02*
X1700000Y6500000D01*
%TO.N,/E7-*%
X43300000Y4100000D02*
X1700000Y4100000D01*
%TO.N,/E14-*%
X43300000Y1300000D02*
X1700000Y1300000D01*
%TO.N,/E1+*%
X43300000Y6700000D02*
X1700000Y6700000D01*
%TO.N,/E2+*%
X43300000Y6300000D02*
X1700000Y6300000D01*
%TO.N,/E15-*%
X43300000Y900000D02*
X1700000Y900000D01*
%TO.N,/E12-*%
X43300000Y2100000D02*
X1700000Y2100000D01*
%TO.N,/E9+*%
X43300000Y3500000D02*
X1700000Y3500000D01*
%TO.N,/E13-*%
X43300000Y1700000D02*
X1700000Y1700000D01*
%TO.N,/NTC_{B}*%
X41425000Y8125000D02*
X43275000Y8125000D01*
X5150000Y8300000D02*
X5550000Y7900000D01*
X1725000Y8125000D02*
X3575000Y8125000D01*
X3575000Y8125000D02*
X3750000Y8300000D01*
X39430000Y7900000D02*
X39830000Y8300000D01*
X3750000Y8300000D02*
X5150000Y8300000D01*
X41250000Y8300000D02*
X41425000Y8125000D01*
X39830000Y8300000D02*
X41250000Y8300000D01*
X5550000Y7900000D02*
X39430000Y7900000D01*
%TO.N,/E11-*%
X43300000Y2500000D02*
X1700000Y2500000D01*
%TO.N,/E14+*%
X43300000Y1500000D02*
X1700000Y1500000D01*
%TO.N,/E0-*%
X43300000Y6900000D02*
X1700000Y6900000D01*
%TO.N,/E10-*%
X43300000Y2900000D02*
X1700000Y2900000D01*
%TO.N,/E7+*%
X43300000Y4300000D02*
X1700000Y4300000D01*
%TO.N,/NTC_{A}*%
X40400000Y7900000D02*
X39950000Y7900000D01*
X5050000Y7900000D02*
X5250000Y7700000D01*
X4400000Y7700000D02*
X4600000Y7900000D01*
X39950000Y7900000D02*
X39750000Y7700000D01*
X1700000Y7700000D02*
X4400000Y7700000D01*
X39750000Y7700000D02*
X5250000Y7700000D01*
X40600000Y7700000D02*
X40400000Y7900000D01*
X4600000Y7900000D02*
X5050000Y7900000D01*
X43300000Y7700000D02*
X40600000Y7700000D01*
%TO.N,/E4-*%
X1700000Y5300000D02*
X1710540Y5310540D01*
X43294730Y5310540D02*
X1700000Y5310540D01*
%TO.N,/E15+*%
X43300000Y1100000D02*
X1700000Y1100000D01*
%TO.N,/E3+*%
X43300000Y5900000D02*
X1700000Y5900000D01*
%TO.N,/E0+*%
X43300000Y7100000D02*
X1700000Y7100000D01*
%TO.N,/E4+*%
X43300000Y5500000D02*
X1700000Y5500000D01*
%TD*%
%TA.AperFunction,Conductor*%
%TO.N,GND*%
G36*
X1318671Y772263D02*
G01*
X1340000Y764500D01*
X1340001Y764500D01*
X1799995Y764500D01*
X1800000Y764500D01*
X1814847Y765799D01*
X1814849Y765801D01*
X1818722Y767021D01*
X1818973Y766225D01*
X1831199Y769500D01*
X43179722Y769500D01*
X43192410Y767263D01*
X43200000Y764500D01*
X43200001Y764500D01*
X43659997Y764500D01*
X43660000Y764500D01*
X43667452Y764825D01*
X43680746Y771025D01*
X43696424Y774500D01*
X44254217Y774500D01*
X44272173Y769865D01*
X44276751Y767333D01*
X44289542Y754542D01*
X44295042Y749503D01*
X44335826Y734659D01*
X44338368Y733253D01*
X44345543Y724249D01*
X44354036Y716467D01*
X44354168Y713427D01*
X44356065Y711047D01*
X44354772Y699607D01*
X44355275Y688099D01*
X44353218Y685855D01*
X44352877Y682832D01*
X44343872Y675657D01*
X44336091Y667164D01*
X44289541Y645458D01*
X44265450Y621366D01*
X44239216Y610500D01*
X43733569Y610500D01*
X43718555Y614699D01*
X43718391Y614247D01*
X43714958Y615497D01*
X43660000Y635500D01*
X43200000Y635500D01*
X43195192Y635080D01*
X43185154Y634202D01*
X43134503Y604959D01*
X43114500Y550001D01*
X43114500Y437600D01*
X43103634Y411366D01*
X43077400Y400500D01*
X42205094Y400500D01*
X42190270Y402006D01*
X42185250Y400500D01*
X42180009Y400500D01*
X42180008Y400500D01*
X42180003Y400499D01*
X42167969Y395515D01*
X42164436Y394257D01*
X41190468Y102065D01*
X41179807Y100500D01*
X3820194Y100500D01*
X3809533Y102065D01*
X3484750Y199500D01*
X2835555Y394259D01*
X2835555Y394260D01*
X2833746Y394803D01*
X2819991Y400500D01*
X2814752Y400500D01*
X2809731Y402006D01*
X2796777Y400690D01*
X2793028Y400500D01*
X1922600Y400500D01*
X1896366Y411366D01*
X1885500Y437600D01*
X1885500Y549996D01*
X1884201Y564846D01*
X1884201Y564847D01*
X1854958Y615497D01*
X1800000Y635500D01*
X1340000Y635500D01*
X1339105Y635462D01*
X1332549Y635176D01*
X1287086Y613976D01*
X1271407Y610500D01*
X760784Y610500D01*
X734551Y621366D01*
X710459Y645457D01*
X704959Y650496D01*
X704958Y650497D01*
X704956Y650498D01*
X704954Y650499D01*
X666897Y664351D01*
X645963Y683534D01*
X644725Y711903D01*
X663905Y732835D01*
X710458Y754542D01*
X719550Y763634D01*
X745784Y774500D01*
X1305982Y774500D01*
X1318671Y772263D01*
G37*
%TD.AperFunction*%
%TA.AperFunction,Conductor*%
G36*
X5006811Y7758634D02*
G01*
X5139366Y7626079D01*
X5139366Y7626078D01*
X5176074Y7589369D01*
X5176076Y7589368D01*
X5176077Y7589367D01*
X5187818Y7584504D01*
X5187819Y7584503D01*
X5187820Y7584503D01*
X5224042Y7569499D01*
X5224043Y7569499D01*
X5280274Y7569499D01*
X5280282Y7569500D01*
X39719718Y7569500D01*
X39719726Y7569499D01*
X39724042Y7569499D01*
X39775957Y7569499D01*
X39775958Y7569499D01*
X39812180Y7584503D01*
X39823923Y7589367D01*
X39860633Y7626077D01*
X39860633Y7626078D01*
X39865848Y7631293D01*
X39865849Y7631296D01*
X39865852Y7631298D01*
X39993190Y7758634D01*
X40019423Y7769500D01*
X40330577Y7769500D01*
X40356811Y7758634D01*
X40489366Y7626079D01*
X40489366Y7626078D01*
X40526074Y7589369D01*
X40526076Y7589368D01*
X40526077Y7589367D01*
X40537818Y7584504D01*
X40537819Y7584503D01*
X40537820Y7584503D01*
X40574042Y7569499D01*
X40574043Y7569499D01*
X40630274Y7569499D01*
X40630282Y7569500D01*
X43179722Y7569500D01*
X43182722Y7568258D01*
X43185888Y7568984D01*
X43192408Y7567264D01*
X43200000Y7564500D01*
X43200001Y7564500D01*
X43659997Y7564500D01*
X43660000Y7564500D01*
X43667452Y7564825D01*
X43680745Y7571025D01*
X43688490Y7571363D01*
X43696424Y7574500D01*
X44254217Y7574500D01*
X44280449Y7563635D01*
X44289542Y7554542D01*
X44295042Y7549503D01*
X44333101Y7535651D01*
X44354036Y7516467D01*
X44355275Y7488099D01*
X44336091Y7467164D01*
X44289541Y7445458D01*
X44280450Y7436366D01*
X44254216Y7425500D01*
X43694018Y7425500D01*
X43693170Y7425650D01*
X43692825Y7425519D01*
X43692132Y7425833D01*
X43681329Y7427737D01*
X43660000Y7435500D01*
X43200000Y7435500D01*
X43195192Y7435080D01*
X43185154Y7434202D01*
X43181278Y7432979D01*
X43181026Y7433776D01*
X43168801Y7430500D01*
X1820278Y7430500D01*
X1807589Y7432738D01*
X1803272Y7434309D01*
X1800001Y7435500D01*
X1800000Y7435500D01*
X1340000Y7435500D01*
X1339105Y7435462D01*
X1332549Y7435176D01*
X1324438Y7431394D01*
X1319254Y7428976D01*
X1311509Y7428638D01*
X1303576Y7425500D01*
X745783Y7425500D01*
X719550Y7436366D01*
X710458Y7445458D01*
X704958Y7450497D01*
X704956Y7450498D01*
X704954Y7450499D01*
X666897Y7464351D01*
X645963Y7483534D01*
X644725Y7511903D01*
X663905Y7532835D01*
X710458Y7554542D01*
X719550Y7563634D01*
X745784Y7574500D01*
X1305982Y7574500D01*
X1306829Y7574351D01*
X1307175Y7574481D01*
X1307867Y7574168D01*
X1318671Y7572263D01*
X1340000Y7564500D01*
X1340001Y7564500D01*
X1799995Y7564500D01*
X1800000Y7564500D01*
X1814847Y7565799D01*
X1814849Y7565801D01*
X1818722Y7567021D01*
X1818973Y7566225D01*
X1831199Y7569500D01*
X4369718Y7569500D01*
X4369726Y7569499D01*
X4374042Y7569499D01*
X4425957Y7569499D01*
X4425958Y7569499D01*
X4462180Y7584503D01*
X4473923Y7589367D01*
X4510633Y7626077D01*
X4510633Y7626078D01*
X4515848Y7631293D01*
X4515849Y7631296D01*
X4515852Y7631298D01*
X4643190Y7758634D01*
X4669423Y7769500D01*
X4980577Y7769500D01*
X5006811Y7758634D01*
G37*
%TD.AperFunction*%
%TA.AperFunction,Conductor*%
G36*
X5106811Y8158634D02*
G01*
X5371611Y7893834D01*
X5382477Y7867600D01*
X5371611Y7841366D01*
X5345377Y7830500D01*
X5319423Y7830500D01*
X5293189Y7841366D01*
X5160633Y7973922D01*
X5160633Y7973923D01*
X5123923Y8010633D01*
X5123919Y8010635D01*
X5109872Y8016454D01*
X5109872Y8016455D01*
X5075959Y8030501D01*
X5075958Y8030501D01*
X5024042Y8030501D01*
X5019726Y8030501D01*
X5019718Y8030500D01*
X4630282Y8030500D01*
X4630274Y8030501D01*
X4625958Y8030501D01*
X4574042Y8030501D01*
X4574040Y8030501D01*
X4574038Y8030500D01*
X4540126Y8016455D01*
X4540127Y8016454D01*
X4526080Y8010635D01*
X4526074Y8010631D01*
X4489366Y7973924D01*
X4489367Y7973923D01*
X4489366Y7973922D01*
X4356811Y7841366D01*
X4330577Y7830500D01*
X1820278Y7830500D01*
X1807589Y7832738D01*
X1803272Y7834309D01*
X1800001Y7835500D01*
X1800000Y7835500D01*
X1340000Y7835500D01*
X1339105Y7835462D01*
X1332549Y7835176D01*
X1324438Y7831394D01*
X1319253Y7828976D01*
X1303576Y7825500D01*
X745783Y7825500D01*
X727827Y7830135D01*
X723248Y7832668D01*
X710458Y7845458D01*
X704958Y7850497D01*
X664175Y7865341D01*
X661631Y7866748D01*
X654455Y7875753D01*
X645963Y7883534D01*
X645830Y7886575D01*
X643934Y7888954D01*
X645227Y7900399D01*
X644725Y7911903D01*
X646780Y7914147D01*
X647122Y7917169D01*
X656126Y7924345D01*
X663905Y7932835D01*
X710458Y7954542D01*
X734550Y7978634D01*
X760784Y7989500D01*
X1266431Y7989500D01*
X1281444Y7985302D01*
X1281609Y7985753D01*
X1285041Y7984504D01*
X1285042Y7984503D01*
X1340000Y7964500D01*
X1340001Y7964500D01*
X1799995Y7964500D01*
X1800000Y7964500D01*
X1814847Y7965799D01*
X1855948Y7989530D01*
X1874498Y7994500D01*
X3544718Y7994500D01*
X3544726Y7994499D01*
X3549042Y7994499D01*
X3600957Y7994499D01*
X3600958Y7994499D01*
X3639908Y8010633D01*
X3648923Y8014367D01*
X3685633Y8051077D01*
X3685633Y8051078D01*
X3690848Y8056293D01*
X3690849Y8056296D01*
X3690852Y8056298D01*
X3793190Y8158634D01*
X3819423Y8169500D01*
X5080577Y8169500D01*
X5106811Y8158634D01*
G37*
%TD.AperFunction*%
%TA.AperFunction,Conductor*%
G36*
X41206811Y8158634D02*
G01*
X41314366Y8051079D01*
X41314366Y8051078D01*
X41351074Y8014369D01*
X41351079Y8014366D01*
X41375058Y8004434D01*
X41375063Y8004433D01*
X41399042Y7994499D01*
X41455274Y7994499D01*
X41455282Y7994500D01*
X43119625Y7994500D01*
X43143472Y7985820D01*
X43145039Y7984505D01*
X43145041Y7984505D01*
X43145042Y7984503D01*
X43200000Y7964500D01*
X43200001Y7964500D01*
X43659997Y7964500D01*
X43660000Y7964500D01*
X43667452Y7964825D01*
X43709656Y7984505D01*
X43712914Y7986024D01*
X43728593Y7989500D01*
X44239216Y7989500D01*
X44265449Y7978634D01*
X44278285Y7965799D01*
X44289542Y7954542D01*
X44295042Y7949503D01*
X44333101Y7935651D01*
X44354036Y7916467D01*
X44355275Y7888099D01*
X44336091Y7867164D01*
X44289541Y7845458D01*
X44280450Y7836366D01*
X44254216Y7825500D01*
X43694018Y7825500D01*
X43681329Y7827737D01*
X43660000Y7835500D01*
X43200000Y7835500D01*
X43195192Y7835080D01*
X43185154Y7834202D01*
X43181278Y7832979D01*
X43181026Y7833776D01*
X43168801Y7830500D01*
X40669423Y7830500D01*
X40643189Y7841366D01*
X40510633Y7973922D01*
X40510633Y7973923D01*
X40473923Y8010633D01*
X40473919Y8010635D01*
X40459872Y8016454D01*
X40459872Y8016455D01*
X40425959Y8030501D01*
X40425958Y8030501D01*
X40374042Y8030501D01*
X40369726Y8030501D01*
X40369718Y8030500D01*
X39980282Y8030500D01*
X39980274Y8030501D01*
X39975958Y8030501D01*
X39924042Y8030501D01*
X39924040Y8030501D01*
X39924038Y8030500D01*
X39890126Y8016455D01*
X39890127Y8016454D01*
X39876080Y8010635D01*
X39876074Y8010631D01*
X39839366Y7973924D01*
X39839367Y7973923D01*
X39839366Y7973922D01*
X39706811Y7841366D01*
X39680577Y7830500D01*
X39634623Y7830500D01*
X39608389Y7841366D01*
X39597523Y7867600D01*
X39608389Y7893834D01*
X39873189Y8158634D01*
X39899423Y8169500D01*
X41180577Y8169500D01*
X41206811Y8158634D01*
G37*
%TD.AperFunction*%
%TA.AperFunction,Conductor*%
G36*
X39810343Y8488634D02*
G01*
X39821209Y8462400D01*
X39810343Y8436166D01*
X39798306Y8428124D01*
X39756078Y8410634D01*
X39756077Y8410634D01*
X39719366Y8373922D01*
X39386811Y8041366D01*
X39360577Y8030500D01*
X5619423Y8030500D01*
X5593189Y8041366D01*
X5260633Y8373922D01*
X5260633Y8373923D01*
X5223923Y8410633D01*
X5209874Y8416453D01*
X5209872Y8416454D01*
X5209872Y8416455D01*
X5181697Y8428124D01*
X5161618Y8448201D01*
X5161617Y8476596D01*
X5181694Y8496675D01*
X5195893Y8499500D01*
X39784109Y8499500D01*
X39810343Y8488634D01*
G37*
%TD.AperFunction*%
%TD*%
M02*
